<?xml version="1.0" encoding="UTF-8" standalone="no"?>
<!DOCTYPE svg PUBLIC "-//W3C//DTD SVG 1.1//EN" "http://www.w3.org/Graphics/SVG/1.1/DTD/svg11.dtd">
<svg width="100%" height="100%" viewBox="0 0 64 64" version="1.1" xmlns="http://www.w3.org/2000/svg" xmlns:xlink="http://www.w3.org/1999/xlink" xml:space="preserve" xmlns:serif="http://www.serif.com/" style="fill-rule:evenodd;clip-rule:evenodd;stroke-miterlimit:5;">
    <g transform="matrix(1.52381,0,0,1.52381,4.38928,7.29166)">
        <g transform="matrix(0.896775,0,0,0.896775,-86.2014,-10.4896)">
            <circle cx="116.329" cy="29.778" r="23.417" style="fill:rgb(239,239,240);"/>
        </g>
        <g transform="matrix(1.59622,0,0,1.59622,-468.388,-666.465)">
            <path d="M295.141,423.171L295.126,423.155C295.126,423.139 295.128,423.12 295.131,423.099C295.137,422.992 295.156,422.884 295.198,422.779C295.2,422.775 295.202,422.77 295.204,422.766C295.214,422.741 295.233,422.71 295.251,422.682L295.275,422.644L295.256,422.672L295.316,422.579C295.379,422.489 295.452,422.415 295.535,422.352C295.557,422.331 295.58,422.311 295.6,422.298C295.612,422.29 295.624,422.283 295.636,422.276L304.285,417.333C304.597,417.155 304.978,417.155 305.289,417.333L313.939,422.276L313.925,422.269L313.931,422.272L314.015,422.334C314.105,422.398 314.182,422.474 314.249,422.566C314.28,422.61 314.307,422.65 314.332,422.697C314.347,422.723 314.362,422.75 314.371,422.771C314.371,422.771 314.372,422.772 314.372,422.773C314.409,422.863 314.426,422.953 314.435,423.045C314.442,423.083 314.449,423.122 314.449,423.152L314.449,432.217C314.449,432.257 314.438,432.315 314.427,432.364C314.411,432.474 314.387,432.583 314.334,432.685C314.324,432.703 314.314,432.721 314.303,432.738L314.295,432.748L314.294,432.75L314.223,432.835L314.295,432.748L314.308,432.726L314.191,432.87L313.993,433.058C313.978,433.07 313.963,433.081 313.949,433.089L305.289,438.038C305.134,438.127 304.961,438.171 304.787,438.171C304.615,438.171 304.444,438.128 304.287,438.04L295.635,433.095L295.664,433.111L295.656,433.106L295.376,432.862L295.287,432.756C295.269,432.733 295.253,432.71 295.243,432.69C295.195,432.601 295.166,432.507 295.149,432.411C295.135,432.351 295.127,432.288 295.126,432.223L295.126,423.162L295.14,423.176L295.141,423.171L295.126,423.156L295.141,423.171ZM300.712,433.665L303.775,433.954L303.775,435.416L300.712,433.665ZM305.799,435.416L305.799,433.961L308.854,433.67L305.799,435.416ZM309.323,426.896L311.802,431.358L306.594,431.859L309.323,426.896ZM300.252,426.894L302.979,431.852L297.773,431.356L300.252,426.894ZM304.787,430.94L301.968,425.815L307.606,425.815L304.787,430.94ZM312.425,428.312L310.76,425.315L312.425,424.649L312.425,428.312ZM297.15,424.65L298.813,425.315L297.15,428.31L297.15,424.65ZM304.787,419.998L307.395,423.791L302.18,423.791L304.787,419.998ZM308.128,421.287L311.115,422.994L309.692,423.563L308.128,421.287ZM301.444,421.288L299.881,423.563L298.459,422.994L301.444,421.288ZM314.029,422.346L314.128,422.441C314.128,422.441 314.076,422.385 314.029,422.346Z" style="fill:rgb(44,62,80);stroke:rgb(239,239,240);stroke-width:0.66px;"/>
        </g>
    </g>
</svg>
