<?xml version="1.0" encoding="UTF-8" standalone="no"?>
<!DOCTYPE svg PUBLIC "-//W3C//DTD SVG 1.1//EN" "http://www.w3.org/Graphics/SVG/1.1/DTD/svg11.dtd">
<svg width="100%" height="100%" viewBox="0 0 245 60" version="1.1" xmlns="http://www.w3.org/2000/svg" xmlns:xlink="http://www.w3.org/1999/xlink" xml:space="preserve" xmlns:serif="http://www.serif.com/" style="fill-rule:evenodd;clip-rule:evenodd;stroke-linejoin:round;stroke-miterlimit:2;">
    <g transform="matrix(1,0,0,1,-13.8299,7.14182)">
        <g transform="matrix(2.55981,0,0,2.55981,-910.399,-615.061)">
            <path d="M371.274,256.589C369.726,256.589 368.37,256.313 367.206,255.761L368.178,253.493C369.186,253.973 370.2,254.213 371.22,254.213C372.6,254.213 373.29,253.661 373.29,252.557L373.29,252.017C372.546,252.521 371.724,252.773 370.824,252.773C369.924,252.773 369.108,252.557 368.376,252.125C367.644,251.693 367.062,251.108 366.63,250.37C366.198,249.632 365.982,248.813 365.982,247.913C365.982,247.013 366.201,246.197 366.639,245.465C367.077,244.733 367.671,244.154 368.421,243.728C369.171,243.302 370.008,243.089 370.932,243.089C371.82,243.089 372.618,243.299 373.326,243.719L373.326,243.215L376.206,243.215L376.206,252.593C376.206,253.877 375.783,254.864 374.937,255.554C374.091,256.244 372.87,256.589 371.274,256.589ZM371.328,250.325C372.132,250.325 372.786,250.091 373.29,249.623L373.29,246.257C373.038,246.041 372.747,245.87 372.417,245.744C372.087,245.618 371.73,245.555 371.346,245.555C370.878,245.555 370.455,245.66 370.077,245.87C369.699,246.08 369.399,246.362 369.177,246.716C368.955,247.07 368.844,247.469 368.844,247.913C368.844,248.369 368.952,248.78 369.168,249.146C369.384,249.512 369.681,249.8 370.059,250.01C370.437,250.22 370.86,250.325 371.328,250.325Z" style="fill:rgb(44,62,80);fill-rule:nonzero;"/>
        </g>
        <g transform="matrix(2.55981,0,0,2.55981,-910.399,-615.061)">
            <path d="M382.758,252.917C381.786,252.917 380.907,252.698 380.121,252.26C379.335,251.822 378.714,251.231 378.258,250.487C377.802,249.743 377.574,248.909 377.574,247.985C377.574,247.061 377.793,246.227 378.231,245.483C378.669,244.739 379.266,244.148 380.022,243.71C380.778,243.272 381.618,243.053 382.542,243.053C383.478,243.053 384.306,243.278 385.026,243.728C385.746,244.178 386.313,244.793 386.727,245.573C387.141,246.353 387.348,247.247 387.348,248.255L387.348,248.975L380.562,248.975C380.754,249.419 381.054,249.782 381.462,250.064C381.87,250.346 382.35,250.487 382.902,250.487C383.718,250.487 384.354,250.247 384.81,249.767L386.736,251.477C386.136,251.981 385.521,252.347 384.891,252.575C384.261,252.803 383.55,252.917 382.758,252.917ZM380.508,246.941L384.486,246.941C384.33,246.485 384.075,246.119 383.721,245.843C383.367,245.567 382.956,245.429 382.488,245.429C382.008,245.429 381.594,245.561 381.246,245.825C380.898,246.089 380.652,246.461 380.508,246.941Z" style="fill:rgb(44,62,80);fill-rule:nonzero;"/>
        </g>
        <g transform="matrix(2.55981,0,0,2.55981,-910.399,-615.061)">
            <path d="M388.86,252.737L388.86,240.137L391.776,240.137L397.5,247.445L397.5,240.137L400.416,240.137L400.416,252.737L397.68,252.737L391.776,245.141L391.776,252.737L388.86,252.737Z" style="fill:rgb(44,62,80);fill-rule:nonzero;"/>
        </g>
        <g transform="matrix(2.55981,0,0,2.55981,-910.399,-615.061)">
            <path d="M414.96,252.737L414.96,243.215L417.876,243.215L417.876,243.827C418.548,243.299 419.34,243.035 420.252,243.035C420.852,243.035 421.392,243.149 421.872,243.377C422.352,243.605 422.754,243.929 423.078,244.349C423.882,243.473 424.914,243.035 426.174,243.035C426.894,243.035 427.53,243.197 428.082,243.521C428.634,243.845 429.069,244.295 429.387,244.871C429.705,245.447 429.864,246.113 429.864,246.869L429.864,252.737L426.948,252.737L426.948,247.265C426.948,246.737 426.807,246.317 426.525,246.005C426.243,245.693 425.868,245.537 425.4,245.537C424.74,245.537 424.218,245.777 423.834,246.257C423.846,246.353 423.855,246.452 423.861,246.554C423.867,246.656 423.87,246.761 423.87,246.869L423.87,252.737L420.954,252.737L420.954,247.265C420.954,246.737 420.813,246.317 420.531,246.005C420.249,245.693 419.874,245.537 419.406,245.537C418.746,245.537 418.236,245.765 417.876,246.221L417.876,252.737L414.96,252.737Z" style="fill:rgb(44,62,80);fill-rule:nonzero;"/>
        </g>
        <g transform="matrix(2.55981,0,0,2.55981,-910.399,-615.061)">
            <path d="M434.634,252.899C433.962,252.899 433.365,252.773 432.843,252.521C432.321,252.269 431.913,251.921 431.619,251.477C431.325,251.033 431.178,250.523 431.178,249.947C431.178,249.035 431.523,248.33 432.213,247.832C432.903,247.334 433.866,247.085 435.102,247.085C435.846,247.085 436.566,247.175 437.262,247.355L437.262,246.887C437.262,245.939 436.656,245.465 435.444,245.465C434.724,245.465 433.764,245.717 432.564,246.221L431.52,244.079C433.056,243.383 434.538,243.035 435.966,243.035C437.286,243.035 438.312,243.35 439.044,243.98C439.776,244.61 440.142,245.495 440.142,246.635L440.142,252.737L437.262,252.737L437.262,252.161C436.878,252.425 436.473,252.614 436.047,252.728C435.621,252.842 435.15,252.899 434.634,252.899ZM433.95,249.893C433.95,250.193 434.082,250.427 434.346,250.595C434.61,250.763 434.976,250.847 435.444,250.847C436.164,250.847 436.77,250.697 437.262,250.397L437.262,249.173C436.71,249.029 436.134,248.957 435.534,248.957C435.03,248.957 434.64,249.038 434.364,249.2C434.088,249.362 433.95,249.593 433.95,249.893Z" style="fill:rgb(44,62,80);fill-rule:nonzero;"/>
        </g>
        <g transform="matrix(2.55981,0,0,2.55981,-910.399,-615.061)">
            <path d="M446.298,252.863C445.398,252.863 444.579,252.644 443.841,252.206C443.103,251.768 442.518,251.18 442.086,250.442C441.654,249.704 441.438,248.879 441.438,247.967C441.438,247.055 441.657,246.23 442.095,245.492C442.533,244.754 443.127,244.169 443.877,243.737C444.627,243.305 445.464,243.089 446.388,243.089C447.276,243.089 448.086,243.299 448.818,243.719L448.818,240.137L451.734,239.687L451.734,252.737L448.854,252.737L448.854,252.035C448.098,252.587 447.246,252.863 446.298,252.863ZM446.802,250.379C447.63,250.379 448.302,250.127 448.818,249.623L448.818,246.293C448.29,245.801 447.618,245.555 446.802,245.555C446.334,245.555 445.911,245.66 445.533,245.87C445.155,246.08 444.855,246.368 444.633,246.734C444.411,247.1 444.3,247.511 444.3,247.967C444.3,248.423 444.411,248.834 444.633,249.2C444.855,249.566 445.155,249.854 445.533,250.064C445.911,250.274 446.334,250.379 446.802,250.379Z" style="fill:rgb(44,62,80);fill-rule:nonzero;"/>
        </g>
        <g transform="matrix(1.54996,0,0,1.54996,-338.959,-644.822)">
            <path d="M295.141,423.171L295.126,423.155C295.126,423.139 295.128,423.12 295.131,423.099C295.137,422.992 295.156,422.884 295.198,422.779C295.2,422.775 295.202,422.77 295.204,422.766C295.214,422.741 295.233,422.71 295.251,422.682L295.275,422.644L295.256,422.672L295.316,422.579C295.379,422.489 295.452,422.415 295.535,422.352C295.557,422.331 295.58,422.311 295.6,422.298C295.612,422.29 295.624,422.283 295.636,422.276L304.285,417.333C304.597,417.155 304.978,417.155 305.289,417.333L313.939,422.276L313.925,422.269L313.931,422.272L314.015,422.334C314.105,422.398 314.182,422.474 314.249,422.566C314.28,422.61 314.307,422.65 314.332,422.697C314.347,422.723 314.362,422.75 314.371,422.771C314.371,422.771 314.372,422.772 314.372,422.773C314.409,422.863 314.426,422.953 314.435,423.045C314.442,423.083 314.449,423.122 314.449,423.152L314.449,432.217C314.449,432.257 314.438,432.315 314.427,432.364C314.411,432.474 314.387,432.583 314.334,432.685C314.324,432.703 314.314,432.721 314.303,432.738L314.295,432.748L314.294,432.75L314.223,432.835L314.295,432.748L314.308,432.726L314.191,432.87L313.993,433.058C313.978,433.07 313.963,433.081 313.949,433.089L305.289,438.038C305.134,438.127 304.961,438.171 304.787,438.171C304.615,438.171 304.444,438.128 304.287,438.04L295.635,433.095L295.664,433.111L295.656,433.106L295.376,432.862L295.287,432.756C295.269,432.733 295.253,432.71 295.243,432.69C295.195,432.601 295.166,432.507 295.149,432.411C295.135,432.351 295.127,432.288 295.126,432.223L295.126,423.369L295.126,423.162L295.14,423.176L295.141,423.171L295.126,423.156L295.141,423.171L295.141,423.171ZM300.712,433.665C300.712,433.665 303.775,433.954 303.775,433.954L303.775,435.416L300.712,433.665ZM305.799,435.416L305.799,433.961C305.799,433.961 308.854,433.67 308.854,433.67L305.799,435.416ZM309.323,426.896C309.323,426.896 311.802,431.358 311.802,431.358L306.594,431.859L309.323,426.896ZM300.252,426.894L302.979,431.852C302.979,431.852 297.773,431.356 297.773,431.356L300.252,426.894ZM304.787,430.94L301.968,425.815C301.968,425.815 307.606,425.815 307.606,425.815L304.787,430.94ZM312.425,428.312L310.76,425.315C310.76,425.315 312.425,424.649 312.425,424.649L312.425,428.312ZM297.15,424.65L298.813,425.315L297.15,428.31L297.15,424.65ZM304.787,419.998L307.395,423.791C307.395,423.791 302.18,423.791 302.18,423.791L304.787,419.998ZM308.128,421.287L311.115,422.994L309.692,423.563C309.692,423.563 308.128,421.287 308.128,421.287ZM301.444,421.288L299.881,423.563C299.881,423.563 298.459,422.994 298.459,422.994L301.444,421.288ZM314.029,422.346L314.128,422.441C314.128,422.441 314.076,422.385 314.029,422.346Z" style="fill:rgb(44,62,80);"/>
        </g>
    </g>
</svg>
