<svg xmlns="http://www.w3.org/2000/svg" xmlns:xlink="http://www.w3.org/1999/xlink" width="100%" height="100%" viewBox="0 0 540 110" fill-rule="evenodd" stroke-linecap="round" stroke-miterlimit="10" xmlns:v="https://vecta.io/nano"><style><![CDATA[.B{stroke-width:.902}.C{fill:#f2f2f2}.D{fill:#a7bcec}.E{stroke-miterlimit:1.5}.F{fill-rule:nonzero}]]></style><g fill="none" stroke="#000"><path d="M348.528 39.864l4.5 4.5-4.5 4.5"/><path d="M193.736 44.364h159.292" class="E"/></g><g class="F"><path d="M26.707 45.645a9.14 9.14 0 0 0 2.74-.435v-4.742h-3.393v1.349h2.001v2.392a5.76 5.76 0 0 1-1.189.131c-2.088 0-3.146-1.32-3.146-3.959 0-2.407 1.102-3.77 3.016-3.77.74 0 1.436.363 1.87 1.001l1.059-1.044c-.508-.797-1.61-1.261-3.016-1.261-2.813 0-4.452 1.885-4.452 5.148 0 3.465 1.508 5.191 4.51 5.191zm4.566-.145h1.494l.653-2.45h3.567l.653 2.45h1.493l-2.9-10.048h-2.059l-2.9 10.048zm2.509-3.799l1.363-5.032h.116l1.363 5.032h-2.842zm11.367 3.944a9.14 9.14 0 0 0 2.74-.435v-4.742h-3.393v1.349h2.001v2.392a5.76 5.76 0 0 1-1.189.131c-2.088 0-3.147-1.32-3.147-3.959 0-2.407 1.102-3.77 3.016-3.77.739 0 1.436.363 1.87 1.001l1.059-1.044c-.508-.797-1.609-1.261-3.016-1.261-2.813 0-4.452 1.885-4.452 5.148 0 3.465 1.508 5.191 4.51 5.191z"/><use xlink:href="#B"/><use xlink:href="#B" x="9.221"/><use xlink:href="#B" x="18.443"/><use xlink:href="#B" x="27.664"/><path d="M86.6 45.5h1.493l.653-2.45h3.567l.653 2.45h1.493l-2.9-10.048H89.5L86.6 45.5zm2.508-3.799l1.363-5.032h.116l1.363 5.032h-2.842z"/><use xlink:href="#B" x="46.106"/><path d="M110.016 45.645a7.22 7.22 0 0 0 2.596-.479l-.334-1.247a5.12 5.12 0 0 1-2.016.421c-2.262 0-3.422-1.32-3.422-3.959 0-2.407 1.203-3.77 3.016-3.77.769 0 1.465.363 1.885 1.001l1.044-1.044c-.478-.797-1.551-1.261-2.929-1.261-2.885 0-4.524 1.885-4.524 5.148 0 3.465 1.566 5.191 4.684 5.191zm8.902 0a9.14 9.14 0 0 0 2.74-.435v-4.742h-3.393v1.349h2.001v2.392a5.77 5.77 0 0 1-1.189.131c-2.088 0-3.146-1.32-3.146-3.959 0-2.407 1.102-3.77 3.016-3.77.74 0 1.436.363 1.871 1.001l1.058-1.044c-.507-.797-1.609-1.261-3.016-1.261-2.813 0-4.451 1.885-4.451 5.148 0 3.465 1.508 5.191 4.51 5.191zm9.54 0a7.22 7.22 0 0 0 2.596-.479l-.334-1.247c-.653.276-1.319.421-2.016.421-2.262 0-3.422-1.32-3.422-3.959 0-2.407 1.203-3.77 3.016-3.77.768 0 1.464.363 1.885 1.001l1.044-1.044c-.479-.797-1.552-1.261-2.929-1.261-2.886 0-4.524 1.885-4.524 5.148 0 3.465 1.566 5.191 4.683 5.191z"/><use xlink:href="#B" x="82.99"/><use xlink:href="#B" x="92.211"/><use xlink:href="#C"/><use xlink:href="#C" x="9.221"/><path d="M170.707 45.645a1.04 1.04 0 0 0 1.044-1.044c0-.594-.464-1.059-1.044-1.059s-1.058.464-1.058 1.059c0 .58.478 1.044 1.058 1.044zm2.813 0a1.04 1.04 0 0 0 1.044-1.044c0-.594-.464-1.059-1.044-1.059s-1.044.464-1.044 1.059a1.04 1.04 0 0 0 1.044 1.044zm2.813 0c.58 0 1.059-.464 1.059-1.044 0-.594-.478-1.059-1.059-1.059s-1.044.464-1.044 1.059a1.04 1.04 0 0 0 1.044 1.044z"/><g fill="#4c628b"><path d="M50.553 51.587h1.056v8.736h-1.056z"/><use xlink:href="#D"/><path d="M60.617 62.771h.996v-3.456h.084c.228.36.648 1.152 1.908 1.152 1.644 0 2.784-1.32 2.784-3.396 0-2.064-1.14-3.384-2.796-3.384-1.284 0-1.668.792-1.896 1.128h-.12v-1.044h-.96v9zm2.856-3.204c-1.212 0-1.872-1.032-1.872-2.508s.648-2.472 1.872-2.472c1.272 0 1.908 1.08 1.908 2.472s-.648 2.508-1.908 2.508z"/><use xlink:href="#E"/><path d="M77.722 53.771h-1.404v-1.56h-.996v1.56h-.984v.852h.984v4.092c0 1.008.732 1.692 1.788 1.692.276 0 .564-.048.744-.12l-.204-.9a2.16 2.16 0 0 1-.444.048c-.612 0-.888-.312-.888-.984v-3.828h1.404v-.852z"/><use xlink:href="#F"/><path d="M91.642 60.467c1.32 0 2.292-.672 2.592-1.656l-.972-.276c-.252.684-.84 1.032-1.62 1.032-1.188 0-2.004-.768-2.052-2.172h4.752v-.432c0-2.436-1.464-3.276-2.832-3.276-1.776 0-2.928 1.404-2.928 3.408 0 2.016 1.164 3.372 3.06 3.372zm-2.052-3.936c.072-1.032.768-1.944 1.92-1.944 1.104 0 1.716.792 1.812 1.944H89.59z"/><use xlink:href="#G"/><use xlink:href="#E" x="35.239"/><use xlink:href="#H"/><use xlink:href="#D" x="63.504"/><use xlink:href="#I"/><use xlink:href="#H" x="20.731"/><path d="M364.298 90.809c2.232 0 3.852-1.716 3.852-4.476 0-2.772-1.62-4.488-3.852-4.488s-3.852 1.716-3.852 4.488c0 2.76 1.62 4.476 3.852 4.476zm0-.984c-1.584 0-2.832-1.236-2.832-3.492 0-2.28 1.248-3.504 2.832-3.504s2.832 1.224 2.832 3.504c0 2.256-1.248 3.492-2.832 3.492z"/><use xlink:href="#D" x="316.205" y="30.366"/><use xlink:href="#H" x="266.694" y="30.366"/><path d="M383.699 86.477h3.816v.936h-3.816zm6.587.276c0-1.14.732-1.8 1.728-1.8.984 0 1.536.588 1.536 1.644v4.092h.996v-4.164c0-1.68-.912-2.472-2.244-2.472-1.032 0-1.62.432-1.92 1.116h-.096v-3.216h-.996v8.736h.996v-3.936z"/><use xlink:href="#J"/><path d="M406.384 84.137h-1.404v-1.56h-.996v1.56H403v.852h.984v4.092c0 1.008.732 1.692 1.788 1.692.276 0 .564-.048.744-.12l-.204-.9a2.16 2.16 0 0 1-.444.048c-.612 0-.888-.312-.888-.984v-3.828h1.404v-.852z"/><use xlink:href="#H" x="301.159" y="30.366"/><use xlink:href="#D" x="364.663" y="30.366"/><use xlink:href="#I" x="301.158" y="30.366"/><use xlink:href="#J" x="35.625"/><use xlink:href="#K"/><use xlink:href="#H" x="336.35" y="30.366"/><use xlink:href="#K" x="14.262"/><use xlink:href="#F" x="381.491" y="30.366"/><use xlink:href="#H" x="360.256" y="30.366"/><use xlink:href="#G" x="381.49" y="30.366"/><use xlink:href="#E" x="416.729" y="30.366"/><use xlink:href="#H" x="381.491" y="30.366"/><use xlink:href="#D" x="444.995" y="30.366"/><use xlink:href="#I" x="381.49" y="30.366"/><use xlink:href="#H" x="402.221" y="30.366"/></g></g><g stroke="#000" class="E"><g class="B C"><path d="M389.472 16.861h-8a3 3 0 0 0-3 2.999v8h11v-11z"/><use xlink:href="#L"/><use xlink:href="#L" y="11"/><use xlink:href="#L" y="22"/></g><g class="D B"><path d="M389.472 60.861h-11v8a3 3 0 0 0 3 2.999h8v-11z"/><use xlink:href="#L" x="11" y="-11"/></g><g class="C B"><use xlink:href="#L" x="11"/><use xlink:href="#L" x="11" y="11"/><use xlink:href="#L" x="11" y="22"/><use xlink:href="#L" x="11" y="33"/><use xlink:href="#L" x="22" y="-11"/><use xlink:href="#L" x="22"/><use xlink:href="#L" x="22" y="11"/><use xlink:href="#L" x="22" y="22"/></g><use xlink:href="#L" x="22" y="33" class="B D"/><g class="C B"><use xlink:href="#L" x="33" y="-11"/><use xlink:href="#L" x="33"/><use xlink:href="#L" x="33" y="11"/></g><use xlink:href="#L" x="33" y="22" class="B D"/><g class="C B"><use xlink:href="#L" x="33" y="33"/><use xlink:href="#L" x="44" y="-11"/></g><use xlink:href="#L" x="44" class="B D"/><g class="C B"><use xlink:href="#L" x="44" y="11"/><use xlink:href="#L" x="44" y="22"/><use xlink:href="#L" x="44" y="33"/><use xlink:href="#L" x="55" y="-11"/></g><use xlink:href="#L" x="55" class="B D"/><g class="C B"><use xlink:href="#L" x="55" y="11"/><use xlink:href="#L" x="55" y="22"/><use xlink:href="#L" x="55" y="33"/></g><use xlink:href="#L" x="66" y="-11" class="B D"/><g class="C B"><use xlink:href="#L" x="66"/><use xlink:href="#L" x="66" y="11"/><use xlink:href="#L" x="66" y="22"/><use xlink:href="#L" x="66" y="33"/><use xlink:href="#L" x="77" y="-11"/></g><use xlink:href="#L" x="77" class="B D"/><g class="C B"><use xlink:href="#L" x="77" y="11"/><use xlink:href="#L" x="77" y="22"/><use xlink:href="#L" x="77" y="33"/><use xlink:href="#L" x="88" y="-11"/><use xlink:href="#L" x="88"/><use xlink:href="#L" x="88" y="11"/></g><use xlink:href="#L" x="88" y="22" class="B D"/><g class="C B"><use xlink:href="#L" x="88" y="33"/><use xlink:href="#L" x="99" y="-11"/><use xlink:href="#L" x="99"/><use xlink:href="#L" x="99" y="11"/><use xlink:href="#L" x="99" y="22"/></g><use xlink:href="#L" x="99" y="33" class="B D"/><g class="C B"><path d="M499.472 19.861a3 3 0 0 0-3-2.999h-8v11h11v-8z"/><use xlink:href="#L" x="110"/></g><use xlink:href="#L" x="110" y="11" class="B D"/><g class="C B"><use xlink:href="#L" x="110" y="22"/><path d="M499.472 60.861h-11v11h8a3 3 0 0 0 3-2.999v-8z"/></g><path d="M331.051 28.362c0-2.208-1.792-4-4-4H213.193c-2.208 0-4 1.792-4 4v32c0 2.208 1.792 4 4 4h113.858c2.208 0 4-1.792 4-4v-32z" fill="#fff" stroke-width="1.001"/></g><g class="F"><g fill="#4c628b"><path d="M225.253 54.998h4.092v1.788h1.008v-1.788h1.2v-.948h-1.2v-6h-1.272l-3.828 6.072v.876zm4.092-.948h-2.964v-.06l2.904-4.584h.06v4.644zm3.739-1.476h3.816v.936h-3.816zm5.592 4.212h.996v-4.092c0-.96.708-1.644 1.488-1.644.768 0 1.296.504 1.296 1.248v4.488h1.032v-4.26c0-.84.516-1.476 1.44-1.476.72 0 1.332.384 1.332 1.356v4.38h1.008v-4.38c0-1.536-.828-2.256-2.004-2.256-.936 0-1.62.432-1.956 1.116h-.072c-.324-.708-.888-1.116-1.74-1.116-.864 0-1.5.408-1.764 1.116h-.096v-1.032h-.96v6.552z"/><use xlink:href="#H" x="138.989" y="-3.537"/><path d="M256.078 56.786h.996v-4.14c0-.888.708-1.536 1.656-1.536.276 0 .552.048.624.06v-1.02c-.12 0-.384-.012-.528-.012-.792 0-1.476.444-1.716 1.092h-.072v-.996h-.96v6.552z"/><use xlink:href="#H" x="153.79" y="-3.537"/><use xlink:href="#M"/><use xlink:href="#I" x="153.789" y="-3.537"/><use xlink:href="#J" x="-111.744" y="-33.903"/><path d="M294.269 56.93c1.26 0 1.692-.792 1.908-1.152h.12v1.008h.96V48.05h-.996v3.228h-.084c-.216-.336-.612-1.128-1.896-1.128-1.644 0-2.784 1.32-2.784 3.384 0 2.076 1.14 3.396 2.772 3.396zm.132-.9c-1.26 0-1.896-1.116-1.896-2.508s.624-2.472 1.896-2.472c1.236 0 1.872.996 1.872 2.472s-.66 2.508-1.872 2.508zm5.253.756h.996v-6.552h-.996v6.552zm.504-7.644c.396 0 .72-.3.72-.672 0-.384-.324-.684-.72-.684s-.708.3-.708.684c0 .372.312.672.708.672z"/><use xlink:href="#M" x="31.623"/><path d="M312.173 59.378c1.572 0 2.82-.72 2.82-2.4v-6.744h-.96v1.044h-.108c-.216-.336-.624-1.128-1.908-1.128-1.656 0-2.796 1.32-2.796 3.336 0 2.04 1.188 3.192 2.772 3.192 1.284 0 1.692-.744 1.908-1.104h.096v1.332c0 1.092-.768 1.584-1.824 1.584-1.188 0-1.608-.624-1.872-.984l-.804.552c.408.696 1.212 1.32 2.676 1.32zm-.036-3.6c-1.26 0-1.908-.96-1.908-2.316 0-1.332.624-2.412 1.908-2.412 1.224 0 1.872.996 1.872 2.412 0 1.452-.66 2.316-1.872 2.316z"/></g><use xlink:href="#N"/><use xlink:href="#O"/><use xlink:href="#N" x="14.063"/><use xlink:href="#P"/><path d="M247.514 42.416h1.128l.708-4.044h-1.368l-.468 4.044z"/><use xlink:href="#O" x="28.125"/><use xlink:href="#N" x="42.188"/><use xlink:href="#P" x="28.125"/><use xlink:href="#P" x="35.156"/><path d="M282.671 42.416h1.128l.708-4.044h-1.368l-.468 4.044z"/><use xlink:href="#N" x="70.313"/><use xlink:href="#P" x="56.25"/><use xlink:href="#P" x="63.281"/><use xlink:href="#P" x="70.313"/><path d="M316.603 39.98a.86.86 0 0 0 .864-.864c0-.492-.384-.876-.864-.876s-.876.384-.876.876a.87.87 0 0 0 .876.864zm2.328 0a.86.86 0 0 0 .864-.864c0-.492-.384-.876-.864-.876s-.864.384-.864.876a.86.86 0 0 0 .864.864zm2.328 0a.87.87 0 0 0 .876-.864c0-.492-.396-.876-.876-.876s-.864.384-.864.876a.86.86 0 0 0 .864.864z"/></g><defs ><path id="B" d="M52.905 45.5h1.479v-8.715h2.944v-1.334h-7.366v1.334h2.944V45.5z"/><path id="C" d="M156.12 45.645a7.22 7.22 0 0 0 2.596-.479l-.334-1.247c-.653.276-1.319.421-2.016.421-2.262 0-3.422-1.32-3.422-3.959 0-2.407 1.204-3.77 3.016-3.77.768 0 1.464.363 1.885 1.001l1.044-1.044c-.479-.797-1.552-1.261-2.929-1.261-2.886 0-4.524 1.885-4.524 5.148 0 3.465 1.566 5.191 4.683 5.191z"/><path id="D" d="M54.581 56.387c0-1.14.72-1.8 1.68-1.8.936 0 1.512.624 1.512 1.644v4.092h.996v-4.164c0-1.668-.9-2.472-2.22-2.472-.984 0-1.608.444-1.908 1.116h-.096v-1.032h-.96v6.552h.996v-3.936z"/><path id="E" d="M72.045 57.647c0 1.224-.948 1.788-1.692 1.788-.84 0-1.44-.612-1.44-1.56v-4.104h-.996v4.164c0 1.668.876 2.472 2.112 2.472.984 0 1.632-.528 1.944-1.2h.072v1.116h.996v-6.552h-.996v3.876z"/><path id="F" d="M87.256 55.247c-.312-.924-1.02-1.56-2.316-1.56-1.38 0-2.412.792-2.412 1.896 0 .9.54 1.5 1.752 1.788l1.092.252c.648.168.972.468.972.936 0 .552-.612 1.02-1.536 1.02-.828 0-1.344-.36-1.524-1.056l-.948.228c.228 1.116 1.14 1.716 2.484 1.716 1.524 0 2.556-.84 2.556-1.968 0-.912-.576-1.488-1.74-1.776l-.972-.228c-.768-.192-1.128-.456-1.128-.96 0-.564.6-.972 1.404-.972.876 0 1.236.492 1.416.936l.9-.252z"/><path id="G" d="M101.303 62.771v-9h-.96v1.044h-.12c-.216-.336-.612-1.128-1.896-1.128-1.644 0-2.784 1.32-2.784 3.384 0 2.076 1.14 3.396 2.772 3.396 1.26 0 1.692-.792 1.908-1.152h.084v3.456h.996zm-2.856-3.204c-1.26 0-1.896-1.116-1.896-2.508s.624-2.472 1.896-2.472c1.236 0 1.872.996 1.872 2.472s-.66 2.508-1.872 2.508z"/><path id="H" d="M112.876 60.467c1.32 0 2.292-.672 2.592-1.656l-.972-.276c-.252.684-.84 1.032-1.62 1.032-1.188 0-2.004-.768-2.052-2.172h4.752v-.432c0-2.436-1.464-3.276-2.832-3.276-1.776 0-2.928 1.404-2.928 3.408 0 2.016 1.164 3.372 3.06 3.372zm-2.052-3.936c.072-1.032.768-1.944 1.92-1.944 1.104 0 1.716.792 1.812 1.944h-3.732z"/><path id="I" d="M126.773 60.467c1.452 0 2.412-.888 2.58-2.052h-1.008c-.18.708-.78 1.152-1.572 1.152-1.188 0-1.956-.996-1.956-2.508 0-1.488.78-2.472 1.956-2.472.888 0 1.416.552 1.572 1.152h1.008c-.168-1.224-1.212-2.052-2.592-2.052-1.776 0-2.952 1.404-2.952 3.396 0 1.968 1.128 3.384 2.964 3.384z"/><path id="J" d="M399.044 90.833c1.776 0 2.976-1.356 2.976-3.384 0-2.04-1.2-3.396-2.976-3.396s-2.964 1.356-2.964 3.396c0 2.028 1.188 3.384 2.964 3.384zm0-.9c-1.344 0-1.956-1.176-1.956-2.484s.612-2.496 1.956-2.496c1.356 0 1.968 1.188 1.968 2.496s-.612 2.484-1.968 2.484z"/><path id="K" d="M441.637 90.833c1.26 0 1.692-.792 1.908-1.152h.12v1.008h.96v-8.736h-.996v3.228h-.084c-.216-.336-.612-1.128-1.896-1.128-1.644 0-2.784 1.32-2.784 3.384 0 2.076 1.14 3.396 2.772 3.396zm.132-.9c-1.26 0-1.896-1.116-1.896-2.508s.624-2.472 1.896-2.472c1.236 0 1.872.996 1.872 2.472s-.66 2.508-1.872 2.508z"/><path id="L" d="M378.472 27.861h11v11h-11z"/><path id="M" d="M271.875 52.85c0-1.14.72-1.8 1.68-1.8.936 0 1.512.624 1.512 1.644v4.092h.996v-4.164c0-1.668-.9-2.472-2.22-2.472-.984 0-1.608.444-1.908 1.116h-.096v-1.032h-.96v6.552h.996V52.85z"/><path id="N" d="M221.093 39.98c1.056 0 1.944-.252 2.268-.36v-3.924h-2.808v1.116h1.656v1.98c-.288.06-.612.108-.984.108-1.728 0-2.604-1.092-2.604-3.276 0-1.992.912-3.12 2.496-3.12.612 0 1.188.3 1.548.828l.876-.864c-.42-.66-1.332-1.044-2.496-1.044-2.328 0-3.684 1.56-3.684 4.26 0 2.868 1.248 4.296 3.732 4.296z"/><path id="O" d="M224.273 39.86h1.236l.54-2.028h2.952l.54 2.028h1.236l-2.4-8.316h-1.704l-2.4 8.316zm2.076-3.144l1.128-4.164h.096l1.128 4.164h-2.352z"/><path id="P" d="M240.975 39.86h1.224v-7.212h2.436v-1.104h-6.096v1.104h2.436v7.212z"/></defs></svg>