<svg xmlns="http://www.w3.org/2000/svg" xmlns:xlink="http://www.w3.org/1999/xlink" width="100%" height="100%" viewBox="0 0 340 150" fill-rule="evenodd" stroke-linecap="round" stroke-miterlimit="1.5" xmlns:v="https://vecta.io/nano"><style><![CDATA[.B{stroke:#000}.C{stroke-width:.902}.D{fill:#f2f2f2}.E{fill:#a7bcec}.F{fill-rule:nonzero}.G{fill:#b43d6b}.H{fill:#ea9570}.I{fill:#de5d5c}.J{fill:#7e2f70}.K{fill:#ce4762}.L{stroke-miterlimit:10}.M{stroke-linejoin:round}.N{fill:#e67961}.O{stroke-dasharray:3,2.5,0,0}.P{fill:#4c628b}.Q{fill:#9a3670}]]></style><g class="B C D"><path d="M35.558 63.692h-8a3 3 0 0 0-3 2.999v8h11v-11z"/><path d="M24.558 74.692h11v11h-11z"/><path d="M24.558 85.692h11v11h-11z"/><path d="M24.558 96.692h11v11h-11z"/></g><path d="M35.558 107.692h-11v8a3 3 0 0 0 3 2.999h8v-11zm0-44h11v11h-11z" class="E B C"/><g class="D B C"><path d="M35.558 74.692h11v11h-11z"/><path d="M35.558 85.692h11v11h-11z"/><path d="M35.558 96.692h11v11h-11z"/><path d="M35.558 107.692h11v11h-11zm11-44h11v11h-11z"/><path d="M46.558 74.692h11v11h-11z"/><path d="M46.558 85.692h11v11h-11z"/><path d="M46.558 96.692h11v11h-11z"/></g><path d="M46.558 107.692h11v11h-11z" class="B C E"/><g class="D B C"><path d="M57.558 63.692h11v11h-11z"/><path d="M57.558 74.692h11v11h-11z"/><path d="M57.558 85.692h11v11h-11z"/></g><path d="M57.558 96.692h11v11h-11z" class="B C E"/><path d="M57.558 107.692h11v11h-11zm11-44h11v11h-11z" class="D B C"/><path d="M68.558 74.692h11v11h-11z" class="B C E"/><g class="D B C"><path d="M68.558 85.692h11v11h-11z"/><path d="M68.558 96.692h11v11h-11z"/><path d="M68.558 107.692h11v11h-11zm11-44h11v11h-11z"/></g><path d="M79.558 74.692h11v11h-11z" class="B C E"/><g class="D B C"><path d="M79.558 85.692h11v11h-11z"/><path d="M79.558 96.692h11v11h-11z"/><path d="M79.558 107.692h11v11h-11z"/></g><path d="M90.558 63.692h11v11h-11z" class="B C E"/><g class="D B C"><path d="M90.558 74.692h11v11h-11z"/><path d="M90.558 85.692h11v11h-11z"/><path d="M90.558 96.692h11v11h-11z"/><path d="M90.558 107.692h11v11h-11zm11-44h11v11h-11z"/></g><path d="M101.558 74.692h11v11h-11z" class="B C E"/><g class="D B C"><path d="M101.558 85.692h11v11h-11z"/><path d="M101.558 96.692h11v11h-11z"/><path d="M101.558 107.692h11v11h-11zm11-44h11v11h-11z"/><path d="M112.558 74.692h11v11h-11z"/><path d="M112.558 85.692h11v11h-11z"/></g><path d="M112.558 96.692h11v11h-11z" class="B C E"/><g class="D B C"><path d="M112.558 107.692h11v11h-11zm11-44h11v11h-11z"/><path d="M123.558 74.692h11v11h-11z"/><path d="M123.558 85.692h11v11h-11z"/><path d="M123.558 96.692h11v11h-11z"/></g><path d="M123.558 107.692h11v11h-11z" class="B C E"/><g class="D B C"><path d="M145.558 66.691a3 3 0 0 0-3-2.999h-8v11h11v-8z"/><path d="M134.558 74.692h11v11h-11z"/></g><path d="M134.558 85.692h11v11h-11z" class="B C E"/><g class="D B C"><path d="M134.558 96.692h11v11h-11z"/><path d="M145.558 107.692h-11v11h8a3 3 0 0 0 3-2.999v-8z"/></g><g class="F P"><path d="M166.76 19.958h1.056v-3.804h3.78v-.948h-3.78V12.17h4.176v-.948h-5.232v8.736z"/><use xlink:href="#B"/><use xlink:href="#C"/><use xlink:href="#D"/><path d="M195.419 17.282c0 1.224-.948 1.788-1.692 1.788-.84 0-1.44-.612-1.44-1.56v-4.104h-.996v4.164c0 1.668.876 2.472 2.112 2.472.984 0 1.632-.528 1.944-1.2h.072v1.116h.996v-6.552h-.996v3.876zm2.844 2.676h.996v-4.14c0-.888.708-1.536 1.656-1.536.276 0 .552.048.624.06v-1.02c-.12 0-.384-.012-.528-.012-.792 0-1.476.444-1.716 1.092h-.072v-.996h-.96v6.552z"/><use xlink:href="#B" x="29.332"/><path d="M212.865 19.958h.996v-4.092c0-.96.708-1.644 1.488-1.644.768 0 1.296.504 1.296 1.248v4.488h1.032v-4.26c0-.84.516-1.476 1.44-1.476.72 0 1.332.384 1.332 1.356v4.38h1.008v-4.38c0-1.536-.828-2.256-2.004-2.256-.936 0-1.62.432-1.956 1.116h-.072c-.324-.708-.888-1.116-1.74-1.116-.864 0-1.5.408-1.764 1.116h-.096v-1.032h-.96v6.552z"/><use xlink:href="#C" x="43.148"/><path d="M230.08 22.406h.996V18.95h.084c.228.36.648 1.152 1.908 1.152 1.644 0 2.784-1.32 2.784-3.396 0-2.064-1.14-3.384-2.796-3.384-1.284 0-1.668.792-1.896 1.128h-.12v-1.044h-.96v9zm2.856-3.204c-1.212 0-1.872-1.032-1.872-2.508s.648-2.472 1.872-2.472c1.272 0 1.908 1.08 1.908 2.472s-.648 2.508-1.908 2.508z"/><use xlink:href="#E"/><use xlink:href="#F"/><path d="M254.193 11.222h-1.02l-2.184 1.464v1.068l2.124-1.416h.06v7.62h1.02v-8.736z"/><use xlink:href="#G"/><use xlink:href="#H"/><path d="M270.353 22.034h.78l.9-3.3h-1.164l-.516 3.3z"/><use xlink:href="#I"/><use xlink:href="#J"/><use xlink:href="#J" x="7.383"/><path d="M299.496 19.958h1.104l3.9-7.74v-.996h-5.604v.948h4.5v.06l-3.9 7.728z"/><use xlink:href="#K"/></g><path d="M70.926 30.935h-.892l-1.911 1.281v.934l1.859-1.239h.052v6.668h.892v-7.644zm1.715 7.644h4.82v-.819h-3.549v-.063l1.711-1.837c1.313-1.407 1.701-2.058 1.701-2.898 0-1.187-.956-2.121-2.289-2.121-1.344 0-2.362.914-2.362 2.258h.882c0-.871.556-1.449 1.449-1.449.819 0 1.449.504 1.449 1.313 0 .703-.41 1.218-1.291 2.184l-2.52 2.772v.661zm8.794.105c1.522 0 2.594-.892 2.594-2.131 0-.966-.662-1.785-1.481-1.943v-.042c.714-.189 1.186-.892 1.186-1.701 0-1.165-.977-2.026-2.299-2.026-1.355 0-2.32.861-2.32 2.026 0 .809.462 1.512 1.197 1.701v.042c-.84.157-1.47.977-1.47 1.943 0 1.239 1.05 2.131 2.594 2.131zm0-.819c-1.05 0-1.69-.535-1.69-1.355 0-.861.704-1.48 1.691-1.48.956 0 1.68.62 1.68 1.48 0 .819-.651 1.355-1.68 1.355zm0-3.623c-.84 0-1.428-.525-1.428-1.312 0-.777.567-1.281 1.428-1.281.84 0 1.407.504 1.407 1.281 0 .788-.599 1.313-1.407 1.313zm9.298 4.463c1.27 0 2.11-.777 2.257-1.795h-.882c-.158.62-.683 1.008-1.376 1.008-1.04 0-1.712-.872-1.712-2.195 0-1.302.682-2.163 1.712-2.163.777 0 1.239.483 1.376 1.008h.882c-.147-1.071-1.061-1.795-2.268-1.795-1.554 0-2.583 1.228-2.583 2.971 0 1.722.987 2.961 2.594 2.961z" class="F"/><use xlink:href="#L" class="F"/><path d="M101.445 35.135c0-.997.63-1.575 1.47-1.575.819 0 1.323.546 1.323 1.438v3.581h.871v-3.644c0-1.459-.787-2.163-1.942-2.163-.861 0-1.407.389-1.669.977h-.084v-.903h-.84v5.733h.872v-3.444zm9.748-2.289h-.945l-1.585 4.578h-.063l-1.575-4.578h-.956l2.111 5.733h.903l2.11-5.733z" class="F"/><use xlink:href="#L" x="17.852" class="F"/><path d="M118.425 30.935h.871v7.644h-.871zm6.104 5.302c0 1.071-.83 1.564-1.481 1.564-.735 0-1.26-.535-1.26-1.365v-3.591h-.872v3.644c0 1.459.767 2.163 1.848 2.163.861 0 1.428-.462 1.701-1.05h.063v.977h.871v-5.733h-.871v3.392zm4.967-3.391h-1.228v-1.365h-.871v1.365h-.861v.746h.861v3.581c0 .882.641 1.48 1.565 1.48a1.92 1.92 0 0 0 .651-.105l-.178-.788a1.89 1.89 0 0 1-.388.042c-.536 0-.777-.273-.777-.861v-3.349h1.228v-.746zm1.337 5.733h.871v-5.733h-.871v5.733zm.441-6.689c.346 0 .63-.262.63-.588 0-.336-.284-.599-.63-.599s-.62.262-.62.599c0 .325.273.588.62.588zm4.371 6.815c1.554 0 2.604-1.186 2.604-2.961 0-1.785-1.05-2.971-2.604-2.971s-2.593 1.187-2.593 2.971c0 1.775 1.039 2.961 2.593 2.961zm0-.787c-1.176 0-1.712-1.029-1.712-2.174s.536-2.184 1.712-2.184c1.186 0 1.722 1.039 1.722 2.184s-.536 2.174-1.722 2.174zm4.816-2.783c0-.997.63-1.575 1.47-1.575.819 0 1.323.546 1.323 1.438v3.581h.871v-3.644c0-1.459-.788-2.163-1.943-2.163-.861 0-1.407.389-1.669.977h-.084v-.903h-.84v5.733h.871v-3.444zm9.334-.998c-.273-.809-.893-1.365-2.026-1.365-1.208 0-2.111.693-2.111 1.659 0 .788.472 1.313 1.533 1.565l.956.221c.567.147.851.409.851.819 0 .483-.536.892-1.344.892-.725 0-1.176-.315-1.334-.924l-.829.2c.2.977.998 1.502 2.173 1.502 1.334 0 2.237-.735 2.237-1.722 0-.798-.504-1.302-1.523-1.554l-.85-.2c-.672-.168-.987-.399-.987-.84 0-.493.525-.85 1.228-.85.766 0 1.082.431 1.239.819l.787-.22z" class="F"/><g class="B C"><path d="M183.913 27.707h-8a3 3 0 0 0-3 2.999v8h11v-11z" class="H"/><path d="M172.913 38.707h11v11h-11z" class="I"/><path d="M183.913 49.707h-11v8a3 3 0 0 0 3 2.999h8v-11z" class="J"/><path d="M183.913 27.707h11v11h-11z" class="G"/><path d="M183.913 38.707h11v11h-11z" class="J"/><path d="M183.913 49.707h11v11h-11z" class="H"/><path d="M194.913 27.707h11v11h-11z" class="Q"/><path d="M194.913 38.707h11v11h-11z" class="G"/><path d="M194.913 49.707h11v11h-11z" class="J"/><path d="M205.913 27.707h11v11h-11z" class="I"/><path d="M205.913 38.707h11v11h-11z" class="K"/><path d="M205.913 49.707h11v11h-11z" class="G"/><path d="M216.913 27.707h11v11h-11z" class="N"/><path d="M216.913 38.707h11v11h-11z" class="H"/><path d="M216.913 49.707h11v11h-11z" class="G"/><path d="M227.913 27.707h11v11h-11z" class="K"/><path d="M227.913 38.707h11v11h-11z" class="G"/><path d="M227.913 49.707h11v11h-11z" class="N"/><path d="M238.913 27.707h11v11h-11z" fill="#642a6a"/><path d="M238.913 38.707h11v11h-11z" class="N"/><path d="M238.913 49.707h11v11h-11z" class="I"/><path d="M249.913 27.707h11v11h-11z" class="H"/><path d="M249.913 38.707h11v11h-11z" class="I"/><path d="M249.913 49.707h11v11h-11z" class="Q"/><path d="M260.913 27.707h11v11h-11z" class="G"/><g class="K"><path d="M260.913 38.707h11v11h-11z"/><path d="M260.913 49.707h11v11h-11z"/></g><path d="M271.913 27.707h11v11h-11z" class="H"/><path d="M271.913 38.707h11v11h-11z" class="I"/><path d="M271.913 49.707h11v11h-11z" class="H"/><path d="M293.913 30.706a3 3 0 0 0-3-2.999h-8v11h11v-8z" class="J"/><path d="M282.913 38.707h11v11h-11z" fill="#642a6a"/><path d="M293.913 49.707h-11v11h8a3 3 0 0 0 3-2.999v-8zm-71.59 35.985h-8a3 3 0 0 0-3 2.999v8h11v-11z" class="G"/><path d="M211.323 96.692h11v11h-11z" class="J"/><path d="M222.323 107.692h-11v8a3 3 0 0 0 3 2.999h8v-11z" class="H"/><path d="M222.323 85.692h11v11h-11z" class="K"/><path d="M222.323 96.692h11v11h-11z" class="G"/><path d="M222.323 107.692h11v11h-11z" class="N"/><path d="M233.502 85.692h11v11h-11z" class="H"/><path d="M233.502 96.692h11v11h-11z" class="I"/><path d="M233.502 107.692h11v11h-11z" class="Q"/><path d="M255.502 88.691a3 3 0 0 0-3-2.999h-8v11h11v-8z" class="G"/><g class="K"><path d="M244.502 96.692h11v11h-11z"/><path d="M255.502 107.692h-11v11h8a3 3 0 0 0 3-2.999v-8z"/></g></g><g class="F P"><path d="M195.743 137.781h1.056v-3.192h1.908c2.028 0 2.952-1.236 2.952-2.772s-.924-2.772-2.964-2.772h-2.952v8.736zm1.056-4.128v-3.66h1.86c1.416 0 1.956.78 1.956 1.824s-.54 1.836-1.944 1.836h-1.872zm8.349 4.284c1.152 0 1.74-.624 1.944-1.044h.072v.888h.984v-4.308c0-2.088-1.584-2.328-2.424-2.328-.984 0-2.112.348-2.628 1.536l.96.348c.228-.48.744-.996 1.704-.996.924 0 1.392.492 1.392 1.332v.036c0 .48-.504.444-1.692.6-1.212.156-2.544.42-2.544 1.92 0 1.284.984 2.016 2.232 2.016zm.156-.9c-.804 0-1.38-.36-1.38-1.056 0-.768.696-1.008 1.488-1.116.42-.048 1.572-.168 1.74-.372v.924c0 .816-.648 1.62-1.848 1.62z"/><use xlink:href="#D" x="23.07" y="117.823"/><use xlink:href="#M"/><path d="M222.031 133.845c0-1.14.732-1.8 1.728-1.8.984 0 1.536.588 1.536 1.644v4.092h.996v-4.164c0-1.68-.912-2.472-2.244-2.472-1.032 0-1.62.432-1.92 1.116h-.096v-3.216h-.996v8.736h.996v-3.936z"/><use xlink:href="#F" x="-15.514" y="117.823"/><path d="M238.679 129.045h-1.02l-2.184 1.464v1.068l2.124-1.416h.06v7.62h1.02v-8.736z"/><use xlink:href="#G" x="-15.514" y="117.823"/><use xlink:href="#H" x="-15.514" y="117.823"/><path d="M254.839 139.857h.78l.9-3.3h-1.164l-.516 3.3zm6.913-3.864h4.092v1.788h1.008v-1.788h1.2v-.948h-1.2v-6h-1.272l-3.828 6.072v.876zm4.092-.948h-2.964v-.06l2.904-4.584h.06v4.644z"/><use xlink:href="#K" x="-36.327" y="117.823"/></g><g fill="none" stroke="#a5a5a5"><path d="M213.387 80.007l3.079.806.806-3.078" class="L"/><path d="M216.466 80.813l-3.422-5.849c-1.743-2.98-4.593-5.152-7.93-6.042l-15.791-4.214" class="M O"/><path d="M229.457 78.805l-1.68 1.913-1.913-1.68" class="L"/><path d="M212.412 64.708l6.285 2.968c5.145 2.431 8.59 7.407 9.08 13.042" class="M O"/><path d="M237.203 78.171l1.901 2.553 2.552-1.901" class="L"/><path d="M239.104 80.724l.473-3.235a11.1 11.1 0 0 1 5.971-8.296l8.863-4.485" class="M O"/><path d="M249.001 77.845l1.261 2.921 2.921-1.261" class="L"/><path d="M250.262 80.766l2.23-5.619a13.1 13.1 0 0 1 6.634-7.037l7.285-3.402" class="M O"/></g><g class="F"><path d="M267.63 80.884c1.533 0 2.783-.924 3.066-2.499h-.924c-.22 1.071-1.134 1.638-2.142 1.638-1.386 0-2.478-1.082-2.478-3.055 0-1.995 1.092-3.066 2.478-3.066 1.008 0 1.922.567 2.142 1.627h.924c-.284-1.564-1.533-2.489-3.066-2.489-1.953 0-3.37 1.502-3.37 3.927 0 2.415 1.418 3.916 3.37 3.916zm6.767.021c1.554 0 2.604-1.187 2.604-2.961 0-1.785-1.05-2.972-2.604-2.972s-2.594 1.186-2.594 2.972c0 1.774 1.039 2.961 2.594 2.961zm0-.788c-1.176 0-1.712-1.029-1.712-2.173s.535-2.184 1.712-2.184c1.186 0 1.722 1.04 1.722 2.184s-.536 2.173-1.722 2.173z"/><use xlink:href="#N"/><use xlink:href="#O"/><use xlink:href="#P"/><use xlink:href="#Q"/><use xlink:href="#R"/><use xlink:href="#N" x="27.824"/><use xlink:href="#P" x="21.928"/><use xlink:href="#Q" x="21.926"/><use xlink:href="#R" x="21.928"/><path d="M264.249 91.214h3.58v1.564h.882v-1.564h1.05v-.83h-1.05v-5.25h-1.113l-3.349 5.313v.767zm3.58-.83h-2.594v-.052l2.541-4.011h.053v4.063z"/><use xlink:href="#S"/><path d="M279.613 85.135h.871v7.644h-.871zm2.969 7.644h.872v-5.733h-.872v5.733zm.441-6.689c.346 0 .63-.262.63-.588 0-.336-.284-.599-.63-.599s-.62.263-.62.599c0 .326.273.588.62.588z"/><use xlink:href="#O" x="0.579" y="12"/><use xlink:href="#R" x="-9.106" y="12"/><use xlink:href="#S" x="22.933"/></g><g fill="none" class="B"><path d="M157.53 41.208l3 3-3 3" class="L"/><path d="M57.558 56.481v-9.273a3 3 0 0 1 3-3h99.972" class="M"/></g><g class="F P"><path d="M13.229 134.457h5.328v-.936h-4.272v-3h3.936v-.936h-3.936v-2.916h4.212v-.948h-5.268v8.736zm8.036-3.936c0-1.14.72-1.8 1.68-1.8.936 0 1.512.624 1.512 1.644v4.092h.996v-4.164c0-1.668-.9-2.472-2.22-2.472-.984 0-1.608.444-1.908 1.116h-.096v-1.032h-.96v6.552h.996v-3.936z"/><use xlink:href="#M" x="-186.996" y="-3.324"/><path d="M36.691 134.601c1.776 0 2.976-1.356 2.976-3.384 0-2.04-1.2-3.396-2.976-3.396s-2.964 1.356-2.964 3.396c0 2.028 1.188 3.384 2.964 3.384zm0-.9c-1.344 0-1.956-1.176-1.956-2.484s.612-2.496 1.956-2.496c1.356 0 1.968 1.188 1.968 2.496s-.612 2.484-1.968 2.484z"/><use xlink:href="#T"/><use xlink:href="#B" x="-124.697" y="114.499"/><use xlink:href="#T" x="14.261"/><use xlink:href="#E" x="-171.244" y="114.499"/><use xlink:href="#B" x="-100.791" y="114.499"/><path d="M84.815 136.905v-9h-.96v1.044h-.12c-.216-.336-.612-1.128-1.896-1.128-1.644 0-2.784 1.32-2.784 3.384 0 2.076 1.14 3.396 2.772 3.396 1.26 0 1.692-.792 1.908-1.152h.084v3.456h.996zm-2.856-3.204c-1.26 0-1.896-1.116-1.896-2.508s.624-2.472 1.896-2.472c1.236 0 1.872.996 1.872 2.472s-.66 2.508-1.872 2.508zm5.489.828c.42 0 .768-.348.768-.768s-.348-.768-.768-.768-.768.348-.768.768.348.768.768.768z"/><use xlink:href="#F" x="-153.572" y="114.499"/><use xlink:href="#G" x="-158.4" y="114.499"/><use xlink:href="#I" x="-172.439" y="114.499"/><path d="M115.093 134.577c1.776 0 2.928-1.308 2.928-2.928 0-1.692-1.248-2.904-2.748-2.904-.9 0-1.668.444-2.148 1.164h-.06c0-2.136.816-3.36 2.172-3.36.924 0 1.476.576 1.68 1.356h1.032c-.216-1.344-1.248-2.292-2.712-2.292-1.956 0-3.168 1.74-3.168 4.824 0 3.228 1.596 4.14 3.024 4.14zm0-.936c-1.08 0-1.884-.936-1.884-1.98s.852-1.968 1.92-1.968c1.08 0 1.872.864 1.872 1.956 0 1.104-.828 1.992-1.908 1.992zm3.979 2.892h.78l.9-3.3h-1.164l-.516 3.3z"/><use xlink:href="#I" x="-151.281" y="114.499"/><use xlink:href="#J" x="-151.281" y="114.499"/><use xlink:href="#J" x="-143.898" y="114.499"/><path d="M148.214 134.457h1.104l3.9-7.74v-.996h-5.604v.948h4.5v.06l-3.9 7.728z"/><use xlink:href="#K" x="-151.282" y="114.499"/></g><defs ><path id="B" d="M175.945 20.102c1.32 0 2.292-.672 2.592-1.656l-.972-.276c-.252.684-.84 1.032-1.62 1.032-1.188 0-2.004-.768-2.052-2.172h4.752v-.432c0-2.436-1.464-3.276-2.832-3.276-1.776 0-2.928 1.404-2.928 3.408 0 2.016 1.164 3.372 3.06 3.372zm-2.052-3.936c.072-1.032.768-1.944 1.92-1.944 1.104 0 1.716.792 1.812 1.944h-3.732z"/><path id="C" d="M182.078 20.114c1.152 0 1.74-.624 1.944-1.044h.072v.888h.984V15.65c0-2.088-1.584-2.328-2.424-2.328-.984 0-2.112.348-2.628 1.536l.96.348c.228-.48.744-.996 1.704-.996.924 0 1.392.492 1.392 1.332v.036c0 .48-.504.444-1.692.6-1.212.156-2.544.42-2.544 1.92 0 1.284.984 2.016 2.232 2.016zm.156-.9c-.804 0-1.38-.36-1.38-1.056 0-.768.696-1.008 1.488-1.116.42-.048 1.572-.168 1.74-.372v.924c0 .816-.648 1.62-1.848 1.62z"/><path id="D" d="M189.763 13.406h-1.404v-1.56h-.996v1.56h-.984v.852h.984v4.092c0 1.008.732 1.692 1.788 1.692.276 0 .564-.048.744-.12l-.204-.9a2.16 2.16 0 0 1-.444.048c-.612 0-.888-.312-.888-.984v-3.828h1.404v-.852z"/><path id="E" d="M242.012 14.882c-.312-.924-1.02-1.56-2.316-1.56-1.38 0-2.412.792-2.412 1.896 0 .9.54 1.5 1.752 1.788l1.092.252c.648.168.972.468.972.936 0 .552-.612 1.02-1.536 1.02-.828 0-1.344-.36-1.524-1.056l-.948.228c.228 1.116 1.14 1.716 2.484 1.716 1.524 0 2.556-.84 2.556-1.968 0-.912-.576-1.488-1.74-1.776l-.972-.228c-.768-.192-1.128-.456-1.128-.96 0-.564.6-.972 1.404-.972.876 0 1.236.492 1.416.936l.9-.252z"/><path id="F" d="M247.373 15.854c0 1.716.528 3.504 1.512 5.184h.972c-1.02-2.1-1.476-3.66-1.476-5.184 0-1.704.564-3.852 1.476-5.712h-.972c-.876 1.464-1.512 3.816-1.512 5.712z"/><path id="G" d="M256.153 19.958h5.508v-.936h-4.056v-.072l1.956-2.1c1.5-1.608 1.944-2.352 1.944-3.312 0-1.356-1.092-2.424-2.616-2.424-1.536 0-2.7 1.044-2.7 2.58h1.008c0-.996.636-1.656 1.656-1.656.936 0 1.656.576 1.656 1.5 0 .804-.468 1.392-1.476 2.496l-2.88 3.168v.756z"/><path id="H" d="M266.203 20.078c1.74 0 2.964-1.02 2.964-2.436 0-1.104-.756-2.04-1.692-2.22v-.048c.816-.216 1.356-1.02 1.356-1.944 0-1.332-1.116-2.316-2.628-2.316-1.548 0-2.652.984-2.652 2.316 0 .924.528 1.728 1.368 1.944v.048c-.96.18-1.68 1.116-1.68 2.22 0 1.416 1.2 2.436 2.964 2.436zm0-.936c-1.2 0-1.932-.612-1.932-1.548 0-.984.804-1.692 1.932-1.692 1.092 0 1.92.708 1.92 1.692 0 .936-.744 1.548-1.92 1.548zm0-4.14c-.96 0-1.632-.6-1.632-1.5 0-.888.648-1.464 1.632-1.464.96 0 1.608.576 1.608 1.464 0 .9-.684 1.5-1.608 1.5z"/><path id="I" d="M280.194 20.078c1.656 0 2.88-1.224 2.88-2.892 0-1.704-1.176-2.94-2.772-2.94-.6 0-1.176.216-1.524.492h-.048l.3-2.568h3.648v-.948h-4.536l-.528 4.308.996.12c.36-.264.972-.444 1.512-.444 1.116 0 1.92.852 1.92 1.992 0 1.116-.78 1.944-1.848 1.944-.9 0-1.62-.576-1.692-1.368h-1.02c.06 1.332 1.212 2.304 2.712 2.304z"/><path id="J" d="M287.424 11.114c-1.776-.024-2.916 1.308-2.916 2.916 0 1.68 1.248 2.892 2.748 2.892.9 0 1.668-.444 2.148-1.164h.072c-.012 2.16-.84 3.384-2.184 3.384-.924 0-1.488-.588-1.68-1.392h-1.044c.216 1.392 1.248 2.328 2.724 2.328 1.956 0 3.168-1.74 3.168-4.848 0-3.204-1.608-4.104-3.036-4.116zm0 .936c1.092 0 1.884.936 1.896 1.956-.012 1.044-.852 1.98-1.932 1.98s-1.86-.864-1.848-1.956c-.012-1.092.804-1.98 1.884-1.98z"/><path id="K" d="M305.634 21.038h.972c.984-1.68 1.512-3.468 1.512-5.184 0-1.896-.624-4.248-1.512-5.712h-.972c.924 1.86 1.476 4.008 1.476 5.712 0 1.524-.444 3.084-1.476 5.184z"/><path id="L" d="M96.629 38.705c1.554 0 2.604-1.186 2.604-2.961 0-1.785-1.05-2.971-2.604-2.971s-2.594 1.187-2.594 2.971c0 1.775 1.04 2.961 2.594 2.961zm0-.787c-1.176 0-1.712-1.029-1.712-2.174s.535-2.184 1.712-2.184c1.186 0 1.722 1.039 1.722 2.184s-.535 2.174-1.722 2.174z"/><path id="M" d="M216.948 137.925c1.452 0 2.412-.888 2.58-2.052h-1.008c-.18.708-.78 1.152-1.572 1.152-1.188 0-1.956-.996-1.956-2.508 0-1.488.78-2.472 1.956-2.472.888 0 1.416.552 1.572 1.152h1.008c-.168-1.224-1.212-2.052-2.592-2.052-1.776 0-2.952 1.404-2.952 3.396 0 1.968 1.128 3.384 2.964 3.384z"/><path id="N" d="M279.213 77.335c0-.998.63-1.575 1.47-1.575.819 0 1.323.546 1.323 1.439v3.581h.871v-3.644c0-1.459-.787-2.163-1.942-2.163-.861 0-1.407.388-1.669.977h-.084v-.903h-.84v5.733h.872v-3.444z"/><path id="O" d="M286.815 80.905c1.27 0 2.111-.777 2.257-1.796h-.882c-.158.62-.683 1.008-1.375 1.008-1.04 0-1.712-.871-1.712-2.194 0-1.302.683-2.163 1.712-2.163.777 0 1.239.483 1.375 1.008h.882c-.147-1.071-1.06-1.796-2.268-1.796-1.554 0-2.583 1.228-2.583 2.972 0 1.722.987 2.961 2.594 2.961z"/><path id="P" d="M292.071 80.915c1.008 0 1.523-.546 1.701-.913h.063v.777h.861v-3.769c0-1.827-1.386-2.037-2.121-2.037-.861 0-1.848.305-2.3 1.344l.84.305c.2-.42.651-.871 1.491-.871.808 0 1.218.43 1.218 1.165v.032c0 .42-.441.388-1.481.525-1.06.136-2.226.368-2.226 1.68 0 1.123.861 1.764 1.953 1.764zm.137-.787c-.704 0-1.207-.315-1.207-.924 0-.672.609-.882 1.302-.977.368-.042 1.376-.147 1.523-.325v.808c0 .714-.567 1.418-1.617 1.418z"/><path id="Q" d="M298.796 75.046h-1.228v-1.365h-.871v1.365h-.861v.746h.861v3.581c0 .882.64 1.48 1.564 1.48a1.92 1.92 0 0 0 .651-.105l-.178-.788a1.89 1.89 0 0 1-.389.042c-.535 0-.777-.273-.777-.861v-3.349h1.228v-.746z"/><path id="R" d="M302.48 80.905c1.155 0 2.005-.588 2.268-1.449l-.851-.242c-.22.599-.735.903-1.417.903-1.04 0-1.754-.672-1.796-1.9h4.158v-.378c0-2.132-1.281-2.867-2.478-2.867-1.554 0-2.562 1.228-2.562 2.982 0 1.764 1.018 2.951 2.678 2.951zm-1.796-3.444c.063-.903.672-1.701 1.68-1.701.966 0 1.501.693 1.585 1.701h-3.265z"/><path id="S" d="M278.181 88.337c-.273-.808-.892-1.365-2.026-1.365-1.207 0-2.111.693-2.111 1.659 0 .787.473 1.313 1.533 1.564l.956.221c.567.147.85.409.85.819 0 .483-.535.892-1.344.892-.724 0-1.176-.315-1.333-.924l-.829.2c.199.977.997 1.502 2.173 1.502 1.333 0 2.236-.735 2.236-1.722 0-.798-.504-1.302-1.522-1.554l-.851-.2c-.672-.168-.987-.399-.987-.84 0-.493.525-.851 1.228-.851.767 0 1.082.431 1.239.819l.787-.221z"/><path id="T" d="M43.659 134.601c1.26 0 1.692-.792 1.908-1.152h.12v1.008h.96v-8.736h-.996v3.228h-.084c-.216-.336-.612-1.128-1.896-1.128-1.644 0-2.784 1.32-2.784 3.384 0 2.076 1.14 3.396 2.772 3.396zm.132-.9c-1.26 0-1.896-1.116-1.896-2.508s.624-2.472 1.896-2.472c1.236 0 1.872.996 1.872 2.472s-.66 2.508-1.872 2.508z"/></defs></svg>