<svg xmlns="http://www.w3.org/2000/svg" xmlns:xlink="http://www.w3.org/1999/xlink" width="100%" height="100%" viewBox="0 0 480 160" fill-rule="evenodd" stroke-linecap="round" stroke-miterlimit="10" xmlns:v="https://vecta.io/nano"><style><![CDATA[.a{fill:#b43d6b}.b{fill:#ea9570}.c{fill:#de5d5c}.d{stroke-miterlimit:1.5}.e{fill:#ce4762}.f{fill:#e67961}.g{fill:#7e2f70}.h{fill:#9a3670}.i{stroke:#000}.j{fill:#642a6a}.k{fill-rule:nonzero}.l{stroke-width:.902}.m{stroke-width:1.02}.n{stroke-linejoin:round}]]></style><g class="i"><g fill="none"><path d="M431.283 90.018l3 3-3 3"/><path d="M415.945 93.018h18.338" class="d"/></g><g class="d m"><path d="M612.558 624.768h-9.056c-1.403 0-2.369.834-2.369 2.045v7.904h11.425v-9.949z" transform="matrix(.917368 -.263051 0 1.10528 -471.953 -453.607)" class="a"/><use xlink:href="#A" transform="matrix(.917368 -.263051 0 1.10528 -471.953 -442.61)" class="g"/><path d="M612.558 624.768h-11.425v6.347c0 .852.482 1.77 1.302 2.478s1.882 1.124 2.869 1.124h7.254v-9.949z" transform="matrix(.917368 -.263051 0 1.10528 -471.953 -431.613)" class="b"/><use xlink:href="#A" transform="matrix(.917368 -.263051 0 1.10528 -461.472 -456.612)" class="e"/><use xlink:href="#A" transform="matrix(.917368 -.263051 0 1.10528 -461.472 -445.615)" class="a"/><use xlink:href="#A" transform="matrix(.917368 -.263051 0 1.10528 -461.472 -434.619)" class="f"/><use xlink:href="#A" transform="matrix(.917368 -.263051 0 1.10528 -450.82 -459.666)" class="b"/><use xlink:href="#A" transform="matrix(.917368 -.263051 0 1.10528 -450.82 -448.67)" class="c"/><use xlink:href="#A" transform="matrix(.917368 -.263051 0 1.10528 -450.82 -437.673)" class="h"/><path d="M612.558 628.37c0-.852-.482-1.77-1.302-2.478s-1.883-1.124-2.87-1.124h-7.253v9.949h11.425v-6.347z" transform="matrix(.917368 -.263051 0 1.10528 -440.339 -462.672)" class="a"/></g><g class="d e m"><use xlink:href="#A" transform="matrix(.917368 -.263051 0 1.10528 -440.339 -451.675)"/><path d="M612.558 624.768h-11.425v9.949h9.056c1.402 0 2.369-.834 2.369-2.045v-7.904z" transform="matrix(.917368 -.263051 0 1.10528 -440.339 -440.678)"/></g><g stroke-width="1.01" class="d"><use xlink:href="#W" transform="matrix(.881571 -.252787 0 1.15016 -441.719 -484.735)" class="c"/><use xlink:href="#A" transform="matrix(.881571 -.252787 0 1.15016 -441.719 -473.292)" class="e"/><use xlink:href="#B" transform="matrix(.881571 -.252787 0 1.15016 -441.719 -461.848)" class="a"/><use xlink:href="#A" transform="matrix(.881571 -.252787 0 1.15016 -431.647 -487.623)" class="f"/><use xlink:href="#A" transform="matrix(.881571 -.252787 0 1.15016 -431.647 -476.18)" class="b"/><use xlink:href="#A" transform="matrix(.881571 -.252787 0 1.15016 -431.647 -464.737)" class="a"/><use xlink:href="#A" transform="matrix(.881571 -.252787 0 1.15016 -421.575 -490.511)" class="b"/><use xlink:href="#A" transform="matrix(.881571 -.252787 0 1.15016 -421.575 -479.068)" class="c"/><use xlink:href="#A" transform="matrix(.881571 -.252787 0 1.15016 -421.575 -467.625)" class="h"/><use xlink:href="#C" transform="matrix(.881571 -.252787 0 1.15016 -411.503 -493.399)" class="g"/><use xlink:href="#A" transform="matrix(.881571 -.252787 0 1.15016 -411.503 -481.956)" class="j"/><use xlink:href="#X" transform="matrix(.881571 -.252787 0 1.15016 -411.503 -470.513)" class="a"/><use xlink:href="#W" transform="matrix(.881571 -.252787 0 1.15016 -432.004 -481.653)" class="f"/><use xlink:href="#A" transform="matrix(.881571 -.252787 0 1.15016 -432.004 -470.21)" class="b"/><use xlink:href="#B" transform="matrix(.881571 -.252787 0 1.15016 -432.004 -458.767)" class="a"/><use xlink:href="#A" transform="matrix(.881571 -.252787 0 1.15016 -421.932 -484.541)" class="j"/><use xlink:href="#A" transform="matrix(.881571 -.252787 0 1.15016 -421.932 -473.098)" class="f"/><use xlink:href="#A" transform="matrix(.881571 -.252787 0 1.15016 -421.932 -461.655)" class="c"/><use xlink:href="#A" transform="matrix(.881571 -.252787 0 1.15016 -411.86 -487.43)" class="b"/><use xlink:href="#A" transform="matrix(.881571 -.252787 0 1.15016 -411.86 -475.986)" class="c"/><use xlink:href="#A" transform="matrix(.881571 -.252787 0 1.15016 -411.86 -464.543)" class="h"/><use xlink:href="#C" transform="matrix(.881571 -.252787 0 1.15016 -401.788 -490.318)" class="b"/><use xlink:href="#A" transform="matrix(.881571 -.252787 0 1.15016 -401.788 -478.874)" class="c"/><use xlink:href="#X" transform="matrix(.881571 -.252787 0 1.15016 -401.788 -467.431)" class="b"/></g></g><g class="k"><path d="M65.32 93.018c0 9.599 2.334 19.472 6.64 28.713h1.527c-4.422-9.241-6.732-19.023-6.732-28.713 0-9.627 2.267-19.43 6.732-28.717H71.96c-4.306 9.153-6.64 19.023-6.64 28.717z"/><use xlink:href="#D"/><use xlink:href="#E"/><use xlink:href="#F"/><path d="M174.948 98.915a4.26 4.26 0 0 0 1.613-.312l.775 1h1.4l-1.225-1.588c.95-.787 1.525-2.087 1.525-3.762 0-2.913-1.738-4.675-4.088-4.675-2.363 0-4.1 1.763-4.1 4.675 0 2.9 1.737 4.662 4.1 4.662zm-.463-3.075l1.287 1.7c-.262.075-.537.125-.825.125-1.575 0-2.75-1.213-2.75-3.412 0-2.225 1.175-3.425 2.75-3.425 1.563 0 2.738 1.2 2.738 3.425 0 1.237-.375 2.162-.975 2.725l-.875-1.138h-1.35zm6.256 2.95h1.363v-2.825l1.075-1.237 2.938 4.063h1.662l-3.675-5 3.662-4.1h-1.725l-3.825 4.35h-.112v-4.35h-1.363v9.1z"/></g><g class="i d"><g fill="none" class="n"><path d="M72.686 53.5v-7h116v7"/><path d="M399.216 53.5v-7h-170v7" stroke-width="1.002"/></g><g class="l"><path d="M456.478 52.016a3 3 0 0 0-3-2.999h-5a3 3 0 0 0-3 2.999v8h11v-8z" class="b"/><path d="M445.478 60.017h11v11h-11z" class="c"/><path d="M445.478 71.017h11v11h-11z" class="e"/><path d="M445.478 82.017h11v11h-11z" class="f"/><path d="M445.478 93.017h11v11h-11z" class="e"/><path d="M445.478 104.017h11v11h-11z" class="h"/><path d="M445.478 115.017h11v11h-11z" class="g"/><path d="M456.478 126.017h-11v8a3 3 0 0 0 3 2.999h5a3 3 0 0 0 3-2.999v-8z" class="a"/></g></g><g class="k"><g transform="matrix(0 1 -1 0 1020.38 -300.243)" fill="#4c628b"><path d="M340.648 555.826c2.016 0 3.156-1.116 3.156-2.52 0-1.644-1.56-2.148-2.46-2.4l-.876-.252c-.648-.18-1.692-.504-1.692-1.44 0-.84.768-1.452 1.92-1.452 1.068 0 1.86.504 1.956 1.356h1.032c-.048-1.308-1.26-2.292-2.952-2.292-1.668 0-2.976.972-2.976 2.436 0 1.176.852 1.884 2.22 2.268l1.068.312c.912.264 1.74.576 1.74 1.44 0 .96-.924 1.596-2.136 1.596-1.044 0-1.956-.468-2.052-1.452h-1.08c.096 1.428 1.26 2.4 3.132 2.4z"/><use xlink:href="#G"/><path d="M357.817 558.118v-9h-.96v1.044h-.12c-.216-.336-.612-1.128-1.896-1.128-1.644 0-2.784 1.32-2.784 3.384 0 2.076 1.14 3.396 2.772 3.396 1.26 0 1.692-.792 1.908-1.152h.084v3.456h.996zm-2.856-3.204c-1.26 0-1.896-1.116-1.896-2.508s.624-2.472 1.896-2.472c1.236 0 1.872.996 1.872 2.472s-.66 2.508-1.872 2.508zm5.489.828c.42 0 .768-.348.768-.768s-.348-.768-.768-.768-.768.348-.768.768.348.768.768.768z"/><use xlink:href="#H"/><use xlink:href="#G" x="25.313"/><path d="M377.682 558.118h.996v-3.456h.084c.228.36.648 1.152 1.908 1.152 1.644 0 2.784-1.32 2.784-3.396 0-2.064-1.14-3.384-2.796-3.384-1.284 0-1.668.792-1.896 1.128h-.12v-1.044h-.96v9zm2.856-3.204c-1.212 0-1.872-1.032-1.872-2.508s.648-2.472 1.872-2.472c1.272 0 1.908 1.08 1.908 2.472s-.648 2.508-1.908 2.508z"/><use xlink:href="#H" x="18.528"/><use xlink:href="#G" x="43.84"/><use xlink:href="#I"/><use xlink:href="#G" x="57.071"/><use xlink:href="#J"/><use xlink:href="#K"/><use xlink:href="#L"/><use xlink:href="#K" x="11.133"/><use xlink:href="#M"/><use xlink:href="#N"/><use xlink:href="#J" x="32.531"/></g><path d="M210.785 94.984l.756-.742-2.436-2.436 2.436-2.422-.756-.77-2.422 2.436-2.436-2.436-.742.77 2.422 2.422-2.422 2.436.742.742 2.436-2.422 2.422 2.422zM9.945 98.44c2.352 0 3.682-1.302 3.682-2.94 0-1.918-1.82-2.506-2.87-2.8l-1.022-.294c-.756-.21-1.974-.588-1.974-1.68 0-.98.896-1.694 2.24-1.694 1.246 0 2.17.588 2.282 1.582h1.204c-.056-1.526-1.47-2.674-3.444-2.674-1.946 0-3.472 1.134-3.472 2.842 0 1.372.994 2.198 2.59 2.646l1.246.364c1.064.308 2.03.672 2.03 1.68 0 1.12-1.078 1.862-2.492 1.862-1.218 0-2.282-.546-2.394-1.694h-1.26c.112 1.666 1.47 2.8 3.654 2.8zm8.648-.014c2.072 0 3.472-1.582 3.472-3.948 0-2.38-1.4-3.962-3.472-3.962s-3.458 1.582-3.458 3.962c0 2.366 1.386 3.948 3.458 3.948zm0-1.05c-1.568 0-2.282-1.372-2.282-2.898s.714-2.912 2.282-2.912c1.582 0 2.296 1.386 2.296 2.912s-.714 2.898-2.296 2.898zm8.648-6.762h-1.722v-.77c0-.756.336-1.162 1.106-1.162.35 0 .546.084.658.126l.35-1.008c-.182-.084-.546-.21-1.12-.21-1.092 0-2.156.672-2.156 1.974v1.05h-1.232v.994h1.232v6.65h1.162v-6.65h1.722v-.994zm4.961 0h-1.638v-1.82h-1.162v1.82h-1.148v.994h1.148v4.774c0 1.176.854 1.974 2.086 1.974.322 0 .658-.056.868-.14l-.238-1.05a2.52 2.52 0 0 1-.518.056c-.714 0-1.036-.364-1.036-1.148v-4.466h1.638v-.994zm2 7.644h1.162v-4.774c0-1.12.826-1.918 1.736-1.918.896 0 1.512.588 1.512 1.456v5.236h1.204v-4.97c0-.98.602-1.722 1.68-1.722.84 0 1.554.448 1.554 1.582v5.11h1.176v-5.11c0-1.792-.966-2.632-2.338-2.632-1.092 0-1.89.504-2.282 1.302h-.084c-.378-.826-1.036-1.302-2.03-1.302-1.008 0-1.75.476-2.058 1.302h-.112v-1.204h-1.12v7.644zm14.422.182c1.344 0 2.03-.728 2.268-1.218h.084v1.036h1.148v-5.026c0-2.436-1.848-2.716-2.828-2.716-1.148 0-2.464.406-3.066 1.792l1.12.406c.266-.56.868-1.162 1.988-1.162 1.078 0 1.624.574 1.624 1.554v.042c0 .56-.588.518-1.974.7-1.414.182-2.968.49-2.968 2.24 0 1.498 1.148 2.352 2.604 2.352zm.182-1.05c-.938 0-1.61-.42-1.61-1.232 0-.896.812-1.176 1.736-1.302.49-.056 1.834-.196 2.03-.434V95.5c0 .952-.756 1.89-2.156 1.89zm6.362-6.776H53.81l2.422 3.836-2.422 3.808h1.358l1.82-2.968 1.82 2.968h1.358l-2.464-3.808 2.464-3.836h-1.358l-1.82 3.136-1.82-3.136zm165.682 2.404c0 9.599 2.334 19.472 6.64 28.713h1.527c-4.422-9.241-6.732-19.023-6.732-28.713 0-9.627 2.267-19.43 6.732-28.717h-1.527c-4.306 9.153-6.64 19.023-6.64 28.717z"/><use xlink:href="#D" x="211.532"/><use xlink:href="#E" x="218.529" y=".319"/><use xlink:href="#F" x="218.53" y=".319"/><path d="M390.464 90.009h-1.488l3.275 9.1h1.588l3.262-9.1h-1.475l-2.537 7.412h-.1l-2.525-7.412z"/></g><g class="i d l"><path d="M245.145 76.517h-8a3 3 0 0 0-3 2.999v8h11v-11z" class="b"/><path d="M234.145 87.517h11v11h-11z" class="c"/><path d="M245.145 98.517h-11v8a3 3 0 0 0 3 2.999h8v-11z" class="g"/><path d="M245.145 76.517h11v11h-11z" class="a"/><path d="M245.145 87.517h11v11h-11z" class="g"/><path d="M245.145 98.517h11v11h-11z" class="b"/><path d="M256.145 76.517h11v11h-11z" class="h"/><path d="M256.145 87.517h11v11h-11z" class="a"/><path d="M256.145 98.517h11v11h-11z" class="g"/><path d="M267.145 76.517h11v11h-11z" class="c"/><path d="M267.145 87.517h11v11h-11z" class="e"/><path d="M267.145 98.517h11v11h-11z" class="a"/><path d="M278.145 76.517h11v11h-11z" class="f"/><path d="M278.145 87.517h11v11h-11z" class="b"/><path d="M278.145 98.517h11v11h-11z" class="a"/><path d="M289.145 76.517h11v11h-11z" class="e"/><path d="M289.145 87.517h11v11h-11z" class="a"/><path d="M289.145 98.517h11v11h-11z" class="f"/><path d="M300.145 76.517h11v11h-11z" class="j"/><path d="M300.145 87.517h11v11h-11z" class="f"/><path d="M300.145 98.517h11v11h-11z" class="c"/><path d="M311.145 76.517h11v11h-11z" class="b"/><path d="M311.145 87.517h11v11h-11z" class="c"/><path d="M311.145 98.517h11v11h-11z" class="h"/><path d="M322.145 76.517h11v11h-11z" class="a"/><g class="e"><path d="M322.145 87.517h11v11h-11z"/><path d="M322.145 98.517h11v11h-11z"/></g><path d="M333.145 76.517h11v11h-11z" class="b"/><path d="M333.145 87.517h11v11h-11z" class="c"/><path d="M333.145 98.517h11v11h-11z" class="b"/><path d="M355.145 79.516a3 3 0 0 0-3-2.999h-8v11h11v-8z" class="g"/><path d="M344.145 87.517h11v11h-11z" class="j"/><path d="M355.145 98.517h-11v11h8a3 3 0 0 0 3-2.999v-8z" class="a"/></g><g class="k"><path d="M76.574 138.209h4.82v-.819h-3.549v-.063l1.711-1.838c1.313-1.407 1.701-2.058 1.701-2.898 0-1.186-.956-2.121-2.289-2.121-1.344 0-2.362.913-2.362 2.257h.882c0-.871.556-1.449 1.449-1.449.819 0 1.449.504 1.449 1.313 0 .704-.41 1.218-1.291 2.184l-2.52 2.772v.661zm6.22 1.816h.683l.787-2.887h-1.018l-.452 2.887zm4.866-9.46h-.892l-1.911 1.281v.934l1.859-1.239h.052v6.667h.892v-7.644z"/><use xlink:href="#O"/><use xlink:href="#O" x="6.562"/><path d="M107.627 138.335c1.103 0 1.481-.693 1.669-1.008h.105v.882h.84v-7.644h-.872v2.825h-.073c-.189-.294-.535-.987-1.659-.987-1.439 0-2.436 1.155-2.436 2.961 0 1.816.998 2.971 2.425 2.971zm.115-.787c-1.102 0-1.659-.977-1.659-2.195s.546-2.163 1.659-2.163c1.082 0 1.638.871 1.638 2.163s-.578 2.195-1.638 2.195z"/><use xlink:href="#P"/><use xlink:href="#Q"/><use xlink:href="#R"/><use xlink:href="#P" x="11.792"/><path d="M127.495 134.765c0-.998.63-1.575 1.47-1.575.819 0 1.323.546 1.323 1.439v3.581h.871v-3.643c0-1.46-.788-2.163-1.943-2.163-.861 0-1.407.388-1.669.976h-.084v-.903h-.84v5.733h.872v-3.444zm7.601 3.57c1.27 0 2.111-.777 2.258-1.796h-.882c-.157.619-.683 1.008-1.376 1.008-1.04 0-1.712-.871-1.712-2.195 0-1.302.683-2.163 1.712-2.163.777 0 1.239.483 1.376 1.008h.882c-.147-1.071-1.061-1.796-2.268-1.796-1.554 0-2.583 1.228-2.583 2.971 0 1.722.987 2.961 2.593 2.961zm6.054-5.859h-1.228v-1.365h-.871v1.365h-.861v.745h.861v3.581c0 .882.641 1.481 1.565 1.481a1.92 1.92 0 0 0 .651-.105l-.178-.787a1.89 1.89 0 0 1-.388.042c-.536 0-.777-.273-.777-.861v-3.35h1.228v-.745zm-51.49 19.875h.872v-3.024h.073c.2.315.567 1.008 1.669 1.008 1.439 0 2.436-1.155 2.436-2.971 0-1.806-.997-2.961-2.447-2.961-1.123 0-1.459.693-1.659.987H90.5v-.913h-.84v7.875zm2.499-2.803c-1.061 0-1.638-.903-1.638-2.195s.567-2.163 1.638-2.163c1.113 0 1.669.945 1.669 2.163s-.567 2.195-1.669 2.195zm5.569.797c1.008 0 1.522-.546 1.701-.913h.063v.777h.861v-3.769c0-1.827-1.386-2.037-2.121-2.037-.861 0-1.848.304-2.3 1.344l.84.305c.2-.42.651-.872 1.491-.872.808 0 1.218.431 1.218 1.166v.031c0 .42-.441.389-1.481.525-1.061.137-2.226.368-2.226 1.68 0 1.124.861 1.764 1.953 1.764zm.136-.788c-.704 0-1.207-.315-1.207-.924 0-.672.609-.882 1.302-.977.368-.042 1.376-.147 1.523-.326v.809c0 .714-.567 1.417-1.617 1.417z"/><use xlink:href="#R" x="-18.341" y="12"/><path d="M108.054 150.335c1.27 0 2.11-.777 2.257-1.796h-.882c-.158.619-.683 1.008-1.376 1.008-1.04 0-1.712-.871-1.712-2.195 0-1.302.682-2.163 1.712-2.163.777 0 1.239.483 1.376 1.008h.882c-.147-1.071-1.061-1.796-2.268-1.796-1.554 0-2.583 1.228-2.583 2.971 0 1.722.987 2.961 2.594 2.961zm4.447-3.57c0-.998.64-1.575 1.512-1.575.861 0 1.344.514 1.344 1.439v3.581h.871v-3.643c0-1.47-.798-2.163-1.963-2.163-.903 0-1.418.378-1.68.976h-.084v-2.814h-.872v7.644h.872v-3.444zm7.747 3.57c1.155 0 2.006-.588 2.268-1.449l-.85-.242c-.221.599-.735.903-1.418.903-1.039 0-1.753-.672-1.795-1.901h4.158v-.378c0-2.131-1.281-2.867-2.478-2.867-1.554 0-2.562 1.228-2.562 2.982 0 1.764 1.019 2.951 2.677 2.951zm-1.795-3.444c.063-.903.672-1.701 1.68-1.701.966 0 1.502.693 1.585 1.701h-3.265z"/><use xlink:href="#Q" x="9.103" y="12"/></g><path d="M399.213 28.5v-7H72.682v7" fill="none" stroke-width=".991" class="d i n"/><g fill="#4c628b" class="k"><path d="M150.491 9h2.748v7.788h1.056V9h2.748v-.948h-6.552V9z"/><use xlink:href="#H" x="-208.597" y="-538.882"/><use xlink:href="#S"/><use xlink:href="#J" x="-240.343" y="-538.882"/><use xlink:href="#I" x="-220.081" y="-538.882"/><use xlink:href="#T"/><use xlink:href="#N" x="-248.359" y="-538.882"/><use xlink:href="#H" x="-172.843" y="-538.882"/><use xlink:href="#U"/><use xlink:href="#G" x="-136.702" y="-538.882"/><use xlink:href="#H" x="-150.788" y="-538.882"/><path d="M219.573 12.576h3.816v.936h-3.816zm5.592-4.524h.996v8.736h-.996z"/><use xlink:href="#M" x="-203.406" y="-538.882"/><path d="M231.405 16.788h.996V14.34l.708-.648 2.448 3.096h1.284l-2.976-3.744 2.772-2.808h-1.248l-2.856 2.916h-.132v-5.1h-.996v8.736z"/><use xlink:href="#G" x="-107.745" y="-538.882"/><use xlink:href="#I" x="-148.21" y="-538.882"/><use xlink:href="#G" x="-91.14" y="-538.882"/><path d="M261.229 8.052h.996v8.736h-.996z"/><use xlink:href="#T" x="81.68"/><path d="M267.977 12.576h3.816v.936h-3.816z"/><use xlink:href="#S" x="111.246"/><use xlink:href="#K" x="-136.128" y="-538.882"/><use xlink:href="#K" x="-131.769" y="-538.882"/><use xlink:href="#G" x="-56.411" y="-538.882"/><use xlink:href="#J" x="-113.482" y="-538.882"/><use xlink:href="#K" x="-113.482" y="-538.882"/><use xlink:href="#M" x="-124.615" y="-538.882"/><use xlink:href="#N" x="-124.615" y="-538.882"/><use xlink:href="#J" x="-92.084" y="-538.882"/><path d="M107.113 41.809c.576 0 1.104-.12 1.572-.324l.756 1.02h1.164l-1.14-1.512c.936-.756 1.5-2.028 1.5-3.66 0-2.772-1.62-4.488-3.852-4.488s-3.852 1.716-3.852 4.488c0 2.76 1.62 4.476 3.852 4.476zm-.336-2.856l1.284 1.704c-.288.108-.612.168-.948.168-1.584 0-2.832-1.236-2.832-3.492 0-2.28 1.248-3.504 2.832-3.504s2.832 1.224 2.832 3.504c0 1.308-.42 2.28-1.08 2.856l-.936-1.236h-1.152zm5.961 2.736h1.056v-2.82l1.092-1.236 3.036 4.056h1.272l-3.66-4.788 3.66-3.948h-1.368l-3.924 4.344h-.108v-4.344h-1.056v8.736z"/><use xlink:href="#U" x="-74.456" y="24.901"/><use xlink:href="#L" x="-286.58" y="-513.981"/><use xlink:href="#K" x="-275.447" y="-513.981"/><use xlink:href="#H" x="-220.884" y="-513.981"/><use xlink:href="#M" x="-281.74" y="-513.981"/><use xlink:href="#V"/><path d="M291.917 32.953h-1.116l3.216 8.736h1.092l3.192-8.736h-1.092l-2.592 7.356h-.108l-2.592-7.356z"/><use xlink:href="#U" x="104.644" y="24.901"/><use xlink:href="#L" x="-107.479" y="-513.981"/><use xlink:href="#K" x="-96.347" y="-513.981"/><use xlink:href="#H" x="-41.784" y="-513.981"/><use xlink:href="#M" x="-102.64" y="-513.981"/><use xlink:href="#V" x="179.1"/></g><defs><path id="A" d="M601.133 624.768h11.425v9.949h-11.425z"/><path id="B" d="M612.558 624.768h-11.425v6.488c0 .819.502 1.7 1.355 2.381s1.959 1.08 2.986 1.08h7.084v-9.949z"/><path id="C" d="M612.558 628.229c0-.819-.502-1.7-1.355-2.381s-1.959-1.08-2.986-1.08h-7.084v9.949h11.425v-6.488z"/><path id="D" d="M196.053 93.018c0 9.599-2.334 19.472-6.64 28.713h-1.527c4.422-9.241 6.732-19.023 6.732-28.713 0-9.627-2.267-19.43-6.732-28.717h1.527c4.306 9.153 6.64 19.023 6.64 28.717z"/><path id="E" d="M151.859 94.886l.756-.756-2.436-2.422 2.436-2.436-.756-.756-2.422 2.436-2.436-2.436-.742.756 2.422 2.436-2.422 2.422.742.756 2.436-2.436 2.422 2.436z"/><path id="F" d="M159.925 96.79h1.288l2.24-8.106h.084l2.24 8.106h1.274l2.786-10.192h-1.26l-2.114 8.302h-.112l-2.17-8.302h-1.386l-2.17 8.302h-.098l-2.142-8.302h-1.246l2.786 10.192z"/><path id="G" d="M348.156 555.814c1.32 0 2.292-.672 2.592-1.656l-.972-.276c-.252.684-.84 1.032-1.62 1.032-1.188 0-2.004-.768-2.052-2.172h4.752v-.432c0-2.436-1.464-3.276-2.832-3.276-1.776 0-2.928 1.404-2.928 3.408 0 2.016 1.164 3.372 3.06 3.372zm-2.052-3.936c.072-1.032.768-1.944 1.92-1.944 1.104 0 1.716.792 1.812 1.944h-3.732z"/><path id="H" d="M366.455 555.67h.996v-4.14c0-.888.708-1.536 1.656-1.536.276 0 .552.048.624.06v-1.02c-.12 0-.384-.012-.528-.012-.792 0-1.476.444-1.716 1.092h-.072v-.996h-.96v6.552z"/><path id="I" d="M400.841 550.594c-.312-.924-1.02-1.56-2.316-1.56-1.38 0-2.412.792-2.412 1.896 0 .9.54 1.5 1.752 1.788l1.092.252c.648.168.972.468.972.936 0 .552-.612 1.02-1.536 1.02-.828 0-1.344-.36-1.524-1.056l-.948.228c.228 1.116 1.14 1.716 2.484 1.716 1.524 0 2.556-.84 2.556-1.968 0-.912-.576-1.488-1.74-1.776l-.972-.228c-.768-.192-1.128-.456-1.128-.96 0-.564.6-.972 1.404-.972.876 0 1.236.492 1.416.936l.9-.252z"/><path id="J" d="M410.436 551.734c0-1.14.72-1.8 1.68-1.8.936 0 1.512.624 1.512 1.644v4.092h.996v-4.164c0-1.668-.9-2.472-2.22-2.472-.984 0-1.608.444-1.908 1.116h-.096v-1.032h-.96v6.552h.996v-3.936z"/><path id="K" d="M419.303 549.118h-1.404v-1.56h-.996v1.56h-.984v.852h.984v4.092c0 1.008.732 1.692 1.788 1.692.276 0 .564-.048.744-.12l-.204-.9a2.16 2.16 0 0 1-.444.048c-.612 0-.888-.312-.888-.984v-3.828h1.404v-.852z"/><path id="L" d="M422.75 555.826c1.152 0 1.74-.624 1.944-1.044h.072v.888h.984v-4.308c0-2.088-1.584-2.328-2.424-2.328-.984 0-2.112.348-2.628 1.536l.96.348c.228-.48.744-.996 1.704-.996.924 0 1.392.492 1.392 1.332v.036c0 .48-.504.444-1.692.6-1.212.156-2.544.42-2.544 1.92 0 1.284.984 2.016 2.232 2.016zm.156-.9c-.804 0-1.38-.36-1.38-1.056 0-.768.696-1.008 1.488-1.116.42-.048 1.572-.168 1.74-.372v.924c0 .816-.648 1.62-1.848 1.62z"/><path id="M" d="M431.963 555.67h.996v-6.552h-.996v6.552zm.504-7.644c.396 0 .72-.3.72-.672 0-.384-.324-.684-.72-.684s-.708.3-.708.684c0 .372.312.672.708.672z"/><path id="N" d="M437.463 555.814c1.776 0 2.976-1.356 2.976-3.384 0-2.04-1.2-3.396-2.976-3.396s-2.964 1.356-2.964 3.396c0 2.028 1.188 3.384 2.964 3.384zm0-.9c-1.344 0-1.956-1.176-1.956-2.484s.612-2.496 1.956-2.496c1.356 0 1.968 1.188 1.968 2.496s-.612 2.484-1.968 2.484z"/><path id="O" d="M91.864 138.314c1.691 0 2.657-1.428 2.657-3.916s-.977-3.927-2.657-3.927c-1.669 0-2.646 1.438-2.646 3.927s.966 3.916 2.646 3.916zm0-.808c-1.123 0-1.764-1.145-1.764-3.108 0-1.974.641-3.119 1.764-3.119 1.134 0 1.775 1.144 1.775 3.119 0 1.963-.641 3.108-1.775 3.108z"/><path id="P" d="M112.339 138.209h.872v-5.733h-.872v5.733zm.441-6.689c.347 0 .63-.262.63-.588 0-.336-.283-.599-.63-.599s-.62.262-.62.599c0 .326.273.588.62.588z"/><path id="Q" d="M118.884 133.767c-.273-.809-.893-1.365-2.027-1.365-1.207 0-2.11.693-2.11 1.659 0 .787.472 1.313 1.533 1.565l.956.22c.567.147.851.41.851.819 0 .483-.535.892-1.344.892-.724 0-1.176-.315-1.334-.924l-.829.2c.2.976.998 1.501 2.174 1.501 1.334 0 2.236-.735 2.236-1.722 0-.798-.504-1.302-1.522-1.554l-.85-.2c-.672-.168-.987-.399-.987-.84 0-.493.525-.85 1.228-.85.767 0 1.082.43 1.239.819l.788-.22z"/><path id="R" d="M122.794 132.476h-1.228v-1.365h-.872v1.365h-.861v.745h.861v3.581c0 .882.641 1.481 1.565 1.481a1.92 1.92 0 0 0 .651-.105l-.178-.787a1.89 1.89 0 0 1-.389.042c-.535 0-.777-.273-.777-.861v-3.35h1.228v-.745z"/><path id="S" d="M164.243 16.944c1.152 0 1.74-.624 1.944-1.044h.072v.888h.984V12.48c0-2.088-1.584-2.328-2.424-2.328-.984 0-2.112.348-2.628 1.536l.96.348c.228-.48.744-.996 1.704-.996.924 0 1.392.492 1.392 1.332v.036c0 .48-.504.444-1.692.6-1.212.156-2.544.42-2.544 1.92 0 1.284.984 2.016 2.232 2.016zm.156-.9c-.804 0-1.38-.36-1.38-1.056 0-.768.696-1.008 1.488-1.116.42-.048 1.572-.168 1.74-.372v.924c0 .816-.648 1.62-1.848 1.62z"/><path id="T" d="M185.301 10.236h-1.476v-.66c0-.648.288-.996.948-.996.3 0 .468.072.564.108l.3-.864c-.156-.072-.468-.18-.96-.18-.936 0-1.848.576-1.848 1.692v.9h-1.056v.852h1.056v5.7h.996v-5.7h1.476v-.852z"/><path id="U" d="M198.265 16.788h.996v-4.092c0-.96.708-1.644 1.488-1.644.768 0 1.296.504 1.296 1.248v4.488h1.032v-4.26c0-.84.516-1.476 1.44-1.476.72 0 1.332.384 1.332 1.356v4.38h1.008v-4.38c0-1.536-.828-2.256-2.004-2.256-.936 0-1.62.432-1.956 1.116h-.072c-.324-.708-.888-1.116-1.74-1.116-.864 0-1.5.408-1.764 1.116h-.096v-1.032h-.96v6.552z"/><path id="V" d="M153.827 35.137h-1.164l2.076 3.288-2.076 3.264h1.164l1.56-2.544 1.56 2.544h1.164l-2.112-3.264 2.112-3.288h-1.164l-1.56 2.688-1.56-2.688z"/><path id="W" d="M612.558 624.768h-8.96c-1.46 0-2.465.802-2.465 1.965v7.984h11.425v-9.949z"/><path id="X" d="M612.558 624.768h-11.425v9.949h8.96c1.459 0 2.465-.802 2.465-1.965v-7.984z"/></defs></svg>