<svg xmlns="http://www.w3.org/2000/svg" xmlns:xlink="http://www.w3.org/1999/xlink" width="100%" height="100%" viewBox="0 0 450 280" fill-rule="evenodd" stroke-linecap="round" stroke-miterlimit="1.5" xmlns:v="https://vecta.io/nano"><style><![CDATA[.B{stroke:#000}.C{stroke-width:.902}.D{fill-opacity:.7}.E{fill-rule:nonzero}.F{fill:#f2f2f2}.G{fill:#5a74d1}.H{fill:#a7bcec}.I{fill:#e84b6e}.J{fill:#4f4f4f}.K{fill:#4c628b}.L{fill-opacity:.25}]]></style><g class="E K"><use xlink:href="#B"/><use xlink:href="#C"/><use xlink:href="#D"/><path d="M52.646 117.242h3.816v.936h-3.816z"/><use xlink:href="#E"/><use xlink:href="#F"/><use xlink:href="#G"/><path d="M82.982 121.598c1.32 0 2.292-.672 2.592-1.656l-.972-.276c-.252.684-.84 1.032-1.62 1.032-1.188 0-2.004-.768-2.052-2.172h4.752v-.432c0-2.436-1.464-3.276-2.832-3.276-1.776 0-2.928 1.404-2.928 3.408 0 2.016 1.164 3.372 3.06 3.372zm-2.052-3.936c.072-1.032.768-1.944 1.92-1.944 1.104 0 1.716.792 1.812 1.944H80.93z"/><use xlink:href="#C" x="48.457"/><path d="M96.878 121.598c1.452 0 2.412-.888 2.58-2.052H98.45c-.18.708-.78 1.152-1.572 1.152-1.188 0-1.956-.996-1.956-2.508 0-1.488.78-2.472 1.956-2.472.888 0 1.416.552 1.572 1.152h1.008c-.168-1.224-1.212-2.052-2.592-2.052-1.776 0-2.952 1.404-2.952 3.396 0 1.968 1.128 3.384 2.964 3.384z"/><use xlink:href="#F" x="35.625"/><use xlink:href="#H"/><use xlink:href="#D" x="69.656"/><use xlink:href="#H" x="14.262"/><use xlink:href="#I"/><path d="M61.062 134.598c1.32 0 2.292-.672 2.592-1.656l-.972-.276c-.252.684-.84 1.032-1.62 1.032-1.188 0-2.004-.768-2.052-2.172h4.752v-.432c0-2.436-1.464-3.276-2.832-3.276-1.776 0-2.928 1.404-2.928 3.408 0 2.016 1.164 3.372 3.06 3.372zm-2.052-3.936c.072-1.032.768-1.944 1.92-1.944 1.104 0 1.716.792 1.812 1.944H59.01z"/><use xlink:href="#J"/><use xlink:href="#K"/><use xlink:href="#D" x="33.779" y="13"/><use xlink:href="#C" x="47.771" y="13"/><use xlink:href="#L"/><use xlink:href="#D" x="54.51" y="13"/></g><g class="B C F"><path d="M29.134 31.627h-8a3 3 0 0 0-3 2.999v8h11v-11z"/><use xlink:href="#M"/><use xlink:href="#M" y="11"/><use xlink:href="#M" y="22"/></g><g class="H B C"><path d="M29.134 75.627h-11v8a3 3 0 0 0 3 2.999h8v-11z"/><use xlink:href="#M" x="11" y="-11"/></g><g class="F B C"><use xlink:href="#M" x="11"/><use xlink:href="#M" x="11" y="11"/><use xlink:href="#M" x="11" y="22"/><use xlink:href="#M" x="11" y="33"/><use xlink:href="#M" x="22" y="-11"/><use xlink:href="#M" x="22"/><use xlink:href="#M" x="22" y="11"/><use xlink:href="#M" x="22" y="22"/></g><use xlink:href="#M" x="22" y="33" class="B C H"/><g class="F B C"><use xlink:href="#M" x="33" y="-11"/><use xlink:href="#M" x="33"/><use xlink:href="#M" x="33" y="11"/></g><use xlink:href="#M" x="33" y="22" class="B C H"/><g class="F B C"><use xlink:href="#M" x="33" y="33"/><use xlink:href="#M" x="44" y="-11"/></g><use xlink:href="#M" x="44" class="B C H"/><g class="F B C"><use xlink:href="#M" x="44" y="11"/><use xlink:href="#M" x="44" y="22"/><use xlink:href="#M" x="44" y="33"/><use xlink:href="#M" x="55" y="-11"/></g><use xlink:href="#M" x="55" class="B C H"/><g class="F B C"><use xlink:href="#M" x="55" y="11"/><use xlink:href="#M" x="55" y="22"/><use xlink:href="#M" x="55" y="33"/></g><use xlink:href="#M" x="66" y="-11" class="B C H"/><g class="F B C"><use xlink:href="#M" x="66"/><use xlink:href="#M" x="66" y="11"/><use xlink:href="#M" x="66" y="22"/><use xlink:href="#M" x="66" y="33"/><use xlink:href="#M" x="77" y="-11"/></g><use xlink:href="#M" x="77" class="B C H"/><g class="F B C"><use xlink:href="#M" x="77" y="11"/><use xlink:href="#M" x="77" y="22"/><use xlink:href="#M" x="77" y="33"/><use xlink:href="#M" x="88" y="-11"/><use xlink:href="#M" x="88"/><use xlink:href="#M" x="88" y="11"/></g><use xlink:href="#M" x="88" y="22" class="B C H"/><g class="F B C"><use xlink:href="#M" x="88" y="33"/><use xlink:href="#M" x="99" y="-11"/><use xlink:href="#M" x="99"/><use xlink:href="#M" x="99" y="11"/><use xlink:href="#M" x="99" y="22"/></g><use xlink:href="#M" x="99" y="33" class="B C H"/><g class="F B C"><path d="M139.134 34.626a3 3 0 0 0-3-2.999h-8v11h11v-8z"/><use xlink:href="#M" x="110"/></g><use xlink:href="#M" x="110" y="11" class="B C H"/><g class="F B C"><use xlink:href="#M" x="110" y="22"/><path d="M139.134 75.627h-11v11h8a3 3 0 0 0 3-2.999v-8z"/></g><g class="E K"><path d="M210.439 121.61c2.016 0 3.156-1.116 3.156-2.52 0-1.644-1.56-2.148-2.46-2.4l-.876-.252c-.648-.18-1.692-.504-1.692-1.44 0-.84.768-1.452 1.92-1.452 1.068 0 1.86.504 1.956 1.356h1.032c-.048-1.308-1.26-2.292-2.952-2.292-1.668 0-2.976.972-2.976 2.436 0 1.176.852 1.884 2.22 2.268l1.068.312c.912.264 1.74.576 1.74 1.44 0 .96-.924 1.596-2.136 1.596-1.044 0-1.956-.468-2.052-1.452h-1.08c.096 1.428 1.26 2.4 3.132 2.4z"/><use xlink:href="#D" x="169.43"/><use xlink:href="#J" x="156.885" y="-13"/><use xlink:href="#K" x="156.885" y="-13"/><use xlink:href="#D" x="190.665"/><use xlink:href="#C" x="204.657"/><use xlink:href="#L" x="156.886" y="-13"/><use xlink:href="#D" x="211.395"/><use xlink:href="#N"/><use xlink:href="#D" x="153.059" y="13"/><use xlink:href="#O"/><use xlink:href="#N" x="18.527"/><use xlink:href="#D" x="171.587" y="13"/><use xlink:href="#I" x="172.273"/><use xlink:href="#D" x="184.817" y="13"/><use xlink:href="#C" x="198.809" y="13"/><use xlink:href="#G" x="172.079" y="13"/><use xlink:href="#P"/><use xlink:href="#G" x="183.212" y="13"/><use xlink:href="#Q"/><use xlink:href="#F" x="197.579" y="13"/><use xlink:href="#C" x="231.34" y="13"/><use xlink:href="#R"/><path d="M325.259 112.718h.996v8.736h-.996z"/><use xlink:href="#P" x="79.169" y="-13"/><use xlink:href="#I" x="282.836" y="-13"/><use xlink:href="#I" x="289.106" y="-13"/><use xlink:href="#Q" x="87.348" y="-13"/><path d="M353.171 114.902h-1.476v-.66c0-.648.288-.996.948-.996.3 0 .468.072.564.108l.3-.864c-.156-.072-.468-.18-.96-.18-.936 0-1.848.576-1.848 1.692v.9h-1.056v.852h1.056v5.7h.996v-5.7h1.476v-.852z"/><use xlink:href="#Q" x="94.52" y="-13"/><use xlink:href="#L" x="263.899" y="-13"/><use xlink:href="#P" x="115.239" y="-13"/><use xlink:href="#G" x="298.451"/><use xlink:href="#Q" x="115.239" y="-13"/><use xlink:href="#F" x="312.818"/><use xlink:href="#C" x="346.58"/><use xlink:href="#I" x="343.68" y="-13"/><use xlink:href="#L" x="308.453" y="-13"/><use xlink:href="#F" x="343.393"/><use xlink:href="#N" x="221.329" y="-13"/><use xlink:href="#D" x="374.388"/><use xlink:href="#I" x="375.074" y="-13"/></g><g class="G E"><path d="M364.517 76.03h-1.116l3.216 8.736h1.092l3.192-8.736h-1.092l-2.592 7.356h-.108l-2.592-7.356z"/><use xlink:href="#Q" x="112.064" y="-49.688"/><use xlink:href="#N" x="180.419" y="-49.688"/><use xlink:href="#K" x="306.871" y="-49.688"/><use xlink:href="#I" x="334.376" y="-49.688"/></g><g class="I E"><path d="M349.064 65.766h1.056v-3.192h1.908c2.028 0 2.952-1.236 2.952-2.772s-.924-2.772-2.964-2.772h-2.952v8.736zm1.056-4.128v-3.66h1.86c1.416 0 1.956.78 1.956 1.824s-.54 1.836-1.944 1.836h-1.872zm6.429-4.608h.996v8.736h-.996z"/><use xlink:href="#P" x="110.459" y="-68.688"/><use xlink:href="#I" x="314.126" y="-68.688"/><path d="M372.44 65.766h.996v-4.092c0-.96.708-1.644 1.488-1.644.768 0 1.296.504 1.296 1.248v4.488h1.032v-4.26c0-.84.516-1.476 1.44-1.476.72 0 1.332.384 1.332 1.356v4.38h1.008v-4.38c0-1.536-.828-2.256-2.004-2.256-.936 0-1.62.432-1.956 1.116H377c-.324-.708-.888-1.116-1.74-1.116-.864 0-1.5.408-1.764 1.116h-.096v-1.032h-.96v6.552z"/><use xlink:href="#Q" x="122.81" y="-68.688"/><path d="M388.189 65.91c1.26 0 1.692-.792 1.908-1.152h.12v1.008h.96V57.03h-.996v3.228h-.084c-.216-.336-.612-1.128-1.896-1.128-1.644 0-2.784 1.32-2.784 3.384 0 2.076 1.14 3.396 2.772 3.396zm.132-.9c-1.26 0-1.896-1.116-1.896-2.508s.624-2.472 1.896-2.472c1.236 0 1.872.996 1.872 2.472s-.66 2.508-1.872 2.508z"/></g><g class="J"><use xlink:href="#R" x="0.822" y="-74.696" class="E"/><use xlink:href="#E" x="267.842" y="-74.696" class="E"/><use xlink:href="#N" x="138.619" y="-87.696" class="E"/><use xlink:href="#F" x="272.109" y="-74.696" class="E"/><use xlink:href="#S" class="E"/><use xlink:href="#F" x="289.71" y="-74.696" class="E"/><use xlink:href="#I" x="310.165" y="-87.696" class="E"/><use xlink:href="#F" x="303.14" y="-74.696" class="E"/><use xlink:href="#S" x="31.031" class="E"/><use xlink:href="#D" x="340.311" y="-74.696" class="E"/><path d="M397.467 35.398h4v14h-4z"/></g><path d="M397.467 54.398h12v14h-12z" class="I"/><path d="M397.467 73.398h24v14h-24z" class="G"/><g class="B F"><path d="M209.135 26.655L169.27 10.138v97.979L209.135 91.6V26.655z" stroke-width="1.003"/><path d="M286.185 26.655h-27.184v64.942h27.184l15-32.483-15-32.459z" stroke-width=".989"/></g><g class="C B"><path d="M240.293 18.125a3 3 0 0 0-3-2.999h-5a3 3 0 0 0-3 2.999v8h11v-8z" fill="#ea9570"/><use xlink:href="#M" x="211.159" y="-16.501" fill="#de5d5c"/><use xlink:href="#M" x="211.159" y="-5.501" fill="#ce4762"/><use xlink:href="#M" x="211.159" y="5.499" fill="#e67961"/><use xlink:href="#M" x="211.159" y="16.499" fill="#ce4762"/><use xlink:href="#M" x="211.159" y="27.499" fill="#9a3670"/><use xlink:href="#M" x="211.159" y="38.499" fill="#7e2f70"/><path d="M240.293 92.126h-11v8a3 3 0 0 0 3 2.999h5a3 3 0 0 0 3-2.999v-8z" fill="#b43d6b"/></g><g transform="matrix(0 1 -1 0 746.518 -333.498)" class="E"><path d="M375.124 546.934h1.056v8.736h-1.056zm6.716 8.856c2.076 0 3.564-1.38 3.564-3.54v-.948h-3.336v.936h2.304c-.036 1.572-1.056 2.568-2.532 2.568-1.62 0-2.868-1.236-2.868-3.492 0-2.28 1.248-3.504 2.796-3.504 1.26 0 2.112.708 2.484 1.86h1.092c-.324-1.692-1.74-2.844-3.576-2.844-2.244 0-3.816 1.716-3.816 4.488 0 2.76 1.56 4.476 3.888 4.476zm5.366-.12h5.124v-.936h-4.068v-7.8h-1.056v8.736z"/><use xlink:href="#B" x="363.888" y="434.216"/><use xlink:href="#B" x="373.028" y="434.216"/><use xlink:href="#D" x="324.302" y="446.216"/><use xlink:href="#C" x="338.293" y="446.216"/><use xlink:href="#L" x="290.523" y="433.216"/><use xlink:href="#F" x="325.462" y="446.216"/><use xlink:href="#H" x="289.837" y="446.216"/><use xlink:href="#D" x="359.493" y="446.216"/><use xlink:href="#N" x="217.66" y="433.216"/></g><g transform="matrix(0 1 -1 0 833.428 -333.702)" class="E"><path d="M378.275 555.67c2.664 0 4.164-1.656 4.164-4.38 0-2.712-1.5-4.356-4.044-4.356h-2.808v8.736h2.688zm-1.632-.936v-6.852h1.68c2.052 0 3.096 1.296 3.096 3.408 0 2.136-1.044 3.444-3.204 3.444h-1.572z"/><use xlink:href="#D" x="338.311" y="434.216"/><use xlink:href="#C" x="352.303" y="434.216"/><use xlink:href="#I" x="346.028" y="421.216"/><use xlink:href="#D" x="358.573" y="434.216"/><use xlink:href="#C" x="331.529" y="446.216"/><use xlink:href="#D" x="331.529" y="446.216"/><use xlink:href="#G" x="311.76" y="446.216"/><path d="M390.094 567.67h.984l1.44-5.028h.096l1.44 5.028h.984l1.992-6.552h-1.056l-1.416 5.004h-.072l-1.368-5.004h-1.08l-1.392 5.016h-.072l-1.416-5.016h-1.056l1.992 6.552z"/><use xlink:href="#F" x="332.813" y="446.216"/><use xlink:href="#N" x="210.749" y="433.216"/><path d="M409.964 567.67h.996v-2.448l.708-.648 2.448 3.096h1.284l-2.976-3.744 2.772-2.808h-1.248l-2.856 2.916h-.132v-5.1h-.996v8.736z"/></g><g class="E K"><path d="M184.918 267.271h5.328v-.936h-4.272v-3h3.936v-.936h-3.936v-2.916h4.212v-.948h-5.268v8.736z"/><use xlink:href="#S" x="-152.65" y="220.513"/><path d="M205.387 267.415c1.644 0 2.784-1.32 2.784-3.396 0-2.064-1.14-3.384-2.796-3.384-1.284 0-1.668.792-1.896 1.128h-.084v-3.228h-.996v8.736h.96v-1.008h.12c.228.36.648 1.152 1.908 1.152zm-.132-.9c-1.212 0-1.872-1.032-1.872-2.508s.648-2.472 1.872-2.472c1.272 0 1.908 1.08 1.908 2.472s-.648 2.508-1.908 2.508z"/><use xlink:href="#D" x="163.931" y="145.817"/><use xlink:href="#H" x="108.537" y="145.817"/><use xlink:href="#H" x="115.837" y="145.817"/><use xlink:href="#Q" x="-28.264" y="132.817"/><use xlink:href="#C" x="195.917" y="145.817"/><path d="M244.326 269.863c1.572 0 2.82-.72 2.82-2.4v-6.744h-.96v1.044h-.108c-.216-.336-.624-1.128-1.908-1.128-1.656 0-2.796 1.32-2.796 3.336 0 2.04 1.188 3.192 2.772 3.192 1.284 0 1.692-.744 1.908-1.104h.096v1.332c0 1.092-.768 1.584-1.824 1.584-1.188 0-1.608-.624-1.872-.984l-.804.552c.408.696 1.212 1.32 2.676 1.32zm-.036-3.6c-1.26 0-1.908-.96-1.908-2.316 0-1.332.624-2.412 1.908-2.412 1.224 0 1.872.996 1.872 2.412 0 1.452-.66 2.316-1.872 2.316z"/><use xlink:href="#I" x="200.33" y="132.817"/><use xlink:href="#O" x="52.854" y="132.817"/><use xlink:href="#P" x="17.006" y="132.817"/><use xlink:href="#L" x="179.177" y="132.817"/><use xlink:href="#D" x="233.687" y="145.817"/></g><path d="M190.632 246.675h90v-90h-90z" fill="#fff"/><path d="M189.631 247.675v-92h92v92h-92zm91-1v-90h-90v90h90z"/><path d="M280.631 173.736v72.94h-39.727l-1.276-2.358-1.073-2.443-.867-2.514-.658-2.572-.447-2.617c-.34-2.635-.359-5.319-.044-7.992l.018-.155c.801-6.798-1.218-13.628-5.587-18.897l-.182-.22-.393-.432c2.817-1.589 5.495-3.475 8.008-5.626a70.84 70.84 0 0 1 24.438-13.639l1.51-.484c7.007-2.246 12.716-6.954 16.281-12.991z" class="J L"/><path d="M190.632 200.873v-44.197h90v17.061a29.25 29.25 0 0 1-16.278 12.991l-1.51.484a70.85 70.85 0 0 0-24.441 13.639c-2.512 2.152-5.189 4.038-8.006 5.627l-1.589-1.739-.329-.301-.039-.045-.282-.248-1.503-1.371-.266-.202-.078-.067-.563-.419-1.409-1.064-.211-.129-.094-.069-.853-.518-1.307-.812-.157-.078-.094-.059-1.127-.553-1.213-.607-.203-.086-1.401-.536-1.103-.433-.141-.045-1.737-.493-.931-.266-.031-.007-2.849-.538-4.046-.571c-1.51-.212-3.013-.239-4.492-.092l-2.191.35c-3.788 1.078-6.652 2.7-9.524 5.397z" class="G L"/><path d="M204.234 195.034a19 19 0 0 1 2.606.185l4.046.571 2.88.545 2.81.805 2.708 1.055 2.59 1.296 2.465 1.528 2.317 1.752 2.152 1.966 1.98 2.17.18.22c4.375 5.27 6.394 12.099 5.588 18.897-.008.052-.008.103-.016.155a32.5 32.5 0 0 0 .047 7.992c.297 2.324.845 4.61 1.659 6.809l.313.895a28.41 28.41 0 0 0 1.863 3.91l.485.891h-50.275v-45.803c2.872-2.697 5.737-4.319 9.524-5.397l2.191-.35a18.59 18.59 0 0 1 1.847-.092h.039z" class="I L"/><g class="E"><g class="G D"><use xlink:href="#T"/><use xlink:href="#T" x="1.215" y="-12.507"/></g><use xlink:href="#T" x="27.711" y="25.965" class="D J"/><use xlink:href="#T" x="3.896" y="-5.009" class="D G"/><use xlink:href="#T" x="-15.885" y="27.197" class="D I"/><use xlink:href="#T" x="2.636" y="-14.013" class="D G"/><use xlink:href="#T" x="9.807" y="30.585" class="D J"/><use xlink:href="#T" x="-28.834" y="20.494" class="D I"/><use xlink:href="#T" x="-7.276" y="-0.609" class="D G"/><use xlink:href="#T" x="-31.535" y="36.997" class="D I"/><use xlink:href="#T" x="4.396" y="-10.492" class="D G"/><g class="J D"><use xlink:href="#T" x="11.763" y="15.686"/><use xlink:href="#T" x="10.141" y="24.567"/></g><use xlink:href="#T" x="-9.862" y="-17.384" class="D G"/><use xlink:href="#T" x="13.406" y="32.542" class="D J"/><use xlink:href="#T" x="-26.621" y="29.703" class="D I"/><g class="G D"><use xlink:href="#T" x="-8.503" y="-11.906"/><use xlink:href="#T" x="-14.623" y="-6.792"/></g><use xlink:href="#T" x="31.117" y="33.624" class="D J"/><use xlink:href="#T" x="-0.879" y="-21.686" class="D G"/><use xlink:href="#T" x="20.898" y="35.581" class="D J"/><g class="I D"><use xlink:href="#T" x="-22.254" y="37.586"/><use xlink:href="#T" x="-38.021" y="35.595"/></g><g class="J D"><use xlink:href="#T" x="25.405" y="14.614"/><use xlink:href="#T" x="24.082" y="26.724"/></g><use xlink:href="#T" x="-29.886" y="18.497" class="D I"/><use xlink:href="#T" x="17.818" y="20.473" class="D J"/><g class="I D"><use xlink:href="#T" x="-19.743" y="31.054"/><use xlink:href="#T" x="-35.364" y="27.378"/></g><g fill="#304dac"><path d="M195.302 161.344h-1.522l2.698 7.644h1.701l2.688-7.644h-1.512l-1.985 6.017h-.084l-1.984-6.017z"/><use xlink:href="#U"/><path d="M204.557 168.988h1.344v-3.36c0-.735.556-1.239 1.291-1.239.231 0 .514.031.63.063v-1.239a3.5 3.5 0 0 0-.483-.031 1.43 1.43 0 0 0-1.418 1.04h-.063v-.966h-1.302v5.733zm7.817-2.405c0 .872-.63 1.302-1.218 1.302-.651 0-1.092-.462-1.092-1.186v-3.444h-1.344v3.654c0 1.376.787 2.153 1.911 2.153.861 0 1.459-.451 1.722-1.092h.063v1.018h1.302v-5.733h-1.344v3.328z"/><use xlink:href="#V"/></g><g fill="#ad1639"><path d="M194.783 241.557h1.386v-2.583h1.46c1.764 0 2.719-1.06 2.719-2.52s-.934-2.541-2.688-2.541h-2.877v7.644zm1.386-3.717v-2.761h1.27c1.04 0 1.491.556 1.491 1.375 0 .809-.452 1.386-1.481 1.386h-1.281zm5.318-3.927h1.344v7.644h-1.344zm4.387 7.759c.903 0 1.439-.42 1.68-.903h.063v.787h1.281v-3.833c0-1.512-1.249-1.974-2.341-1.974-1.166 0-2.1.504-2.436 1.501l1.25.252c.136-.378.535-.714 1.197-.714.641 0 .987.326.987.871v.031c0 .388-.41.41-1.417.514-1.113.115-2.184.452-2.184 1.743 0 1.124.83 1.722 1.922 1.722zm.346-.987c-.556 0-.956-.262-.956-.756 0-.525.452-.735 1.05-.819.346-.052 1.071-.147 1.25-.283v.672c0 .641-.525 1.186-1.344 1.186z"/><use xlink:href="#V" x="-4.824" y="72.569"/><path d="M216.048 241.557h1.344v-3.486c0-.704.472-1.176 1.06-1.176.567 0 .956.378.956.966v3.696h1.334v-3.581c0-.63.378-1.082 1.029-1.082.546 0 .976.315.976 1.019v3.643h1.355v-3.843c0-1.281-.735-1.964-1.785-1.964-.84 0-1.47.42-1.722 1.05h-.063c-.221-.651-.777-1.05-1.543-1.05s-1.344.399-1.585 1.05h-.074v-.977h-1.281v5.733z"/><use xlink:href="#U" x="23.672" y="72.569"/><path d="M230.35 241.662c.977 0 1.418-.588 1.627-1.008h.084v.903h1.323v-7.644h-1.344v2.856h-.063c-.2-.409-.619-1.018-1.638-1.018-1.312 0-2.363 1.04-2.363 2.951 0 1.89 1.018 2.961 2.373 2.961zm.368-1.113c-.893 0-1.355-.777-1.355-1.848s.452-1.838 1.355-1.838c.871 0 1.344.725 1.344 1.838 0 1.102-.483 1.848-1.344 1.848z"/></g><path d="M244.399 241.667c1.816 0 3.024-1.186 3.234-2.646h-1.397c-.179.903-.903 1.407-1.816 1.407-1.239 0-2.121-.935-2.121-2.678 0-1.733.882-2.688 2.131-2.688.924 0 1.649.525 1.806 1.449h1.397c-.231-1.701-1.543-2.688-3.234-2.688-1.995 0-3.496 1.449-3.496 3.927 0 2.468 1.491 3.916 3.496 3.916zm5.797-3.455c0-.829.525-1.312 1.239-1.312.735 0 1.134.452 1.134 1.228v3.434h1.355v-3.643c0-1.386-.787-2.163-1.984-2.163-.871 0-1.428.399-1.701 1.05h-.073v-2.888h-1.312v7.644h1.344v-3.35zm5.111 3.35h1.344v-3.36c0-.735.556-1.239 1.291-1.239.231 0 .514.031.63.063v-1.239a3.5 3.5 0 0 0-.483-.031 1.43 1.43 0 0 0-1.417 1.04h-.063v-.966h-1.302v5.733zm6.426.115c1.669 0 2.74-1.186 2.74-2.961s-1.071-2.961-2.74-2.961c-1.68 0-2.751 1.186-2.751 2.961s1.071 2.961 2.751 2.961zm0-1.092c-.924 0-1.375-.819-1.375-1.869s.451-1.869 1.375-1.869 1.375.819 1.375 1.869-.452 1.869-1.375 1.869zm3.884.977h1.344v-3.486c0-.704.473-1.176 1.061-1.176.567 0 .955.378.955.966v3.696h1.334v-3.581c0-.63.378-1.082 1.029-1.082.546 0 .976.315.976 1.019v3.643h1.355v-3.843c0-1.281-.735-1.964-1.785-1.964-.84 0-1.47.42-1.722 1.05h-.063c-.22-.651-.777-1.05-1.543-1.05s-1.344.399-1.585 1.05h-.074v-.977h-1.281v5.733zm10.431.084c.462 0 .819-.357.819-.819s-.357-.819-.819-.819-.829.357-.829.819.368.819.829.819z" fill="#3a3a3a"/></g><g fill="none" class="B"><path d="M249.188 167.286l-4.008 1.393-1.392-4.007" stroke-miterlimit="10"/><path d="M237.005 139.331c-1.916 16.25 15.155 14.467 8.175 29.348" stroke-linejoin="round"/></g><defs ><path id="B" d="M33.245 121.574c2.232 0 3.852-1.716 3.852-4.476 0-2.772-1.62-4.488-3.852-4.488s-3.852 1.716-3.852 4.488c0 2.76 1.62 4.476 3.852 4.476zm0-.984c-1.584 0-2.832-1.236-2.832-3.492 0-2.28 1.248-3.504 2.832-3.504s2.832 1.224 2.832 3.504c0 2.256-1.248 3.492-2.832 3.492z"/><path id="C" d="M39.734 117.518c0-1.14.72-1.8 1.68-1.8.936 0 1.512.624 1.512 1.644v4.092h.996v-4.164c0-1.668-.9-2.472-2.22-2.472-.984 0-1.608.444-1.908 1.116h-.096v-1.032h-.96v6.552h.996v-3.936z"/><path id="D" d="M48.517 121.598c1.32 0 2.292-.672 2.592-1.656l-.972-.276c-.252.684-.84 1.032-1.62 1.032-1.188 0-2.004-.768-2.052-2.172h4.752v-.432c0-2.436-1.464-3.276-2.832-3.276-1.776 0-2.928 1.404-2.928 3.408 0 2.016 1.164 3.372 3.06 3.372zm-2.052-3.936c.072-1.032.768-1.944 1.92-1.944 1.104 0 1.716.792 1.812 1.944h-3.732z"/><path id="E" d="M59.234 117.518c0-1.14.732-1.8 1.728-1.8.984 0 1.536.588 1.536 1.644v4.092h.996v-4.164c0-1.68-.912-2.472-2.244-2.472-1.032 0-1.62.432-1.92 1.116h-.096v-3.216h-.996v8.736h.996v-3.936z"/><path id="F" d="M67.991 121.598c1.776 0 2.976-1.356 2.976-3.384 0-2.04-1.2-3.396-2.976-3.396s-2.964 1.356-2.964 3.396c0 2.028 1.188 3.384 2.964 3.384zm0-.9c-1.344 0-1.956-1.176-1.956-2.484s.612-2.496 1.956-2.496c1.356 0 1.968 1.188 1.968 2.496s-.612 2.484-1.968 2.484z"/><path id="G" d="M75.331 114.902h-1.404v-1.56h-.996v1.56h-.984v.852h.984v4.092c0 1.008.732 1.692 1.788 1.692.276 0 .564-.048.744-.12l-.204-.9a2.16 2.16 0 0 1-.444.048c-.612 0-.888-.312-.888-.984v-3.828h1.404v-.852z"/><path id="H" d="M110.584 121.598c1.26 0 1.692-.792 1.908-1.152h.12v1.008h.96v-8.736h-.996v3.228h-.084c-.216-.336-.612-1.128-1.896-1.128-1.644 0-2.784 1.32-2.784 3.384 0 2.076 1.14 3.396 2.772 3.396zm.132-.9c-1.26 0-1.896-1.116-1.896-2.508s.624-2.472 1.896-2.472c1.236 0 1.872.996 1.872 2.472s-.66 2.508-1.872 2.508z"/><path id="I" d="M56.676 129.378c-.312-.924-1.02-1.56-2.316-1.56-1.38 0-2.412.792-2.412 1.896 0 .9.54 1.5 1.752 1.788l1.092.252c.648.168.972.468.972.936 0 .552-.612 1.02-1.536 1.02-.828 0-1.344-.36-1.524-1.056l-.948.228c.228 1.116 1.14 1.716 2.484 1.716 1.524 0 2.556-.84 2.556-1.968 0-.912-.576-1.488-1.74-1.776l-.972-.228c-.768-.192-1.128-.456-1.128-.96 0-.564.6-.972 1.404-.972.876 0 1.236.492 1.416.936l.9-.252z"/><path id="J" d="M70.723 136.902v-9h-.96v1.044h-.12c-.216-.336-.612-1.128-1.896-1.128-1.644 0-2.784 1.32-2.784 3.384 0 2.076 1.14 3.396 2.772 3.396 1.26 0 1.692-.792 1.908-1.152h.084v3.456h.996zm-2.856-3.204c-1.26 0-1.896-1.116-1.896-2.508s.624-2.472 1.896-2.472c1.236 0 1.872.996 1.872 2.472s-.66 2.508-1.872 2.508z"/><path id="K" d="M76.704 131.778c0 1.224-.948 1.788-1.692 1.788-.84 0-1.44-.612-1.44-1.56v-4.104h-.996v4.164c0 1.668.876 2.472 2.112 2.472.984 0 1.632-.528 1.944-1.2h.072v1.116h.996v-6.552h-.996v3.876z"/><path id="L" d="M96.192 134.598c1.452 0 2.412-.888 2.58-2.052h-1.008c-.18.708-.78 1.152-1.572 1.152-1.188 0-1.956-.996-1.956-2.508 0-1.488.78-2.472 1.956-2.472.888 0 1.416.552 1.572 1.152h1.008c-.168-1.224-1.212-2.052-2.592-2.052-1.776 0-2.952 1.404-2.952 3.396 0 1.968 1.128 3.384 2.964 3.384z"/><path id="M" d="M18.134 42.627h11v11h-11z"/><path id="N" d="M194.563 134.454h.996v-4.14c0-.888.708-1.536 1.656-1.536.276 0 .552.048.624.06v-1.02c-.12 0-.384-.012-.528-.012-.792 0-1.476.444-1.716 1.092h-.072v-.996h-.96v6.552z"/><path id="O" d="M205.789 136.902h.996v-3.456h.084c.228.36.648 1.152 1.908 1.152 1.644 0 2.784-1.32 2.784-3.396 0-2.064-1.14-3.384-2.796-3.384-1.284 0-1.668.792-1.896 1.128h-.12v-1.044h-.96v9zm2.856-3.204c-1.212 0-1.872-1.032-1.872-2.508s.648-2.472 1.872-2.472c1.272 0 1.908 1.08 1.908 2.472s-.648 2.508-1.908 2.508z"/><path id="P" d="M250.858 134.61c1.152 0 1.74-.624 1.944-1.044h.072v.888h.984v-4.308c0-2.088-1.584-2.328-2.424-2.328-.984 0-2.112.348-2.628 1.536l.96.348c.228-.48.744-.996 1.704-.996.924 0 1.392.492 1.392 1.332v.036c0 .48-.504.444-1.692.6-1.212.156-2.544.42-2.544 1.92 0 1.284.984 2.016 2.232 2.016zm.156-.9c-.804 0-1.38-.36-1.38-1.056 0-.768.696-1.008 1.488-1.116.42-.048 1.572-.168 1.74-.372v.924c0 .816-.648 1.62-1.848 1.62z"/><path id="Q" d="M260.071 134.454h.996v-6.552h-.996v6.552zm.504-7.644c.396 0 .72-.3.72-.672 0-.384-.324-.684-.72-.684s-.708.3-.708.684c0 .372.312.672.708.672z"/><path id="R" d="M320.176 121.574c1.752 0 3.18-1.056 3.504-2.856h-1.056c-.252 1.224-1.296 1.872-2.448 1.872-1.584 0-2.832-1.236-2.832-3.492 0-2.28 1.248-3.504 2.832-3.504 1.152 0 2.196.648 2.448 1.86h1.056c-.324-1.788-1.752-2.844-3.504-2.844-2.232 0-3.852 1.716-3.852 4.488 0 2.76 1.62 4.476 3.852 4.476z"/><path id="S" d="M344.608 46.758h.996v-4.092c0-.96.708-1.644 1.488-1.644.768 0 1.296.504 1.296 1.248v4.488h1.032v-4.26c0-.84.516-1.476 1.44-1.476.72 0 1.332.384 1.332 1.356v4.38h1.008v-4.38c0-1.536-.828-2.256-2.004-2.256-.936 0-1.62.432-1.956 1.116h-.072c-.324-.708-.888-1.116-1.74-1.116-.864 0-1.5.408-1.764 1.116h-.096v-1.032h-.96v6.552z"/><path id="T" d="M239.501 192.54c.727 0 1.423-.289 1.937-.803s.803-1.21.803-1.937-.289-1.423-.803-1.937-1.21-.803-1.937-.803-1.423.289-1.937.803-.803 1.21-.803 1.937.289 1.423.803 1.937 1.21.803 1.937.803z"/><path id="U" d="M201.82 168.988h1.344v-5.733h-1.344v5.733zm.672-6.542c.43 0 .787-.325.787-.724 0-.41-.357-.746-.787-.746s-.777.336-.777.746c0 .399.347.724.777.724z"/><path id="V" d="M219.635 164.777c-.189-.977-.956-1.596-2.299-1.596-1.386 0-2.321.683-2.321 1.743 0 .829.514 1.376 1.607 1.617l.987.2c.525.116.766.326.766.662 0 .378-.43.683-1.071.683-.609 0-1.018-.263-1.134-.787l-1.312.126c.168 1.05 1.05 1.68 2.457 1.68 1.428 0 2.447-.745 2.447-1.838 0-.808-.536-1.312-1.617-1.543l-.976-.21c-.578-.126-.798-.336-.798-.672 0-.378.42-.651.976-.651.63 0 .956.346 1.061.714l1.228-.126z"/></defs></svg>