<svg xmlns="http://www.w3.org/2000/svg" xmlns:xlink="http://www.w3.org/1999/xlink" width="100%" height="100%" viewBox="0 0 430 150" fill-rule="evenodd" stroke-linecap="round" stroke-miterlimit="1.5" xmlns:v="https://vecta.io/nano"><g transform="translate(0 -112.71)"><g fill-rule="nonzero"><path d="M20.998 141.047h7.235v-1.595h-4.582v-.072l1.813-1.856c2.059-1.957 2.61-2.914 2.61-4.103 0-1.769-1.436-3.059-3.553-3.059-2.088 0-3.567 1.305-3.567 3.291h1.813c0-1.073.667-1.74 1.726-1.74 1.001 0 1.755.609 1.755 1.595 0 .899-.537 1.508-1.581 2.566l-3.668 3.596v1.377zm10.412.116c.638 0 1.131-.493 1.131-1.131s-.493-1.131-1.131-1.131-1.145.493-1.145 1.131.507 1.131 1.145 1.131zm11.914.029c2.117 0 3.843-1.276 4.234-3.451h-1.276c-.305 1.479-1.566 2.262-2.958 2.262-1.914 0-3.422-1.493-3.422-4.219 0-2.755 1.508-4.234 3.422-4.234 1.392 0 2.653.783 2.958 2.248h1.276c-.391-2.161-2.117-3.436-4.234-3.436-2.697 0-4.655 2.073-4.655 5.423 0 3.335 1.958 5.409 4.655 5.409zm9.347.029c2.146 0 3.596-1.638 3.596-4.089 0-2.465-1.45-4.103-3.596-4.103s-3.581 1.638-3.581 4.103c0 2.451 1.435 4.089 3.581 4.089zm0-1.088c-1.624 0-2.363-1.421-2.363-3.001s.739-3.016 2.363-3.016c1.639 0 2.378 1.436 2.378 3.016s-.739 3.001-2.378 3.001zm6.649-3.842c0-1.377.87-2.175 2.03-2.175 1.131 0 1.827.754 1.827 1.987v4.945h1.203v-5.031c0-2.016-1.087-2.987-2.682-2.987-1.189 0-1.943.536-2.306 1.349h-.116v-1.247h-1.16v7.917h1.203v-4.756zm10.269 4.93c1.523 0 2.044-.957 2.305-1.392h.145v1.218h1.16v-10.556h-1.204v3.901h-.102c-.261-.406-.739-1.363-2.291-1.363-1.986 0-3.364 1.595-3.364 4.089 0 2.508 1.377 4.103 3.349 4.103zm.16-1.088c-1.523 0-2.291-1.349-2.291-3.03s.754-2.987 2.291-2.987c1.493 0 2.262 1.204 2.262 2.987s-.798 3.03-2.262 3.03zm6.348.914H77.3v-7.917h-1.203v7.917zm.609-9.237c.478 0 .87-.362.87-.812 0-.464-.392-.827-.87-.827s-.855.363-.855.827c0 .45.377.812.855.812zm6.253 1.32h-1.697v-1.885h-1.204v1.885H78.87v1.03h1.189v4.944c0 1.218.885 2.044 2.161 2.044.333 0 .681-.058.899-.145l-.247-1.088a2.61 2.61 0 0 1-.536.058c-.74 0-1.073-.377-1.073-1.189v-4.625h1.697v-1.03zm1.848 7.917h1.203v-7.917h-1.203v7.917zm.609-9.237c.478 0 .87-.362.87-.812 0-.464-.392-.827-.87-.827s-.855.363-.855.827c0 .45.377.812.855.812zm6.035 9.411c2.146 0 3.596-1.638 3.596-4.089 0-2.465-1.45-4.103-3.596-4.103s-3.581 1.638-3.581 4.103c0 2.451 1.435 4.089 3.581 4.089zm0-1.088c-1.624 0-2.364-1.421-2.364-3.001s.74-3.016 2.364-3.016c1.639 0 2.378 1.436 2.378 3.016s-.739 3.001-2.378 3.001zm6.649-3.842c0-1.377.87-2.175 2.03-2.175 1.131 0 1.827.754 1.827 1.987v4.945h1.204v-5.031c0-2.016-1.087-2.987-2.682-2.987-1.189 0-1.943.536-2.306 1.349h-.116v-1.247h-1.16v7.917H98.1v-4.756zm9.616 4.944c1.392 0 2.103-.754 2.349-1.262h.087v1.073h1.189v-5.206c0-2.523-1.914-2.813-2.929-2.813-1.189 0-2.552.42-3.175 1.856l1.16.421c.275-.58.899-1.204 2.059-1.204 1.117 0 1.682.595 1.682 1.609v.044c0 .58-.609.536-2.044.725-1.465.189-3.074.507-3.074 2.32 0 1.552 1.189 2.436 2.697 2.436zm.189-1.088c-.972 0-1.668-.435-1.668-1.276 0-.928.841-1.218 1.798-1.349.508-.058 1.9-.203 2.103-.45v1.117c0 .986-.783 1.958-2.233 1.958zm5.671-9.656h1.203v10.556h-1.203zm7.521 10.556h1.203v-5.002c0-1.073.856-1.856 2.001-1.856.334 0 .667.058.754.072v-1.232c-.145 0-.464-.015-.638-.015-.957 0-1.784.537-2.073 1.32h-.087v-1.203h-1.16v7.917zm7.719.188c1.392 0 2.102-.754 2.349-1.262h.087v1.073h1.189v-5.206c0-2.523-1.914-2.813-2.929-2.813-1.189 0-2.552.42-3.175 1.856l1.16.421c.275-.58.899-1.204 2.059-1.204 1.117 0 1.682.595 1.682 1.609v.044c0 .58-.609.536-2.044.725-1.465.189-3.074.507-3.074 2.32 0 1.552 1.189 2.436 2.697 2.436zm.189-1.088c-.971 0-1.668-.435-1.668-1.276 0-.928.841-1.218 1.798-1.349.507-.058 1.899-.203 2.102-.45v1.117c0 .986-.783 1.958-2.233 1.958zm6.875-3.856c0-1.377.87-2.175 2.03-2.175 1.131 0 1.827.754 1.827 1.987v4.945h1.204v-5.031c0-2.016-1.088-2.987-2.683-2.987-1.189 0-1.943.536-2.305 1.349h-.116v-1.247h-1.16v7.917h1.203v-4.756z"/><use xlink:href="#B"/><use xlink:href="#C"/><use xlink:href="#D"/><path d="M180.856 133.13h-1.783v-.797c0-.783.348-1.204 1.145-1.204.362 0 .565.087.681.131l.362-1.044c-.189-.087-.565-.218-1.16-.218-1.131 0-2.233.696-2.233 2.044v1.088h-1.276v1.03h1.276v6.887h1.204v-6.887h1.783v-1.03zm1.711 7.917h1.203v-7.917h-1.203v7.917zm.609-9.237c.478 0 .87-.362.87-.812 0-.464-.391-.827-.87-.827s-.856.363-.856.827c0 .45.377.812.856.812z"/><use xlink:href="#E"/><path d="M194.416 130.491h1.203v10.556h-1.203z"/><use xlink:href="#B" x="54.68"/><use xlink:href="#D" x="50.11"/><use xlink:href="#C" x="71.38"/><use xlink:href="#B" x="88.85"/><use xlink:href="#E" x="54.84"/><path d="M249.256 130.491h1.203v10.556h-1.203z"/></g><g fill="none" stroke="#000"><path d="M389.119 188.983H230.651" stroke-width=".999"/><path d="M208.813 188.988h20m160.304 0h20" stroke-dasharray="13.17,13.17,0,0"/><g stroke-width=".85"><path d="M547.952 957.385h-90.525" transform="matrix(0 -.708378 1.51607 0 -1141.58 566.533)"/><path d="M547.952 957.385h-90.525" transform="matrix(0 -.708378 1.51607 0 -1210.2 566.533)"/><path d="M547.952 957.385h-90.525" transform="matrix(0 -.708378 1.51607 0 -1072.96 566.533)"/></g></g><g transform="matrix(.908698 0 0 .908698 -47.771 -711.471)"><circle cx="469.106" cy="990.933" r="11.679" fill="#fff"/><use xlink:href="#F"/></g><g transform="matrix(.908698 0 0 .908698 -185.014 -668.57)"><circle cx="469.106" cy="990.933" r="11.679" fill="#5a74d1"/><use xlink:href="#F"/></g><g transform="matrix(.908698 0 0 .908698 -185.014 -711.471)"><circle cx="469.106" cy="990.933" r="11.679" fill="#fff"/><use xlink:href="#F"/></g><g transform="matrix(.908698 0 0 .908698 -116.393 -668.57)"><circle cx="469.106" cy="990.933" r="11.679" fill="#7b90da"/><use xlink:href="#F"/></g><g transform="matrix(.908698 0 0 .908698 -116.393 -711.471)"><circle cx="469.106" cy="990.933" r="11.679" fill="#fff"/><use xlink:href="#F"/></g><g transform="matrix(.908698 0 0 .908698 -47.771 -668.57)"><circle cx="469.106" cy="990.933" r="11.679" fill="#ededed"/><use xlink:href="#F"/></g><g fill-rule="nonzero"><use xlink:href="#G"/><use xlink:href="#H"/><use xlink:href="#I"/><use xlink:href="#H" x="13.992"/><use xlink:href="#J"/><path d="M255.714 169.711h3.756v.756h-3.756zm6.377 2.58h.888v-5.244h-.888l-1.38.936v.9l1.344-.9h.036v4.308z"/><use xlink:href="#G" x="72.911"/><use xlink:href="#H" x="72.911"/><use xlink:href="#I" x="72.911"/><use xlink:href="#H" x="86.904"/><use xlink:href="#J" x="72.912"/><use xlink:href="#G" x="137.243"/><path d="M368.652 170.935c1.32 0 2.292-.672 2.592-1.656l-.972-.276c-.252.684-.84 1.032-1.62 1.032-1.188 0-2.004-.768-2.052-2.172h4.752v-.432c0-2.436-1.464-3.276-2.832-3.276-1.776 0-2.928 1.404-2.928 3.408 0 2.016 1.164 3.372 3.06 3.372zm-2.052-3.936c.072-1.032.768-1.944 1.92-1.944 1.104 0 1.716.792 1.812 1.944H366.6z"/><use xlink:href="#I" x="137.243"/><use xlink:href="#H" x="151.235"/><use xlink:href="#J" x="137.243"/><path d="M394.457 171.895h.792v-1.416h1.476v-.768h-1.476v-1.416h-.792v1.416h-1.5v.768h1.5v1.416zm4.877.396h.888v-5.244h-.888l-1.38.936v.9l1.344-.9h.036v4.308zm-283.584 13.31h1.056v-3.9h4.644v3.9h1.056v-8.736h-1.056v3.9h-4.644v-3.9h-1.056v8.736z"/><use xlink:href="#K"/><use xlink:href="#L"/><use xlink:href="#L" x="7.301"/><use xlink:href="#H" x="-86.178" y="14.81"/><use xlink:href="#I" x="-86.178" y="14.81"/><path d="M159.851 176.865h.996v8.736h-.996z"/><use xlink:href="#M"/><use xlink:href="#N"/><use xlink:href="#H" x="-51.889" y="14.81"/><path d="M183.733 176.865h.996v8.736h-.996z"/><use xlink:href="#O"/><path d="M82.521 193.049h-1.08l-1.812 5.232h-.072l-1.8-5.232h-1.092l2.412 6.552h1.032l2.412-6.552z"/><use xlink:href="#K" x="-41.174" y="14"/><use xlink:href="#P"/><path d="M95.301 196.925c0 1.224-.948 1.788-1.692 1.788-.84 0-1.44-.612-1.44-1.56v-4.104h-.996v4.164c0 1.668.876 2.472 2.112 2.472.984 0 1.632-.528 1.944-1.2h.072v1.116h.996v-6.552h-.996v3.876z"/><use xlink:href="#Q"/><path d="M107.499 190.457h-.924l-2.82 10.452h.936l2.808-10.452z"/><use xlink:href="#R"/><path d="M116.427 195.665c0-1.14.732-1.8 1.728-1.8.984 0 1.536.588 1.536 1.644v4.092h.996v-4.164c0-1.68-.912-2.472-2.244-2.472-1.032 0-1.62.432-1.92 1.116h-.096v-3.216h-.996v8.736h.996v-3.936z"/><use xlink:href="#P" x="35.824"/><use xlink:href="#S"/><use xlink:href="#T"/><use xlink:href="#S" x="17.601"/><use xlink:href="#Q" x="53.415"/><use xlink:href="#S" x="31.031"/><use xlink:href="#T" x="31.031"/><use xlink:href="#H" x="-53.23" y="28.81"/><use xlink:href="#U"/><path d="M103.165 228.546c2.232 0 3.852-1.716 3.852-4.476 0-2.772-1.62-4.488-3.852-4.488s-3.852 1.716-3.852 4.488c0 2.76 1.62 4.476 3.852 4.476zm0-.984c-1.584 0-2.832-1.236-2.832-3.492 0-2.28 1.248-3.504 2.832-3.504s2.832 1.224 2.832 3.504c0 2.256-1.248 3.492-2.832 3.492z"/><use xlink:href="#N" x="-60.815" y="42.825"/><use xlink:href="#Q" x="17.813" y="28.825"/><use xlink:href="#H" x="-106.433" y="57.635"/><use xlink:href="#P" x="42.481" y="28.825"/><path d="M139.181 221.874h-1.08l-1.812 5.232h-.072l-1.8-5.232h-1.092l2.412 6.552h1.032l2.412-6.552z"/><use xlink:href="#H" x="-88.375" y="57.635"/><use xlink:href="#L" x="19.365" y="42.825"/><use xlink:href="#Q" x="59.778" y="28.825"/><use xlink:href="#V"/><use xlink:href="#M" x="5.854" y="42.825"/><use xlink:href="#V" x="11.133"/><use xlink:href="#H" x="-49.041" y="57.635"/><use xlink:href="#O" x="4.237" y="42.825"/><use xlink:href="#T" x="-52.541" y="42.825"/><use xlink:href="#M" x="-70.84" y="56.825"/><use xlink:href="#P" x="11.924" y="42.825"/><path d="M103.284 242.426h.996v-2.448l.708-.648 2.448 3.096h1.284l-2.976-3.744 2.772-2.808h-1.248l-2.856 2.916h-.132v-5.1h-.996v8.736z"/><use xlink:href="#H" x="-119.119" y="71.635"/><use xlink:href="#P" x="29.795" y="42.825"/><use xlink:href="#Q" x="26.198" y="42.825"/><path d="M130.612 244.874h.996v-3.456h.084c.228.36.648 1.152 1.908 1.152 1.644 0 2.784-1.32 2.784-3.396 0-2.064-1.14-3.384-2.796-3.384-1.284 0-1.668.792-1.896 1.128h-.12v-1.044h-.96v9zm2.856-3.204c-1.212 0-1.872-1.032-1.872-2.508s.648-2.472 1.872-2.472c1.272 0 1.908 1.08 1.908 2.472s-.648 2.508-1.908 2.508z"/><use xlink:href="#H" x="-90.748" y="71.635"/><use xlink:href="#R" x="36.182" y="42.825"/><use xlink:href="#K" x="26.578" y="56.825"/><path d="M157.364 235.874h-1.476v-.66c0-.648.288-.996.948-.996.3 0 .468.072.564.108l.3-.864c-.156-.072-.468-.18-.96-.18-.936 0-1.848.576-1.848 1.692v.9h-1.056v.852h1.056v5.7h.996v-5.7h1.476v-.852z"/><use xlink:href="#K" x="33.75" y="56.825"/><use xlink:href="#R" x="52.94" y="42.825"/><use xlink:href="#K" x="43.336" y="56.825"/><use xlink:href="#V" x="7.026" y="14"/><path d="M176.213 244.922c.912 0 1.536-.48 1.92-1.5l2.784-7.548h-1.08l-1.812 5.232h-.072l-1.8-5.232h-1.092l2.412 6.588-.192.564c-.336.936-.78 1.08-1.452.924l-.096-.024-.264.876c.108.06.396.12.744.12z"/><use xlink:href="#U" y="42.825"/></g></g><defs ><path id="B" d="M146.149 141.221c1.523 0 2.044-.957 2.305-1.392h.145v1.218h1.16v-10.556h-1.203v3.901h-.102c-.261-.406-.739-1.363-2.291-1.363-1.987 0-3.364 1.595-3.364 4.089 0 2.508 1.377 4.103 3.35 4.103zm.16-1.088c-1.523 0-2.291-1.349-2.291-3.03s.754-2.987 2.291-2.987c1.493 0 2.262 1.204 2.262 2.987s-.798 3.03-2.262 3.03z"/><path id="C" d="M155.201 141.221c2.146 0 3.596-1.638 3.596-4.089 0-2.465-1.45-4.103-3.596-4.103s-3.582 1.638-3.582 4.103c0 2.451 1.436 4.089 3.582 4.089zm0-1.088c-1.624 0-2.363-1.421-2.363-3.001s.739-3.016 2.363-3.016c1.638 0 2.378 1.436 2.378 3.016s-.74 3.001-2.378 3.001z"/><path id="D" d="M160.646 141.047h1.203v-4.945c0-1.16.856-1.987 1.798-1.987.928 0 1.566.609 1.566 1.508v5.423h1.247v-5.148c0-1.015.623-1.784 1.74-1.784.87 0 1.609.464 1.609 1.639v5.292h1.218v-5.292c0-1.856-1.001-2.726-2.422-2.726-1.131 0-1.958.522-2.363 1.349h-.087c-.391-.856-1.073-1.349-2.102-1.349-1.044 0-1.812.493-2.131 1.349h-.116v-1.247h-1.16v7.917z"/><path id="E" d="M189.327 141.221c1.595 0 2.769-.812 3.132-2.001l-1.174-.334c-.304.827-1.015 1.247-1.957 1.247-1.436 0-2.422-.928-2.48-2.625h5.742v-.522c0-2.943-1.769-3.958-3.422-3.958-2.146 0-3.538 1.696-3.538 4.118 0 2.436 1.406 4.075 3.698 4.075zm-2.48-4.756c.087-1.247.928-2.349 2.32-2.349 1.334 0 2.073.957 2.19 2.349h-4.51z"/><path id="F" d="M469.106 978.154c7.053 0 12.779 5.726 12.779 12.779s-5.726 12.777-12.779 12.777-12.78-5.723-12.78-12.777a12.79 12.79 0 0 1 12.78-12.779zm0 1.101c-6.446 0-11.679 5.233-11.679 11.678s5.233 11.677 11.679 11.677 11.678-5.231 11.678-11.677-5.233-11.678-11.678-11.678z"/><path id="G" d="M223.427 170.911c2.076 0 3.564-1.38 3.564-3.54v-.948h-3.336v.936h2.304c-.036 1.572-1.056 2.568-2.532 2.568-1.62 0-2.868-1.236-2.868-3.492 0-2.28 1.248-3.504 2.796-3.504 1.26 0 2.112.708 2.484 1.86h1.092c-.324-1.692-1.74-2.844-3.576-2.844-2.244 0-3.816 1.716-3.816 4.488 0 2.76 1.56 4.476 3.888 4.476z"/><path id="H" d="M231.409 170.935c1.32 0 2.292-.672 2.592-1.656l-.972-.276c-.252.684-.84 1.032-1.62 1.032-1.188 0-2.004-.768-2.052-2.172h4.752v-.432c0-2.436-1.464-3.276-2.832-3.276-1.776 0-2.928 1.404-2.928 3.408 0 2.016 1.164 3.372 3.06 3.372zm-2.052-3.936c.072-1.032.768-1.944 1.92-1.944 1.104 0 1.716.792 1.812 1.944h-3.732z"/><path id="I" d="M236.618 166.855c0-1.14.72-1.8 1.68-1.8.936 0 1.512.624 1.512 1.644v4.092h.996v-4.164c0-1.668-.9-2.472-2.22-2.472-.984 0-1.608.444-1.908 1.116h-.096v-1.032h-.96v6.552h.996v-3.936z"/><path id="J" d="M251.594 169.663c0-.624.408-1.02.972-1.032.564.012.936.384.936.996v2.664h.9v-2.808c0-.996-.612-1.608-1.5-1.608-.612 0-1.104.3-1.308.792h-.036v-.744h-.864v4.368h.9v-2.628z"/><path id="K" d="M125.034 185.601h.996v-6.552h-.996v6.552zm.504-7.644c.396 0 .72-.3.72-.672 0-.384-.324-.684-.72-.684s-.708.3-.708.684c0 .372.312.672.708.672z"/><path id="L" d="M130.342 185.745c1.26 0 1.692-.792 1.908-1.152h.12v1.008h.96v-8.736h-.996v3.228h-.084c-.216-.336-.612-1.128-1.896-1.128-1.644 0-2.784 1.32-2.784 3.384 0 2.076 1.14 3.396 2.772 3.396zm.132-.9c-1.26 0-1.896-1.116-1.896-2.508s.624-2.472 1.896-2.472c1.236 0 1.872.996 1.872 2.472s-.66 2.508-1.872 2.508z"/><path id="M" d="M164.618 185.757c1.152 0 1.74-.624 1.944-1.044h.072v.888h.984v-4.308c0-2.088-1.584-2.328-2.424-2.328-.984 0-2.112.348-2.628 1.536l.96.348c.228-.48.744-.996 1.704-.996.924 0 1.392.492 1.392 1.332v.036c0 .48-.504.444-1.692.6-1.212.156-2.544.42-2.544 1.92 0 1.284.984 2.016 2.232 2.016zm.156-.9c-.804 0-1.38-.36-1.38-1.056 0-.768.696-1.008 1.488-1.116.42-.048 1.572-.168 1.74-.372v.924c0 .816-.648 1.62-1.848 1.62z"/><path id="N" d="M172.46 185.745c1.644 0 2.784-1.32 2.784-3.396 0-2.064-1.14-3.384-2.796-3.384-1.284 0-1.668.792-1.896 1.128h-.084v-3.228h-.996v8.736h.96v-1.008h.12c.228.36.648 1.152 1.908 1.152zm-.132-.9c-1.212 0-1.872-1.032-1.872-2.508s.648-2.472 1.872-2.472c1.272 0 1.908 1.08 1.908 2.472s-.648 2.508-1.908 2.508z"/><path id="O" d="M73.204 196.049c0 1.716.528 3.504 1.512 5.184h.972c-1.02-2.1-1.476-3.66-1.476-5.184 0-1.704.564-3.852 1.476-5.712h-.972c-.876 1.464-1.512 3.816-1.512 5.712z"/><path id="P" d="M86.708 199.601h.996v-4.14c0-.888.708-1.536 1.656-1.536.276 0 .552.048.624.06v-1.02c-.12 0-.384-.012-.528-.012-.792 0-1.476.444-1.716 1.092h-.072v-.996h-.96v6.552z"/><path id="Q" d="M102.777 194.525c-.312-.924-1.02-1.56-2.316-1.56-1.38 0-2.412.792-2.412 1.896 0 .9.54 1.5 1.752 1.788l1.092.252c.648.168.972.468.972.936 0 .552-.612 1.02-1.536 1.02-.828 0-1.344-.36-1.524-1.056l-.948.228c.228 1.116 1.14 1.716 2.484 1.716 1.524 0 2.556-.84 2.556-1.968 0-.912-.576-1.488-1.74-1.776l-.972-.228c-.768-.192-1.128-.456-1.128-.96 0-.564.6-.972 1.404-.972.876 0 1.236.492 1.416.936l.9-.252z"/><path id="R" d="M111.344 199.745c1.452 0 2.412-.888 2.58-2.052h-1.008c-.18.708-.78 1.152-1.572 1.152-1.188 0-1.956-.996-1.956-2.508 0-1.488.78-2.472 1.956-2.472.888 0 1.416.552 1.572 1.152h1.008c-.168-1.224-1.212-2.052-2.592-2.052-1.776 0-2.952 1.404-2.952 3.396 0 1.968 1.128 3.384 2.964 3.384z"/><path id="S" d="M129.45 199.745c1.776 0 2.976-1.356 2.976-3.384 0-2.04-1.2-3.396-2.976-3.396s-2.964 1.356-2.964 3.396c0 2.028 1.188 3.384 2.964 3.384zm0-.9c-1.344 0-1.956-1.176-1.956-2.484s.612-2.496 1.956-2.496c1.356 0 1.968 1.188 1.968 2.496s-.612 2.484-1.968 2.484z"/><path id="T" d="M133.958 199.601h.996v-4.092c0-.96.708-1.644 1.488-1.644.768 0 1.296.504 1.296 1.248v4.488h1.032v-4.26c0-.84.516-1.476 1.44-1.476.72 0 1.332.384 1.332 1.356v4.38h1.008v-4.38c0-1.536-.828-2.256-2.004-2.256-.936 0-1.62.432-1.956 1.116h-.072c-.324-.708-.888-1.116-1.74-1.116-.864 0-1.5.408-1.764 1.116h-.096v-1.032h-.96v6.552z"/><path id="U" d="M181.897 201.233h.972c.984-1.68 1.512-3.468 1.512-5.184 0-1.896-.624-4.248-1.512-5.712h-.972c.924 1.86 1.476 4.008 1.476 5.712 0 1.524-.444 3.084-1.476 5.184z"/><path id="V" d="M167.024 221.874h-1.404v-1.56h-.996v1.56h-.984v.852h.984v4.092c0 1.008.732 1.692 1.788 1.692.276 0 .564-.048.744-.12l-.204-.9a2.16 2.16 0 0 1-.444.048c-.612 0-.888-.312-.888-.984v-3.828h1.404v-.852z"/></defs></svg>