<svg xmlns="http://www.w3.org/2000/svg" xmlns:xlink="http://www.w3.org/1999/xlink" width="100%" height="100%" viewBox="0 0 430 95" fill-rule="evenodd" stroke-linejoin="round" stroke-miterlimit="2" xmlns:v="https://vecta.io/nano"><g fill-rule="nonzero"><path d="M24.666 39.09c2.233 0 3.799-1.508 3.799-3.611 0-2.03-1.421-3.48-3.32-3.48-.855 0-1.624.319-2.015.798h-.058l.305-2.799h4.538v-1.609h-6.134l-.536 5.438 1.725.29c.348-.392 1.015-.653 1.653-.653 1.16 0 1.986.87 1.986 2.059s-.812 2.015-1.943 2.015c-.957 0-1.726-.594-1.783-1.465h-1.856c.058 1.755 1.581 3.016 3.639 3.016zm6.534-.029c.638 0 1.131-.493 1.131-1.131s-.493-1.131-1.131-1.131-1.145.493-1.145 1.131.507 1.131 1.145 1.131zm7.676-10.672v10.556h1.203v-8.019h.102l3.277 8.019h1.145l3.32-8.019h.102v8.019h1.247V28.389h-1.581l-3.581 8.758h-.13l-3.582-8.758h-1.522zm16.111 10.73c1.595 0 2.77-.812 3.132-2.001l-1.175-.334c-.304.826-1.015 1.247-1.958 1.247-1.435 0-2.421-.928-2.479-2.624h5.742v-.522c0-2.943-1.769-3.959-3.422-3.959-2.146 0-3.538 1.697-3.538 4.118 0 2.436 1.407 4.075 3.697 4.075zm-2.479-4.756c.087-1.247.928-2.349 2.32-2.349 1.334 0 2.073.957 2.189 2.349h-4.509zm7.569 4.582h1.203v-5.002c0-1.073.855-1.856 2.001-1.856.334 0 .667.058.754.072v-1.233c-.145 0-.464-.014-.638-.014-.957 0-1.783.537-2.073 1.319h-.087v-1.203h-1.16v7.917zm8.339 3.132c1.9 0 3.407-.87 3.407-2.9v-8.149h-1.16v1.261h-.13c-.261-.406-.754-1.363-2.306-1.363-2.001 0-3.378 1.595-3.378 4.031 0 2.465 1.435 3.857 3.349 3.857 1.552 0 2.044-.899 2.305-1.334h.116v1.61c0 1.319-.928 1.914-2.204 1.914-1.436 0-1.943-.754-2.262-1.189l-.972.667c.493.841 1.465 1.595 3.234 1.595zm-.043-4.35c-1.523 0-2.306-1.16-2.306-2.798 0-1.609.754-2.914 2.306-2.914 1.479 0 2.262 1.203 2.262 2.914 0 1.755-.797 2.798-2.262 2.798z"/><use xlink:href="#B"/><path d="M89.761 39.119c1.755 0 2.915-1.073 3.118-2.48h-1.218c-.218.855-.942 1.392-1.9 1.392-1.436 0-2.364-1.203-2.364-3.031 0-1.798.943-2.987 2.364-2.987 1.073 0 1.711.667 1.9 1.392h1.218c-.203-1.479-1.465-2.48-3.132-2.48-2.146 0-3.567 1.697-3.567 4.104 0 2.378 1.363 4.089 3.581 4.089zm4.935-10.73H95.9v10.556h-1.203zm6.645 10.73c2.146 0 3.596-1.639 3.596-4.089 0-2.465-1.45-4.104-3.596-4.104s-3.581 1.639-3.581 4.104c0 2.45 1.435 4.089 3.581 4.089zm0-1.087c-1.624 0-2.364-1.421-2.364-3.001s.74-3.016 2.364-3.016c1.639 0 2.378 1.435 2.378 3.016s-.739 3.002-2.378 3.002zm11.043-5.221c-.377-1.117-1.233-1.885-2.798-1.885-1.668 0-2.915.957-2.915 2.291 0 1.087.653 1.813 2.117 2.16l1.319.304c.783.203 1.175.566 1.175 1.131 0 .667-.74 1.233-1.856 1.233-1.001 0-1.624-.435-1.841-1.276l-1.145.275c.275 1.349 1.377 2.074 3.001 2.074 1.842 0 3.088-1.015 3.088-2.378 0-1.102-.696-1.798-2.102-2.146l-1.174-.276c-.928-.232-1.363-.551-1.363-1.16 0-.681.725-1.175 1.697-1.175 1.058 0 1.493.595 1.711 1.131l1.087-.304z"/><use xlink:href="#B" x="40.3"/><path d="M126.857 38.945h1.203v-7.917h-1.203v7.917zm.609-9.236c.478 0 .87-.363.87-.812 0-.464-.391-.827-.87-.827s-.855.363-.855.827c0 .449.377.812.855.812z"/><use xlink:href="#C"/><path d="M137.866 28.389h1.203v10.556h-1.203z"/><use xlink:href="#D"/><use xlink:href="#E"/><use xlink:href="#F"/><use xlink:href="#C" x="36.52"/><use xlink:href="#D" x="37.159"/><use xlink:href="#E" x="37.16"/><use xlink:href="#F" x="37.15"/><path d="M211.251 39.119c1.755 0 2.915-1.073 3.118-2.48h-1.218c-.218.855-.942 1.392-1.899 1.392-1.435 0-2.363-1.203-2.363-3.031 0-1.798.942-2.987 2.363-2.987 1.073 0 1.711.667 1.899 1.392h1.218c-.203-1.479-1.465-2.48-3.132-2.48-2.146 0-3.567 1.697-3.567 4.104 0 2.378 1.363 4.089 3.582 4.089zm8.14 0c2.146 0 3.596-1.639 3.596-4.089 0-2.465-1.45-4.104-3.596-4.104s-3.582 1.639-3.582 4.104c0 2.45 1.436 4.089 3.582 4.089zm0-1.087c-1.624 0-2.363-1.421-2.363-3.001s.739-3.016 2.363-3.016c1.638 0 2.378 1.435 2.378 3.016s-.74 3.002-2.378 3.002zm5.456.913h1.203V34c0-1.16.856-1.986 1.798-1.986.928 0 1.566.609 1.566 1.508v5.423h1.247v-5.148c0-1.015.623-1.783 1.74-1.783.87 0 1.609.464 1.609 1.639v5.292h1.218v-5.292c0-1.856-1.001-2.726-2.422-2.726-1.131 0-1.958.522-2.363 1.349h-.087c-.391-.855-1.073-1.349-2.102-1.349-1.044 0-1.812.493-2.131 1.349h-.116v-1.247h-1.16v7.917zm12.609 2.958h1.203v-4.176h.102c.275.435.783 1.392 2.305 1.392 1.987 0 3.364-1.595 3.364-4.103 0-2.494-1.377-4.089-3.379-4.089-1.552 0-2.016.957-2.291 1.363h-.145v-1.261h-1.16v10.875zm3.451-3.871c-1.464 0-2.262-1.247-2.262-3.031s.783-2.987 2.262-2.987c1.537 0 2.305 1.305 2.305 2.987s-.783 3.031-2.305 3.031zm10.358-2.321a2.06 2.06 0 0 1-2.044 2.16c-1.015 0-1.74-.739-1.74-1.885v-4.959h-1.203v5.032c0 2.016 1.059 2.987 2.552 2.987 1.189 0 1.972-.638 2.349-1.45h.087v1.349h1.203v-7.917h-1.203v4.684z"/><use xlink:href="#G"/><use xlink:href="#H"/><use xlink:href="#I"/><path d="M287.316 39.133c1.392 0 2.102-.754 2.349-1.261h.087v1.073h1.189v-5.206c0-2.523-1.914-2.813-2.929-2.813-1.189 0-2.552.421-3.175 1.856l1.16.421c.275-.58.899-1.204 2.059-1.204 1.117 0 1.682.595 1.682 1.61v.044c0 .58-.609.536-2.045.725-1.464.189-3.074.508-3.074 2.32 0 1.552 1.189 2.436 2.697 2.436zm.188-1.087c-.971 0-1.668-.435-1.668-1.276 0-.928.841-1.218 1.798-1.349.507-.058 1.899-.203 2.103-.45v1.117c0 .986-.783 1.957-2.233 1.957z"/><use xlink:href="#J"/><path d="M298.807 38.945h1.204v-2.958l.856-.783 2.958 3.741h1.551l-3.596-4.524 3.349-3.393h-1.508l-3.451 3.523h-.159v-6.162h-1.204v10.556z"/><use xlink:href="#H" x="46.47"/><use xlink:href="#J" x="21.591"/><use xlink:href="#H" x="64.36"/><use xlink:href="#K"/><use xlink:href="#J" x="47.97"/><path d="M346.787 38.945h1.204v-7.917h-1.204v7.917zm.609-9.236c.478 0 .87-.363.87-.812 0-.464-.392-.827-.87-.827s-.856.363-.856.827c0 .449.377.812.856.812zm6.035 9.41c1.754 0 2.914-1.073 3.117-2.48h-1.218c-.218.855-.942 1.392-1.899 1.392-1.436 0-2.364-1.203-2.364-3.031 0-1.798.942-2.987 2.364-2.987 1.073 0 1.711.667 1.899 1.392h1.218c-.203-1.479-1.464-2.48-3.132-2.48-2.146 0-3.567 1.697-3.567 4.104 0 2.378 1.363 4.089 3.582 4.089zm6.139-4.93c0-1.377.885-2.175 2.088-2.175 1.189 0 1.856.71 1.856 1.986v4.944h1.203v-5.032c0-2.03-1.102-2.987-2.712-2.987-1.247 0-1.957.522-2.32 1.349h-.116v-3.886h-1.204v10.556h1.204v-4.756z"/><use xlink:href="#I" x="94.56"/><use xlink:href="#H" x="119.67"/><use xlink:href="#K" x="55.31"/><use xlink:href="#G" x="141.76"/></g><path d="M20.066 46.606h389.051v20H20.066z" fill="#ededed"/><path d="M410.113 67.608H19.063V45.607h391.05v22.001zm-.996-21.002H20.066v20h389.051v-20z"/><path d="M20.063 46.606h159.769v20H20.063zm274.628 0h57.213v20h-57.213z" fill="#5a74d1"/><g fill-rule="nonzero" fill="#dde4f8"><path d="M85.034 56.053v-2.316h-1.548v2.316h-2.16v1.488h2.16v2.412h1.548v-2.412h2.148v-1.488h-2.148zm8.328 4.752v-8.532h-.084l-3.72 1.344v1.416l2.16-.768v6.54h1.644zm9.384-7.62v-.912h-5.988v1.332h4.284l-3.336 7.2h1.716l3.324-7.62z"/><use xlink:href="#L"/><path d="M117.53 57.637v-5.364h-1.644l-3.588 5.664.06 1.02h3.552v1.848h1.62v-1.848h.996v-1.32h-.996zm-3.636 0l1.848-2.892.168-.276v3.168h-2.016zm198.386-1.584v-2.316h-1.548v2.316h-2.16v1.488h2.16v2.412h1.548v-2.412h2.148v-1.488h-2.148zm9.924 4.752v-1.308h-3.744l1.596-1.692.756-.828c.228-.252.432-.504.588-.756.168-.252.288-.504.372-.768.096-.252.132-.516.132-.804a2.96 2.96 0 0 0-.168-1.008 2.11 2.11 0 0 0-.516-.792 2.55 2.55 0 0 0-.84-.516c-.336-.12-.72-.18-1.152-.18a3.15 3.15 0 0 0-1.236.228c-.372.144-.696.336-.948.6-.276.252-.48.54-.624.888-.144.336-.216.696-.216 1.068h1.632c0-.228.036-.432.096-.612s.144-.336.252-.456c.108-.108.252-.204.42-.264.156-.06.36-.084.576-.084.168 0 .324.024.456.072a.95.95 0 0 1 .36.24c.096.108.18.228.228.384.06.144.084.312.084.504a1.51 1.51 0 0 1-.06.396c-.048.144-.108.288-.204.444-.084.156-.204.336-.36.528a7.32 7.32 0 0 1-.54.636l-2.76 2.964v1.116h5.82z"/><use xlink:href="#L" x="219.446"/><path d="M336.208 60.805v-8.532h-.084l-3.72 1.344v1.416l2.16-.768v6.54h1.644z"/></g><defs ><path id="B" d="M77.387 39.119c1.595 0 2.77-.812 3.132-2.001l-1.175-.334c-.304.826-1.015 1.247-1.957 1.247-1.436 0-2.421-.928-2.48-2.624h5.742v-.522c0-2.943-1.769-3.959-3.422-3.959-2.146 0-3.538 1.697-3.538 4.118 0 2.436 1.406 4.075 3.697 4.075zm-2.48-4.756c.087-1.247.928-2.349 2.32-2.349 1.334 0 2.073.957 2.189 2.349h-4.51z"/><path id="C" d="M135.894 32.811c-.377-1.117-1.233-1.885-2.799-1.885-1.667 0-2.915.957-2.915 2.291 0 1.087.653 1.813 2.117 2.16l1.32.304c.783.203 1.174.566 1.174 1.131 0 .667-.739 1.233-1.856 1.233-1.001 0-1.624-.435-1.842-1.276l-1.145.275c.276 1.349 1.377 2.074 3.002 2.074 1.841 0 3.088-1.015 3.088-2.378 0-1.102-.696-1.798-2.102-2.146l-1.174-.276c-.928-.232-1.363-.551-1.363-1.16 0-.681.725-1.175 1.696-1.175 1.059 0 1.494.595 1.711 1.131l1.088-.304z"/><path id="D" d="M143.627 39.133c1.392 0 2.102-.754 2.349-1.261h.087v1.073h1.189v-5.206c0-2.523-1.914-2.813-2.929-2.813-1.189 0-2.552.421-3.175 1.856l1.16.421c.276-.58.899-1.204 2.059-1.204 1.117 0 1.682.595 1.682 1.61v.044c0 .58-.609.536-2.044.725-1.465.189-3.074.508-3.074 2.32 0 1.552 1.189 2.436 2.697 2.436zm.189-1.087c-.971 0-1.667-.435-1.667-1.276 0-.928.841-1.218 1.798-1.349.507-.058 1.899-.203 2.102-.45v1.117c0 .986-.783 1.957-2.233 1.957z"/><path id="E" d="M150.7 34.189c0-1.377.87-2.175 2.03-2.175 1.131 0 1.827.754 1.827 1.986v4.944h1.204v-5.032c0-2.015-1.088-2.987-2.683-2.987-1.189 0-1.943.537-2.305 1.349h-.116v-1.247h-1.16v7.917h1.203v-4.756z"/><path id="F" d="M160.969 39.119c1.523 0 2.044-.957 2.305-1.392h.145v1.218h1.16V28.389h-1.203v3.9h-.102c-.261-.406-.739-1.363-2.291-1.363-1.987 0-3.364 1.595-3.364 4.089 0 2.508 1.377 4.103 3.35 4.103zm.16-1.087c-1.523 0-2.291-1.349-2.291-3.031s.754-2.987 2.291-2.987c1.493 0 2.262 1.203 2.262 2.987s-.798 3.031-2.262 3.031z"/><path id="G" d="M258.128 31.028h-1.697v-1.885h-1.203v1.885h-1.189v1.029h1.189v4.945c0 1.218.885 2.044 2.16 2.044.334 0 .682-.058.899-.145l-.246-1.087a2.61 2.61 0 0 1-.536.058c-.74 0-1.073-.377-1.073-1.189v-4.626h1.697v-1.029z"/><path id="H" d="M263.217 39.119c1.595 0 2.769-.812 3.132-2.001l-1.175-.334c-.305.826-1.015 1.247-1.957 1.247-1.435 0-2.422-.928-2.48-2.624h5.742v-.522c0-2.943-1.769-3.959-3.422-3.959-2.146 0-3.538 1.697-3.538 4.118 0 2.436 1.406 4.075 3.697 4.075zm-2.48-4.756c.087-1.247.928-2.349 2.32-2.349 1.334 0 2.074.957 2.19 2.349h-4.51z"/><path id="I" d="M272.386 38.945h1.204V34c0-1.16.856-1.986 1.798-1.986.928 0 1.566.609 1.566 1.508v5.423h1.247v-5.148c0-1.015.624-1.783 1.74-1.783.87 0 1.61.464 1.61 1.639v5.292h1.218v-5.292c0-1.856-1-2.726-2.421-2.726-1.131 0-1.957.522-2.363 1.349h-.087c-.392-.855-1.073-1.349-2.103-1.349-1.044 0-1.812.493-2.132 1.349h-.116v-1.247h-1.16v7.917z"/><path id="J" d="M293.186 38.945h1.204v-5.002c0-1.073.856-1.856 2.001-1.856.333 0 .667.058.754.072v-1.233c-.145 0-.464-.014-.638-.014-.957 0-1.784.537-2.074 1.319h-.087v-1.203h-1.16v7.917z"/><path id="K" d="M333.87 34.189c0-1.377.87-2.175 2.03-2.175 1.131 0 1.827.754 1.827 1.986v4.944h1.203v-5.032c0-2.015-1.087-2.987-2.683-2.987-1.189 0-1.943.537-2.305 1.349h-.116v-1.247h-1.16v7.917h1.204v-4.756z"/><path id="L" d="M106.622 59.857a1.07 1.07 0 0 0 .3.756c.204.204.48.312.828.312s.624-.108.828-.3a1.04 1.04 0 0 0 .312-.768 1.08 1.08 0 0 0-.312-.768c-.192-.204-.468-.3-.828-.3-.348 0-.624.096-.828.312-.204.204-.3.456-.3.756z"/></defs></svg>