<svg xmlns="http://www.w3.org/2000/svg" xmlns:xlink="http://www.w3.org/1999/xlink" width="100%" height="100%" viewBox="0 0 430 95" fill-rule="evenodd" stroke-linecap="round" stroke-miterlimit="10" xmlns:v="https://vecta.io/nano"><style><![CDATA[.B{fill-rule:nonzero}.C{fill:#ededed}.D{fill:#5a74d1}.E{fill:#4f4f4f}]]></style><g class="B"><path d="M25.159 19.573h-1.812l-2.61 1.696v1.755l2.45-1.58h.073v8.685h1.899V19.573zm3.351 10.672c.638 0 1.131-.493 1.131-1.131s-.493-1.131-1.131-1.131-1.145.493-1.145 1.131.507 1.131 1.145 1.131zm11.968.029c2.509 0 4.307-1.668 4.307-4.277v-1.145h-4.031v1.131h2.784c-.043 1.899-1.276 3.103-3.059 3.103-1.957 0-3.465-1.494-3.465-4.219 0-2.755 1.508-4.234 3.379-4.234 1.523 0 2.552.856 3.002 2.248h1.319c-.392-2.044-2.102-3.437-4.321-3.437-2.712 0-4.611 2.074-4.611 5.423 0 3.335 1.885 5.409 4.698 5.409zm9.639.029c1.595 0 2.77-.812 3.132-2.001l-1.175-.334c-.304.826-1.015 1.247-1.958 1.247-1.435 0-2.421-.928-2.479-2.625h5.742v-.522c0-2.943-1.769-3.959-3.422-3.959-2.146 0-3.538 1.697-3.538 4.118 0 2.436 1.407 4.075 3.697 4.075zm-2.479-4.756c.087-1.247.928-2.349 2.32-2.349 1.334 0 2.073.957 2.189 2.349h-4.509zm8.772-.174c0-1.377.87-2.175 2.03-2.175 1.131 0 1.827.754 1.827 1.986v4.945h1.203v-5.032c0-2.015-1.087-2.987-2.682-2.987-1.189 0-1.943.537-2.306 1.349h-.116v-1.247h-1.16v7.917h1.203v-4.756zm10.617 4.93c1.595 0 2.77-.812 3.132-2.001l-1.175-.334c-.304.826-1.015 1.247-1.957 1.247-1.436 0-2.421-.928-2.48-2.625h5.742v-.522c0-2.943-1.769-3.959-3.422-3.959-2.146 0-3.538 1.697-3.538 4.118 0 2.436 1.407 4.075 3.697 4.075zm-2.48-4.756c.087-1.247.928-2.349 2.32-2.349 1.334 0 2.073.957 2.189 2.349h-4.51z"/><use xlink:href="#B"/><use xlink:href="#C"/><use xlink:href="#C" x="8.5"/><path d="M104.581 30.303c2.146 0 3.596-1.639 3.596-4.089 0-2.465-1.45-4.104-3.596-4.104S101 23.749 101 26.214c0 2.45 1.435 4.089 3.581 4.089zm0-1.087c-1.624 0-2.364-1.421-2.364-3.001s.74-3.016 2.364-3.016c1.639 0 2.378 1.436 2.378 3.016s-.739 3.002-2.378 3.002z"/><use xlink:href="#D"/><use xlink:href="#B" x="39.101"/><use xlink:href="#D" x="13.449"/><path d="M128.746 30.129h1.203v-7.917h-1.203v7.917zm.609-9.236c.478 0 .87-.363.87-.812 0-.464-.391-.827-.87-.827s-.856.363-.856.827c0 .449.377.812.856.812zm6.036 9.41c2.146 0 3.596-1.639 3.596-4.089 0-2.465-1.45-4.104-3.596-4.104s-3.582 1.639-3.582 4.104c0 2.45 1.436 4.089 3.582 4.089zm0-1.087c-1.624 0-2.363-1.421-2.363-3.001s.739-3.016 2.363-3.016c1.638 0 2.378 1.436 2.378 3.016s-.74 3.002-2.378 3.002zm6.649-3.843c0-1.377.87-2.175 2.03-2.175 1.131 0 1.827.754 1.827 1.986v4.945h1.204v-5.032c0-2.015-1.088-2.987-2.683-2.987-1.189 0-1.943.537-2.305 1.349h-.116v-1.247h-1.16v7.917h1.203v-4.756z"/></g><path d="M410.113 59.153H19.063V37.152h391.05v22.001zm-.996-21.002H20.066v20h389.051v-20z"/><g class="C"><use xlink:href="#E"/><use xlink:href="#E" x="11.443"/><use xlink:href="#E" x="22.886"/><use xlink:href="#E" x="34.328"/><use xlink:href="#E" x="114.426"/><path d="M294.69 38.143h11.443v20H294.69z"/></g><use xlink:href="#E" x="137.312" fill-opacity=".7" class="D"/><use xlink:href="#E" x="148.754" class="C"/><use xlink:href="#E" x="160.197" fill-opacity=".7" class="D"/><g class="C"><path d="M340.46 38.143h11.443v20H340.46z"/><use xlink:href="#E" x="183.082"/><use xlink:href="#E" x="194.525"/><use xlink:href="#E" x="205.967"/></g><g class="E"><use xlink:href="#E" x="217.41" fill-opacity=".58"/><use xlink:href="#E" x="228.853"/></g><g class="D"><path d="M31.51 38.143h11.443v20H31.51z" fill-opacity=".8"/><path d="M20.067 38.143H31.51v20H20.067z"/></g><g class="C"><path d="M42.953 38.143h11.443v20H42.953z"/><path d="M54.395 38.143h11.443v20H54.395z"/><path d="M65.838 38.143h11.443v20H65.838z"/><use xlink:href="#E" x="68.656"/><use xlink:href="#E" x="45.771"/></g><use xlink:href="#E" x="57.213" fill-opacity=".57" class="E"/><path d="M248.92 38.143h11.443v20H248.92z" class="C"/><use xlink:href="#E" x="91.541" class="E"/><g class="C"><use xlink:href="#E" x="102.984"/><path d="M77.281 38.143h11.443v20H77.281z"/><path d="M88.723 38.143h11.443v20H88.723z"/><use xlink:href="#E" x="-68.655"/><use xlink:href="#E" x="-57.213"/></g><g class="D"><use xlink:href="#E" x="-45.77" fill-opacity=".56"/><use xlink:href="#E" x="-34.327" fill-opacity=".78"/></g><use xlink:href="#E" x="-22.885" class="C"/><g class="D"><use xlink:href="#E" x="-11.442"/><g class="B"><path d="M258.59 21.447h-1.116l3.216 8.736h1.092l3.192-8.736h-1.092l-2.592 7.356h-.108l-2.592-7.356zm7.618 8.736h.996v-6.552h-.996v6.552zm.504-7.644c.396 0 .72-.3.72-.672 0-.384-.324-.684-.72-.684s-.708.3-.708.684c0 .372.312.672.708.672z"/><use xlink:href="#F"/><path d="M277.646 27.507c0 1.224-.948 1.788-1.692 1.788-.84 0-1.44-.612-1.44-1.56v-4.104h-.996v4.164c0 1.668.876 2.472 2.112 2.472.984 0 1.632-.528 1.944-1.2h.072v1.116h.996v-6.552h-.996v3.876z"/><use xlink:href="#G"/></g></g><path d="M290.442 21.039h-.924l-2.82 10.452h.936l2.808-10.452z" class="B"/><g class="E B"><path d="M295.886 30.303c1.752 0 3.18-1.056 3.504-2.856h-1.056c-.252 1.224-1.296 1.872-2.448 1.872-1.584 0-2.832-1.236-2.832-3.492 0-2.28 1.248-3.504 2.832-3.504 1.152 0 2.196.648 2.448 1.86h1.056c-.324-1.788-1.752-2.844-3.504-2.844-2.232 0-3.852 1.716-3.852 4.488 0 2.76 1.62 4.476 3.852 4.476zm6.078-4.056c0-1.14.732-1.8 1.728-1.8.984 0 1.536.588 1.536 1.644v4.092h.996v-4.164c0-1.68-.912-2.472-2.244-2.472-1.032 0-1.62.432-1.92 1.116h-.096v-3.216h-.996v8.736h.996v-3.936z"/><use xlink:href="#F" x="39.01"/><use xlink:href="#H"/><use xlink:href="#I"/><use xlink:href="#H" x="17.6"/><use xlink:href="#G" x="56.61"/><use xlink:href="#H" x="31.03"/><use xlink:href="#I" x="31.03"/><use xlink:href="#J"/></g><use xlink:href="#I" x="51.81" class="B"/><use xlink:href="#K" class="B"/><use xlink:href="#F" x="119.46" class="B"/><path d="M393.168 30.183h.996v-2.448l.708-.648 2.448 3.096h1.284l-2.976-3.744 2.772-2.808h-1.248l-2.856 2.916h-.132v-5.1h-.996v8.736z" class="B"/><use xlink:href="#J" x="38.46" class="B"/><use xlink:href="#F" x="137.33" class="B"/><g fill="none" stroke="#000"><path d="M170.115 65.7l1.777 2.639-2.639 1.778"/><path d="M164.033 61.453l.094.602a7.1 7.1 0 0 0 5.655 5.873l2.11.411" stroke-miterlimit="1.5"/></g><g class="B"><path d="M175.851 72.83l.876-2.472h3.528l.888 2.472h1.092l-3.192-8.736h-1.092l-3.216 8.736h1.116zm1.212-3.408l1.392-3.936h.072l1.404 3.936h-2.868z"/><use xlink:href="#L"/><use xlink:href="#L" x="7.032"/><use xlink:href="#H" x="-114.807" y="42.647"/><use xlink:href="#M"/><use xlink:href="#K" x="-172.698" y="42.647"/><use xlink:href="#M" x="11.133"/><use xlink:href="#J" x="-140.849" y="42.647"/><path d="M229.54 72.974c1.26 0 1.692-.792 1.908-1.152h.12v1.008h.96v-8.736h-.996v3.228h-.084c-.216-.336-.612-1.128-1.896-1.128-1.644 0-2.784 1.32-2.784 3.384 0 2.076 1.14 3.396 2.772 3.396zm.132-.9c-1.26 0-1.896-1.116-1.896-2.508s.624-2.472 1.896-2.472c1.236 0 1.872.996 1.872 2.472s-.66 2.508-1.872 2.508zm10.724 3.348c1.572 0 2.82-.72 2.82-2.4v-6.744h-.96v1.044h-.108c-.216-.336-.624-1.128-1.908-1.128-1.656 0-2.796 1.32-2.796 3.336 0 2.04 1.188 3.192 2.772 3.192 1.284 0 1.692-.744 1.908-1.104h.096v1.332c0 1.092-.768 1.584-1.824 1.584-1.188 0-1.608-.624-1.872-.984l-.804.552c.408.696 1.212 1.32 2.676 1.32zm-.036-3.6c-1.26 0-1.908-.96-1.908-2.316 0-1.332.624-2.412 1.908-2.412 1.224 0 1.872.996 1.872 2.412 0 1.452-.66 2.316-1.872 2.316z"/><use xlink:href="#J" x="-115.9" y="42.647"/><use xlink:href="#L" x="68.561"/><use xlink:href="#J" x="-101.908" y="42.647"/></g><defs ><path id="B" d="M78.516 30.317c1.392 0 2.103-.754 2.349-1.262h.087v1.073h1.189v-5.206c0-2.523-1.914-2.813-2.929-2.813-1.189 0-2.552.421-3.175 1.856l1.16.421c.275-.58.899-1.203 2.059-1.203 1.117 0 1.682.595 1.682 1.61v.043c0 .58-.609.537-2.044.725-1.465.189-3.074.507-3.074 2.32 0 1.551 1.189 2.436 2.697 2.436zm.189-1.088c-.972 0-1.668-.435-1.668-1.276 0-.928.841-1.218 1.798-1.348.508-.058 1.9-.203 2.103-.45v1.116c0 .986-.783 1.957-2.233 1.957z"/><path id="C" d="M85.58 25.373c0-1.377.87-2.175 2.03-2.175 1.131 0 1.827.754 1.827 1.986v4.945h1.204v-5.032c0-2.015-1.087-2.987-2.682-2.987-1.189 0-1.943.537-2.306 1.349h-.116v-1.247h-1.16v7.917h1.203v-4.756z"/><path id="D" d="M113.449 22.212h-1.697v-1.885h-1.204v1.885h-1.189v1.03h1.189v4.944c0 1.218.885 2.045 2.161 2.045.333 0 .681-.058.899-.145l-.247-1.087a2.61 2.61 0 0 1-.536.058c-.74 0-1.073-.377-1.073-1.189v-4.625h1.697v-1.03z"/><path id="E" d="M168.821 38.143h11.443v20h-11.443z"/><path id="F" d="M269.058 30.183h.996v-4.14c0-.888.708-1.536 1.656-1.536.276 0 .552.048.624.06v-1.02c-.12 0-.384-.012-.528-.012-.792 0-1.476.444-1.716 1.092h-.072v-.996h-.96v6.552z"/><path id="G" d="M285.12 25.107c-.312-.924-1.02-1.56-2.316-1.56-1.38 0-2.412.792-2.412 1.896 0 .9.54 1.5 1.752 1.788l1.092.252c.648.168.972.468.972.936 0 .552-.612 1.02-1.536 1.02-.828 0-1.344-.36-1.524-1.056l-.948.228c.228 1.116 1.14 1.716 2.484 1.716 1.524 0 2.556-.84 2.556-1.968 0-.912-.576-1.488-1.74-1.776l-.972-.228c-.768-.192-1.128-.456-1.128-.96 0-.564.6-.972 1.404-.972.876 0 1.236.492 1.416.936l.9-.252z"/><path id="H" d="M314.99 30.327c1.776 0 2.976-1.356 2.976-3.384 0-2.04-1.2-3.396-2.976-3.396s-2.964 1.356-2.964 3.396c0 2.028 1.188 3.384 2.964 3.384zm0-.9c-1.344 0-1.956-1.176-1.956-2.484s.612-2.496 1.956-2.496c1.356 0 1.968 1.188 1.968 2.496s-.612 2.484-1.968 2.484z"/><path id="I" d="M319.498 30.183h.996v-4.092c0-.96.708-1.644 1.488-1.644.768 0 1.296.504 1.296 1.248v4.488h1.032v-4.26c0-.84.516-1.476 1.44-1.476.72 0 1.332.384 1.332 1.356v4.38h1.008v-4.38c0-1.536-.828-2.256-2.004-2.256-.936 0-1.62.432-1.956 1.116h-.072c-.324-.708-.888-1.116-1.74-1.116-.864 0-1.5.408-1.764 1.116h-.096v-1.032h-.96v6.552z"/><path id="J" d="M363.716 30.327c1.32 0 2.292-.672 2.592-1.656l-.972-.276c-.252.684-.84 1.032-1.62 1.032-1.188 0-2.004-.768-2.052-2.172h4.752v-.432c0-2.436-1.464-3.276-2.832-3.276-1.776 0-2.928 1.404-2.928 3.408 0 2.016 1.164 3.372 3.06 3.372zm-2.052-3.936c.072-1.032.768-1.944 1.92-1.944 1.104 0 1.716.792 1.812 1.944h-3.732z"/><path id="K" d="M383.668 30.339c1.152 0 1.74-.624 1.944-1.044h.072v.888h.984v-4.308c0-2.088-1.584-2.328-2.424-2.328-.984 0-2.112.348-2.628 1.536l.96.348c.228-.48.744-.996 1.704-.996.924 0 1.392.492 1.392 1.332v.036c0 .48-.504.444-1.692.6-1.212.156-2.544.42-2.544 1.92 0 1.284.984 2.016 2.232 2.016zm.156-.9c-.804 0-1.38-.36-1.38-1.056 0-.768.696-1.008 1.488-1.116.42-.048 1.572-.168 1.74-.372v.924c0 .816-.648 1.62-1.848 1.62z"/><path id="L" d="M184.464 68.894c0-1.14.72-1.8 1.68-1.8.936 0 1.512.624 1.512 1.644v4.092h.996v-4.164c0-1.668-.9-2.472-2.22-2.472-.984 0-1.608.444-1.908 1.116h-.096v-1.032h-.96v6.552h.996v-3.936z"/><path id="M" d="M207.523 66.278h-1.404v-1.56h-.996v1.56h-.984v.852h.984v4.092c0 1.008.732 1.692 1.788 1.692.276 0 .564-.048.744-.12l-.204-.9a2.16 2.16 0 0 1-.444.048c-.612 0-.888-.312-.888-.984V67.13h1.404v-.852z"/></defs></svg>