<svg xmlns="http://www.w3.org/2000/svg" xmlns:xlink="http://www.w3.org/1999/xlink" width="100%" height="100%" viewBox="0 0 430 95" fill-rule="evenodd" stroke-linejoin="round" stroke-miterlimit="2" xmlns:v="https://vecta.io/nano"><path d="M20.066 46.286h389.051v20H20.066z" fill="#ededed"/><path d="M410.113 67.288H19.063V45.287h391.05v22.001zm-.996-21.002H20.066v20h389.051v-20z"/><path d="M20.068 46.286h34.328v20H20.068zm91.537 0h68.656v20h-68.656zm183.086 0h57.213v20h-57.213z" fill="#5a74d1"/><g fill-rule="nonzero"><path d="M20.824 37.301h5.017v1.958h1.827v-1.958h1.363v-1.566h-1.363v-7.032H25.29l-4.466 7.076v1.522zm5.046-1.566h-3.103v-.087l3.016-4.77h.087v4.858zm5.69 3.64c.638 0 1.131-.493 1.131-1.131s-.493-1.131-1.131-1.131-1.145.493-1.145 1.131.507 1.131 1.145 1.131zm10.914-.116c3.219 0 5.032-2.001 5.032-5.292 0-3.277-1.812-5.264-4.887-5.264h-3.393v10.556h3.248zm-1.972-1.131v-8.279h2.03c2.48 0 3.741 1.566 3.741 4.118 0 2.581-1.261 4.161-3.871 4.161h-1.9zm12.305 1.305c1.595 0 2.77-.812 3.132-2.001l-1.175-.334c-.304.826-1.015 1.247-1.958 1.247-1.435 0-2.421-.928-2.479-2.624h5.742v-.522c0-2.943-1.769-3.959-3.422-3.959-2.146 0-3.538 1.697-3.538 4.118 0 2.436 1.407 4.075 3.697 4.075zm-2.479-4.756c.087-1.247.928-2.349 2.32-2.349 1.334 0 2.073.957 2.189 2.349h-4.509zm7.568 4.582H59.1v-4.944c0-1.16.855-1.986 1.798-1.986.928 0 1.566.609 1.566 1.508v5.423h1.247v-5.148c0-1.015.624-1.783 1.74-1.783.87 0 1.61.464 1.61 1.639v5.292h1.218v-5.292c0-1.856-1.001-2.726-2.422-2.726-1.131 0-1.957.522-2.363 1.349h-.087c-.392-.855-1.073-1.349-2.102-1.349-1.044 0-1.812.493-2.132 1.349h-.116v-1.247h-1.16v7.917z"/><use xlink:href="#B"/><path d="M78.706 39.259h1.203v-5.002c0-1.073.856-1.856 2.001-1.856.334 0 .667.058.754.072V31.24c-.145 0-.464-.014-.638-.014-.957 0-1.784.537-2.073 1.319h-.087v-1.203h-1.16v7.917zm8.355.174c1.755 0 2.915-1.073 3.118-2.48h-1.218c-.218.855-.942 1.392-1.9 1.392-1.436 0-2.364-1.203-2.364-3.031 0-1.798.943-2.987 2.364-2.987 1.073 0 1.711.667 1.9 1.392h1.218c-.203-1.479-1.465-2.48-3.132-2.48-2.146 0-3.567 1.697-3.567 4.104 0 2.378 1.363 4.089 3.581 4.089z"/><use xlink:href="#B" x="21.479"/><path d="M103.608 31.342h-1.697v-1.885h-1.204v1.885h-1.189v1.029h1.189v4.945c0 1.218.885 2.044 2.161 2.044.333 0 .681-.058.899-.145l-.247-1.087a2.61 2.61 0 0 1-.536.058c-.74 0-1.073-.377-1.073-1.189v-4.626h1.697v-1.029zm5.089 8.091c1.595 0 2.77-.812 3.132-2.001l-1.175-.334c-.304.826-1.015 1.247-1.957 1.247-1.436 0-2.421-.928-2.48-2.624h5.742v-.522c0-2.943-1.769-3.959-3.422-3.959-2.146 0-3.538 1.697-3.538 4.118 0 2.436 1.406 4.075 3.697 4.075zm-2.48-4.756c.087-1.247.928-2.349 2.32-2.349 1.334 0 2.073.957 2.189 2.349h-4.51zm18.102-3.335h-1.305l-2.189 6.322h-.087l-2.175-6.322h-1.32l2.915 7.917h1.247l2.915-7.917zm1.617 7.917h1.203v-7.917h-1.203v7.917zm.609-9.236c.478 0 .87-.363.87-.812 0-.464-.392-.827-.87-.827s-.855.363-.855.827c0 .449.377.812.855.812zm2.832 9.236h1.203v-5.002c0-1.073.856-1.856 2.001-1.856.334 0 .667.058.754.072V31.24c-.145 0-.464-.014-.638-.014-.957 0-1.784.537-2.074 1.319h-.087v-1.203h-1.16v7.917z"/><use xlink:href="#C"/><path d="M142.956 28.703h1.203v10.556h-1.203zm7.52 10.556h1.203v-7.917h-1.203v7.917zm.609-9.236c.478 0 .87-.363.87-.812 0-.464-.391-.827-.87-.827s-.856.363-.856.827c0 .449.377.812.856.812z"/><use xlink:href="#D"/><path d="M161.486 28.703h1.203v10.556h-1.203z"/><use xlink:href="#C" x="30.159"/><path d="M174.32 34.503c0-1.377.87-2.175 2.03-2.175 1.131 0 1.827.754 1.827 1.986v4.944h1.204v-5.032c0-2.015-1.088-2.987-2.683-2.987-1.189 0-1.943.537-2.305 1.349h-.116v-1.247h-1.16v7.917h1.203v-4.756zm10.259 4.93c1.523 0 2.044-.957 2.305-1.392h.145v1.218h1.16V28.703h-1.203v3.9h-.102c-.261-.406-.739-1.363-2.291-1.363-1.987 0-3.364 1.595-3.364 4.089 0 2.508 1.377 4.103 3.35 4.103zm.16-1.087c-1.523 0-2.291-1.349-2.291-3.031s.754-2.987 2.291-2.987c1.493 0 2.262 1.203 2.262 2.987s-.798 3.031-2.262 3.031z"/><use xlink:href="#D" x="36.52"/></g><defs ><path id="B" d="M72.837 39.447c1.392 0 2.103-.754 2.349-1.261h.087v1.073h1.189v-5.206c0-2.523-1.914-2.813-2.929-2.813-1.189 0-2.552.421-3.175 1.856l1.16.421c.275-.58.899-1.204 2.059-1.204 1.117 0 1.682.595 1.682 1.61v.044c0 .58-.609.536-2.044.725-1.465.189-3.074.508-3.074 2.32 0 1.552 1.189 2.436 2.697 2.436zm.189-1.087c-.972 0-1.668-.435-1.668-1.276 0-.928.841-1.218 1.798-1.349.508-.058 1.9-.203 2.103-.45v1.117c0 .986-.783 1.957-2.233 1.957z"/><path id="C" d="M137.087 39.447c1.392 0 2.102-.754 2.349-1.261h.087v1.073h1.189v-5.206c0-2.523-1.914-2.813-2.929-2.813-1.189 0-2.552.421-3.175 1.856l1.16.421c.276-.58.899-1.204 2.059-1.204 1.117 0 1.682.595 1.682 1.61v.044c0 .58-.609.536-2.044.725-1.465.189-3.074.508-3.074 2.32 0 1.552 1.189 2.436 2.697 2.436zm.189-1.087c-.971 0-1.667-.435-1.667-1.276 0-.928.841-1.218 1.798-1.349.507-.058 1.899-.203 2.102-.45v1.117c0 .986-.783 1.957-2.233 1.957z"/><path id="D" d="M159.513 33.125c-.377-1.117-1.233-1.885-2.799-1.885-1.667 0-2.915.957-2.915 2.291 0 1.087.653 1.813 2.117 2.16l1.32.304c.783.203 1.174.566 1.174 1.131 0 .667-.739 1.233-1.856 1.233-1.001 0-1.624-.435-1.842-1.276l-1.145.275c.276 1.349 1.377 2.074 3.002 2.074 1.841 0 3.088-1.015 3.088-2.378 0-1.102-.696-1.798-2.102-2.146l-1.174-.276c-.928-.232-1.363-.551-1.363-1.16 0-.681.725-1.175 1.696-1.175 1.059 0 1.494.595 1.711 1.131l1.088-.304z"/></defs></svg>