<svg xmlns="http://www.w3.org/2000/svg" xmlns:xlink="http://www.w3.org/1999/xlink" width="100%" height="100%" viewBox="0 0 430 100" fill-rule="evenodd" stroke-linecap="round" stroke-miterlimit="10" xmlns:v="https://vecta.io/nano"><g fill-rule="nonzero"><path d="M24.869 32.668c2.276 0 3.813-1.552 3.813-3.64 0-1.987-1.421-3.437-3.277-3.437-1.131 0-2.117.551-2.624 1.465h-.073c0-2.219.812-3.567 2.277-3.567.899 0 1.522.522 1.711 1.334h1.87c-.218-1.697-1.595-2.987-3.581-2.987-2.523 0-4.147 2.103-4.147 5.713 0 3.872 2.015 5.119 4.031 5.119zm0-1.552c-1.131 0-1.958-.928-1.958-2.03s.856-2.03 1.972-2.03c1.131 0 1.943.884 1.943 2.015 0 1.146-.841 2.044-1.957 2.044zm6.451 1.523c.638 0 1.131-.493 1.131-1.131s-.493-1.131-1.131-1.131-1.145.493-1.145 1.131.507 1.131 1.145 1.131zm7.676-.116h1.276v-4.118h2.306c.087 0 .188 0 .276-.015l2.218 4.133h1.479l-2.378-4.364c1.349-.464 1.972-1.552 1.972-2.943 0-1.87-1.117-3.248-3.581-3.248h-3.567v10.556zm1.276-5.264v-4.147h2.248c1.711 0 2.363.826 2.363 2.102 0 1.261-.652 2.044-2.349 2.044h-2.262zm11.075 5.438c1.595 0 2.77-.812 3.132-2.001l-1.175-.334c-.304.826-1.015 1.247-1.958 1.247-1.435 0-2.421-.928-2.479-2.625h5.742v-.522c0-2.943-1.769-3.959-3.422-3.959-2.146 0-3.538 1.697-3.538 4.118 0 2.436 1.407 4.075 3.697 4.075zm-2.479-4.756c.087-1.247.928-2.349 2.32-2.349 1.334 0 2.073.957 2.189 2.349h-4.509zm7.578 4.582h1.203v-4.945c0-1.16.855-1.986 1.798-1.986.928 0 1.566.609 1.566 1.508v5.423h1.247v-5.148c0-1.015.624-1.783 1.74-1.783.87 0 1.61.464 1.61 1.639v5.293h1.218V27.23c0-1.856-1.001-2.726-2.422-2.726-1.131 0-1.957.522-2.363 1.349h-.087c-.392-.855-1.073-1.349-2.102-1.349-1.044 0-1.812.493-2.132 1.349h-.116v-1.247h-1.16v7.917zm15.815.174c2.146 0 3.596-1.639 3.596-4.089 0-2.465-1.45-4.104-3.596-4.104s-3.581 1.639-3.581 4.104c0 2.45 1.435 4.089 3.581 4.089zm0-1.087c-1.624 0-2.364-1.421-2.364-3.001s.74-3.016 2.364-3.016c1.639 0 2.378 1.436 2.378 3.016s-.739 3.002-2.378 3.002zm11.618-7.004h-1.305l-2.189 6.322h-.087l-2.175-6.322h-1.32l2.915 7.917h1.247l2.915-7.917zm4.658 8.091c1.595 0 2.77-.812 3.132-2.001l-1.175-.334c-.304.826-1.015 1.247-1.957 1.247-1.436 0-2.421-.928-2.48-2.625h5.742v-.522c0-2.943-1.769-3.959-3.422-3.959-2.146 0-3.538 1.697-3.538 4.118 0 2.436 1.406 4.075 3.697 4.075zm-2.48-4.756c.087-1.247.928-2.349 2.32-2.349 1.334 0 2.073.957 2.189 2.349h-4.51zm17.246-1.552c-.377-1.117-1.233-1.885-2.798-1.885-1.668 0-2.915.957-2.915 2.291 0 1.087.653 1.813 2.117 2.16l1.319.305c.783.203 1.175.566 1.175 1.131 0 .667-.74 1.232-1.856 1.232-1.001 0-1.624-.435-1.841-1.276l-1.145.276c.275 1.349 1.377 2.073 3.001 2.073 1.842 0 3.088-1.015 3.088-2.378 0-1.102-.696-1.798-2.102-2.146l-1.174-.275c-.928-.232-1.363-.551-1.363-1.16 0-.681.725-1.175 1.697-1.175 1.058 0 1.493.595 1.711 1.131l1.087-.304zm1.974 9.092h1.203v-4.176h.102c.276.435.783 1.392 2.306 1.392 1.986 0 3.364-1.595 3.364-4.103 0-2.494-1.378-4.089-3.379-4.089-1.552 0-2.016.957-2.291 1.363h-.145v-1.262h-1.16v10.875zm3.451-3.871c-1.465 0-2.262-1.247-2.262-3.03s.783-2.987 2.262-2.987c1.537 0 2.306 1.305 2.306 2.987s-.783 3.031-2.306 3.031zm10.367-2.321a2.06 2.06 0 0 1-2.044 2.16c-1.015 0-1.74-.739-1.74-1.885v-4.959h-1.203v5.032c0 2.015 1.058 2.987 2.552 2.987 1.189 0 1.972-.638 2.349-1.45h.087v1.349h1.203v-7.917h-1.203v4.684zm3.432 3.234h1.203V27.52c0-1.073.856-1.856 2.001-1.856.334 0 .667.058.754.072v-1.233c-.145 0-.464-.014-.638-.014-.957 0-1.784.537-2.073 1.32h-.087v-1.204h-1.16v7.917z"/><use xlink:href="#B"/><path d="M134.791 32.697c2.146 0 3.596-1.639 3.596-4.089 0-2.465-1.45-4.104-3.596-4.104s-3.582 1.639-3.582 4.104c0 2.45 1.436 4.089 3.582 4.089zm0-1.087c-1.624 0-2.363-1.421-2.363-3.001s.739-3.016 2.363-3.016c1.638 0 2.378 1.436 2.378 3.016s-.74 3.002-2.378 3.002zm10.443-2.321a2.06 2.06 0 0 1-2.044 2.16c-1.015 0-1.74-.739-1.74-1.885v-4.959h-1.203v5.032c0 2.015 1.059 2.987 2.552 2.987 1.189 0 1.972-.638 2.349-1.45h.087v1.349h1.203v-7.917h-1.203v4.684z"/><use xlink:href="#C"/><use xlink:href="#B" x="32.171"/><use xlink:href="#C" x="15.101"/><path d="M171.336 21.967h1.203v10.556h-1.203z"/><use xlink:href="#D"/><use xlink:href="#E"/><use xlink:href="#F"/><use xlink:href="#C" x="51.611"/><use xlink:href="#D" x="37.159"/><use xlink:href="#E" x="37.15"/><use xlink:href="#F" x="37.16"/><path d="M244.837 32.697c1.595 0 2.769-.812 3.132-2.001l-1.174-.334c-.304.826-1.015 1.247-1.957 1.247-1.436 0-2.422-.928-2.48-2.625h5.742v-.522c0-2.943-1.769-3.959-3.422-3.959-2.146 0-3.538 1.697-3.538 4.118 0 2.436 1.406 4.075 3.698 4.075zm-2.48-4.756c.087-1.247.928-2.349 2.32-2.349 1.334 0 2.073.957 2.19 2.349h-4.51zm8.153-3.335h-1.406l2.508 3.973-2.508 3.944h1.406l1.885-3.074 1.885 3.074h1.406l-2.552-3.944 2.552-3.973h-1.406l-1.885 3.248-1.885-3.248zm10.338 0h-1.697v-1.885h-1.203v1.885h-1.189v1.03h1.189v4.944c0 1.218.885 2.045 2.16 2.045.334 0 .682-.058.899-.145l-.246-1.087a2.61 2.61 0 0 1-.536.058c-.74 0-1.073-.377-1.073-1.189v-4.625h1.697v-1.03z"/><use xlink:href="#G"/><use xlink:href="#H"/><use xlink:href="#I"/><path d="M296.037 32.697c1.987 0 3.364-1.595 3.364-4.103 0-2.494-1.377-4.089-3.379-4.089-1.551 0-2.015.957-2.291 1.363h-.101v-3.9h-1.204v10.556h1.16v-1.218h.145c.276.435.783 1.392 2.305 1.392zm-.159-1.087c-1.464 0-2.262-1.247-2.262-3.03s.783-2.987 2.262-2.987c1.537 0 2.305 1.305 2.305 2.987s-.783 3.031-2.305 3.031zm8.573 1.087c2.146 0 3.596-1.639 3.596-4.089 0-2.465-1.45-4.104-3.596-4.104s-3.582 1.639-3.582 4.104c0 2.45 1.435 4.089 3.582 4.089zm0-1.087c-1.624 0-2.364-1.421-2.364-3.001s.74-3.016 2.364-3.016c1.638 0 2.378 1.436 2.378 3.016s-.74 3.002-2.378 3.002zm10.443-2.321a2.06 2.06 0 0 1-2.044 2.16c-1.015 0-1.74-.739-1.74-1.885v-4.959h-1.204v5.032c0 2.015 1.059 2.987 2.552 2.987 1.189 0 1.972-.638 2.349-1.45h.087v1.349h1.204v-7.917h-1.204v4.684z"/><use xlink:href="#H" x="47.29"/><use xlink:href="#I" x="47.3"/><path d="M337.967 32.711c1.392 0 2.102-.754 2.349-1.261h.087v1.073h1.189v-5.206c0-2.523-1.914-2.813-2.929-2.813-1.189 0-2.552.421-3.175 1.856l1.16.421c.275-.58.899-1.203 2.059-1.203 1.117 0 1.682.595 1.682 1.61v.043c0 .58-.609.537-2.045.725-1.464.189-3.074.507-3.074 2.32 0 1.551 1.189 2.436 2.697 2.436zm.188-1.087c-.971 0-1.668-.435-1.668-1.276 0-.928.841-1.218 1.798-1.348.507-.058 1.899-.203 2.103-.45v1.116c0 .986-.783 1.957-2.233 1.957zm5.672.899h1.204V27.52c0-1.073.856-1.856 2.001-1.856.333 0 .667.058.754.072v-1.233c-.145 0-.464-.014-.638-.014-.957 0-1.784.537-2.074 1.32h-.087v-1.204h-1.16v7.917zm5.619 0h1.204v-7.917h-1.204v7.917zm.609-9.236c.478 0 .87-.363.87-.812 0-.464-.392-.827-.87-.827s-.856.363-.856.827c0 .449.377.812.856.812z"/><use xlink:href="#G" x="90.28"/><path d="M366.904 26.389c-.377-1.117-1.233-1.885-2.798-1.885-1.668 0-2.915.957-2.915 2.291 0 1.087.653 1.813 2.117 2.16l1.32.305c.783.203 1.174.566 1.174 1.131 0 .667-.739 1.232-1.856 1.232-1 0-1.624-.435-1.841-1.276l-1.145.276c.275 1.349 1.377 2.073 3.001 2.073 1.841 0 3.089-1.015 3.089-2.378 0-1.102-.696-1.798-2.103-2.146l-1.174-.275c-.928-.232-1.363-.551-1.363-1.16 0-.681.725-1.175 1.697-1.175 1.058 0 1.493.595 1.711 1.131l1.088-.304z"/></g><path d="M20.066 39.498h389.051v20H20.066z" fill="#ededed"/><path d="M410.113 60.5H19.063V38.499h391.05V60.5zm-.996-21.002H20.066v20h389.051v-20z"/><path d="M20.07 39.498h183.083v20H20.07z" fill="#5a74d1"/><g fill="#d55e00"><path d="M203.146 39.502h4.418v20h-4.418z"/><g fill-rule="nonzero"><use xlink:href="#J"/><path d="M160.136 75.864h1.056v-3.408h1.908c.072 0 .156 0 .228-.012l1.836 3.42h1.224l-1.968-3.612c1.116-.384 1.632-1.284 1.632-2.436 0-1.548-.924-2.688-2.964-2.688h-2.952v8.736zm1.056-4.356v-3.432h1.86c1.416 0 1.956.684 1.956 1.74 0 1.044-.54 1.692-1.944 1.692h-1.872zm13.56-4.38h-1.056v6.876h-.084l-4.776-6.876h-1.02v8.736h1.056v-6.852h.096l4.74 6.852h1.044v-8.736zm2.464 8.736l.876-2.472h3.528l.888 2.472h1.092l-3.192-8.736h-1.092l-3.216 8.736h1.116zm1.212-3.408l1.392-3.936h.072l1.404 3.936h-2.868zm13.638 3.552c1.776 0 2.976-1.356 2.976-3.384 0-2.04-1.2-3.396-2.976-3.396s-2.964 1.356-2.964 3.396c0 2.028 1.188 3.384 2.964 3.384zm0-.9c-1.344 0-1.956-1.176-1.956-2.484s.612-2.496 1.956-2.496c1.356 0 1.968 1.188 1.968 2.496s-.612 2.484-1.968 2.484z"/><use xlink:href="#K"/><path d="M204.414 75.864h.996v-6.552h-.996v6.552zm.504-7.644c.396 0 .72-.3.72-.672 0-.384-.324-.684-.72-.684s-.708.3-.708.684c0 .372.312.672.708.672zm3.332 3.708c0-1.14.72-1.8 1.68-1.8.936 0 1.512.624 1.512 1.644v4.092h.996V71.7c0-1.668-.9-2.472-2.22-2.472-.984 0-1.608.444-1.908 1.116h-.096v-1.032h-.96v6.552h.996v-3.936z"/><use xlink:href="#J" x="59.05"/><use xlink:href="#L"/><path d="M228.184 78.456c1.572 0 2.82-.72 2.82-2.4v-6.744h-.96v1.044h-.108c-.216-.336-.624-1.128-1.908-1.128-1.656 0-2.796 1.32-2.796 3.336 0 2.04 1.188 3.192 2.772 3.192 1.284 0 1.692-.744 1.908-1.104h.096v1.332c0 1.092-.768 1.584-1.824 1.584-1.188 0-1.608-.624-1.872-.984l-.804.552c.408.696 1.212 1.32 2.676 1.32zm-.036-3.6c-1.26 0-1.908-.96-1.908-2.316 0-1.332.624-2.412 1.908-2.412 1.224 0 1.872.996 1.872 2.412 0 1.452-.66 2.316-1.872 2.316z"/><use xlink:href="#K" x="36.28"/><path d="M239.244 76.02c1.152 0 1.74-.624 1.944-1.044h.072v.888h.984v-4.308c0-2.088-1.584-2.328-2.424-2.328-.984 0-2.112.348-2.628 1.536l.96.348c.228-.48.744-.996 1.704-.996.924 0 1.392.492 1.392 1.332v.036c0 .48-.504.444-1.692.6-1.212.156-2.544.42-2.544 1.92 0 1.284.984 2.016 2.232 2.016zm.156-.9c-.804 0-1.38-.36-1.38-1.056 0-.768.696-1.008 1.488-1.116.42-.048 1.572-.168 1.74-.372v.924c0 .816-.648 1.62-1.848 1.62zm9.326-4.332c-.312-.924-1.02-1.56-2.316-1.56-1.38 0-2.412.792-2.412 1.896 0 .9.54 1.5 1.752 1.788l1.092.252c.648.168.972.468.972.936 0 .552-.612 1.02-1.536 1.02-.828 0-1.344-.36-1.524-1.056l-.948.228c.228 1.116 1.14 1.716 2.484 1.716 1.524 0 2.556-.84 2.556-1.968 0-.912-.576-1.488-1.74-1.776l-.972-.228c-.768-.192-1.128-.456-1.128-.96 0-.564.6-.972 1.404-.972.876 0 1.236.492 1.416.936l.9-.252z"/><use xlink:href="#L" x="31.78"/></g></g><g fill="none" stroke="#dde4f8" stroke-width="1.5"><path d="M193.094 46.126l3.375 3.375-3.375 3.375"/><path d="M180.134 49.501h16.335" stroke-miterlimit="1.5"/></g><defs ><path id="B" d="M128.146 32.523h1.203v-7.917h-1.203v7.917zm.609-9.236c.478 0 .87-.363.87-.812 0-.464-.391-.827-.87-.827s-.856.363-.856.827c0 .449.377.812.856.812z"/><path id="C" d="M154.263 26.389c-.377-1.117-1.233-1.885-2.799-1.885-1.667 0-2.915.957-2.915 2.291 0 1.087.653 1.813 2.117 2.16l1.32.305c.783.203 1.174.566 1.174 1.131 0 .667-.739 1.232-1.856 1.232-1.001 0-1.624-.435-1.842-1.276l-1.145.276c.276 1.349 1.377 2.073 3.002 2.073 1.841 0 3.088-1.015 3.088-2.378 0-1.102-.696-1.798-2.102-2.146l-1.174-.275c-.928-.232-1.363-.551-1.363-1.16 0-.681.725-1.175 1.696-1.175 1.059 0 1.494.595 1.711 1.131l1.088-.304z"/><path id="D" d="M177.097 32.711c1.392 0 2.102-.754 2.349-1.261h.087v1.073h1.189v-5.206c0-2.523-1.914-2.813-2.929-2.813-1.189 0-2.552.421-3.175 1.856l1.16.421c.276-.58.899-1.203 2.059-1.203 1.117 0 1.682.595 1.682 1.61v.043c0 .58-.609.537-2.044.725-1.465.189-3.074.507-3.074 2.32 0 1.551 1.189 2.436 2.697 2.436zm.189-1.087c-.971 0-1.667-.435-1.667-1.276 0-.928.841-1.218 1.798-1.348.507-.058 1.899-.203 2.102-.45v1.116c0 .986-.783 1.957-2.233 1.957z"/><path id="E" d="M184.17 27.767c0-1.377.87-2.175 2.03-2.175 1.131 0 1.827.754 1.827 1.986v4.945h1.204v-5.032c0-2.015-1.088-2.987-2.683-2.987-1.189 0-1.943.537-2.305 1.349h-.116v-1.247h-1.16v7.917h1.203v-4.756z"/><path id="F" d="M194.429 32.697c1.523 0 2.044-.957 2.305-1.392h.145v1.218h1.16V21.967h-1.203v3.9h-.102c-.261-.406-.739-1.363-2.291-1.363-1.987 0-3.364 1.595-3.364 4.089 0 2.509 1.377 4.104 3.35 4.104zm.16-1.087c-1.523 0-2.291-1.349-2.291-3.03s.754-2.987 2.291-2.987c1.493 0 2.262 1.204 2.262 2.987s-.798 3.031-2.262 3.031z"/><path id="G" d="M265.937 32.697c1.595 0 2.769-.812 3.132-2.001l-1.175-.334c-.305.826-1.015 1.247-1.957 1.247-1.435 0-2.422-.928-2.48-2.625h5.742v-.522c0-2.943-1.769-3.959-3.422-3.959-2.146 0-3.538 1.697-3.538 4.118 0 2.436 1.406 4.075 3.697 4.075zm-2.48-4.756c.087-1.247.928-2.349 2.32-2.349 1.334 0 2.074.957 2.19 2.349h-4.51z"/><path id="H" d="M272.24 27.767c0-1.377.87-2.175 2.03-2.175 1.131 0 1.827.754 1.827 1.986v4.945h1.203v-5.032c0-2.015-1.087-2.987-2.683-2.987-1.189 0-1.943.537-2.305 1.349h-.116v-1.247h-1.16v7.917h1.204v-4.756z"/><path id="I" d="M282.499 32.697c1.522 0 2.045-.957 2.305-1.392h.145v1.218h1.16V21.967h-1.204v3.9h-.101c-.261-.406-.74-1.363-2.291-1.363-1.986 0-3.364 1.595-3.364 4.089 0 2.509 1.377 4.104 3.349 4.104zm.159-1.087c-1.522 0-2.291-1.349-2.291-3.03s.754-2.987 2.291-2.987c1.494 0 2.262 1.204 2.262 2.987s-.797 3.031-2.262 3.031z"/><path id="J" d="M158.076 69.312h-1.404v-1.56h-.996v1.56h-.984v.852h.984v4.092c0 1.008.732 1.692 1.788 1.692.276 0 .564-.048.744-.12l-.204-.9a2.16 2.16 0 0 1-.444.048c-.612 0-.888-.312-.888-.984v-3.828h1.404v-.852z"/><path id="K" d="M196.574 75.864h.996v-4.14c0-.888.708-1.536 1.656-1.536.276 0 .552.048.624.06v-1.02c-.12 0-.384-.012-.528-.012-.792 0-1.476.444-1.716 1.092h-.072v-.996h-.96v6.552z"/><path id="L" d="M221.332 76.008c1.32 0 2.292-.672 2.592-1.656l-.972-.276c-.252.684-.84 1.032-1.62 1.032-1.188 0-2.004-.768-2.052-2.172h4.752v-.432c0-2.436-1.464-3.276-2.832-3.276-1.776 0-2.928 1.404-2.928 3.408 0 2.016 1.164 3.372 3.06 3.372zm-2.052-3.936c.072-1.032.768-1.944 1.92-1.944 1.104 0 1.716.792 1.812 1.944h-3.732z"/></defs></svg>