<?xml version="1.0" encoding="UTF-8" standalone="no"?>
<!DOCTYPE svg PUBLIC "-//W3C//DTD SVG 1.1//EN" "http://www.w3.org/Graphics/SVG/1.1/DTD/svg11.dtd">
<svg width="100%" height="100%" viewBox="0 0 430 150" version="1.1" xmlns="http://www.w3.org/2000/svg" xmlns:xlink="http://www.w3.org/1999/xlink" xml:space="preserve" xmlns:serif="http://www.serif.com/" style="fill-rule:evenodd;clip-rule:evenodd;stroke-linecap:round;stroke-miterlimit:1.5;">
    <g transform="matrix(1,0,0,1,0,-112.71)">
        <g>
            <path d="M20.998,141.047L28.233,141.047L28.233,139.452L23.651,139.452L23.651,139.38L25.464,137.524C27.523,135.567 28.074,134.61 28.074,133.421C28.074,131.652 26.638,130.362 24.521,130.362C22.433,130.362 20.954,131.667 20.954,133.653L22.767,133.653C22.767,132.58 23.434,131.913 24.493,131.913C25.494,131.913 26.248,132.522 26.248,133.508C26.248,134.407 25.711,135.016 24.667,136.074L20.999,139.67L20.999,141.047L20.998,141.047ZM31.41,141.163C32.048,141.163 32.541,140.67 32.541,140.032C32.541,139.394 32.048,138.901 31.41,138.901C30.772,138.901 30.265,139.394 30.265,140.032C30.265,140.67 30.772,141.163 31.41,141.163ZM43.324,141.192C45.441,141.192 47.167,139.916 47.558,137.741L46.282,137.741C45.977,139.22 44.716,140.003 43.324,140.003C41.41,140.003 39.902,138.51 39.902,135.784C39.902,133.029 41.41,131.55 43.324,131.55C44.716,131.55 45.977,132.333 46.282,133.798L47.558,133.798C47.167,131.637 45.441,130.362 43.324,130.362C40.627,130.362 38.669,132.435 38.669,135.785C38.669,139.12 40.627,141.194 43.324,141.194L43.324,141.192ZM52.671,141.221C54.817,141.221 56.267,139.583 56.267,137.132C56.267,134.667 54.817,133.029 52.671,133.029C50.525,133.029 49.09,134.667 49.09,137.132C49.09,139.583 50.525,141.221 52.671,141.221ZM52.671,140.133C51.047,140.133 50.308,138.712 50.308,137.132C50.308,135.552 51.047,134.116 52.671,134.116C54.31,134.116 55.049,135.552 55.049,137.132C55.049,138.712 54.31,140.133 52.671,140.133ZM59.32,136.291C59.32,134.914 60.19,134.116 61.35,134.116C62.481,134.116 63.177,134.87 63.177,136.103L63.177,141.048L64.38,141.048L64.38,136.017C64.38,134.001 63.293,133.03 61.698,133.03C60.509,133.03 59.755,133.566 59.392,134.379L59.276,134.379L59.276,133.132L58.116,133.132L58.116,141.049L59.319,141.049L59.319,136.293L59.32,136.291ZM69.589,141.221C71.112,141.221 71.633,140.264 71.894,139.829L72.039,139.829L72.039,141.047L73.199,141.047L73.199,130.491L71.995,130.491L71.995,134.392L71.893,134.392C71.632,133.986 71.154,133.029 69.602,133.029C67.616,133.029 66.238,134.624 66.238,137.118C66.238,139.626 67.615,141.221 69.587,141.221L69.589,141.221ZM69.749,140.133C68.226,140.133 67.458,138.784 67.458,137.103C67.458,135.422 68.212,134.116 69.749,134.116C71.242,134.116 72.011,135.32 72.011,137.103C72.011,138.886 71.213,140.133 69.749,140.133ZM76.097,141.047L77.3,141.047L77.3,133.13L76.097,133.13L76.097,141.047ZM76.706,131.81C77.184,131.81 77.576,131.448 77.576,130.998C77.576,130.534 77.184,130.171 76.706,130.171C76.228,130.171 75.851,130.534 75.851,130.998C75.851,131.448 76.228,131.81 76.706,131.81ZM82.959,133.13L81.262,133.13L81.262,131.245L80.058,131.245L80.058,133.13L78.87,133.13L78.87,134.16L80.059,134.16L80.059,139.104C80.059,140.322 80.944,141.148 82.22,141.148C82.553,141.148 82.901,141.09 83.119,141.003L82.872,139.915C82.696,139.953 82.516,139.972 82.336,139.973C81.596,139.973 81.263,139.596 81.263,138.784L81.263,134.159L82.96,134.159L82.96,133.129L82.959,133.13ZM84.807,141.047L86.01,141.047L86.01,133.13L84.807,133.13L84.807,141.047ZM85.416,131.81C85.894,131.81 86.286,131.448 86.286,130.998C86.286,130.534 85.894,130.171 85.416,130.171C84.938,130.171 84.561,130.534 84.561,130.998C84.561,131.448 84.938,131.81 85.416,131.81ZM91.451,141.221C93.597,141.221 95.047,139.583 95.047,137.132C95.047,134.667 93.597,133.029 91.451,133.029C89.305,133.029 87.87,134.667 87.87,137.132C87.87,139.583 89.305,141.221 91.451,141.221ZM91.451,140.133C89.827,140.133 89.087,138.712 89.087,137.132C89.087,135.552 89.827,134.116 91.451,134.116C93.09,134.116 93.829,135.552 93.829,137.132C93.829,138.712 93.09,140.133 91.451,140.133ZM98.1,136.291C98.1,134.914 98.97,134.116 100.13,134.116C101.261,134.116 101.957,134.87 101.957,136.103L101.957,141.048L103.161,141.048L103.161,136.017C103.161,134.001 102.074,133.03 100.479,133.03C99.29,133.03 98.536,133.566 98.173,134.379L98.057,134.379L98.057,133.132L96.897,133.132L96.897,141.049L98.1,141.049L98.1,136.291ZM107.716,141.235C109.108,141.235 109.819,140.481 110.065,139.973L110.152,139.973L110.152,141.046L111.341,141.046L111.341,135.84C111.341,133.317 109.427,133.027 108.412,133.027C107.223,133.027 105.86,133.447 105.237,134.883L106.397,135.304C106.672,134.724 107.296,134.1 108.456,134.1C109.573,134.1 110.138,134.695 110.138,135.709L110.138,135.753C110.138,136.333 109.529,136.289 108.094,136.478C106.629,136.667 105.02,136.985 105.02,138.798C105.02,140.35 106.209,141.234 107.717,141.234L107.716,141.235ZM107.905,140.147C106.933,140.147 106.237,139.712 106.237,138.871C106.237,137.943 107.078,137.653 108.035,137.522C108.543,137.464 109.935,137.319 110.138,137.072L110.138,138.189C110.138,139.175 109.355,140.147 107.905,140.147ZM113.576,130.491L114.779,130.491L114.779,141.047L113.576,141.047L113.576,130.491ZM121.097,141.047L122.3,141.047L122.3,136.045C122.3,134.972 123.156,134.189 124.301,134.189C124.635,134.189 124.968,134.247 125.055,134.261L125.055,133.029C124.91,133.029 124.591,133.014 124.417,133.014C123.46,133.014 122.633,133.551 122.344,134.334L122.257,134.334L122.257,133.131L121.097,133.131L121.097,141.048L121.097,141.047ZM128.816,141.235C130.208,141.235 130.918,140.481 131.165,139.973L131.252,139.973L131.252,141.046L132.441,141.046L132.441,135.84C132.441,133.317 130.527,133.027 129.512,133.027C128.323,133.027 126.96,133.447 126.337,134.883L127.497,135.304C127.772,134.724 128.396,134.1 129.556,134.1C130.673,134.1 131.238,134.695 131.238,135.709L131.238,135.753C131.238,136.333 130.629,136.289 129.194,136.478C127.729,136.667 126.12,136.985 126.12,138.798C126.12,140.35 127.309,141.234 128.817,141.234L128.816,141.235ZM129.005,140.147C128.034,140.147 127.337,139.712 127.337,138.871C127.337,137.943 128.178,137.653 129.135,137.522C129.642,137.464 131.034,137.319 131.237,137.072L131.237,138.189C131.237,139.175 130.454,140.147 129.004,140.147L129.005,140.147ZM135.88,136.291C135.88,134.914 136.75,134.116 137.91,134.116C139.041,134.116 139.737,134.87 139.737,136.103L139.737,141.048L140.941,141.048L140.941,136.017C140.941,134.001 139.853,133.03 138.258,133.03C137.069,133.03 136.315,133.566 135.953,134.379L135.837,134.379L135.837,133.132L134.677,133.132L134.677,141.049L135.88,141.049L135.88,136.291Z" style="fill-rule:nonzero;"/>
            <path id="B" d="M146.149,141.221C147.672,141.221 148.193,140.264 148.454,139.829L148.599,139.829L148.599,141.047L149.759,141.047L149.759,130.491L148.556,130.491L148.556,134.392L148.454,134.392C148.193,133.986 147.715,133.029 146.163,133.029C144.176,133.029 142.799,134.624 142.799,137.118C142.799,139.626 144.176,141.221 146.149,141.221ZM146.309,140.133C144.786,140.133 144.018,138.784 144.018,137.103C144.018,135.422 144.772,134.116 146.309,134.116C147.802,134.116 148.571,135.32 148.571,137.103C148.571,138.886 147.773,140.133 146.309,140.133Z" style="fill-rule:nonzero;"/>
            <path id="C" d="M155.201,141.221C157.347,141.221 158.797,139.583 158.797,137.132C158.797,134.667 157.347,133.029 155.201,133.029C153.055,133.029 151.619,134.667 151.619,137.132C151.619,139.583 153.055,141.221 155.201,141.221ZM155.201,140.133C153.577,140.133 152.838,138.712 152.838,137.132C152.838,135.552 153.577,134.116 155.201,134.116C156.839,134.116 157.579,135.552 157.579,137.132C157.579,138.712 156.839,140.133 155.201,140.133Z" style="fill-rule:nonzero;"/>
            <path id="D" d="M160.646,141.047L161.849,141.047L161.849,136.102C161.849,134.942 162.705,134.115 163.647,134.115C164.575,134.115 165.213,134.724 165.213,135.623L165.213,141.046L166.46,141.046L166.46,135.898C166.46,134.883 167.083,134.114 168.2,134.114C169.07,134.114 169.809,134.578 169.809,135.753L169.809,141.045L171.027,141.045L171.027,135.753C171.027,133.897 170.026,133.027 168.605,133.027C167.474,133.027 166.647,133.549 166.242,134.376L166.155,134.376C165.764,133.52 165.082,133.027 164.053,133.027C163.009,133.027 162.241,133.52 161.922,134.376L161.806,134.376L161.806,133.129L160.646,133.129L160.646,141.047Z" style="fill-rule:nonzero;"/>
            <path d="M180.856,133.13L179.073,133.13L179.073,132.333C179.073,131.55 179.421,131.129 180.218,131.129C180.58,131.129 180.783,131.216 180.899,131.26L181.261,130.216C181.072,130.129 180.696,129.998 180.101,129.998C178.97,129.998 177.868,130.694 177.868,132.042L177.868,133.13L176.592,133.13L176.592,134.16L177.868,134.16L177.868,141.047L179.072,141.047L179.072,134.16L180.855,134.16L180.855,133.13L180.856,133.13ZM182.567,141.047L183.77,141.047L183.77,133.13L182.567,133.13L182.567,141.047ZM183.176,131.81C183.654,131.81 184.046,131.448 184.046,130.998C184.046,130.534 183.655,130.171 183.176,130.171C182.697,130.171 182.32,130.534 182.32,130.998C182.32,131.448 182.697,131.81 183.176,131.81Z" style="fill-rule:nonzero;"/>
            <path id="E" d="M189.327,141.221C190.922,141.221 192.096,140.409 192.459,139.22L191.285,138.886C190.981,139.713 190.27,140.133 189.328,140.133C187.892,140.133 186.906,139.205 186.848,137.508L192.59,137.508L192.59,136.986C192.59,134.043 190.821,133.028 189.168,133.028C187.022,133.028 185.63,134.724 185.63,137.146C185.63,139.582 187.036,141.221 189.328,141.221L189.327,141.221ZM186.847,136.465C186.934,135.218 187.775,134.116 189.167,134.116C190.501,134.116 191.24,135.073 191.357,136.465L186.847,136.465Z" style="fill-rule:nonzero;"/>
            <rect x="194.416" y="130.491" width="1.203" height="10.556" style="fill-rule:nonzero;"/>
            <g id="B1" serif:id="B" transform="matrix(1,0,0,1,54.68,0)">
                <path d="M146.149,141.221C147.672,141.221 148.193,140.264 148.454,139.829L148.599,139.829L148.599,141.047L149.759,141.047L149.759,130.491L148.556,130.491L148.556,134.392L148.454,134.392C148.193,133.986 147.715,133.029 146.163,133.029C144.176,133.029 142.799,134.624 142.799,137.118C142.799,139.626 144.176,141.221 146.149,141.221ZM146.309,140.133C144.786,140.133 144.018,138.784 144.018,137.103C144.018,135.422 144.772,134.116 146.309,134.116C147.802,134.116 148.571,135.32 148.571,137.103C148.571,138.886 147.773,140.133 146.309,140.133Z" style="fill-rule:nonzero;"/>
            </g>
            <g id="D1" serif:id="D" transform="matrix(1,0,0,1,50.11,0)">
                <path d="M160.646,141.047L161.849,141.047L161.849,136.102C161.849,134.942 162.705,134.115 163.647,134.115C164.575,134.115 165.213,134.724 165.213,135.623L165.213,141.046L166.46,141.046L166.46,135.898C166.46,134.883 167.083,134.114 168.2,134.114C169.07,134.114 169.809,134.578 169.809,135.753L169.809,141.045L171.027,141.045L171.027,135.753C171.027,133.897 170.026,133.027 168.605,133.027C167.474,133.027 166.647,133.549 166.242,134.376L166.155,134.376C165.764,133.52 165.082,133.027 164.053,133.027C163.009,133.027 162.241,133.52 161.922,134.376L161.806,134.376L161.806,133.129L160.646,133.129L160.646,141.047Z" style="fill-rule:nonzero;"/>
            </g>
            <g id="C1" serif:id="C" transform="matrix(1,0,0,1,71.38,0)">
                <path d="M155.201,141.221C157.347,141.221 158.797,139.583 158.797,137.132C158.797,134.667 157.347,133.029 155.201,133.029C153.055,133.029 151.619,134.667 151.619,137.132C151.619,139.583 153.055,141.221 155.201,141.221ZM155.201,140.133C153.577,140.133 152.838,138.712 152.838,137.132C152.838,135.552 153.577,134.116 155.201,134.116C156.839,134.116 157.579,135.552 157.579,137.132C157.579,138.712 156.839,140.133 155.201,140.133Z" style="fill-rule:nonzero;"/>
            </g>
            <g id="B2" serif:id="B" transform="matrix(1,0,0,1,88.85,0)">
                <path d="M146.149,141.221C147.672,141.221 148.193,140.264 148.454,139.829L148.599,139.829L148.599,141.047L149.759,141.047L149.759,130.491L148.556,130.491L148.556,134.392L148.454,134.392C148.193,133.986 147.715,133.029 146.163,133.029C144.176,133.029 142.799,134.624 142.799,137.118C142.799,139.626 144.176,141.221 146.149,141.221ZM146.309,140.133C144.786,140.133 144.018,138.784 144.018,137.103C144.018,135.422 144.772,134.116 146.309,134.116C147.802,134.116 148.571,135.32 148.571,137.103C148.571,138.886 147.773,140.133 146.309,140.133Z" style="fill-rule:nonzero;"/>
            </g>
            <g id="E1" serif:id="E" transform="matrix(1,0,0,1,54.84,0)">
                <path d="M189.327,141.221C190.922,141.221 192.096,140.409 192.459,139.22L191.285,138.886C190.981,139.713 190.27,140.133 189.328,140.133C187.892,140.133 186.906,139.205 186.848,137.508L192.59,137.508L192.59,136.986C192.59,134.043 190.821,133.028 189.168,133.028C187.022,133.028 185.63,134.724 185.63,137.146C185.63,139.582 187.036,141.221 189.328,141.221L189.327,141.221ZM186.847,136.465C186.934,135.218 187.775,134.116 189.167,134.116C190.501,134.116 191.24,135.073 191.357,136.465L186.847,136.465Z" style="fill-rule:nonzero;"/>
            </g>
            <rect x="249.256" y="130.491" width="1.203" height="10.556" style="fill-rule:nonzero;"/>
        </g>
        <g>
            <path d="M389.119,188.983L230.651,188.983" style="fill:none;stroke:black;stroke-width:1px;"/>
            <path d="M208.813,188.988L228.813,188.988M389.117,188.988L409.117,188.988" style="fill:none;stroke:black;stroke-width:1px;stroke-dasharray:2,3,0,0;"/>
            <g>
                <g transform="matrix(0,-0.708378,1.51607,0,-1141.58,566.533)">
                    <path d="M547.952,957.385L457.427,957.385" style="fill:none;stroke:black;stroke-width:0.85px;"/>
                </g>
                <g transform="matrix(0,-0.708378,1.51607,0,-1210.2,566.533)">
                    <path d="M547.952,957.385L457.427,957.385" style="fill:none;stroke:black;stroke-width:0.85px;"/>
                </g>
                <g transform="matrix(0,-0.708378,1.51607,0,-1072.96,566.533)">
                    <path d="M547.952,957.385L457.427,957.385" style="fill:none;stroke:black;stroke-width:0.85px;"/>
                </g>
            </g>
        </g>
        <g transform="matrix(0.908698,0,0,0.908698,-47.771,-711.471)">
            <circle cx="469.106" cy="990.933" r="11.679" style="fill:white;"/>
            <path id="F" d="M469.106,978.154C476.159,978.154 481.885,983.88 481.885,990.933C481.885,997.986 476.159,1003.71 469.106,1003.71C462.053,1003.71 456.326,997.987 456.326,990.933C456.332,983.925 462.098,978.159 469.106,978.154ZM469.106,979.255C462.66,979.255 457.427,984.488 457.427,990.933C457.427,997.378 462.66,1002.61 469.106,1002.61C475.552,1002.61 480.784,997.379 480.784,990.933C480.784,984.487 475.551,979.255 469.106,979.255Z"/>
        </g>
        <g transform="matrix(0.908698,0,0,0.908698,-185.014,-668.57)">
            <circle cx="469.106" cy="990.933" r="11.679" style="fill:rgb(90,116,209);"/>
            <path id="F1" serif:id="F" d="M469.106,978.154C476.159,978.154 481.885,983.88 481.885,990.933C481.885,997.986 476.159,1003.71 469.106,1003.71C462.053,1003.71 456.326,997.987 456.326,990.933C456.332,983.925 462.098,978.159 469.106,978.154ZM469.106,979.255C462.66,979.255 457.427,984.488 457.427,990.933C457.427,997.378 462.66,1002.61 469.106,1002.61C475.552,1002.61 480.784,997.379 480.784,990.933C480.784,984.487 475.551,979.255 469.106,979.255Z"/>
        </g>
        <g transform="matrix(0.908698,0,0,0.908698,-185.014,-711.471)">
            <circle cx="469.106" cy="990.933" r="11.679" style="fill:white;"/>
            <path id="F2" serif:id="F" d="M469.106,978.154C476.159,978.154 481.885,983.88 481.885,990.933C481.885,997.986 476.159,1003.71 469.106,1003.71C462.053,1003.71 456.326,997.987 456.326,990.933C456.332,983.925 462.098,978.159 469.106,978.154ZM469.106,979.255C462.66,979.255 457.427,984.488 457.427,990.933C457.427,997.378 462.66,1002.61 469.106,1002.61C475.552,1002.61 480.784,997.379 480.784,990.933C480.784,984.487 475.551,979.255 469.106,979.255Z"/>
        </g>
        <g transform="matrix(0.908698,0,0,0.908698,-116.393,-668.57)">
            <circle cx="469.106" cy="990.933" r="11.679" style="fill:rgb(123,144,218);"/>
            <path id="F3" serif:id="F" d="M469.106,978.154C476.159,978.154 481.885,983.88 481.885,990.933C481.885,997.986 476.159,1003.71 469.106,1003.71C462.053,1003.71 456.326,997.987 456.326,990.933C456.332,983.925 462.098,978.159 469.106,978.154ZM469.106,979.255C462.66,979.255 457.427,984.488 457.427,990.933C457.427,997.378 462.66,1002.61 469.106,1002.61C475.552,1002.61 480.784,997.379 480.784,990.933C480.784,984.487 475.551,979.255 469.106,979.255Z"/>
        </g>
        <g transform="matrix(0.908698,0,0,0.908698,-116.393,-711.471)">
            <circle cx="469.106" cy="990.933" r="11.679" style="fill:white;"/>
            <path id="F4" serif:id="F" d="M469.106,978.154C476.159,978.154 481.885,983.88 481.885,990.933C481.885,997.986 476.159,1003.71 469.106,1003.71C462.053,1003.71 456.326,997.987 456.326,990.933C456.332,983.925 462.098,978.159 469.106,978.154ZM469.106,979.255C462.66,979.255 457.427,984.488 457.427,990.933C457.427,997.378 462.66,1002.61 469.106,1002.61C475.552,1002.61 480.784,997.379 480.784,990.933C480.784,984.487 475.551,979.255 469.106,979.255Z"/>
        </g>
        <g transform="matrix(0.908698,0,0,0.908698,-47.771,-668.57)">
            <circle cx="469.106" cy="990.933" r="11.679" style="fill:rgb(237,237,237);"/>
            <path id="F5" serif:id="F" d="M469.106,978.154C476.159,978.154 481.885,983.88 481.885,990.933C481.885,997.986 476.159,1003.71 469.106,1003.71C462.053,1003.71 456.326,997.987 456.326,990.933C456.332,983.925 462.098,978.159 469.106,978.154ZM469.106,979.255C462.66,979.255 457.427,984.488 457.427,990.933C457.427,997.378 462.66,1002.61 469.106,1002.61C475.552,1002.61 480.784,997.379 480.784,990.933C480.784,984.487 475.551,979.255 469.106,979.255Z"/>
        </g>
        <g>
            <path id="G" d="M223.427,170.911C225.503,170.911 226.991,169.531 226.991,167.371L226.991,166.423L223.655,166.423L223.655,167.359L225.959,167.359C225.923,168.931 224.903,169.927 223.427,169.927C221.807,169.927 220.559,168.691 220.559,166.435C220.559,164.155 221.807,162.931 223.355,162.931C224.615,162.931 225.467,163.639 225.839,164.791L226.931,164.791C226.607,163.099 225.191,161.947 223.355,161.947C221.111,161.947 219.539,163.663 219.539,166.435C219.539,169.195 221.099,170.911 223.427,170.911Z" style="fill-rule:nonzero;"/>
            <path id="H" d="M231.409,170.935C232.729,170.935 233.701,170.263 234.001,169.279L233.029,169.003C232.777,169.687 232.189,170.035 231.409,170.035C230.221,170.035 229.405,169.267 229.357,167.863L234.109,167.863L234.109,167.431C234.109,164.995 232.645,164.155 231.277,164.155C229.501,164.155 228.349,165.559 228.349,167.563C228.349,169.579 229.513,170.935 231.409,170.935ZM229.357,166.999C229.429,165.967 230.125,165.055 231.277,165.055C232.381,165.055 232.993,165.847 233.089,166.999L229.357,166.999Z" style="fill-rule:nonzero;"/>
            <path id="I" d="M236.618,166.855C236.618,165.715 237.338,165.055 238.298,165.055C239.234,165.055 239.81,165.679 239.81,166.699L239.81,170.791L240.806,170.791L240.806,166.627C240.806,164.959 239.906,164.155 238.586,164.155C237.602,164.155 236.978,164.599 236.678,165.271L236.582,165.271L236.582,164.239L235.622,164.239L235.622,170.791L236.618,170.791L236.618,166.855Z" style="fill-rule:nonzero;"/>
            <g id="H1" serif:id="H" transform="matrix(1,0,0,1,13.992,0)">
                <path d="M231.409,170.935C232.729,170.935 233.701,170.263 234.001,169.279L233.029,169.003C232.777,169.687 232.189,170.035 231.409,170.035C230.221,170.035 229.405,169.267 229.357,167.863L234.109,167.863L234.109,167.431C234.109,164.995 232.645,164.155 231.277,164.155C229.501,164.155 228.349,165.559 228.349,167.563C228.349,169.579 229.513,170.935 231.409,170.935ZM229.357,166.999C229.429,165.967 230.125,165.055 231.277,165.055C232.381,165.055 232.993,165.847 233.089,166.999L229.357,166.999Z" style="fill-rule:nonzero;"/>
            </g>
            <path id="J" d="M251.594,169.663C251.594,169.039 252.002,168.643 252.566,168.631C253.13,168.643 253.502,169.015 253.502,169.627L253.502,172.291L254.402,172.291L254.402,169.483C254.402,168.487 253.79,167.875 252.902,167.875C252.29,167.875 251.798,168.175 251.594,168.667L251.558,168.667L251.558,167.923L250.694,167.923L250.694,172.291L251.594,172.291L251.594,169.663Z" style="fill-rule:nonzero;"/>
            <path d="M255.714,169.711L259.47,169.711L259.47,170.467L255.714,170.467L255.714,169.711ZM262.091,172.291L262.979,172.291L262.979,167.047L262.091,167.047L260.711,167.983L260.711,168.883L262.055,167.983L262.091,167.983L262.091,172.291Z" style="fill-rule:nonzero;"/>
            <g id="G1" serif:id="G" transform="matrix(1,0,0,1,72.911,0)">
                <path d="M223.427,170.911C225.503,170.911 226.991,169.531 226.991,167.371L226.991,166.423L223.655,166.423L223.655,167.359L225.959,167.359C225.923,168.931 224.903,169.927 223.427,169.927C221.807,169.927 220.559,168.691 220.559,166.435C220.559,164.155 221.807,162.931 223.355,162.931C224.615,162.931 225.467,163.639 225.839,164.791L226.931,164.791C226.607,163.099 225.191,161.947 223.355,161.947C221.111,161.947 219.539,163.663 219.539,166.435C219.539,169.195 221.099,170.911 223.427,170.911Z" style="fill-rule:nonzero;"/>
            </g>
            <g id="H2" serif:id="H" transform="matrix(1,0,0,1,72.911,0)">
                <path d="M231.409,170.935C232.729,170.935 233.701,170.263 234.001,169.279L233.029,169.003C232.777,169.687 232.189,170.035 231.409,170.035C230.221,170.035 229.405,169.267 229.357,167.863L234.109,167.863L234.109,167.431C234.109,164.995 232.645,164.155 231.277,164.155C229.501,164.155 228.349,165.559 228.349,167.563C228.349,169.579 229.513,170.935 231.409,170.935ZM229.357,166.999C229.429,165.967 230.125,165.055 231.277,165.055C232.381,165.055 232.993,165.847 233.089,166.999L229.357,166.999Z" style="fill-rule:nonzero;"/>
            </g>
            <g id="I1" serif:id="I" transform="matrix(1,0,0,1,72.911,0)">
                <path d="M236.618,166.855C236.618,165.715 237.338,165.055 238.298,165.055C239.234,165.055 239.81,165.679 239.81,166.699L239.81,170.791L240.806,170.791L240.806,166.627C240.806,164.959 239.906,164.155 238.586,164.155C237.602,164.155 236.978,164.599 236.678,165.271L236.582,165.271L236.582,164.239L235.622,164.239L235.622,170.791L236.618,170.791L236.618,166.855Z" style="fill-rule:nonzero;"/>
            </g>
            <g id="H3" serif:id="H" transform="matrix(1,0,0,1,86.904,0)">
                <path d="M231.409,170.935C232.729,170.935 233.701,170.263 234.001,169.279L233.029,169.003C232.777,169.687 232.189,170.035 231.409,170.035C230.221,170.035 229.405,169.267 229.357,167.863L234.109,167.863L234.109,167.431C234.109,164.995 232.645,164.155 231.277,164.155C229.501,164.155 228.349,165.559 228.349,167.563C228.349,169.579 229.513,170.935 231.409,170.935ZM229.357,166.999C229.429,165.967 230.125,165.055 231.277,165.055C232.381,165.055 232.993,165.847 233.089,166.999L229.357,166.999Z" style="fill-rule:nonzero;"/>
            </g>
            <g id="J1" serif:id="J" transform="matrix(1,0,0,1,72.912,0)">
                <path d="M251.594,169.663C251.594,169.039 252.002,168.643 252.566,168.631C253.13,168.643 253.502,169.015 253.502,169.627L253.502,172.291L254.402,172.291L254.402,169.483C254.402,168.487 253.79,167.875 252.902,167.875C252.29,167.875 251.798,168.175 251.594,168.667L251.558,168.667L251.558,167.923L250.694,167.923L250.694,172.291L251.594,172.291L251.594,169.663Z" style="fill-rule:nonzero;"/>
            </g>
            <g id="G2" serif:id="G" transform="matrix(1,0,0,1,137.243,0)">
                <path d="M223.427,170.911C225.503,170.911 226.991,169.531 226.991,167.371L226.991,166.423L223.655,166.423L223.655,167.359L225.959,167.359C225.923,168.931 224.903,169.927 223.427,169.927C221.807,169.927 220.559,168.691 220.559,166.435C220.559,164.155 221.807,162.931 223.355,162.931C224.615,162.931 225.467,163.639 225.839,164.791L226.931,164.791C226.607,163.099 225.191,161.947 223.355,161.947C221.111,161.947 219.539,163.663 219.539,166.435C219.539,169.195 221.099,170.911 223.427,170.911Z" style="fill-rule:nonzero;"/>
            </g>
            <path d="M368.652,170.935C369.972,170.935 370.944,170.263 371.244,169.279L370.272,169.003C370.02,169.687 369.432,170.035 368.652,170.035C367.464,170.035 366.648,169.267 366.6,167.863L371.352,167.863L371.352,167.431C371.352,164.995 369.888,164.155 368.52,164.155C366.744,164.155 365.592,165.559 365.592,167.563C365.592,169.579 366.756,170.935 368.652,170.935ZM366.6,166.999C366.672,165.967 367.368,165.055 368.52,165.055C369.624,165.055 370.236,165.847 370.332,166.999L366.6,166.999Z" style="fill-rule:nonzero;"/>
            <g id="I2" serif:id="I" transform="matrix(1,0,0,1,137.243,0)">
                <path d="M236.618,166.855C236.618,165.715 237.338,165.055 238.298,165.055C239.234,165.055 239.81,165.679 239.81,166.699L239.81,170.791L240.806,170.791L240.806,166.627C240.806,164.959 239.906,164.155 238.586,164.155C237.602,164.155 236.978,164.599 236.678,165.271L236.582,165.271L236.582,164.239L235.622,164.239L235.622,170.791L236.618,170.791L236.618,166.855Z" style="fill-rule:nonzero;"/>
            </g>
            <g id="H4" serif:id="H" transform="matrix(1,0,0,1,151.235,0)">
                <path d="M231.409,170.935C232.729,170.935 233.701,170.263 234.001,169.279L233.029,169.003C232.777,169.687 232.189,170.035 231.409,170.035C230.221,170.035 229.405,169.267 229.357,167.863L234.109,167.863L234.109,167.431C234.109,164.995 232.645,164.155 231.277,164.155C229.501,164.155 228.349,165.559 228.349,167.563C228.349,169.579 229.513,170.935 231.409,170.935ZM229.357,166.999C229.429,165.967 230.125,165.055 231.277,165.055C232.381,165.055 232.993,165.847 233.089,166.999L229.357,166.999Z" style="fill-rule:nonzero;"/>
            </g>
            <g id="J2" serif:id="J" transform="matrix(1,0,0,1,137.243,0)">
                <path d="M251.594,169.663C251.594,169.039 252.002,168.643 252.566,168.631C253.13,168.643 253.502,169.015 253.502,169.627L253.502,172.291L254.402,172.291L254.402,169.483C254.402,168.487 253.79,167.875 252.902,167.875C252.29,167.875 251.798,168.175 251.594,168.667L251.558,168.667L251.558,167.923L250.694,167.923L250.694,172.291L251.594,172.291L251.594,169.663Z" style="fill-rule:nonzero;"/>
            </g>
            <path d="M394.457,171.895L395.249,171.895L395.249,170.479L396.725,170.479L396.725,169.711L395.249,169.711L395.249,168.295L394.457,168.295L394.457,169.711L392.957,169.711L392.957,170.479L394.457,170.479L394.457,171.895ZM399.334,172.291L400.222,172.291L400.222,167.047L399.334,167.047L397.954,167.983L397.954,168.883L399.298,167.983L399.334,167.983L399.334,172.291ZM115.75,185.601L116.806,185.601L116.806,181.701L121.45,181.701L121.45,185.601L122.506,185.601L122.506,176.865L121.45,176.865L121.45,180.765L116.806,180.765L116.806,176.865L115.75,176.865L115.75,185.601Z" style="fill-rule:nonzero;"/>
            <path id="K" d="M125.034,185.601L126.03,185.601L126.03,179.049L125.034,179.049L125.034,185.601ZM125.538,177.957C125.934,177.957 126.258,177.657 126.258,177.285C126.258,176.901 125.934,176.601 125.538,176.601C125.142,176.601 124.83,176.901 124.83,177.285C124.83,177.657 125.142,177.957 125.538,177.957Z" style="fill-rule:nonzero;"/>
            <path id="L" d="M130.342,185.745C131.602,185.745 132.034,184.953 132.25,184.593L132.37,184.593L132.37,185.601L133.33,185.601L133.33,176.865L132.334,176.865L132.334,180.093L132.25,180.093C132.034,179.757 131.638,178.965 130.354,178.965C128.71,178.965 127.57,180.285 127.57,182.349C127.57,184.425 128.71,185.745 130.342,185.745ZM130.474,184.845C129.214,184.845 128.578,183.729 128.578,182.337C128.578,180.945 129.202,179.865 130.474,179.865C131.71,179.865 132.346,180.861 132.346,182.337C132.346,183.813 131.686,184.845 130.474,184.845Z" style="fill-rule:nonzero;"/>
            <g id="L1" serif:id="L" transform="matrix(1,0,0,1,7.301,0)">
                <path d="M130.342,185.745C131.602,185.745 132.034,184.953 132.25,184.593L132.37,184.593L132.37,185.601L133.33,185.601L133.33,176.865L132.334,176.865L132.334,180.093L132.25,180.093C132.034,179.757 131.638,178.965 130.354,178.965C128.71,178.965 127.57,180.285 127.57,182.349C127.57,184.425 128.71,185.745 130.342,185.745ZM130.474,184.845C129.214,184.845 128.578,183.729 128.578,182.337C128.578,180.945 129.202,179.865 130.474,179.865C131.71,179.865 132.346,180.861 132.346,182.337C132.346,183.813 131.686,184.845 130.474,184.845Z" style="fill-rule:nonzero;"/>
            </g>
            <g id="H5" serif:id="H" transform="matrix(1,0,0,1,-86.178,14.81)">
                <path d="M231.409,170.935C232.729,170.935 233.701,170.263 234.001,169.279L233.029,169.003C232.777,169.687 232.189,170.035 231.409,170.035C230.221,170.035 229.405,169.267 229.357,167.863L234.109,167.863L234.109,167.431C234.109,164.995 232.645,164.155 231.277,164.155C229.501,164.155 228.349,165.559 228.349,167.563C228.349,169.579 229.513,170.935 231.409,170.935ZM229.357,166.999C229.429,165.967 230.125,165.055 231.277,165.055C232.381,165.055 232.993,165.847 233.089,166.999L229.357,166.999Z" style="fill-rule:nonzero;"/>
            </g>
            <g id="I3" serif:id="I" transform="matrix(1,0,0,1,-86.178,14.81)">
                <path d="M236.618,166.855C236.618,165.715 237.338,165.055 238.298,165.055C239.234,165.055 239.81,165.679 239.81,166.699L239.81,170.791L240.806,170.791L240.806,166.627C240.806,164.959 239.906,164.155 238.586,164.155C237.602,164.155 236.978,164.599 236.678,165.271L236.582,165.271L236.582,164.239L235.622,164.239L235.622,170.791L236.618,170.791L236.618,166.855Z" style="fill-rule:nonzero;"/>
            </g>
            <rect x="159.851" y="176.865" width="0.996" height="8.736" style="fill-rule:nonzero;"/>
            <path id="M" d="M164.618,185.757C165.77,185.757 166.358,185.133 166.562,184.713L166.634,184.713L166.634,185.601L167.618,185.601L167.618,181.293C167.618,179.205 166.034,178.965 165.194,178.965C164.21,178.965 163.082,179.313 162.566,180.501L163.526,180.849C163.754,180.369 164.27,179.853 165.23,179.853C166.154,179.853 166.622,180.345 166.622,181.185L166.622,181.221C166.622,181.701 166.118,181.665 164.93,181.821C163.718,181.977 162.386,182.241 162.386,183.741C162.386,185.025 163.37,185.757 164.618,185.757ZM164.774,184.857C163.97,184.857 163.394,184.497 163.394,183.801C163.394,183.033 164.09,182.793 164.882,182.685C165.302,182.637 166.454,182.517 166.622,182.313L166.622,183.237C166.622,184.053 165.974,184.857 164.774,184.857Z" style="fill-rule:nonzero;"/>
            <path id="N" d="M172.46,185.745C174.104,185.745 175.244,184.425 175.244,182.349C175.244,180.285 174.104,178.965 172.448,178.965C171.164,178.965 170.78,179.757 170.552,180.093L170.468,180.093L170.468,176.865L169.472,176.865L169.472,185.601L170.432,185.601L170.432,184.593L170.552,184.593C170.78,184.953 171.2,185.745 172.46,185.745ZM172.328,184.845C171.116,184.845 170.456,183.813 170.456,182.337C170.456,180.861 171.104,179.865 172.328,179.865C173.6,179.865 174.236,180.945 174.236,182.337C174.236,183.729 173.588,184.845 172.328,184.845Z" style="fill-rule:nonzero;"/>
            <g id="H6" serif:id="H" transform="matrix(1,0,0,1,-51.889,14.81)">
                <path d="M231.409,170.935C232.729,170.935 233.701,170.263 234.001,169.279L233.029,169.003C232.777,169.687 232.189,170.035 231.409,170.035C230.221,170.035 229.405,169.267 229.357,167.863L234.109,167.863L234.109,167.431C234.109,164.995 232.645,164.155 231.277,164.155C229.501,164.155 228.349,165.559 228.349,167.563C228.349,169.579 229.513,170.935 231.409,170.935ZM229.357,166.999C229.429,165.967 230.125,165.055 231.277,165.055C232.381,165.055 232.993,165.847 233.089,166.999L229.357,166.999Z" style="fill-rule:nonzero;"/>
            </g>
            <rect x="183.733" y="176.865" width="0.996" height="8.736" style="fill-rule:nonzero;"/>
            <path id="O" d="M73.204,196.049C73.204,197.765 73.732,199.553 74.716,201.233L75.688,201.233C74.668,199.133 74.212,197.573 74.212,196.049C74.212,194.345 74.776,192.197 75.688,190.337L74.716,190.337C73.84,191.801 73.204,194.153 73.204,196.049Z" style="fill-rule:nonzero;"/>
            <path d="M82.521,193.049L81.441,193.049L79.629,198.281L79.557,198.281L77.757,193.049L76.665,193.049L79.077,199.601L80.109,199.601L82.521,193.049Z" style="fill-rule:nonzero;"/>
            <g id="K1" serif:id="K" transform="matrix(1,0,0,1,-41.174,14)">
                <path d="M125.034,185.601L126.03,185.601L126.03,179.049L125.034,179.049L125.034,185.601ZM125.538,177.957C125.934,177.957 126.258,177.657 126.258,177.285C126.258,176.901 125.934,176.601 125.538,176.601C125.142,176.601 124.83,176.901 124.83,177.285C124.83,177.657 125.142,177.957 125.538,177.957Z" style="fill-rule:nonzero;"/>
            </g>
            <path id="P" d="M86.708,199.601L87.704,199.601L87.704,195.461C87.704,194.573 88.412,193.925 89.36,193.925C89.636,193.925 89.912,193.973 89.984,193.985L89.984,192.965C89.864,192.965 89.6,192.953 89.456,192.953C88.664,192.953 87.98,193.397 87.74,194.045L87.668,194.045L87.668,193.049L86.708,193.049L86.708,199.601Z" style="fill-rule:nonzero;"/>
            <path d="M95.301,196.925C95.301,198.149 94.353,198.713 93.609,198.713C92.769,198.713 92.169,198.101 92.169,197.153L92.169,193.049L91.173,193.049L91.173,197.213C91.173,198.881 92.049,199.685 93.285,199.685C94.269,199.685 94.917,199.157 95.229,198.485L95.301,198.485L95.301,199.601L96.297,199.601L96.297,193.049L95.301,193.049L95.301,196.925Z" style="fill-rule:nonzero;"/>
            <path id="Q" d="M102.777,194.525C102.465,193.601 101.757,192.965 100.461,192.965C99.081,192.965 98.049,193.757 98.049,194.861C98.049,195.761 98.589,196.361 99.801,196.649L100.893,196.901C101.541,197.069 101.865,197.369 101.865,197.837C101.865,198.389 101.253,198.857 100.329,198.857C99.501,198.857 98.985,198.497 98.805,197.801L97.857,198.029C98.085,199.145 98.997,199.745 100.341,199.745C101.865,199.745 102.897,198.905 102.897,197.777C102.897,196.865 102.321,196.289 101.157,196.001L100.185,195.773C99.417,195.581 99.057,195.317 99.057,194.813C99.057,194.249 99.657,193.841 100.461,193.841C101.337,193.841 101.697,194.333 101.877,194.777L102.777,194.525Z" style="fill-rule:nonzero;"/>
            <path d="M107.499,190.457L106.575,190.457L103.755,200.909L104.691,200.909L107.499,190.457Z" style="fill-rule:nonzero;"/>
            <path id="R" d="M111.344,199.745C112.796,199.745 113.756,198.857 113.924,197.693L112.916,197.693C112.736,198.401 112.136,198.845 111.344,198.845C110.156,198.845 109.388,197.849 109.388,196.337C109.388,194.849 110.168,193.865 111.344,193.865C112.232,193.865 112.76,194.417 112.916,195.017L113.924,195.017C113.756,193.793 112.712,192.965 111.332,192.965C109.556,192.965 108.38,194.369 108.38,196.361C108.38,198.329 109.508,199.745 111.344,199.745Z" style="fill-rule:nonzero;"/>
            <path d="M116.427,195.665C116.427,194.525 117.159,193.865 118.155,193.865C119.139,193.865 119.691,194.453 119.691,195.509L119.691,199.601L120.687,199.601L120.687,195.437C120.687,193.757 119.775,192.965 118.443,192.965C117.411,192.965 116.823,193.397 116.523,194.081L116.427,194.081L116.427,190.865L115.431,190.865L115.431,199.601L116.427,199.601L116.427,195.665Z" style="fill-rule:nonzero;"/>
            <g id="P1" serif:id="P" transform="matrix(1,0,0,1,35.824,0)">
                <path d="M86.708,199.601L87.704,199.601L87.704,195.461C87.704,194.573 88.412,193.925 89.36,193.925C89.636,193.925 89.912,193.973 89.984,193.985L89.984,192.965C89.864,192.965 89.6,192.953 89.456,192.953C88.664,192.953 87.98,193.397 87.74,194.045L87.668,194.045L87.668,193.049L86.708,193.049L86.708,199.601Z" style="fill-rule:nonzero;"/>
            </g>
            <path id="S" d="M129.45,199.745C131.226,199.745 132.426,198.389 132.426,196.361C132.426,194.321 131.226,192.965 129.45,192.965C127.674,192.965 126.486,194.321 126.486,196.361C126.486,198.389 127.674,199.745 129.45,199.745ZM129.45,198.845C128.106,198.845 127.494,197.669 127.494,196.361C127.494,195.053 128.106,193.865 129.45,193.865C130.806,193.865 131.418,195.053 131.418,196.361C131.418,197.669 130.806,198.845 129.45,198.845Z" style="fill-rule:nonzero;"/>
            <path id="T" d="M133.958,199.601L134.954,199.601L134.954,195.509C134.954,194.549 135.662,193.865 136.442,193.865C137.21,193.865 137.738,194.369 137.738,195.113L137.738,199.601L138.77,199.601L138.77,195.341C138.77,194.501 139.286,193.865 140.21,193.865C140.93,193.865 141.542,194.249 141.542,195.221L141.542,199.601L142.55,199.601L142.55,195.221C142.55,193.685 141.722,192.965 140.546,192.965C139.61,192.965 138.926,193.397 138.59,194.081L138.518,194.081C138.194,193.373 137.63,192.965 136.778,192.965C135.914,192.965 135.278,193.373 135.014,194.081L134.918,194.081L134.918,193.049L133.958,193.049L133.958,199.601Z" style="fill-rule:nonzero;"/>
            <g id="S1" serif:id="S" transform="matrix(1,0,0,1,17.601,0)">
                <path d="M129.45,199.745C131.226,199.745 132.426,198.389 132.426,196.361C132.426,194.321 131.226,192.965 129.45,192.965C127.674,192.965 126.486,194.321 126.486,196.361C126.486,198.389 127.674,199.745 129.45,199.745ZM129.45,198.845C128.106,198.845 127.494,197.669 127.494,196.361C127.494,195.053 128.106,193.865 129.45,193.865C130.806,193.865 131.418,195.053 131.418,196.361C131.418,197.669 130.806,198.845 129.45,198.845Z" style="fill-rule:nonzero;"/>
            </g>
            <g id="Q1" serif:id="Q" transform="matrix(1,0,0,1,53.415,0)">
                <path d="M102.777,194.525C102.465,193.601 101.757,192.965 100.461,192.965C99.081,192.965 98.049,193.757 98.049,194.861C98.049,195.761 98.589,196.361 99.801,196.649L100.893,196.901C101.541,197.069 101.865,197.369 101.865,197.837C101.865,198.389 101.253,198.857 100.329,198.857C99.501,198.857 98.985,198.497 98.805,197.801L97.857,198.029C98.085,199.145 98.997,199.745 100.341,199.745C101.865,199.745 102.897,198.905 102.897,197.777C102.897,196.865 102.321,196.289 101.157,196.001L100.185,195.773C99.417,195.581 99.057,195.317 99.057,194.813C99.057,194.249 99.657,193.841 100.461,193.841C101.337,193.841 101.697,194.333 101.877,194.777L102.777,194.525Z" style="fill-rule:nonzero;"/>
            </g>
            <g id="S2" serif:id="S" transform="matrix(1,0,0,1,31.031,0)">
                <path d="M129.45,199.745C131.226,199.745 132.426,198.389 132.426,196.361C132.426,194.321 131.226,192.965 129.45,192.965C127.674,192.965 126.486,194.321 126.486,196.361C126.486,198.389 127.674,199.745 129.45,199.745ZM129.45,198.845C128.106,198.845 127.494,197.669 127.494,196.361C127.494,195.053 128.106,193.865 129.45,193.865C130.806,193.865 131.418,195.053 131.418,196.361C131.418,197.669 130.806,198.845 129.45,198.845Z" style="fill-rule:nonzero;"/>
            </g>
            <g id="T1" serif:id="T" transform="matrix(1,0,0,1,31.031,0)">
                <path d="M133.958,199.601L134.954,199.601L134.954,195.509C134.954,194.549 135.662,193.865 136.442,193.865C137.21,193.865 137.738,194.369 137.738,195.113L137.738,199.601L138.77,199.601L138.77,195.341C138.77,194.501 139.286,193.865 140.21,193.865C140.93,193.865 141.542,194.249 141.542,195.221L141.542,199.601L142.55,199.601L142.55,195.221C142.55,193.685 141.722,192.965 140.546,192.965C139.61,192.965 138.926,193.397 138.59,194.081L138.518,194.081C138.194,193.373 137.63,192.965 136.778,192.965C135.914,192.965 135.278,193.373 135.014,194.081L134.918,194.081L134.918,193.049L133.958,193.049L133.958,199.601Z" style="fill-rule:nonzero;"/>
            </g>
            <g id="H7" serif:id="H" transform="matrix(1,0,0,1,-53.23,28.81)">
                <path d="M231.409,170.935C232.729,170.935 233.701,170.263 234.001,169.279L233.029,169.003C232.777,169.687 232.189,170.035 231.409,170.035C230.221,170.035 229.405,169.267 229.357,167.863L234.109,167.863L234.109,167.431C234.109,164.995 232.645,164.155 231.277,164.155C229.501,164.155 228.349,165.559 228.349,167.563C228.349,169.579 229.513,170.935 231.409,170.935ZM229.357,166.999C229.429,165.967 230.125,165.055 231.277,165.055C232.381,165.055 232.993,165.847 233.089,166.999L229.357,166.999Z" style="fill-rule:nonzero;"/>
            </g>
            <path id="U" d="M181.897,201.233L182.869,201.233C183.853,199.553 184.381,197.765 184.381,196.049C184.381,194.153 183.757,191.801 182.869,190.337L181.897,190.337C182.821,192.197 183.373,194.345 183.373,196.049C183.373,197.573 182.929,199.133 181.897,201.233Z" style="fill-rule:nonzero;"/>
            <path d="M103.165,228.546C105.397,228.546 107.017,226.83 107.017,224.07C107.017,221.298 105.397,219.582 103.165,219.582C100.933,219.582 99.313,221.298 99.313,224.07C99.313,226.83 100.933,228.546 103.165,228.546ZM103.165,227.562C101.581,227.562 100.333,226.326 100.333,224.07C100.333,221.79 101.581,220.566 103.165,220.566C104.749,220.566 105.997,221.79 105.997,224.07C105.997,226.326 104.749,227.562 103.165,227.562Z" style="fill-rule:nonzero;"/>
            <g id="N1" serif:id="N" transform="matrix(1,0,0,1,-60.815,42.825)">
                <path d="M172.46,185.745C174.104,185.745 175.244,184.425 175.244,182.349C175.244,180.285 174.104,178.965 172.448,178.965C171.164,178.965 170.78,179.757 170.552,180.093L170.468,180.093L170.468,176.865L169.472,176.865L169.472,185.601L170.432,185.601L170.432,184.593L170.552,184.593C170.78,184.953 171.2,185.745 172.46,185.745ZM172.328,184.845C171.116,184.845 170.456,183.813 170.456,182.337C170.456,180.861 171.104,179.865 172.328,179.865C173.6,179.865 174.236,180.945 174.236,182.337C174.236,183.729 173.588,184.845 172.328,184.845Z" style="fill-rule:nonzero;"/>
            </g>
            <g id="Q2" serif:id="Q" transform="matrix(1,0,0,1,17.813,28.825)">
                <path d="M102.777,194.525C102.465,193.601 101.757,192.965 100.461,192.965C99.081,192.965 98.049,193.757 98.049,194.861C98.049,195.761 98.589,196.361 99.801,196.649L100.893,196.901C101.541,197.069 101.865,197.369 101.865,197.837C101.865,198.389 101.253,198.857 100.329,198.857C99.501,198.857 98.985,198.497 98.805,197.801L97.857,198.029C98.085,199.145 98.997,199.745 100.341,199.745C101.865,199.745 102.897,198.905 102.897,197.777C102.897,196.865 102.321,196.289 101.157,196.001L100.185,195.773C99.417,195.581 99.057,195.317 99.057,194.813C99.057,194.249 99.657,193.841 100.461,193.841C101.337,193.841 101.697,194.333 101.877,194.777L102.777,194.525Z" style="fill-rule:nonzero;"/>
            </g>
            <g id="H8" serif:id="H" transform="matrix(1,0,0,1,-106.433,57.635)">
                <path d="M231.409,170.935C232.729,170.935 233.701,170.263 234.001,169.279L233.029,169.003C232.777,169.687 232.189,170.035 231.409,170.035C230.221,170.035 229.405,169.267 229.357,167.863L234.109,167.863L234.109,167.431C234.109,164.995 232.645,164.155 231.277,164.155C229.501,164.155 228.349,165.559 228.349,167.563C228.349,169.579 229.513,170.935 231.409,170.935ZM229.357,166.999C229.429,165.967 230.125,165.055 231.277,165.055C232.381,165.055 232.993,165.847 233.089,166.999L229.357,166.999Z" style="fill-rule:nonzero;"/>
            </g>
            <g id="P2" serif:id="P" transform="matrix(1,0,0,1,42.481,28.825)">
                <path d="M86.708,199.601L87.704,199.601L87.704,195.461C87.704,194.573 88.412,193.925 89.36,193.925C89.636,193.925 89.912,193.973 89.984,193.985L89.984,192.965C89.864,192.965 89.6,192.953 89.456,192.953C88.664,192.953 87.98,193.397 87.74,194.045L87.668,194.045L87.668,193.049L86.708,193.049L86.708,199.601Z" style="fill-rule:nonzero;"/>
            </g>
            <path d="M139.181,221.874L138.101,221.874L136.289,227.106L136.217,227.106L134.417,221.874L133.325,221.874L135.737,228.426L136.769,228.426L139.181,221.874Z" style="fill-rule:nonzero;"/>
            <g id="H9" serif:id="H" transform="matrix(1,0,0,1,-88.375,57.635)">
                <path d="M231.409,170.935C232.729,170.935 233.701,170.263 234.001,169.279L233.029,169.003C232.777,169.687 232.189,170.035 231.409,170.035C230.221,170.035 229.405,169.267 229.357,167.863L234.109,167.863L234.109,167.431C234.109,164.995 232.645,164.155 231.277,164.155C229.501,164.155 228.349,165.559 228.349,167.563C228.349,169.579 229.513,170.935 231.409,170.935ZM229.357,166.999C229.429,165.967 230.125,165.055 231.277,165.055C232.381,165.055 232.993,165.847 233.089,166.999L229.357,166.999Z" style="fill-rule:nonzero;"/>
            </g>
            <g id="L2" serif:id="L" transform="matrix(1,0,0,1,19.365,42.825)">
                <path d="M130.342,185.745C131.602,185.745 132.034,184.953 132.25,184.593L132.37,184.593L132.37,185.601L133.33,185.601L133.33,176.865L132.334,176.865L132.334,180.093L132.25,180.093C132.034,179.757 131.638,178.965 130.354,178.965C128.71,178.965 127.57,180.285 127.57,182.349C127.57,184.425 128.71,185.745 130.342,185.745ZM130.474,184.845C129.214,184.845 128.578,183.729 128.578,182.337C128.578,180.945 129.202,179.865 130.474,179.865C131.71,179.865 132.346,180.861 132.346,182.337C132.346,183.813 131.686,184.845 130.474,184.845Z" style="fill-rule:nonzero;"/>
            </g>
            <g id="Q3" serif:id="Q" transform="matrix(1,0,0,1,59.778,28.825)">
                <path d="M102.777,194.525C102.465,193.601 101.757,192.965 100.461,192.965C99.081,192.965 98.049,193.757 98.049,194.861C98.049,195.761 98.589,196.361 99.801,196.649L100.893,196.901C101.541,197.069 101.865,197.369 101.865,197.837C101.865,198.389 101.253,198.857 100.329,198.857C99.501,198.857 98.985,198.497 98.805,197.801L97.857,198.029C98.085,199.145 98.997,199.745 100.341,199.745C101.865,199.745 102.897,198.905 102.897,197.777C102.897,196.865 102.321,196.289 101.157,196.001L100.185,195.773C99.417,195.581 99.057,195.317 99.057,194.813C99.057,194.249 99.657,193.841 100.461,193.841C101.337,193.841 101.697,194.333 101.877,194.777L102.777,194.525Z" style="fill-rule:nonzero;"/>
            </g>
            <path id="V" d="M167.024,221.874L165.62,221.874L165.62,220.314L164.624,220.314L164.624,221.874L163.64,221.874L163.64,222.726L164.624,222.726L164.624,226.818C164.624,227.826 165.356,228.51 166.412,228.51C166.688,228.51 166.976,228.462 167.156,228.39L166.952,227.49C166.806,227.521 166.657,227.537 166.508,227.538C165.896,227.538 165.62,227.226 165.62,226.554L165.62,222.726L167.024,222.726L167.024,221.874Z" style="fill-rule:nonzero;"/>
            <g id="M1" serif:id="M" transform="matrix(1,0,0,1,5.854,42.825)">
                <path d="M164.618,185.757C165.77,185.757 166.358,185.133 166.562,184.713L166.634,184.713L166.634,185.601L167.618,185.601L167.618,181.293C167.618,179.205 166.034,178.965 165.194,178.965C164.21,178.965 163.082,179.313 162.566,180.501L163.526,180.849C163.754,180.369 164.27,179.853 165.23,179.853C166.154,179.853 166.622,180.345 166.622,181.185L166.622,181.221C166.622,181.701 166.118,181.665 164.93,181.821C163.718,181.977 162.386,182.241 162.386,183.741C162.386,185.025 163.37,185.757 164.618,185.757ZM164.774,184.857C163.97,184.857 163.394,184.497 163.394,183.801C163.394,183.033 164.09,182.793 164.882,182.685C165.302,182.637 166.454,182.517 166.622,182.313L166.622,183.237C166.622,184.053 165.974,184.857 164.774,184.857Z" style="fill-rule:nonzero;"/>
            </g>
            <g id="V1" serif:id="V" transform="matrix(1,0,0,1,11.133,0)">
                <path d="M167.024,221.874L165.62,221.874L165.62,220.314L164.624,220.314L164.624,221.874L163.64,221.874L163.64,222.726L164.624,222.726L164.624,226.818C164.624,227.826 165.356,228.51 166.412,228.51C166.688,228.51 166.976,228.462 167.156,228.39L166.952,227.49C166.806,227.521 166.657,227.537 166.508,227.538C165.896,227.538 165.62,227.226 165.62,226.554L165.62,222.726L167.024,222.726L167.024,221.874Z" style="fill-rule:nonzero;"/>
            </g>
            <g id="H10" serif:id="H" transform="matrix(1,0,0,1,-49.041,57.635)">
                <path d="M231.409,170.935C232.729,170.935 233.701,170.263 234.001,169.279L233.029,169.003C232.777,169.687 232.189,170.035 231.409,170.035C230.221,170.035 229.405,169.267 229.357,167.863L234.109,167.863L234.109,167.431C234.109,164.995 232.645,164.155 231.277,164.155C229.501,164.155 228.349,165.559 228.349,167.563C228.349,169.579 229.513,170.935 231.409,170.935ZM229.357,166.999C229.429,165.967 230.125,165.055 231.277,165.055C232.381,165.055 232.993,165.847 233.089,166.999L229.357,166.999Z" style="fill-rule:nonzero;"/>
            </g>
            <g id="O1" serif:id="O" transform="matrix(1,0,0,1,4.237,42.825)">
                <path d="M73.204,196.049C73.204,197.765 73.732,199.553 74.716,201.233L75.688,201.233C74.668,199.133 74.212,197.573 74.212,196.049C74.212,194.345 74.776,192.197 75.688,190.337L74.716,190.337C73.84,191.801 73.204,194.153 73.204,196.049Z" style="fill-rule:nonzero;"/>
            </g>
            <g id="T2" serif:id="T" transform="matrix(1,0,0,1,-52.541,42.825)">
                <path d="M133.958,199.601L134.954,199.601L134.954,195.509C134.954,194.549 135.662,193.865 136.442,193.865C137.21,193.865 137.738,194.369 137.738,195.113L137.738,199.601L138.77,199.601L138.77,195.341C138.77,194.501 139.286,193.865 140.21,193.865C140.93,193.865 141.542,194.249 141.542,195.221L141.542,199.601L142.55,199.601L142.55,195.221C142.55,193.685 141.722,192.965 140.546,192.965C139.61,192.965 138.926,193.397 138.59,194.081L138.518,194.081C138.194,193.373 137.63,192.965 136.778,192.965C135.914,192.965 135.278,193.373 135.014,194.081L134.918,194.081L134.918,193.049L133.958,193.049L133.958,199.601Z" style="fill-rule:nonzero;"/>
            </g>
            <g id="M2" serif:id="M" transform="matrix(1,0,0,1,-70.84,56.825)">
                <path d="M164.618,185.757C165.77,185.757 166.358,185.133 166.562,184.713L166.634,184.713L166.634,185.601L167.618,185.601L167.618,181.293C167.618,179.205 166.034,178.965 165.194,178.965C164.21,178.965 163.082,179.313 162.566,180.501L163.526,180.849C163.754,180.369 164.27,179.853 165.23,179.853C166.154,179.853 166.622,180.345 166.622,181.185L166.622,181.221C166.622,181.701 166.118,181.665 164.93,181.821C163.718,181.977 162.386,182.241 162.386,183.741C162.386,185.025 163.37,185.757 164.618,185.757ZM164.774,184.857C163.97,184.857 163.394,184.497 163.394,183.801C163.394,183.033 164.09,182.793 164.882,182.685C165.302,182.637 166.454,182.517 166.622,182.313L166.622,183.237C166.622,184.053 165.974,184.857 164.774,184.857Z" style="fill-rule:nonzero;"/>
            </g>
            <g id="P3" serif:id="P" transform="matrix(1,0,0,1,11.924,42.825)">
                <path d="M86.708,199.601L87.704,199.601L87.704,195.461C87.704,194.573 88.412,193.925 89.36,193.925C89.636,193.925 89.912,193.973 89.984,193.985L89.984,192.965C89.864,192.965 89.6,192.953 89.456,192.953C88.664,192.953 87.98,193.397 87.74,194.045L87.668,194.045L87.668,193.049L86.708,193.049L86.708,199.601Z" style="fill-rule:nonzero;"/>
            </g>
            <path d="M103.284,242.426L104.28,242.426L104.28,239.978L104.988,239.33L107.436,242.426L108.72,242.426L105.744,238.682L108.516,235.874L107.268,235.874L104.412,238.79L104.28,238.79L104.28,233.69L103.284,233.69L103.284,242.426Z" style="fill-rule:nonzero;"/>
            <g id="H11" serif:id="H" transform="matrix(1,0,0,1,-119.119,71.635)">
                <path d="M231.409,170.935C232.729,170.935 233.701,170.263 234.001,169.279L233.029,169.003C232.777,169.687 232.189,170.035 231.409,170.035C230.221,170.035 229.405,169.267 229.357,167.863L234.109,167.863L234.109,167.431C234.109,164.995 232.645,164.155 231.277,164.155C229.501,164.155 228.349,165.559 228.349,167.563C228.349,169.579 229.513,170.935 231.409,170.935ZM229.357,166.999C229.429,165.967 230.125,165.055 231.277,165.055C232.381,165.055 232.993,165.847 233.089,166.999L229.357,166.999Z" style="fill-rule:nonzero;"/>
            </g>
            <g id="P4" serif:id="P" transform="matrix(1,0,0,1,29.795,42.825)">
                <path d="M86.708,199.601L87.704,199.601L87.704,195.461C87.704,194.573 88.412,193.925 89.36,193.925C89.636,193.925 89.912,193.973 89.984,193.985L89.984,192.965C89.864,192.965 89.6,192.953 89.456,192.953C88.664,192.953 87.98,193.397 87.74,194.045L87.668,194.045L87.668,193.049L86.708,193.049L86.708,199.601Z" style="fill-rule:nonzero;"/>
            </g>
            <g id="Q4" serif:id="Q" transform="matrix(1,0,0,1,26.198,42.825)">
                <path d="M102.777,194.525C102.465,193.601 101.757,192.965 100.461,192.965C99.081,192.965 98.049,193.757 98.049,194.861C98.049,195.761 98.589,196.361 99.801,196.649L100.893,196.901C101.541,197.069 101.865,197.369 101.865,197.837C101.865,198.389 101.253,198.857 100.329,198.857C99.501,198.857 98.985,198.497 98.805,197.801L97.857,198.029C98.085,199.145 98.997,199.745 100.341,199.745C101.865,199.745 102.897,198.905 102.897,197.777C102.897,196.865 102.321,196.289 101.157,196.001L100.185,195.773C99.417,195.581 99.057,195.317 99.057,194.813C99.057,194.249 99.657,193.841 100.461,193.841C101.337,193.841 101.697,194.333 101.877,194.777L102.777,194.525Z" style="fill-rule:nonzero;"/>
            </g>
            <path d="M130.612,244.874L131.608,244.874L131.608,241.418L131.692,241.418C131.92,241.778 132.34,242.57 133.6,242.57C135.244,242.57 136.384,241.25 136.384,239.174C136.384,237.11 135.244,235.79 133.588,235.79C132.304,235.79 131.92,236.582 131.692,236.918L131.572,236.918L131.572,235.874L130.612,235.874L130.612,244.874ZM133.468,241.67C132.256,241.67 131.596,240.638 131.596,239.162C131.596,237.686 132.244,236.69 133.468,236.69C134.74,236.69 135.376,237.77 135.376,239.162C135.376,240.554 134.728,241.67 133.468,241.67Z" style="fill-rule:nonzero;"/>
            <g id="H12" serif:id="H" transform="matrix(1,0,0,1,-90.748,71.635)">
                <path d="M231.409,170.935C232.729,170.935 233.701,170.263 234.001,169.279L233.029,169.003C232.777,169.687 232.189,170.035 231.409,170.035C230.221,170.035 229.405,169.267 229.357,167.863L234.109,167.863L234.109,167.431C234.109,164.995 232.645,164.155 231.277,164.155C229.501,164.155 228.349,165.559 228.349,167.563C228.349,169.579 229.513,170.935 231.409,170.935ZM229.357,166.999C229.429,165.967 230.125,165.055 231.277,165.055C232.381,165.055 232.993,165.847 233.089,166.999L229.357,166.999Z" style="fill-rule:nonzero;"/>
            </g>
            <g id="R1" serif:id="R" transform="matrix(1,0,0,1,36.182,42.825)">
                <path d="M111.344,199.745C112.796,199.745 113.756,198.857 113.924,197.693L112.916,197.693C112.736,198.401 112.136,198.845 111.344,198.845C110.156,198.845 109.388,197.849 109.388,196.337C109.388,194.849 110.168,193.865 111.344,193.865C112.232,193.865 112.76,194.417 112.916,195.017L113.924,195.017C113.756,193.793 112.712,192.965 111.332,192.965C109.556,192.965 108.38,194.369 108.38,196.361C108.38,198.329 109.508,199.745 111.344,199.745Z" style="fill-rule:nonzero;"/>
            </g>
            <g id="K2" serif:id="K" transform="matrix(1,0,0,1,26.578,56.825)">
                <path d="M125.034,185.601L126.03,185.601L126.03,179.049L125.034,179.049L125.034,185.601ZM125.538,177.957C125.934,177.957 126.258,177.657 126.258,177.285C126.258,176.901 125.934,176.601 125.538,176.601C125.142,176.601 124.83,176.901 124.83,177.285C124.83,177.657 125.142,177.957 125.538,177.957Z" style="fill-rule:nonzero;"/>
            </g>
            <path d="M157.364,235.874L155.888,235.874L155.888,235.214C155.888,234.566 156.176,234.218 156.836,234.218C157.136,234.218 157.304,234.29 157.4,234.326L157.7,233.462C157.544,233.39 157.232,233.282 156.74,233.282C155.804,233.282 154.892,233.858 154.892,234.974L154.892,235.874L153.836,235.874L153.836,236.726L154.892,236.726L154.892,242.426L155.888,242.426L155.888,236.726L157.364,236.726L157.364,235.874Z" style="fill-rule:nonzero;"/>
            <g id="K3" serif:id="K" transform="matrix(1,0,0,1,33.75,56.825)">
                <path d="M125.034,185.601L126.03,185.601L126.03,179.049L125.034,179.049L125.034,185.601ZM125.538,177.957C125.934,177.957 126.258,177.657 126.258,177.285C126.258,176.901 125.934,176.601 125.538,176.601C125.142,176.601 124.83,176.901 124.83,177.285C124.83,177.657 125.142,177.957 125.538,177.957Z" style="fill-rule:nonzero;"/>
            </g>
            <g id="R2" serif:id="R" transform="matrix(1,0,0,1,52.94,42.825)">
                <path d="M111.344,199.745C112.796,199.745 113.756,198.857 113.924,197.693L112.916,197.693C112.736,198.401 112.136,198.845 111.344,198.845C110.156,198.845 109.388,197.849 109.388,196.337C109.388,194.849 110.168,193.865 111.344,193.865C112.232,193.865 112.76,194.417 112.916,195.017L113.924,195.017C113.756,193.793 112.712,192.965 111.332,192.965C109.556,192.965 108.38,194.369 108.38,196.361C108.38,198.329 109.508,199.745 111.344,199.745Z" style="fill-rule:nonzero;"/>
            </g>
            <g id="K4" serif:id="K" transform="matrix(1,0,0,1,43.336,56.825)">
                <path d="M125.034,185.601L126.03,185.601L126.03,179.049L125.034,179.049L125.034,185.601ZM125.538,177.957C125.934,177.957 126.258,177.657 126.258,177.285C126.258,176.901 125.934,176.601 125.538,176.601C125.142,176.601 124.83,176.901 124.83,177.285C124.83,177.657 125.142,177.957 125.538,177.957Z" style="fill-rule:nonzero;"/>
            </g>
            <g id="V2" serif:id="V" transform="matrix(1,0,0,1,7.026,14)">
                <path d="M167.024,221.874L165.62,221.874L165.62,220.314L164.624,220.314L164.624,221.874L163.64,221.874L163.64,222.726L164.624,222.726L164.624,226.818C164.624,227.826 165.356,228.51 166.412,228.51C166.688,228.51 166.976,228.462 167.156,228.39L166.952,227.49C166.806,227.521 166.657,227.537 166.508,227.538C165.896,227.538 165.62,227.226 165.62,226.554L165.62,222.726L167.024,222.726L167.024,221.874Z" style="fill-rule:nonzero;"/>
            </g>
            <path d="M176.213,244.922C177.125,244.922 177.749,244.442 178.133,243.422L180.917,235.874L179.837,235.874L178.025,241.106L177.953,241.106L176.153,235.874L175.061,235.874L177.473,242.462L177.281,243.026C176.945,243.962 176.501,244.106 175.829,243.95L175.733,243.926L175.469,244.802C175.577,244.862 175.865,244.922 176.213,244.922Z" style="fill-rule:nonzero;"/>
            <g id="U1" serif:id="U" transform="matrix(1,0,0,1,0,42.825)">
                <path d="M181.897,201.233L182.869,201.233C183.853,199.553 184.381,197.765 184.381,196.049C184.381,194.153 183.757,191.801 182.869,190.337L181.897,190.337C182.821,192.197 183.373,194.345 183.373,196.049C183.373,197.573 182.929,199.133 181.897,201.233Z" style="fill-rule:nonzero;"/>
            </g>
        </g>
    </g>
</svg>
