<svg xmlns="http://www.w3.org/2000/svg" xmlns:xlink="http://www.w3.org/1999/xlink" width="100%" height="100%" viewBox="0 0 500 450" fill-rule="evenodd" stroke-linejoin="round" stroke-miterlimit="2" xmlns:v="https://vecta.io/nano"><style><![CDATA[.B{fill:#4c628b}.C{fill-rule:nonzero}.D{fill:#4f4f4f}.E{fill:#5a74d1}.F{stroke-miterlimit:1.5}.G{stroke:#000}.H{stroke-linejoin:miter}.I{stroke-miterlimit:10}.J{stroke-width:1.104}.K{stroke-width:.736}.L{stroke-linecap:round}.M{stroke-width:1.005}]]></style><path d="M475.004 27.815c0-2.208-1.798-4-4-4H28.999c-2.208 0-4 1.793-4 4v179.653c0 2.208 1.792 4 4 4h442.005c2.202 0 4-1.793 4-4V27.815z" fill-opacity=".02"/><path d="M476.002 27.815v179.653a5 5 0 0 1-4.998 5H28.999c-2.759 0-4.999-2.241-4.999-5V27.815c0-2.76 2.24-5 4.999-5h442.005a5 5 0 0 1 4.998 5zm-.998 0c0-2.208-1.798-4-4-4H28.999c-2.208 0-4 1.793-4 4v179.653c0 2.208 1.792 4 4 4h442.005c2.202 0 4-1.793 4-4V27.815z" fill-opacity=".31"/><g class="C"><path d="M121.393 97.795c-.005-.061-.009-.122-.034-.181-.006-.016-.019-.026-.027-.041a.66.66 0 0 0-.058-.089c-.044-.061-.093-.111-.153-.153-.016-.01-.022-.03-.039-.039l-13.592-7.767c-.199-.114-.443-.114-.642 0l-13.592 7.767c-.016.01-.022.028-.038.039-.062.043-.115.094-.16.159-.018.026-.036.049-.05.078-.009.017-.023.028-.031.047a.64.64 0 0 0-.04.217c0 .008-.006.016-.006.023v14.239c0 .013.009.025.01.038a.63.63 0 0 0 .063.264c.027.041.057.061.079.088.048.06.094.118.158.158.006.004.009.012.014.014l13.592 7.767c.101.057.211.085.322.085s.221-.028.321-.085l13.592-7.767c.006-.004.009-.012.016-.016.06-.036.101-.091.146-.145.026-.031.061-.054.08-.089.044-.078.05-.151.061-.224.004-.03.023-.057.023-.088V97.854c0-.021-.014-.039-.016-.06zm-2.118-.044l-4.748 1.899-5.222-7.596 9.97 5.697zm-12.106-6.521l5.89 8.567H101.28l5.89-8.567zm-2.14.826l-5.22 7.595-4.747-1.899 9.967-5.696zm-10.805 6.754l4.901 1.961-4.901 8.823V98.809zm5.822 2.971l5.966 10.847-11.39-1.085 5.424-9.763zm6.475 16.964l-10.019-5.724 10.019.945v4.779zm.647-6.7l-6.024-10.954h12.049l-6.024 10.954zm.647 6.7v-4.767l10.014-.954-10.014 5.721zm.505-6.105l5.971-10.855 5.422 9.76-11.394 1.095zm11.792-3.043l-4.903-8.826 4.903-1.961v10.787z" stroke="#5a74d1" class="E J"/><g stroke="#4f4f4f" class="D K"><path d="M85.086 128.441l3.835-1.644a.79.79 0 0 0 .415-1.036.81.81 0 0 0-1.064-.426l-3.993 1.711c-.768-1.109-1.746-2.06-2.877-2.799l1.8-3.001a.8.8 0 1 0-1.373-.823l-1.833 3.055c-1.304-.591-2.747-.928-4.271-.928h-.241l2.952-5.314a.8.8 0 0 0-.311-1.089.8.8 0 0 0-1.087.31l-3.328 5.991c-1.639-.251-3.114-.998-4.269-2.087l1.482-1.482a.8.8 0 0 0 0-1.131.8.8 0 0 0-1.132-.001l-1.403 1.403c-.921-1.303-1.468-2.889-1.468-4.603 0-.041-.006-.081-.006-.122l3.35-.558a.8.8 0 0 0 .335-1.441.8.8 0 0 0-.596-.138l-3.245.541a9.55 9.55 0 0 0-.98-2.819l4.792-2.396c.188-.094.332-.259.398-.459s.051-.418-.043-.606c-.2-.399-.684-.56-1.082-.361l-4.952 2.476c-.453-.583-.968-1.114-1.541-1.579l2.091-2.614c.133-.167.195-.38.172-.592s-.131-.407-.297-.54c-.344-.275-.844-.219-1.119.124l-2.177 2.721a9.52 9.52 0 0 0-2.197-.896l.52-2.6c.042-.209-.001-.426-.119-.603s-.302-.3-.511-.342c-.432-.086-.852.193-.938.624l-.525 2.625-.936-.047c-.831 0-1.632.117-2.401.316v-5.119a.8.8 0 0 0-.8-.8h-.001a.8.8 0 0 0-.8.8v5.687a9.65 9.65 0 0 0-1.249.688l-3.23-3.877a.79.79 0 0 0-1.116-.101.81.81 0 0 0-.104 1.141l3.191 3.829c-.468.433-.892.91-1.267 1.428l-1.515-1.01c-.177-.118-.394-.161-.603-.119s-.393.165-.511.342c-.244.367-.145.861.22 1.105l1.582 1.054a9.47 9.47 0 0 0-.856 2.64H42.91a.8.8 0 0 0-.8.8v.001a.8.8 0 0 0 .8.8h4.803v.8l.059 1.734-2.635.527a.8.8 0 0 0-.626.94.8.8 0 0 0 .944.629l2.464-.493a27.8 27.8 0 0 0 .587 3.266l-4.242 1.212c-.426.122-.674.566-.552.993.058.204.195.376.38.479s.403.128.606.07l4.227-1.208.701 2.007-4.762 2.381c-.188.094-.331.259-.398.459s-.051.418.043.606c.2.399.684.56 1.083.361l4.661-2.33a27.8 27.8 0 0 0 1.283 2.468l-3.604 2.403c-.365.244-.464.737-.221 1.103.119.178.303.302.512.343s.426-.001.604-.119l3.554-2.369c.567.853 1.177 1.674 1.831 2.458l-1.465.977a.81.81 0 0 0-.225 1.125.79.79 0 0 0 1.093.22l1.669-1.113 1.758 1.725-3.03 3.636a.8.8 0 0 0 .102 1.124c.164.137.375.202.587.183s.408-.122.544-.286l3.021-3.625 2.018 1.474-3.228 5.163a.79.79 0 0 0 .251 1.088.81.81 0 0 0 1.118-.257l3.218-5.15c.91.531 1.852 1.014 2.823 1.442l-1.253 3.758a.8.8 0 0 0 1.116.97.8.8 0 0 0 .4-.462l1.22-3.66a27.89 27.89 0 0 0 3.193.975l-.449 2.244c-.087.435.195.859.63.946.208.042.423-.001.598-.118s.298-.299.339-.506l.447-2.236 2.614.349v4.909a.8.8 0 0 0 .8.8h.001a.8.8 0 0 0 .8-.8v-4.823l.801.02c1.006 0 1.976-.151 2.897-.419l1.634 3.268c.094.188.259.332.459.398s.418.051.606-.043c.399-.2.56-.684.361-1.082l-1.556-3.113a10.4 10.4 0 0 0 1.832-1.104l1.45 1.933a.8.8 0 0 0 1.434-.366.8.8 0 0 0-.152-.592l-1.523-2.03c.467-.479.887-1.001 1.256-1.562l3.797 2.531c.177.118.394.161.603.119a.8.8 0 0 0 .51-.342c.245-.367.146-.862-.22-1.106l-3.917-2.612a10.29 10.29 0 0 0 .798-2.684h4.939a.8.8 0 0 0 .8-.8v-.001a.8.8 0 0 0-.8-.8H86.13a10.33 10.33 0 0 0-1.044-4.514zm-9.36 13.317c-14.563 0-26.412-11.849-26.412-26.412v-.8c0-4.413 3.59-8.004 8.004-8.004s8.004 3.59 8.004 8.004a9.62 9.62 0 0 0 9.604 9.604h.8c4.854 0 8.804 3.95 8.804 8.804s-3.95 8.804-8.804 8.804z"/><use xlink:href="#B"/><use xlink:href="#C"/><use xlink:href="#C" x="12.567" y="3.85"/><path d="M142.505 97.229l-3.594-2.119a.79.79 0 0 0-1.081.279.81.81 0 0 0 .286 1.11l3.742 2.206a10.48 10.48 0 0 0-.554 3.975l-3.484.325a.8.8 0 1 0 .149 1.594l3.547-.33c.295 1.401.877 2.764 1.779 3.992l.143.194-6.031.765a.8.8 0 1 0 .199 1.588l6.799-.862c.767 1.47 1.038 3.101.844 4.677l-2.071-.318a.8.8 0 1 0-.243 1.582l1.961.301a7.94 7.94 0 0 1-2.842 3.907c-.033.024-.062.052-.094.077l-2.432-2.37a.8.8 0 1 0-1.119 1.145l2.356 2.296a9.55 9.55 0 0 0-1.693 2.458l-4.767-2.445c-.187-.096-.405-.114-.606-.049a.79.79 0 0 0-.463.394c-.204.397-.047.883.349 1.086l4.926 2.527c-.202.71-.325 1.439-.361 2.176l-3.345-.139c-.213-.009-.422.067-.579.212s-.251.346-.259.559c-.018.44.323.81.762.828l3.481.145a9.52 9.52 0 0 0 .578 2.301l-2.404 1.119c-.193.09-.343.253-.416.453a.8.8 0 0 0 .027.614c.186.4.66.572 1.058.387l2.427-1.13.516.782c.492.67 1.06 1.246 1.676 1.748l-4.127 3.029a.8.8 0 0 0-.171 1.118l.001.001a.8.8 0 0 0 1.118.171l4.585-3.366a9.65 9.65 0 0 0 1.294.6l-1.214 4.899a.79.79 0 0 0 .579.96.81.81 0 0 0 .981-.591l1.198-4.839c.626.121 1.262.181 1.901.176l.082 1.819c.01.213.103.413.261.557a.8.8 0 0 0 .578.209c.44-.02.78-.392.76-.831l-.086-1.899a9.47 9.47 0 0 0 2.635-.873l2.928 3.988a.8.8 0 0 0 1.118.171l.001-.001a.8.8 0 0 0 .171-1.118l-2.842-3.872.645-.474 1.362-1.074 1.984 1.812a.8.8 0 1 0 1.077-1.184l-1.856-1.695a27.8 27.8 0 0 0 2.285-2.406l3.487 2.702c.351.272.855.208 1.127-.143.13-.168.188-.379.161-.589s-.135-.401-.303-.53l-3.475-2.693 1.203-1.753 4.738 2.43c.187.096.405.114.606.049s.367-.206.463-.393a.81.81 0 0 0-.35-1.087l-4.636-2.378a27.8 27.8 0 0 0 1.23-2.494l4.07 1.484c.413.15.869-.062 1.019-.475.073-.201.064-.423-.026-.616s-.253-.343-.454-.416l-4.013-1.462a28.46 28.46 0 0 0 .898-2.931l1.655.603a.81.81 0 0 0 1.04-.484.79.79 0 0 0-.47-1.011l-1.885-.687.35-2.438 4.724.291a.8.8 0 0 0 .846-.748c.013-.213-.059-.422-.2-.582s-.34-.256-.552-.27l-4.71-.29-.006-2.499 6.072-.454a.79.79 0 0 0 .728-.846.81.81 0 0 0-.868-.749l-6.056.453a28.08 28.08 0 0 0-.508-3.129l3.771-1.214a.8.8 0 1 0-.487-1.524l-3.672 1.182a27.89 27.89 0 0 0-1.103-3.151l2.075-.966c.402-.187.577-.666.39-1.068a.8.8 0 0 0-.449-.413c-.198-.073-.417-.063-.609.026l-2.067.963-1.266-2.314 3.957-2.905a.8.8 0 0 0 .171-1.118l-.001-.001a.8.8 0 0 0-1.118-.171l-3.888 2.854-.458-.658a10.37 10.37 0 0 0-2.052-2.088l1.668-3.251c.096-.187.114-.405.049-.606a.79.79 0 0 0-.394-.463c-.397-.204-.883-.047-1.086.349l-1.588 3.097a10.4 10.4 0 0 0-1.974-.824l.7-2.313a.8.8 0 0 0-1.143-.939.8.8 0 0 0-.387.473l-.735 2.428a10.55 10.55 0 0 0-2.003-.088l-.207-4.558a.8.8 0 0 0-.839-.765c-.441.02-.781.392-.761.832l.213 4.703a10.29 10.29 0 0 0-2.636.945l-2.923-3.981a.8.8 0 0 0-1.118-.171h-.001a.8.8 0 0 0-.171 1.118l2.842 3.872a10.33 10.33 0 0 0-3.021 3.513zm16.274-.335c8.618 11.74 6.079 28.303-5.661 36.921l-.645.474c-3.558 2.612-8.577 1.842-11.188-1.716s-1.842-8.577 1.716-11.188a9.62 9.62 0 0 0 2.059-13.426l-.474-.645c-2.873-3.913-2.026-9.434 1.887-12.307s9.434-2.026 12.307 1.887zm-5.281 26.544a4.81 4.81 0 0 0-6.713-1.029 4.81 4.81 0 0 0-1.029 6.713 4.81 4.81 0 0 0 6.713 1.029 4.81 4.81 0 0 0 1.029-6.713zm-6.452 4.736c-1.045-1.423-.737-3.43.686-4.475s3.43-.737 4.475.686.737 3.43-.686 4.475-3.43.737-4.475-.686z"/><use xlink:href="#D"/><use xlink:href="#D" x="-4.333" y="-12.408"/><path d="M91.861 79.815l1.245 3.983a.79.79 0 0 0 .989.518.81.81 0 0 0 .533-1.015l-1.296-4.146a10.47 10.47 0 0 0 3.077-2.577l2.802 2.096a.801.801 0 1 0 .959-1.282l-2.852-2.135c.721-1.237 1.203-2.638 1.359-4.154l.025-.24 4.986 3.478a.8.8 0 1 0 .917-1.312l-5.621-3.921c.417-1.605 1.31-2.996 2.511-4.034l1.323 1.625a.8.8 0 1 0 1.241-1.011l-1.253-1.538a7.94 7.94 0 0 1 4.728-.991l.122.006.214 3.389a.8.8 0 1 0 1.598-.099l-.208-3.283a9.55 9.55 0 0 0 2.904-.687l1.895 5.011c.074.197.224.356.416.443s.41.093.607.019a.81.81 0 0 0 .47-1.04l-1.959-5.178c.626-.391 1.207-.849 1.728-1.372l2.387 2.347c.152.15.358.233.572.231a.81.81 0 0 0 .568-.241c.309-.314.304-.817-.009-1.125l-2.485-2.442a9.52 9.52 0 0 0 1.116-2.094l2.534.782c.204.063.424.042.612-.057a.8.8 0 0 0 .392-.473c.13-.421-.105-.867-.525-.996l-2.558-.79.142-.926c.085-.826.05-1.635-.07-2.421l5.092.521a.8.8 0 0 0 .877-.714v-.001a.8.8 0 0 0-.714-.877l-5.658-.579a9.65 9.65 0 0 0-.557-1.313l4.186-2.819a.79.79 0 0 0 .215-1.1.81.81 0 0 0-1.124-.219l-4.135 2.785a9.66 9.66 0 0 0-1.291-1.406l1.159-1.404c.136-.164.2-.376.18-.588a.8.8 0 0 0-.288-.543c-.34-.28-.842-.232-1.121.107l-1.21 1.466a9.47 9.47 0 0 0-2.54-1.12l.504-4.922a.8.8 0 0 0-.714-.877h-.001a.8.8 0 0 0-.877.714l-.489 4.778-.796-.082-1.731-.118-.256-2.675a.8.8 0 1 0-1.593.156l.239 2.502a27.8 27.8 0 0 0-3.308.252l-.774-4.344c-.078-.437-.495-.728-.932-.65-.209.037-.394.155-.515.329a.8.8 0 0 0-.131.596l.771 4.328-2.068.493-1.884-4.98c-.074-.197-.224-.356-.416-.443s-.41-.093-.607-.019c-.417.158-.627.624-.469 1.04l1.843 4.874a27.8 27.8 0 0 0-2.585 1.025l-2.023-3.83c-.205-.388-.686-.537-1.075-.332-.19.1-.331.271-.394.474s-.042.424.057.613l1.995 3.776c-.906.477-1.785 1.001-2.632 1.571l-.823-1.557a.81.81 0 0 0-1.096-.339.79.79 0 0 0-.33 1.065l.937 1.774L87 51.124l-3.308-3.384a.8.8 0 0 0-1.371.552c-.002.213.08.418.229.57l3.299 3.375-1.672 1.857-4.808-3.737a.79.79 0 0 0-1.107.139.81.81 0 0 0 .142 1.138l4.795 3.726c-.621.851-1.197 1.739-1.722 2.661l-3.611-1.629a.8.8 0 1 0-.661 1.457l3.516 1.587a27.89 27.89 0 0 0-1.295 3.077l-2.187-.675c-.424-.131-.874.107-1.005.531-.063.202-.042.421.056.607s.267.327.469.389l2.179.673-.613 2.565-4.884-.5a.8.8 0 0 0-.877.714v.001a.8.8 0 0 0 .714.877l4.798.491-.101.795c-.102 1.001-.051 1.981.121 2.925l-3.418 1.292c-.197.074-.356.224-.443.416s-.093.41-.019.607a.81.81 0 0 0 1.04.47l3.255-1.231a10.4 10.4 0 0 0 .911 1.935l-2.071 1.246a.8.8 0 0 0 .218 1.463.8.8 0 0 0 .604-.091l2.174-1.308a10.54 10.54 0 0 0 1.426 1.408l-2.904 3.519c-.135.164-.2.376-.18.587a.8.8 0 0 0 .288.542c.34.281.842.233 1.122-.107l2.997-3.631a10.29 10.29 0 0 0 2.588 1.067l-.503 4.913a.8.8 0 0 0 .714.877h.001a.8.8 0 0 0 .877-.714l.489-4.778a10.33 10.33 0 0 0 4.597-.579zM79.566 69.147c1.483-14.488 14.477-25.068 28.965-23.585l.796.082c4.39.449 7.596 4.387 7.147 8.777s-4.387 7.596-8.777 7.147a9.62 9.62 0 0 0-10.533 8.576l-.082.796c-.494 4.829-4.826 8.356-9.655 7.862s-8.356-4.826-7.862-9.655zm21.724-16.143a4.81 4.81 0 0 0 4.288 5.266 4.81 4.81 0 0 0 5.266-4.288 4.81 4.81 0 0 0-4.288-5.266 4.81 4.81 0 0 0-5.266 4.288zm7.962.815c-.18 1.756-1.754 3.039-3.511 2.859s-3.039-1.754-2.859-3.511 1.754-3.039 3.511-2.859 3.039 1.754 2.859 3.511z"/><use xlink:href="#E"/><use xlink:href="#E" x="-5.109" y="12.109"/></g><g class="E"><path d="M60.3 167.276h-.948v7.008l-2.688-2.7-.66.66 3.828 3.816 3.828-3.816-.672-.66-2.688 2.7v-7.008zm6.673 0h-1.116l3.216 8.736h1.092l3.192-8.736h-1.092l-2.592 7.356h-.108l-2.592-7.356z"/><use xlink:href="#F"/><use xlink:href="#G"/><use xlink:href="#H"/></g></g><path d="M88.676 167.276h.996v8.736h-.996z" class="E"/><g class="C"><use xlink:href="#I" class="E"/><use xlink:href="#J" class="E"/><use xlink:href="#K" class="E"/><use xlink:href="#L" class="E"/><use xlink:href="#J" x="21.234" class="E"/><use xlink:href="#M" class="E"/><use xlink:href="#N" class="E"/><use xlink:href="#J" x="41.965" class="E"/><use xlink:href="#I" x="55.196" class="E"/><g class="D"><path d="M59.364 192.714h.948v-7.008L63 188.418l.66-.66-3.816-3.816-3.84 3.816.672.66 2.688-2.712v7.008z"/><use xlink:href="#O"/><use xlink:href="#J" x="-25.957" y="16.702"/></g></g><path d="M82.173 183.978h.996v8.736h-.996zm2.847 0h.996v8.736h-.996z" class="D"/><use xlink:href="#L" x="-27.562" y="16.702" class="C D"/><path d="M94.841 183.978h.996v8.736h-.996z" class="D"/><g class="C"><use xlink:href="#H" x="15.785" y="16.702" class="D"/><use xlink:href="#G" x="27.024" y="16.702" class="D"/><use xlink:href="#I" x="17.403" y="16.702" class="D"/><use xlink:href="#J" x="17.402" y="16.702" class="D"/><use xlink:href="#K" x="17.402" y="16.702" class="D"/><use xlink:href="#L" x="17.403" y="16.702" class="D"/><use xlink:href="#J" x="38.636" y="16.702" class="D"/><use xlink:href="#M" x="17.402" y="16.702" class="D"/><use xlink:href="#N" x="17.403" y="16.702" class="D"/><use xlink:href="#J" x="59.367" y="16.702" class="D"/><use xlink:href="#I" x="72.598" y="16.702" class="D"/><path d="M24.996 6.13v10.556h1.856V9.421h.087l2.9 7.236h1.377l2.929-7.221h.087v7.25h1.87V6.13h-2.363l-3.132 7.641h-.13L27.345 6.13h-2.349zm16.64 10.715c1.841 0 3.088-.899 3.422-2.277l-1.74-.203c-.246.681-.855 1.03-1.653 1.03-1.174 0-1.972-.797-2.03-2.146h5.51v-.58c0-2.77-1.682-4.002-3.625-4.002-2.276 0-3.741 1.668-3.741 4.104 0 2.48 1.465 4.075 3.857 4.075zm-2.001-4.858c.101-1.044.768-1.87 1.885-1.87 1.087 0 1.697.739 1.813 1.87h-3.697zm11.003-3.218h-1.566V6.884h-1.856v1.885h-1.117v1.45h1.117v4.394c0 1.363.885 2.175 2.364 2.175.406 0 .812-.058 1.218-.174l-.319-1.464c-.174.043-.392.072-.551.072-.594 0-.855-.29-.855-.913V10.22h1.566V8.77zm3.841 8.076c1.247 0 1.986-.58 2.32-1.247h.087v1.088h1.769v-5.292c0-2.088-1.726-2.726-3.233-2.726-1.61 0-2.9.696-3.364 2.074l1.726.348c.188-.522.739-.986 1.653-.986.885 0 1.363.45 1.363 1.204v.043c0 .537-.566.566-1.957.711-1.537.159-3.016.623-3.016 2.407 0 1.551 1.145 2.378 2.654 2.378zm.479-1.363c-.769 0-1.32-.363-1.32-1.044 0-.725.624-1.015 1.45-1.131.478-.072 1.479-.203 1.725-.391v.928c0 .885-.725 1.639-1.856 1.639zm9.035 4.336c2.146 0 3.727-.986 3.727-3.001V8.769h-1.827v1.305h-.102c-.29-.566-.899-1.407-2.291-1.407-1.827 0-3.277 1.436-3.277 4.046 0 2.567 1.45 3.857 3.277 3.857 1.348 0 1.986-.725 2.262-1.305h.102v1.494c0 1.174-.769 1.653-1.827 1.653-1.131 0-1.624-.537-1.856-1l-1.667.406c.334 1.102 1.479 2.001 3.48 2.001zm.015-4.713c-1.218 0-1.871-.957-1.871-2.407 0-1.435.638-2.494 1.871-2.494 1.218 0 1.87 1.001 1.87 2.494 0 1.508-.667 2.407-1.87 2.407z"/><use xlink:href="#P"/><path d="M80.049 12.06c0-1.146.71-1.812 1.682-1.812.957 0 1.551.638 1.551 1.696v4.742h1.856v-5.031c0-1.9-1.088-2.987-2.712-2.987-1.189 0-1.957.566-2.32 1.45h-.087V8.769h-1.827v7.917h1.856V12.06zm10.459 4.785c2.305 0 3.784-1.639 3.784-4.089s-1.479-4.089-3.784-4.089c-2.32 0-3.799 1.639-3.799 4.089s1.479 4.089 3.799 4.089zm0-1.508c-1.276 0-1.9-1.131-1.9-2.581s.624-2.581 1.9-2.581 1.9 1.131 1.9 2.581-.624 2.581-1.9 2.581zm5.364 1.349h1.856v-4.814c0-.972.653-1.624 1.465-1.624.783 0 1.319.522 1.319 1.334v5.104h1.842v-4.945c0-.87.522-1.493 1.421-1.493.754 0 1.349.435 1.349 1.406v5.031h1.871v-5.307c0-1.769-1.015-2.712-2.465-2.712-1.16 0-2.03.58-2.378 1.45h-.087c-.305-.899-1.073-1.45-2.132-1.45s-1.856.551-2.189 1.45h-.102V8.769h-1.769v7.917z"/><use xlink:href="#P" x="39.288"/><path d="M118.844 16.802c.638 0 1.131-.493 1.131-1.131s-.493-1.131-1.131-1.131-1.145.493-1.145 1.131.508 1.131 1.145 1.131zm0-5.379a1.11 1.11 0 0 0 1.131-1.116c0-.638-.493-1.146-1.131-1.146a1.14 1.14 0 0 0-1.145 1.146c0 .624.508 1.116 1.145 1.116z"/></g><path d="M417.914 78.561c0-.796-.316-1.559-.879-2.121a3 3 0 0 0-2.122-.879h-44.068v25h44.068a3 3 0 0 0 2.122-.879c.563-.562.879-1.325.879-2.121V78.561z" class="D"/><path d="M368.322 75.561H249.154a3 3 0 0 0-3 3V97.56a3 3 0 0 0 3 3h119.168v-25z" class="E"/><g class="C"><use xlink:href="#Q"/><use xlink:href="#J" x="152.883" y="-107.411"/><use xlink:href="#K" x="152.882" y="-107.411"/><use xlink:href="#L" x="152.883" y="-107.411"/><use xlink:href="#J" x="174.117" y="-107.411"/><use xlink:href="#M" x="152.883" y="-107.411"/><use xlink:href="#N" x="152.883" y="-107.411"/><use xlink:href="#J" x="194.847" y="-107.411"/><use xlink:href="#I" x="208.078" y="-107.411"/><use xlink:href="#N" x="176.227" y="-107.411"/></g><path d="M319.36 59.865h.996v8.736h-.996z"/><g class="C"><use xlink:href="#H" x="240.305" y="-107.411"/><use xlink:href="#I" x="234.082" y="-107.411"/><use xlink:href="#I" x="240.352" y="-107.411"/><use xlink:href="#F" x="266.929" y="-107.411"/><use xlink:href="#R"/><use xlink:href="#F" x="274.101" y="-107.411"/><use xlink:href="#J" x="250.371" y="-107.411"/><use xlink:href="#S"/><use xlink:href="#H" x="287.274" y="-107.411"/><use xlink:href="#I" x="281.051" y="-107.411"/><use xlink:href="#T"/><use xlink:href="#F" x="317.683" y="-107.411"/><use xlink:href="#G" x="317.684" y="-107.411"/><use xlink:href="#L" x="284.157" y="-107.411"/><use xlink:href="#I" x="311.66" y="-107.411"/><use xlink:href="#U"/></g><g fill="none" stroke-width="1.3" class="G H L"><path d="M398.068 112.855l-3.9 3.9-3.9-3.9" class="I"/><path d="M394.168 104.674v12.081" class="F"/><path d="M292.261 112.855l-3.9 3.9-3.9-3.9" class="I"/><path d="M288.361 104.674v12.081" class="F"/></g><g class="B C"><path d="M247.081 179.574h1.056v-3.9h4.644v3.9h1.056v-8.736h-1.056v3.9h-4.644v-3.9h-1.056v8.736z"/><use xlink:href="#F" x="181.774" y="3.562"/><use xlink:href="#V"/><path d="M267.521 175.638c0-1.14.732-1.8 1.728-1.8.984 0 1.536.588 1.536 1.644v4.092h.996v-4.164c0-1.68-.912-2.472-2.244-2.472-1.032 0-1.62.432-1.92 1.116h-.096v-3.216h-.996v8.736h.996v-3.936z"/><use xlink:href="#J" x="172.458" y="3.562"/><use xlink:href="#G" x="203.15" y="3.562"/><use xlink:href="#R" x="-55.94" y="110.973"/><use xlink:href="#G" x="215.314" y="3.562"/><use xlink:href="#H" x="215.314" y="3.562"/><use xlink:href="#N" x="167.595" y="3.562"/><use xlink:href="#W"/><use xlink:href="#F" x="240.497" y="3.562"/><use xlink:href="#X"/><use xlink:href="#M" x="195.732" y="3.562"/><use xlink:href="#X" x="17.567"/><use xlink:href="#R" x="-1.706" y="110.973"/><use xlink:href="#R" x="5.993" y="110.973"/><use xlink:href="#H" x="272.595" y="3.562"/></g><path d="M361.271 170.838h.996v8.736h-.996z" class="B"/><g class="C B"><use xlink:href="#I" x="269.22" y="3.562"/><use xlink:href="#J" x="269.22" y="3.562"/><use xlink:href="#Y"/><use xlink:href="#X" x="70.09"/><use xlink:href="#I" x="300.286" y="3.562"/><use xlink:href="#F" x="326.864" y="3.562"/><use xlink:href="#W" x="93.575"/><use xlink:href="#F" x="334.071" y="3.562"/><use xlink:href="#T" x="25.916" y="110.973"/><use xlink:href="#J" x="316.786" y="3.562"/><use xlink:href="#I" x="330.017" y="3.562"/><use xlink:href="#H" x="153.594" y="16.562"/><use xlink:href="#Z"/><use xlink:href="#X" x="-65.223" y="13"/><use xlink:href="#M" x="130.508" y="16.562"/><use xlink:href="#V" x="7.69" y="13"/><use xlink:href="#I" x="182.692" y="16.562"/><use xlink:href="#J" x="182.691" y="16.562"/><use xlink:href="#K" x="182.691" y="16.562"/><use xlink:href="#L" x="182.692" y="16.562"/><use xlink:href="#J" x="203.926" y="16.562"/><use xlink:href="#M" x="182.692" y="16.562"/><use xlink:href="#N" x="182.692" y="16.562"/><use xlink:href="#J" x="224.656" y="16.562"/><use xlink:href="#I" x="237.887" y="16.562"/><use xlink:href="#N" x="206.036" y="16.562"/></g><path d="M349.169 183.838h.996v8.736h-.996z" class="B"/><g class="C"><use xlink:href="#H" x="270.113" y="16.562" class="B"/><use xlink:href="#I" x="263.891" y="16.562" class="B"/><use xlink:href="#I" x="270.16" y="16.562" class="B"/><use xlink:href="#F" x="296.738" y="16.562" class="B"/><use xlink:href="#R" x="29.809" y="123.973" class="B"/><use xlink:href="#F" x="303.91" y="16.562" class="B"/><use xlink:href="#J" x="280.179" y="16.562" class="B"/><use xlink:href="#S" x="29.808" y="123.973" class="B"/><use xlink:href="#H" x="317.082" y="16.562" class="B"/><use xlink:href="#I" x="310.86" y="16.562" class="B"/><use xlink:href="#T" x="29.809" y="123.973" class="B"/><use xlink:href="#F" x="347.492" y="16.562" class="B"/><use xlink:href="#G" x="347.493" y="16.562" class="B"/><use xlink:href="#L" x="313.965" y="16.562" class="B"/><use xlink:href="#I" x="341.469" y="16.562" class="B"/><path d="M352.966 130.884h1.056v-3.804h3.78v-.948h-3.78v-3.036h4.176v-.948h-5.232v8.736z"/><use xlink:href="#H" x="277.974" y="-45.128"/></g><path d="M366.65 122.148h.996v8.736h-.996z"/><g class="C"><use xlink:href="#I" x="274.599" y="-45.128"/><use xlink:href="#J" x="274.598" y="-45.128"/><use xlink:href="#Y" x="5.379" y="-48.69"/><use xlink:href="#X" x="75.469" y="-48.69"/><use xlink:href="#I" x="305.665" y="-45.128"/><use xlink:href="#F" x="332.243" y="-45.128"/><use xlink:href="#W" x="98.953" y="-48.69"/><use xlink:href="#F" x="339.45" y="-45.128"/><use xlink:href="#T" x="31.294" y="62.283"/><use xlink:href="#J" x="322.165" y="-45.128"/><use xlink:href="#I" x="335.396" y="-45.128"/><use xlink:href="#a"/><use xlink:href="#N" x="205.59" y="-32.128"/><use xlink:href="#J" x="247.554" y="-32.128"/></g><path d="M355.684 135.148h.996v8.736h-.996zm2.848 0h.996v8.736h-.996z"/><use xlink:href="#L" x="245.95" y="-32.128" class="C"/><path d="M368.352 135.148h.996v8.736h-.996z"/><g class="C"><use xlink:href="#H" x="289.297" y="-32.128"/><use xlink:href="#G" x="300.535" y="-32.128"/><use xlink:href="#I" x="290.914" y="-32.128"/><use xlink:href="#J" x="290.914" y="-32.128"/><use xlink:href="#K" x="290.914" y="-32.128"/><use xlink:href="#L" x="290.915" y="-32.128"/><use xlink:href="#J" x="312.148" y="-32.128"/><use xlink:href="#M" x="290.914" y="-32.128"/><use xlink:href="#N" x="290.914" y="-32.128"/><use xlink:href="#J" x="332.879" y="-32.128"/><use xlink:href="#I" x="346.11" y="-32.128"/><use xlink:href="#b"/><path d="M248.919 123.096h2.748v7.788h1.056v-7.788h2.748v-.948h-6.552v.948z"/><use xlink:href="#G" x="178.849" y="-45.128"/><use xlink:href="#L" x="145.321" y="-45.128"/><use xlink:href="#J" x="166.555" y="-45.128"/><use xlink:href="#Y" x="-102.664" y="-48.69"/><use xlink:href="#X" x="-32.574" y="-48.69"/><use xlink:href="#I" x="197.622" y="-45.128"/><use xlink:href="#F" x="224.199" y="-45.128"/><use xlink:href="#W" x="-9.09" y="-48.69"/><use xlink:href="#F" x="231.407" y="-45.128"/><use xlink:href="#T" x="-76.749" y="62.283"/><use xlink:href="#J" x="214.121" y="-45.128"/><use xlink:href="#I" x="227.352" y="-45.128"/></g><path d="M210.846 69.644h-17.958v95.997h17.958l14.041-48.016-14.041-47.981z" fill="#f2f2f2" class="F G H M"/><g transform="matrix(0 1 -1 0 756.213 -274.813)"><use xlink:href="#O" x="288.988" y="362.956" class="C"/><path d="M364.199 546.934h.996v8.736h-.996z"/><g class="C"><use xlink:href="#H" x="285.144" y="379.658"/><use xlink:href="#I" x="278.922" y="379.658"/><use xlink:href="#I" x="285.191" y="379.658"/><use xlink:href="#F" x="311.769" y="379.658"/><use xlink:href="#R" x="44.839" y="487.069"/><use xlink:href="#F" x="318.94" y="379.658"/><use xlink:href="#N" x="259.984" y="379.658"/><use xlink:href="#H" x="321.214" y="379.658"/><use xlink:href="#W" x="99.163" y="376.096"/><use xlink:href="#F" x="339.659" y="379.658"/><use xlink:href="#X" x="99.163" y="376.096"/><use xlink:href="#M" x="294.894" y="379.658"/></g></g><path d="M475.004 260.21c0-2.208-1.798-4-4-4H28.999c-2.208 0-4 1.793-4 4v179.653c0 2.208 1.792 4 4 4h442.005c2.202 0 4-1.793 4-4V260.21z" fill-opacity=".02"/><path d="M476.002 260.21v179.653a5 5 0 0 1-4.998 5H28.999c-2.759 0-4.999-2.241-4.999-5V260.21c0-2.76 2.24-5 4.999-5h442.005a5 5 0 0 1 4.998 5zm-.998 0c0-2.208-1.798-4-4-4H28.999c-2.208 0-4 1.793-4 4v179.653c0 2.208 1.792 4 4 4h442.005c2.202 0 4-1.793 4-4V260.21z" fill-opacity=".31"/><path d="M79.994 350.392c-.005-.061-.009-.122-.034-.181-.006-.016-.019-.026-.027-.041a.66.66 0 0 0-.058-.089c-.044-.061-.093-.111-.153-.153-.016-.01-.022-.03-.039-.039l-13.592-7.767c-.199-.114-.443-.114-.642 0l-13.592 7.767c-.016.01-.022.028-.038.039a.62.62 0 0 0-.16.159c-.018.026-.036.049-.05.078-.009.017-.023.028-.031.047a.64.64 0 0 0-.04.217c0 .008-.006.016-.006.023v14.239c0 .013.009.025.01.038a.63.63 0 0 0 .063.264c.027.041.057.061.079.088.048.06.094.118.158.158l13.606 7.781a.65.65 0 0 0 .322.085c.111 0 .221-.028.321-.085l13.592-7.767c.006-.004.009-.012.016-.016.06-.036.101-.091.146-.145.026-.031.061-.054.08-.089.044-.078.05-.151.061-.224.004-.03.023-.057.023-.088v-14.239c0-.021-.014-.039-.016-.06zm-2.118-.044l-4.748 1.899-5.222-7.596 9.97 5.697zm-12.106-6.521l5.89 8.567H59.881l5.89-8.567zm-2.14.826l-5.22 7.595-4.747-1.899 9.967-5.696zm-10.805 6.754l4.901 1.961-4.901 8.823v-10.784zm5.822 2.971l5.966 10.847-11.39-1.085 5.424-9.763zm6.475 16.964l-10.019-5.724 10.019.945v4.779zm.647-6.7l-6.024-10.954h12.049l-6.024 10.954zm.647 6.7v-4.767l10.014-.954-10.014 5.721zm.505-6.105l5.971-10.855 5.422 9.76-11.394 1.095zm11.792-3.043l-4.903-8.826 4.903-1.961v10.787zm-5.687-76.762c-.005-.061-.009-.122-.034-.181-.006-.016-.019-.026-.027-.041a.66.66 0 0 0-.058-.089c-.044-.061-.093-.111-.153-.153-.016-.01-.022-.03-.039-.039l-13.592-7.767c-.199-.114-.443-.114-.642 0l-13.592 7.767c-.016.01-.022.028-.038.039a.62.62 0 0 0-.16.159c-.018.026-.036.049-.05.078-.009.017-.023.028-.031.047a.64.64 0 0 0-.04.217c0 .008-.006.016-.006.023v14.239c0 .013.009.025.01.038a.63.63 0 0 0 .063.264c.027.041.057.061.079.088.048.06.094.118.158.158l13.606 7.781a.65.65 0 0 0 .322.085c.111 0 .221-.028.321-.085l13.592-7.767c.006-.004.009-.012.016-.016.06-.036.101-.091.146-.145.026-.031.061-.054.08-.089.044-.078.05-.151.061-.224.004-.03.023-.057.023-.088v-14.239c0-.021-.014-.039-.016-.06zm-2.118-.044l-4.748 1.899-5.222-7.596 9.97 5.697zm-12.106-6.521l5.89 8.567H52.913l5.89-8.567zm-2.14.826l-5.22 7.595-4.747-1.899 9.967-5.696zm-10.805 6.754l4.901 1.961-4.901 8.823v-10.784zm5.822 2.971l5.966 10.847-11.39-1.085 5.424-9.763zm6.475 16.964l-10.019-5.724 10.019.945v4.779zm.647-6.7l-6.024-10.954h12.049l-6.024 10.954zm.647 6.7v-4.767l10.014-.954-10.014 5.721zm.505-6.105l5.971-10.855 5.422 9.76-11.394 1.095zm11.792-3.043l-4.903-8.826 4.903-1.961v10.787zm82.35-3.268c-.005-.061-.009-.122-.034-.181-.006-.016-.019-.026-.027-.041a.66.66 0 0 0-.058-.089c-.044-.061-.093-.111-.153-.153-.016-.01-.022-.03-.039-.039l-13.592-7.767c-.199-.114-.443-.114-.642 0l-13.592 7.767c-.016.01-.022.028-.038.039a.62.62 0 0 0-.16.159c-.018.026-.036.049-.05.078-.009.017-.023.028-.031.047a.64.64 0 0 0-.04.217c0 .008-.006.016-.006.023v14.239c0 .013.009.025.01.038a.63.63 0 0 0 .063.264c.027.041.057.061.079.088.048.06.094.118.158.158l13.606 7.781a.65.65 0 0 0 .322.085c.111 0 .221-.028.321-.085l13.592-7.767c.006-.004.009-.012.016-.016.06-.036.101-.091.146-.145.026-.031.061-.054.08-.089.044-.078.05-.151.061-.224.004-.03.023-.057.023-.088v-14.239c0-.021-.014-.039-.016-.06zm-2.118-.044l-4.748 1.899-5.222-7.596 9.97 5.697zm-12.106-6.521l5.89 8.567h-11.779l5.89-8.567zm-2.14.826l-5.22 7.595-4.747-1.899 9.967-5.696zm-10.805 6.754l4.901 1.961-4.901 8.823V294.98zm5.822 2.971l5.966 10.847-11.39-1.085 5.424-9.763zm6.475 16.964l-10.019-5.724 10.019.945v4.779zm.647-6.7l-6.024-10.954h12.049l-6.024 10.954zm.647 6.7v-4.767l10.014-.954-10.014 5.721zm.505-6.105l5.971-10.855 5.422 9.76-11.394 1.095zm11.792-3.043l-4.903-8.826 4.903-1.961v10.787zm-.719 50.624c-.005-.061-.009-.122-.034-.181-.006-.016-.019-.026-.027-.041a.66.66 0 0 0-.058-.089c-.044-.061-.093-.111-.153-.153-.016-.01-.022-.03-.039-.039l-13.592-7.767c-.199-.114-.443-.114-.642 0l-13.592 7.767c-.016.01-.022.028-.038.039a.62.62 0 0 0-.16.159c-.018.026-.036.049-.05.078-.009.017-.023.028-.031.047a.64.64 0 0 0-.04.217c0 .008-.006.016-.006.023v14.239c0 .013.009.025.01.038a.63.63 0 0 0 .063.264c.027.041.057.061.079.088.048.06.094.118.158.158l13.606 7.781a.65.65 0 0 0 .322.085c.111 0 .221-.028.321-.085l13.592-7.767c.006-.004.009-.012.016-.016.06-.036.101-.091.146-.145.026-.031.061-.054.08-.089.044-.078.05-.151.061-.224.004-.03.023-.057.023-.088v-14.239c0-.021-.014-.039-.016-.06zm-2.118-.044l-4.748 1.899-5.222-7.596 9.97 5.697zm-12.106-6.521l5.89 8.567h-11.779l5.89-8.567zm-2.14.826l-5.22 7.595-4.747-1.899 9.967-5.696zm-10.805 6.754l4.901 1.961-4.901 8.823v-10.784zm5.822 2.971l5.966 10.847-11.39-1.085 5.424-9.763zm6.475 16.964l-10.019-5.724 10.019.945v4.779zm.647-6.7l-6.024-10.954h12.049l-6.024 10.954zm.647 6.7v-4.767l10.014-.954-10.014 5.721zm.505-6.105l5.971-10.855 5.422 9.76-11.394 1.095zm11.792-3.043l-4.903-8.826 4.903-1.961v10.787z" stroke="#5a74d1" class="C E J"/><g stroke="#4f4f4f" class="D K C"><path d="M118.986 330.246l3.835-1.644a.79.79 0 0 0 .415-1.036.81.81 0 0 0-1.064-.426l-3.993 1.711c-.768-1.109-1.746-2.06-2.877-2.799l1.8-3.001a.8.8 0 1 0-1.373-.823l-1.833 3.055c-1.304-.591-2.747-.928-4.271-.928h-.241l2.952-5.314a.8.8 0 0 0-.311-1.089.8.8 0 0 0-1.087.31l-3.328 5.991c-1.639-.251-3.114-.998-4.269-2.087l1.482-1.482a.8.8 0 0 0 0-1.131.8.8 0 0 0-1.132-.001l-1.403 1.403c-.921-1.303-1.468-2.889-1.468-4.603 0-.041-.006-.081-.006-.122l3.35-.558a.8.8 0 0 0 .335-1.441.8.8 0 0 0-.596-.138l-3.245.541a9.55 9.55 0 0 0-.98-2.819l4.792-2.396c.188-.094.332-.259.398-.459s.051-.418-.043-.606c-.2-.399-.684-.56-1.082-.361l-4.952 2.476c-.453-.583-.968-1.114-1.541-1.579l2.091-2.614c.133-.167.195-.38.172-.592s-.131-.407-.297-.54c-.344-.275-.844-.219-1.119.124l-2.177 2.721a9.52 9.52 0 0 0-2.197-.896l.52-2.6c.042-.209-.001-.426-.119-.603s-.302-.3-.511-.342c-.432-.086-.852.193-.938.624l-.525 2.625-.936-.047c-.831 0-1.632.117-2.401.316v-5.119a.8.8 0 0 0-.8-.8h-.001a.8.8 0 0 0-.8.8v5.687a9.65 9.65 0 0 0-1.249.688l-3.23-3.877a.79.79 0 0 0-1.116-.101.81.81 0 0 0-.104 1.141l3.191 3.829c-.468.433-.892.91-1.267 1.428l-1.515-1.01c-.177-.118-.394-.161-.603-.119s-.393.165-.511.342c-.244.367-.145.861.22 1.105l1.582 1.054a9.47 9.47 0 0 0-.856 2.64H76.81a.8.8 0 0 0-.8.8v.001a.8.8 0 0 0 .8.8h4.803v.8l.059 1.734-2.635.527a.8.8 0 0 0-.626.94.8.8 0 0 0 .944.629l2.464-.493a27.8 27.8 0 0 0 .587 3.266l-4.242 1.212c-.426.122-.674.566-.552.993.058.204.195.376.38.479s.403.128.606.07l4.227-1.208.701 2.007-4.762 2.381c-.188.094-.331.259-.398.459s-.051.418.043.606c.2.399.684.56 1.083.361l4.661-2.33a27.8 27.8 0 0 0 1.283 2.468l-3.604 2.403c-.365.244-.464.737-.221 1.103.119.178.303.302.512.343s.426-.001.604-.119l3.554-2.369c.567.853 1.177 1.674 1.831 2.458l-1.465.977a.81.81 0 0 0-.225 1.125.79.79 0 0 0 1.093.22l1.669-1.113 1.758 1.725-3.03 3.636a.8.8 0 0 0 .102 1.124c.164.137.375.202.587.183s.408-.122.544-.286l3.021-3.625 2.018 1.474-3.228 5.163a.79.79 0 0 0 .251 1.088.81.81 0 0 0 1.118-.257l3.218-5.15c.91.531 1.852 1.014 2.823 1.442l-1.253 3.758a.8.8 0 0 0 1.116.97.8.8 0 0 0 .4-.462l1.22-3.66a27.89 27.89 0 0 0 3.193.975l-.449 2.244c-.087.435.195.859.63.946.208.042.423-.001.598-.118s.298-.299.339-.506l.447-2.236 2.614.349v4.909a.8.8 0 0 0 .8.8h.001a.8.8 0 0 0 .8-.8v-4.823l.801.02c1.006 0 1.976-.151 2.897-.419l1.634 3.268c.094.188.259.332.459.398s.418.051.606-.043c.399-.2.56-.684.361-1.082l-1.556-3.113a10.4 10.4 0 0 0 1.832-1.104l1.45 1.933a.8.8 0 0 0 1.434-.366.8.8 0 0 0-.152-.592l-1.523-2.03c.467-.479.887-1.001 1.256-1.562l3.797 2.531c.177.118.394.161.603.119a.8.8 0 0 0 .51-.342c.245-.367.146-.862-.22-1.106l-3.917-2.612a10.29 10.29 0 0 0 .798-2.684h4.939a.8.8 0 0 0 .8-.8v-.001a.8.8 0 0 0-.8-.8h-4.803a10.33 10.33 0 0 0-1.044-4.514zm-9.36 13.317c-14.563 0-26.412-11.849-26.412-26.412v-.8c0-4.413 3.59-8.004 8.004-8.004s8.004 3.59 8.004 8.004a9.62 9.62 0 0 0 9.604 9.604h.8c4.854 0 8.804 3.95 8.804 8.804s-3.95 8.804-8.804 8.804z"/><use xlink:href="#B" x="33.9" y="201.805"/><use xlink:href="#C" x="33.9" y="201.805"/><use xlink:href="#C" x="46.467" y="205.656"/></g><g class="E"><path d="M53.364 408.407h.948v-7.008L57 404.111l.66-.66-3.816-3.816-3.84 3.816.672.66 2.688-2.712v7.008zm7.609-8.736h-1.116l3.216 8.736h1.092l3.192-8.736h-1.092l-2.592 7.356h-.108l-2.592-7.356z" class="C"/><use xlink:href="#F" x="-6" y="232.395" class="C"/><use xlink:href="#G" x="-6" y="232.395" class="C"/><use xlink:href="#H" x="-6" y="232.395" class="C"/><path d="M82.676 399.671h.996v8.736h-.996z"/><g class="C"><use xlink:href="#I" x="-6" y="232.395"/><use xlink:href="#J" x="-6" y="232.395"/><use xlink:href="#K" x="-6" y="232.395"/><use xlink:href="#L" x="-6" y="232.395"/><use xlink:href="#J" x="15.234" y="232.395"/><use xlink:href="#M" x="-6" y="232.395"/><use xlink:href="#N" x="-6" y="232.395"/><use xlink:href="#J" x="35.965" y="232.395"/><use xlink:href="#I" x="49.196" y="232.395"/></g></g><g class="D"><path d="M54.3 416.373h-.948v7.008l-2.688-2.7-.66.66 3.828 3.816 3.828-3.816-.672-.66-2.688 2.7v-7.008z" class="C"/><use xlink:href="#O" x="-6" y="232.395" class="C"/><use xlink:href="#J" x="-31.957" y="249.097" class="C"/><path d="M76.173 416.373h.996v8.736h-.996zm2.847 0h.996v8.736h-.996z"/><use xlink:href="#L" x="-33.562" y="249.097" class="C"/><path d="M88.841 416.373h.996v8.736h-.996z"/><g class="C"><use xlink:href="#H" x="9.785" y="249.097"/><use xlink:href="#G" x="21.024" y="249.097"/><use xlink:href="#I" x="11.403" y="249.097"/><use xlink:href="#J" x="11.402" y="249.097"/><use xlink:href="#K" x="11.402" y="249.097"/><use xlink:href="#L" x="11.403" y="249.097"/><use xlink:href="#J" x="32.636" y="249.097"/><use xlink:href="#M" x="11.402" y="249.097"/><use xlink:href="#N" x="11.403" y="249.097"/><use xlink:href="#J" x="53.367" y="249.097"/><use xlink:href="#I" x="66.598" y="249.097"/></g></g><path d="M27.097 238.525h-2.103l3.727 10.556h2.349l3.712-10.556h-2.088l-2.741 8.309h-.116l-2.74-8.309zm8.998 10.556h1.856v-7.917h-1.856v7.917zm.928-9.034c.595 0 1.087-.45 1.087-1 0-.566-.493-1.03-1.087-1.03s-1.073.464-1.073 1.03c0 .551.479 1 1.073 1zm2.853 9.034h1.856v-4.64c0-1.015.768-1.711 1.783-1.711.319 0 .711.043.87.087v-1.711c-.174-.029-.464-.043-.667-.043-.899 0-1.668.507-1.958 1.435h-.087v-1.334h-1.798v7.917zm8.874.16c2.306 0 3.784-1.639 3.784-4.089s-1.479-4.089-3.784-4.089c-2.32 0-3.799 1.638-3.799 4.089s1.479 4.089 3.799 4.089zm0-1.508c-1.276 0-1.9-1.131-1.9-2.581s.624-2.581 1.9-2.581 1.899 1.131 1.899 2.581-.623 2.581-1.899 2.581zm5.364 1.348h1.856v-4.814c0-.972.652-1.624 1.465-1.624.783 0 1.319.522 1.319 1.334v5.104h1.841v-4.945c0-.87.522-1.493 1.421-1.493.754 0 1.349.435 1.349 1.406v5.031h1.871v-5.307c0-1.769-1.015-2.712-2.465-2.712-1.16 0-2.03.58-2.378 1.45h-.087c-.304-.899-1.073-1.45-2.132-1.45s-1.856.551-2.189 1.45h-.102v-1.349h-1.769v7.917zm16.551.16c1.842 0 3.089-.899 3.422-2.276l-1.74-.203c-.246.681-.855 1.029-1.653 1.029-1.175 0-1.972-.797-2.03-2.146h5.51v-.58c0-2.769-1.682-4.002-3.625-4.002-2.276 0-3.741 1.667-3.741 4.103 0 2.48 1.465 4.075 3.857 4.075zm-2.001-4.858c.102-1.044.769-1.87 1.885-1.87 1.088 0 1.697.739 1.813 1.87h-3.697zm8.422 4.814c.638 0 1.131-.493 1.131-1.131s-.493-1.131-1.131-1.131-1.145.493-1.145 1.131.508 1.131 1.145 1.131zm0-5.38a1.11 1.11 0 0 0 1.131-1.117c0-.638-.493-1.145-1.131-1.145a1.14 1.14 0 0 0-1.145 1.145c0 .624.508 1.117 1.145 1.117z" class="C"/><path d="M410.915 310.955a3 3 0 0 0-3-3h-11v25h11a3 3 0 0 0 3-3v-18.999z" class="D"/><path d="M394.355 307.955h-152.2a3 3 0 0 0-3 3v18.999a3 3 0 0 0 3 3h152.2v-25z" class="E"/><g class="C"><use xlink:href="#Q" x="-7" y="232.395"/><use xlink:href="#J" x="145.883" y="124.984"/><use xlink:href="#K" x="145.882" y="124.984"/><use xlink:href="#L" x="145.883" y="124.984"/><use xlink:href="#J" x="167.117" y="124.984"/><use xlink:href="#M" x="145.883" y="124.984"/><use xlink:href="#N" x="145.883" y="124.984"/><use xlink:href="#J" x="187.847" y="124.984"/><use xlink:href="#I" x="201.078" y="124.984"/><use xlink:href="#N" x="169.227" y="124.984"/></g><path d="M312.36 292.26h.996v8.736h-.996z"/><g class="C"><use xlink:href="#H" x="233.305" y="124.984"/><use xlink:href="#I" x="227.082" y="124.984"/><use xlink:href="#I" x="233.352" y="124.984"/><use xlink:href="#F" x="259.929" y="124.984"/><use xlink:href="#R" x="-7" y="232.395"/><use xlink:href="#F" x="267.101" y="124.984"/><use xlink:href="#J" x="243.371" y="124.984"/><use xlink:href="#S" x="-7" y="232.395"/><use xlink:href="#H" x="280.274" y="124.984"/><use xlink:href="#I" x="274.051" y="124.984"/><use xlink:href="#T" x="-7" y="232.395"/><use xlink:href="#F" x="310.683" y="124.984"/><use xlink:href="#G" x="310.684" y="124.984"/><use xlink:href="#L" x="277.157" y="124.984"/><use xlink:href="#I" x="304.66" y="124.984"/><use xlink:href="#U" x="-7" y="232.395"/></g><g fill="none" stroke-width="1.3" class="G H L"><path d="M408.068 345.249l-3.9 3.9-3.9-3.9" class="I"/><path d="M404.168 337.069v12.08" class="F"/><path d="M298.261 345.249l-3.9 3.9-3.9-3.9" class="I"/><path d="M294.361 337.069v12.08" class="F"/></g><g class="B C"><path d="M241.807 411.969h5.124v-.936h-4.068v-7.8h-1.056v8.736z"/><use xlink:href="#X" x="-69.51" y="232.395"/><path d="M256.844 411.969h.984l1.44-5.028h.096l1.44 5.028h.984l1.992-6.552h-1.056l-1.416 5.004h-.072l-1.368-5.004h-1.08l-1.392 5.016h-.072l-1.416-5.016h-1.056l1.992 6.552z"/><use xlink:href="#J" x="163.732" y="235.957"/><use xlink:href="#G" x="194.424" y="235.957"/><use xlink:href="#R" x="-64.666" y="343.368"/><use xlink:href="#G" x="206.588" y="235.957"/><use xlink:href="#H" x="206.588" y="235.957"/><use xlink:href="#N" x="158.87" y="235.957"/><use xlink:href="#W" x="-8.725" y="232.395"/><use xlink:href="#F" x="231.771" y="235.957"/><use xlink:href="#X" x="-8.725" y="232.395"/><use xlink:href="#M" x="187.006" y="235.957"/><use xlink:href="#X" x="8.841" y="232.395"/><use xlink:href="#R" x="-10.432" y="343.368"/><use xlink:href="#R" x="-2.732" y="343.368"/><use xlink:href="#H" x="263.869" y="235.957"/></g><path d="M352.546 403.233h.996v8.736h-.996z" class="B"/><g class="C B"><use xlink:href="#I" x="260.494" y="235.957"/><use xlink:href="#J" x="260.494" y="235.957"/><use xlink:href="#Y" x="-8.725" y="232.395"/><use xlink:href="#X" x="61.365" y="232.395"/><use xlink:href="#I" x="291.561" y="235.957"/><use xlink:href="#F" x="318.138" y="235.957"/><use xlink:href="#W" x="84.849" y="232.395"/><use xlink:href="#F" x="325.345" y="235.957"/><use xlink:href="#T" x="17.19" y="343.368"/><use xlink:href="#J" x="308.06" y="235.957"/><use xlink:href="#I" x="321.291" y="235.957"/><use xlink:href="#H" x="146.594" y="248.957"/><use xlink:href="#Z" x="-7" y="232.395"/><use xlink:href="#X" x="-72.223" y="245.395"/><use xlink:href="#M" x="123.508" y="248.957"/><use xlink:href="#V" x="0.69" y="245.395"/><use xlink:href="#I" x="175.692" y="248.957"/><use xlink:href="#J" x="175.691" y="248.957"/><use xlink:href="#K" x="175.691" y="248.957"/><use xlink:href="#L" x="175.692" y="248.957"/><use xlink:href="#J" x="196.926" y="248.957"/><use xlink:href="#M" x="175.692" y="248.957"/><use xlink:href="#N" x="175.692" y="248.957"/><use xlink:href="#J" x="217.656" y="248.957"/><use xlink:href="#I" x="230.887" y="248.957"/><use xlink:href="#N" x="199.036" y="248.957"/></g><path d="M342.169 416.233h.996v8.736h-.996z" class="B"/><g class="C"><use xlink:href="#H" x="263.113" y="248.957" class="B"/><use xlink:href="#I" x="256.891" y="248.957" class="B"/><use xlink:href="#I" x="263.16" y="248.957" class="B"/><use xlink:href="#F" x="289.738" y="248.957" class="B"/><use xlink:href="#R" x="22.809" y="356.368" class="B"/><use xlink:href="#F" x="296.91" y="248.957" class="B"/><use xlink:href="#J" x="273.179" y="248.957" class="B"/><use xlink:href="#S" x="22.808" y="356.368" class="B"/><use xlink:href="#H" x="310.082" y="248.957" class="B"/><use xlink:href="#I" x="303.86" y="248.957" class="B"/><use xlink:href="#T" x="22.809" y="356.368" class="B"/><use xlink:href="#F" x="340.492" y="248.957" class="B"/><use xlink:href="#G" x="340.493" y="248.957" class="B"/><use xlink:href="#L" x="306.965" y="248.957" class="B"/><use xlink:href="#I" x="334.469" y="248.957" class="B"/><path d="M362.966 363.279h1.056v-3.804h3.78v-.948h-3.78v-3.036h4.176v-.948h-5.232v8.736z"/><use xlink:href="#H" x="287.974" y="187.267"/></g><path d="M376.65 354.543h.996v8.736h-.996z"/><g class="C"><use xlink:href="#I" x="284.599" y="187.267"/><use xlink:href="#J" x="284.598" y="187.267"/><use xlink:href="#Y" x="15.379" y="183.705"/><use xlink:href="#X" x="85.469" y="183.705"/><use xlink:href="#I" x="315.665" y="187.267"/><use xlink:href="#F" x="342.243" y="187.267"/><use xlink:href="#W" x="108.953" y="183.705"/><use xlink:href="#F" x="349.45" y="187.267"/><use xlink:href="#T" x="41.294" y="294.678"/><use xlink:href="#J" x="332.165" y="187.267"/><use xlink:href="#I" x="345.396" y="187.267"/><use xlink:href="#a" x="10" y="232.395"/><use xlink:href="#N" x="215.59" y="200.267"/><use xlink:href="#J" x="257.554" y="200.267"/></g><path d="M365.684 367.543h.996v8.736h-.996zm2.848 0h.996v8.736h-.996z"/><use xlink:href="#L" x="255.95" y="200.267" class="C"/><path d="M378.352 367.543h.996v8.736h-.996z"/><g class="C"><use xlink:href="#H" x="299.297" y="200.267"/><use xlink:href="#G" x="310.535" y="200.267"/><use xlink:href="#I" x="300.914" y="200.267"/><use xlink:href="#J" x="300.914" y="200.267"/><use xlink:href="#K" x="300.914" y="200.267"/><use xlink:href="#L" x="300.915" y="200.267"/><use xlink:href="#J" x="322.148" y="200.267"/><use xlink:href="#M" x="300.914" y="200.267"/><use xlink:href="#N" x="300.914" y="200.267"/><use xlink:href="#J" x="342.879" y="200.267"/><use xlink:href="#I" x="356.11" y="200.267"/><use xlink:href="#b" x="10" y="232.395"/><path d="M254.919 355.491h2.748v7.788h1.056v-7.788h2.748v-.948h-6.552v.948z"/><use xlink:href="#G" x="184.849" y="187.267"/><use xlink:href="#L" x="151.321" y="187.267"/><use xlink:href="#J" x="172.555" y="187.267"/><use xlink:href="#Y" x="-96.664" y="183.705"/><use xlink:href="#X" x="-26.574" y="183.705"/><use xlink:href="#I" x="203.622" y="187.267"/><use xlink:href="#F" x="230.199" y="187.267"/><use xlink:href="#W" x="-3.09" y="183.705"/><use xlink:href="#F" x="237.407" y="187.267"/><use xlink:href="#T" x="-70.749" y="294.678"/><use xlink:href="#J" x="220.121" y="187.267"/><use xlink:href="#I" x="233.352" y="187.267"/></g><path d="M203.846 302.044h-17.958v95.997h17.958l14.041-48.016-14.041-47.981z" fill="#f2f2f2" class="F G H M"/><g transform="matrix(0 1 -1 0 749.213 -42.4187)"><use xlink:href="#O" x="288.988" y="362.956" class="C"/><path d="M364.199 546.934h.996v8.736h-.996z"/><g class="C"><use xlink:href="#H" x="285.144" y="379.658"/><use xlink:href="#I" x="278.922" y="379.658"/><use xlink:href="#I" x="285.191" y="379.658"/><use xlink:href="#F" x="311.769" y="379.658"/><use xlink:href="#R" x="44.839" y="487.069"/><use xlink:href="#F" x="318.94" y="379.658"/><use xlink:href="#N" x="259.984" y="379.658"/><use xlink:href="#H" x="321.214" y="379.658"/><use xlink:href="#W" x="99.163" y="376.096"/><use xlink:href="#F" x="339.659" y="379.658"/><use xlink:href="#X" x="99.163" y="376.096"/><use xlink:href="#M" x="294.894" y="379.658"/></g></g><defs ><path id="B" d="M57.454 121.793a4.81 4.81 0 0 0 4.802-4.802 4.81 4.81 0 0 0-4.802-4.802 4.81 4.81 0 0 0-4.802 4.802 4.81 4.81 0 0 0 4.802 4.802zm0-8.004c1.766 0 3.201 1.436 3.201 3.201s-1.436 3.201-3.201 3.201-3.201-1.436-3.201-3.201 1.436-3.201 3.201-3.201z"/><path id="C" d="M64.279 125.703c-1.766 0-3.201 1.436-3.201 3.201s1.436 3.201 3.201 3.201 3.201-1.436 3.201-3.201-1.436-3.201-3.201-3.201zm0 4.802c-.883 0-1.601-.718-1.601-1.601s.718-1.601 1.601-1.601 1.601.718 1.601 1.601-.718 1.601-1.601 1.601z"/><path id="D" d="M152.611 115.622c1.045 1.423 3.052 1.731 4.475.686s1.731-3.052.686-4.475-3.052-1.731-4.475-.686-1.731 3.052-.686 4.475zm3.871-2.842c.522.712.369 1.715-.343 2.238s-1.715.369-2.238-.343-.369-1.715.343-2.238 1.715-.369 2.238.343z"/><path id="E" d="M96.704 59.395c.18-1.756-1.102-3.331-2.859-3.511s-3.331 1.102-3.511 2.859 1.102 3.331 2.859 3.511 3.331-1.102 3.511-2.859zm-4.777-.489c.09-.878.877-1.519 1.755-1.429s1.519.877 1.429 1.755-.877 1.519-1.755 1.429-1.519-.877-1.429-1.755z"/><path id="F" d="M74.591 176.012h.996v-6.552h-.996v6.552zm.504-7.644c.396 0 .72-.3.72-.672 0-.384-.324-.684-.72-.684s-.708.3-.708.684c0 .372.312.672.708.672z"/><path id="G" d="M77.438 176.012h.996v-4.14c0-.888.708-1.536 1.656-1.536.276 0 .552.048.624.06v-1.02c-.12 0-.384-.012-.528-.012-.792 0-1.476.444-1.716 1.092h-.072v-.996h-.96v6.552z"/><path id="H" d="M83.823 176.168c1.152 0 1.74-.624 1.944-1.044h.072v.888h.984v-4.308c0-2.088-1.584-2.328-2.424-2.328-.984 0-2.112.348-2.628 1.536l.96.348c.228-.48.744-.996 1.704-.996.924 0 1.392.492 1.392 1.332v.036c0 .48-.504.444-1.692.6-1.212.156-2.544.42-2.544 1.92 0 1.284.984 2.016 2.232 2.016zm.156-.9c-.804 0-1.38-.36-1.38-1.056 0-.768.696-1.008 1.488-1.116.42-.048 1.572-.168 1.74-.372v.924c0 .816-.648 1.62-1.848 1.62z"/><path id="I" d="M99.531 170.936c-.312-.924-1.02-1.56-2.316-1.56-1.38 0-2.412.792-2.412 1.896 0 .9.54 1.5 1.752 1.788l1.092.252c.648.168.972.468.972.936 0 .552-.612 1.02-1.536 1.02-.828 0-1.344-.36-1.524-1.056l-.948.228c.228 1.116 1.14 1.716 2.484 1.716 1.524 0 2.556-.84 2.556-1.968 0-.912-.576-1.488-1.74-1.776l-.972-.228c-.768-.192-1.128-.456-1.128-.96 0-.564.6-.972 1.404-.972.876 0 1.236.492 1.416.936l.9-.252z"/><path id="J" d="M103.917 176.156c1.32 0 2.292-.672 2.592-1.656l-.972-.276c-.252.684-.84 1.032-1.62 1.032-1.188 0-2.004-.768-2.052-2.172h4.752v-.432c0-2.436-1.464-3.276-2.832-3.276-1.776 0-2.928 1.404-2.928 3.408 0 2.016 1.164 3.372 3.06 3.372zm-2.052-3.936c.072-1.032.768-1.944 1.92-1.944 1.104 0 1.716.792 1.812 1.944h-3.732z"/><path id="K" d="M113.578 178.46v-9h-.96v1.044h-.12c-.216-.336-.612-1.128-1.896-1.128-1.644 0-2.784 1.32-2.784 3.384 0 2.076 1.14 3.396 2.772 3.396 1.26 0 1.692-.792 1.908-1.152h.084v3.456h.996zm-2.856-3.204c-1.26 0-1.896-1.116-1.896-2.508s.624-2.472 1.896-2.472c1.236 0 1.872.996 1.872 2.472s-.66 2.508-1.872 2.508z"/><path id="L" d="M119.558 173.336c0 1.224-.948 1.788-1.692 1.788-.84 0-1.44-.612-1.44-1.56v-4.104h-.996v4.164c0 1.668.876 2.472 2.112 2.472.984 0 1.632-.528 1.944-1.2h.072v1.116h.996v-6.552h-.996v3.876z"/><path id="M" d="M130.36 172.076c0-1.14.72-1.8 1.68-1.8.936 0 1.512.624 1.512 1.644v4.092h.996v-4.164c0-1.668-.9-2.472-2.22-2.472-.984 0-1.608.444-1.908 1.116h-.096v-1.032h-.96v6.552h.996v-3.936z"/><path id="N" d="M139.047 176.156c1.452 0 2.412-.888 2.58-2.052h-1.008c-.18.708-.78 1.152-1.572 1.152-1.188 0-1.956-.996-1.956-2.508 0-1.488.78-2.472 1.956-2.472.888 0 1.416.552 1.572 1.152h1.008c-.168-1.224-1.212-2.052-2.592-2.052-1.776 0-2.952 1.404-2.952 3.396 0 1.968 1.128 3.384 2.964 3.384z"/><path id="O" d="M70.129 192.834c1.752 0 3.18-1.056 3.504-2.856h-1.056c-.252 1.224-1.296 1.872-2.448 1.872-1.584 0-2.832-1.236-2.832-3.492 0-2.28 1.248-3.504 2.832-3.504 1.152 0 2.196.648 2.448 1.86h1.056c-.324-1.788-1.752-2.844-3.504-2.844-2.232 0-3.852 1.716-3.852 4.488 0 2.76 1.62 4.476 3.852 4.476z"/><path id="P" d="M73.135 16.845c1.842 0 3.089-.899 3.422-2.277l-1.74-.203c-.246.681-.855 1.03-1.653 1.03-1.175 0-1.972-.797-2.03-2.146h5.51v-.58c0-2.77-1.682-4.002-3.625-4.002-2.276 0-3.741 1.668-3.741 4.104 0 2.48 1.465 4.075 3.857 4.075zm-2.001-4.858c.102-1.044.769-1.87 1.885-1.87 1.088 0 1.697.739 1.813 1.87h-3.697z"/><path id="Q" d="M249.291 68.757c2.016 0 3.156-1.116 3.156-2.52 0-1.644-1.56-2.148-2.46-2.4l-.876-.252c-.648-.18-1.692-.504-1.692-1.44 0-.84.768-1.452 1.92-1.452 1.068 0 1.86.504 1.956 1.356h1.032c-.048-1.308-1.26-2.292-2.952-2.292-1.668 0-2.976.972-2.976 2.436 0 1.176.852 1.884 2.22 2.268l1.068.312c.912.264 1.74.576 1.74 1.44 0 .96-.924 1.596-2.136 1.596-1.044 0-1.956-.468-2.052-1.452h-1.08c.096 1.428 1.26 2.4 3.132 2.4z"/><path id="R" d="M347.272 62.049h-1.476v-.66c0-.648.288-.996.948-.996.3 0 .468.072.564.108l.3-.864c-.156-.072-.468-.18-.96-.18-.936 0-1.848.576-1.848 1.692v.9h-1.056v.852h1.056v5.7h.996v-5.7h1.476v-.852z"/><path id="S" d="M360.961 68.745c1.26 0 1.692-.792 1.908-1.152h.12v1.008h.96v-8.736h-.996v3.228h-.084c-.216-.336-.612-1.128-1.896-1.128-1.644 0-2.784 1.32-2.784 3.384 0 2.076 1.14 3.396 2.772 3.396zm.132-.9c-1.26 0-1.896-1.116-1.896-2.508s.624-2.472 1.896-2.472c1.236 0 1.872.996 1.872 2.472s-.66 2.508-1.872 2.508z"/><path id="T" d="M390.934 62.049h-1.08l-1.812 5.232h-.072l-1.8-5.232h-1.092l2.412 6.552h1.032l2.412-6.552z"/><path id="U" d="M413.609 63.933c.42 0 .768-.348.768-.768s-.348-.768-.768-.768-.768.348-.768.768.348.768.768.768zm0 4.74c.42 0 .768-.348.768-.768s-.348-.768-.768-.768-.768.348-.768.768.348.768.768.768z"/><path id="V" d="M261.853 182.166c1.572 0 2.82-.72 2.82-2.4v-6.744h-.96v1.044h-.108c-.216-.336-.624-1.128-1.908-1.128-1.656 0-2.796 1.32-2.796 3.336 0 2.04 1.188 3.192 2.772 3.192 1.284 0 1.692-.744 1.908-1.104h.096v1.332c0 1.092-.768 1.584-1.824 1.584-1.188 0-1.608-.624-1.872-.984l-.804.552c.408.696 1.212 1.32 2.676 1.32zm-.036-3.6c-1.26 0-1.908-.96-1.908-2.316 0-1.332.624-2.412 1.908-2.412 1.224 0 1.872.996 1.872 2.412 0 1.452-.66 2.316-1.872 2.316z"/><path id="W" d="M313.56 173.022h-1.404v-1.56h-.996v1.56h-.984v.852h.984v4.092c0 1.008.732 1.692 1.788 1.692.276 0 .564-.048.744-.12l-.204-.9a2.16 2.16 0 0 1-.444.048c-.612 0-.888-.312-.888-.984v-3.828h1.404v-.852z"/><path id="X" d="M320.587 179.718c1.776 0 2.976-1.356 2.976-3.384 0-2.04-1.2-3.396-2.976-3.396s-2.964 1.356-2.964 3.396c0 2.028 1.188 3.384 2.964 3.384zm0-.9c-1.344 0-1.956-1.176-1.956-2.484s.612-2.496 1.956-2.496c1.356 0 1.968 1.188 1.968 2.496s-.612 2.484-1.968 2.484z"/><path id="Y" d="M380.724 182.022h.996v-3.456h.084c.228.36.648 1.152 1.908 1.152 1.644 0 2.784-1.32 2.784-3.396 0-2.064-1.14-3.384-2.796-3.384-1.284 0-1.668.792-1.896 1.128h-.12v-1.044h-.96v9zm2.856-3.204c-1.212 0-1.872-1.032-1.872-2.508s.648-2.472 1.872-2.472c1.272 0 1.908 1.08 1.908 2.472s-.648 2.508-1.908 2.508z"/><path id="Z" d="M242.27 192.574h.996v-4.092c0-.96.708-1.644 1.488-1.644.768 0 1.296.504 1.296 1.248v4.488h1.032v-4.26c0-.84.516-1.476 1.44-1.476.72 0 1.332.384 1.332 1.356v4.38h1.008v-4.38c0-1.536-.828-2.256-2.004-2.256-.936 0-1.62.432-1.956 1.116h-.072c-.324-.708-.888-1.116-1.74-1.116-.864 0-1.5.408-1.764 1.116h-.096v-1.032h-.96v6.552z"/><path id="a" d="M338.144 140.332c0 1.716.528 3.504 1.512 5.184h.972c-1.02-2.1-1.476-3.66-1.476-5.184 0-1.704.564-3.852 1.476-5.712h-.972c-.876 1.464-1.512 3.816-1.512 5.712z"/><path id="b" d="M446.918 145.516h.972c.984-1.68 1.512-3.468 1.512-5.184 0-1.896-.624-4.248-1.512-5.712h-.972c.924 1.86 1.476 4.008 1.476 5.712 0 1.524-.444 3.084-1.476 5.184z"/></defs></svg>