<svg xmlns="http://www.w3.org/2000/svg" xmlns:xlink="http://www.w3.org/1999/xlink" width="100%" height="100%" viewBox="0 0 620 380" fill-rule="evenodd" stroke-linecap="round" stroke-miterlimit="10" xmlns:v="https://vecta.io/nano"><style><![CDATA[.B{stroke-width:.902}.C{fill-rule:nonzero}.D{fill:#f2f2f2}.E{fill:#a7bcec}.F{stroke:#000}.G{stroke-miterlimit:1.5}.H{fill:#5a74d1}.I{fill:#e84b6e}.J{fill:#4f4f4f}.K{fill:#4c628b}.L{stroke-width:.989}.M{stroke-width:1.003}]]></style><g fill="none" class="F"><path d="M161.161 287.08l4.5 4.5-4.5 4.5"/><path d="M81.544 219.08v68.5c0 1.06.421 2.078 1.172 2.828a4 4 0 0 0 2.828 1.172h80.117" class="G"/><path d="M161.161 101.715l4.5 4.5-4.5 4.5"/><path d="M81.544 175.303v-65.088c0-1.061.421-2.078 1.172-2.828a4 4 0 0 1 2.828-1.172h80.117" class="G"/></g><use xlink:href="#B" fill-opacity=".02"/><use xlink:href="#C" fill-opacity=".31"/><use xlink:href="#B" y="183.962" fill-opacity=".02"/><use xlink:href="#C" y="183.962" fill-opacity=".31"/><path d="M184.665 285.11h137.958" fill="none" stroke-linecap="butt" stroke-linejoin="round" stroke-width=".996" class="F"/><g transform="matrix(-1.15054 0 0 1.64999 230.11 -518.4319)"><path d="M21.086 489.836v-5.668h9.334l4.642 2.836-4.642 2.832h-9.334z" fill="#a7b2d9" class="C"/><path d="M21.086 490.381h9.334c.189 0 .372-.047.515-.134l4.642-2.832c.17-.104.267-.254.268-.411s-.098-.307-.267-.41l-4.643-2.836c-.142-.087-.325-.135-.515-.135h-9.334c-.432 0-.782.244-.782.545v5.668c0 .301.35.545.782.545zm0-.545v-5.668h9.334l4.642 2.836-4.642 2.832h-9.334z"/></g><g transform="matrix(-1.15054 0 0 1.64999 285.982 -518.4352)"><path d="M47.08 489.836v-5.668h16.802l4.638 2.836-4.638 2.832H47.08z" fill="#f193a8" class="C"/><path d="M47.08 490.381h16.802c.189 0 .372-.048.515-.135l4.638-2.832c.17-.103.267-.253.267-.41s-.097-.307-.266-.41l-4.639-2.836a1 1 0 0 0-.515-.135H47.08c-.432 0-.782.244-.782.545v5.668c0 .301.35.545.782.545zm0-.545v-5.668h16.802l4.638 2.836-4.638 2.832H47.08z"/></g><g transform="matrix(-1.15054 0 0 1.64999 311.948 -518.4352)"><path d="M61.599 489.836v-5.668h2.283l4.638 2.836-4.638 2.832h-2.283z" fill="#6c7ebf" class="C"/><path d="M61.599 490.381h2.283c.189 0 .372-.048.515-.135l4.638-2.832c.17-.103.267-.253.267-.41s-.097-.307-.266-.41l-4.639-2.836a1 1 0 0 0-.515-.135h-2.283c-.432 0-.782.244-.782.545v5.668c0 .301.35.545.782.545zm0-.545v-5.668h2.283l4.638 2.836-4.638 2.832h-2.283z"/></g><path d="M244.721 280.439v9.352h33.857l5.341-4.679-5.341-4.673h-33.857z" fill="#a7b2d9" class="C"/><path d="M244.721 279.54h33.857a.9.9 0 0 1 .593.221l5.341 4.673c.196.172.307.419.307.678s-.112.507-.307.676l-5.341 4.679a.9.9 0 0 1-.593.223h-33.857a.9.9 0 0 1-.9-.899v-9.352a.9.9 0 0 1 .9-.899zm0 .899v9.352h33.857l5.341-4.679-5.341-4.673h-33.857z"/><path d="M285.93 280.439v9.352h6.307l5.337-4.679-5.337-4.673h-6.307z" fill="#6c7ebf" class="C"/><path d="M285.93 279.54h6.307a.9.9 0 0 1 .594.223l5.336 4.673c.196.17.307.417.307.676a.9.9 0 0 1-.306.676l-5.337 4.679a.9.9 0 0 1-.594.223h-6.307a.9.9 0 0 1-.9-.899v-9.352a.9.9 0 0 1 .9-.899zm0 .899v9.352h6.307l5.337-4.679-5.337-4.673h-6.307z"/><path d="M298.46 280.439v9.352h13.724l5.337-4.679-5.337-4.673H298.46z" fill="#b8c1e0" class="C"/><path d="M298.46 279.54h13.724a.9.9 0 0 1 .593.223l5.337 4.673c.196.17.307.417.307.676a.9.9 0 0 1-.306.676l-5.339 4.679a.9.9 0 0 1-.593.223H298.46a.9.9 0 0 1-.9-.899v-9.352a.9.9 0 0 1 .9-.899zm0 .899v9.352h13.724l5.337-4.679-5.337-4.673H298.46z"/><g class="C"><path d="M339.948 252.163c.913 0 1.638-.725 1.638-1.638 0-.903-.725-1.638-1.638-1.638a1.64 1.64 0 0 0-1.638 1.638c0 .913.735 1.638 1.638 1.638zm9.909 2.289c1.533 0 2.783-.924 3.066-2.499h-.924c-.22 1.071-1.134 1.638-2.142 1.638-1.386 0-2.478-1.082-2.478-3.055 0-1.995 1.092-3.066 2.478-3.066 1.008 0 1.922.567 2.142 1.627h.924c-.284-1.565-1.533-2.488-3.066-2.488-1.953 0-3.37 1.501-3.37 3.927 0 2.415 1.418 3.916 3.37 3.916zm7.401-.105h.872v-3.581c0-.84.62-1.439 1.302-1.439.672 0 1.134.441 1.134 1.092v3.927h.903v-3.727c0-.735.452-1.292 1.26-1.292.63 0 1.166.336 1.166 1.186v3.833h.882v-3.833c0-1.344-.725-1.974-1.754-1.974-.819 0-1.417.378-1.712.976h-.063c-.284-.619-.777-.976-1.522-.976-.756 0-1.312.357-1.543.976h-.084v-.903h-.84v5.733zm10.815.137c1.008 0 1.523-.546 1.701-.913h.063v.777h.861v-3.769c0-1.827-1.386-2.037-2.121-2.037-.861 0-1.848.304-2.3 1.344l.84.305c.2-.42.651-.872 1.491-.872.808 0 1.218.431 1.218 1.166v.031c0 .42-.441.389-1.481.525-1.06.137-2.226.368-2.226 1.68 0 1.124.861 1.764 1.953 1.764zm.137-.788c-.704 0-1.207-.315-1.207-.924 0-.672.609-.882 1.302-.977.368-.042 1.376-.147 1.523-.326v.809c0 .714-.567 1.417-1.617 1.417z"/><use xlink:href="#D"/><use xlink:href="#E"/><use xlink:href="#F"/><use xlink:href="#D" x="15.637"/><path d="M397.359 248.614h-1.291v-.577c0-.567.252-.871.829-.871.262 0 .41.063.493.094l.263-.756c-.137-.063-.41-.157-.84-.157-.819 0-1.617.504-1.617 1.481v.787h-.924v.745h.924v4.988h.871v-4.988h1.291v-.745z"/><use xlink:href="#D" x="26.281"/><use xlink:href="#F" x="20.467"/><path d="M413.191 256.489v-7.875h-.84v.913h-.105c-.189-.294-.535-.987-1.659-.987-1.438 0-2.436 1.155-2.436 2.961 0 1.816.998 2.971 2.425 2.971 1.102 0 1.481-.693 1.669-1.008h.074v3.024h.871zm-2.499-2.803c-1.103 0-1.659-.977-1.659-2.195s.546-2.163 1.659-2.163c1.082 0 1.638.871 1.638 2.163s-.577 2.195-1.638 2.195z"/><use xlink:href="#G"/><use xlink:href="#H"/><path d="M346.78 268.861h.924v-2.793h1.669c1.774 0 2.583-1.082 2.583-2.425s-.809-2.425-2.594-2.425h-2.583v7.644zm.924-3.612v-3.202h1.627c1.239 0 1.712.683 1.712 1.596s-.473 1.606-1.701 1.606h-1.638z"/><use xlink:href="#I"/><path d="M367.1 268.997c1.008 0 1.523-.546 1.701-.913h.063v.777h.861v-3.769c0-1.827-1.386-2.037-2.121-2.037-.861 0-1.848.305-2.3 1.344l.84.304c.2-.42.651-.871 1.491-.871.808 0 1.218.43 1.218 1.166v.031c0 .42-.441.388-1.481.525-1.06.137-2.226.368-2.226 1.68 0 1.123.861 1.764 1.953 1.764zm.137-.788c-.704 0-1.207-.315-1.207-.924 0-.672.609-.882 1.302-.976.368-.042 1.376-.147 1.523-.326v.808c0 .714-.567 1.418-1.617 1.418z"/><use xlink:href="#J"/><use xlink:href="#E" x="-0.975" y="14.514"/><use xlink:href="#K"/><use xlink:href="#J" x="15.637"/><use xlink:href="#L"/><use xlink:href="#J" x="26.279"/><use xlink:href="#K" x="20.467"/><use xlink:href="#M"/><use xlink:href="#G" x="-0.974" y="14.514"/><use xlink:href="#H" y="14.515"/><path d="M347.095 275.732h-.976l2.814 7.644h.955l2.793-7.644h-.955l-2.268 6.437h-.094l-2.268-6.437z"/><use xlink:href="#I" x="0.429" y="14.515"/><path d="M367.53 283.513c1.008 0 1.523-.546 1.701-.913h.063v.777h.861v-3.769c0-1.827-1.386-2.037-2.121-2.037-.861 0-1.848.305-2.3 1.344l.84.304c.2-.42.651-.871 1.491-.871.808 0 1.218.43 1.218 1.166v.031c0 .42-.441.388-1.481.525-1.06.137-2.226.368-2.226 1.68 0 1.123.861 1.764 1.953 1.764zm.137-.788c-.704 0-1.207-.315-1.207-.924 0-.672.609-.882 1.302-.976.368-.042 1.376-.147 1.523-.326v.809c0 .714-.567 1.417-1.617 1.417z"/><use xlink:href="#J" x="0.43" y="14.515"/><path d="M375.847 283.376h.872v-2.142l.62-.567 2.142 2.709h1.123L378 280.1l2.425-2.457h-1.092l-2.499 2.551h-.115v-4.462h-.872v7.644z"/><use xlink:href="#K" x="0.431" y="14.515"/><use xlink:href="#J" x="16.068" y="14.515"/><use xlink:href="#L" x="0.429" y="14.515"/><use xlink:href="#J" x="26.711" y="14.515"/><use xlink:href="#K" x="20.897" y="14.515"/><use xlink:href="#M" x="0.43" y="14.515"/><use xlink:href="#G" x="-0.544" y="29.029"/><use xlink:href="#H" y="28.91"/><path d="M349.888 297.876c1.817 0 3.119-1.208 3.119-3.098v-.829h-2.919v.819h2.016c-.031 1.375-.924 2.247-2.216 2.247-1.417 0-2.51-1.082-2.51-3.056 0-1.995 1.092-3.066 2.447-3.066 1.103 0 1.848.62 2.173 1.627h.956c-.284-1.481-1.523-2.488-3.129-2.488-1.964 0-3.339 1.501-3.339 3.927 0 2.415 1.365 3.917 3.402 3.917z"/><use xlink:href="#K" x="-26.424" y="28.91"/><use xlink:href="#N"/><use xlink:href="#K" x="-14.181" y="28.91"/><path d="M377.908 297.897c1.102 0 1.481-.693 1.669-1.008h.105v.882h.84v-7.644h-.871v2.825h-.074c-.189-.294-.535-.987-1.659-.987-1.438 0-2.436 1.155-2.436 2.961 0 1.817.998 2.971 2.425 2.971zm.115-.787c-1.103 0-1.659-.976-1.659-2.195s.546-2.163 1.659-2.163c1.082 0 1.638.872 1.638 2.163s-.577 2.195-1.638 2.195z"/><use xlink:href="#K" x="1.251" y="28.91"/><use xlink:href="#N" x="27.675"/><path d="M398.439 293.329c-.273-.808-.892-1.365-2.026-1.365-1.207 0-2.111.693-2.111 1.659 0 .787.473 1.313 1.533 1.564l.956.221c.567.147.85.41.85.819 0 .483-.535.892-1.344.892-.724 0-1.176-.315-1.333-.924l-.829.2c.199.976.997 1.501 2.173 1.501 1.333 0 2.236-.735 2.236-1.722 0-.798-.504-1.302-1.522-1.554l-.851-.2c-.672-.168-.987-.399-.987-.84 0-.493.525-.851 1.228-.851.767 0 1.082.43 1.239.819l.787-.221z"/><use xlink:href="#O"/><use xlink:href="#P"/><path d="M406.735 299.955c.798 0 1.344-.42 1.68-1.312l2.436-6.605h-.945l-1.586 4.578h-.063l-1.575-4.578h-.955l2.11 5.764-.168.493c-.294.819-.683.945-1.271.809l-.084-.021-.231.767c.094.053.346.105.651.105z"/><use xlink:href="#H" y="43.544"/><path d="M346.78 312.405h.924v-2.982h1.669c.063 0 .137 0 .2-.01l1.607 2.993h1.071l-1.722-3.161c.976-.336 1.428-1.123 1.428-2.131 0-1.355-.809-2.352-2.594-2.352h-2.583v7.644zm.924-3.812v-3.003h1.627c1.239 0 1.712.599 1.712 1.523 0 .913-.473 1.48-1.701 1.48h-1.638zm5.793 3.812h2.762c1.806 0 2.552-.882 2.552-2.026 0-1.207-.84-1.869-1.544-1.911v-.074c.662-.178 1.239-.609 1.239-1.596 0-1.123-.745-2.037-2.331-2.037h-2.678v7.644zm.924-.819v-2.656h1.88c.998 0 1.627.672 1.627 1.449 0 .672-.462 1.207-1.67 1.207h-1.837zm0-3.454v-2.541h1.753c1.008 0 1.449.536 1.449 1.207 0 .798-.651 1.334-1.481 1.334h-1.722zm8.32 4.41c1.764 0 2.762-.976 2.762-2.205 0-1.439-1.365-1.88-2.153-2.1l-.767-.221c-.567-.157-1.48-.441-1.48-1.26 0-.735.672-1.271 1.68-1.271.934 0 1.627.441 1.711 1.187h.903c-.042-1.144-1.103-2.005-2.583-2.005-1.46 0-2.604.851-2.604 2.131 0 1.029.745 1.649 1.942 1.985l.935.273c.798.231 1.523.504 1.523 1.26 0 .84-.809 1.397-1.869 1.397-.913 0-1.712-.41-1.796-1.271H360c.084 1.25 1.103 2.1 2.74 2.1z"/><use xlink:href="#I" x="13.575" y="43.544"/><path d="M381.316 312.531c1.554 0 2.604-1.186 2.604-2.961 0-1.785-1.05-2.972-2.604-2.972s-2.594 1.187-2.594 2.972c0 1.774 1.039 2.961 2.594 2.961zm0-.787c-1.176 0-1.712-1.029-1.712-2.173s.535-2.184 1.712-2.184c1.186 0 1.722 1.04 1.722 2.184s-.536 2.173-1.722 2.173z"/><use xlink:href="#P" x="-17.104" y="14.634"/><use xlink:href="#O" x="-10.797" y="14.634"/><use xlink:href="#L" x="-2.278" y="43.544"/><path d="M400.845 306.672h-1.291v-.577c0-.567.252-.872.829-.872.262 0 .41.063.493.095l.263-.756c-.137-.063-.41-.157-.84-.157-.819 0-1.617.504-1.617 1.48v.788h-.924v.745h.924v4.988h.871v-4.988h1.291v-.745z"/><use xlink:href="#J" x="30.741" y="43.544"/><use xlink:href="#K" x="24.927" y="43.544"/><use xlink:href="#M" x="4.459" y="43.544"/><use xlink:href="#G" x="3.486" y="58.058"/><path d="M348.488 323.879c.368 0 .672-.304.672-.672s-.305-.672-.672-.672-.672.305-.672.672.304.672.672.672zm2.982 0c.368 0 .672-.304.672-.672s-.304-.672-.672-.672-.672.305-.672.672.305.672.672.672zm2.982 0a.67.67 0 1 0 0-1.344c-.368 0-.672.305-.672.672s.304.672.672.672z"/><path d="M547.298 300.904h-1.116l3.216 8.736h1.092l3.192-8.736h-1.092l-2.592 7.356h-.108l-2.592-7.356z" class="H"/><use xlink:href="#Q" class="I"/><use xlink:href="#R" class="J"/></g><path d="M504.933 295.519v-7h14v7z" class="J"/><path d="M523.933 295.519v-7h14v7z" class="I"/><path d="M542.933 295.517v-26h14v26z" class="H"/><path d="M462.332 248.642h-27.184v64.942h27.184l15-32.483-15-32.459z" class="D F G L"/><g transform="matrix(0 1 -1 0 1009.575 -111.34)" class="C"><path d="M380.428 547.882h2.748v7.788h1.056v-7.788h2.748v-.948h-6.552v.948z"/><use xlink:href="#S"/><use xlink:href="#T"/><use xlink:href="#T" x="6.961"/><use xlink:href="#T" x="-26.069" y="12"/><use xlink:href="#U"/><use xlink:href="#V"/><use xlink:href="#T" x="-5.807" y="12"/><use xlink:href="#W"/><path d="M406.644 567.814c1.644 0 2.784-1.32 2.784-3.396 0-2.064-1.14-3.384-2.796-3.384-1.284 0-1.668.792-1.896 1.128h-.084v-3.228h-.996v8.736h.96v-1.008h.12c.228.36.648 1.152 1.908 1.152zm-.132-.9c-1.212 0-1.872-1.032-1.872-2.508s.648-2.472 1.872-2.472c1.272 0 1.908 1.08 1.908 2.472s-.648 2.508-1.908 2.508zm4.445-7.98h.996v8.736h-.996z"/><use xlink:href="#T" x="21.744" y="12"/></g><g class="C"><path d="M175.745 200.386v10.556h1.856v-7.264h.087l2.9 7.235h1.378l2.929-7.221h.087v7.25h1.871v-10.556h-2.364l-3.132 7.641h-.131l-3.132-7.641h-2.349z"/><use xlink:href="#X"/><use xlink:href="#Y"/><path d="M202.967 210.942h1.856v-2.653l.682-.725 2.422 3.378h2.233l-3.248-4.495 3.074-3.422h-2.19l-2.828 3.175h-.145v-5.814h-1.856v10.556z"/><use xlink:href="#Z"/><use xlink:href="#Y" x="22.565"/><path d="M225.574 205.794h4.756v1.522h-4.756zm10.909 5.293c1.856 0 3.263-1.479 3.263-4.089 0-2.639-1.436-4.074-3.263-4.074-1.407 0-1.987.841-2.262 1.406h-.087v-3.944h-1.856v10.556h1.827v-1.247h.116c.29.58.899 1.392 2.262 1.392zm-.522-1.537c-1.189 0-1.856-1.029-1.856-2.552 0-1.537.653-2.537 1.856-2.537 1.247 0 1.871 1.058 1.871 2.537s-.638 2.552-1.871 2.552z"/><use xlink:href="#X" x="52.463"/><use xlink:href="#a"/><use xlink:href="#Z" x="46.424"/><path d="M269.135 211.087c1.349 0 1.958-.812 2.248-1.392h.116v1.247h1.827v-10.556h-1.856v3.944h-.087c-.276-.565-.856-1.406-2.262-1.406-1.813 0-3.263 1.435-3.263 4.074 0 2.61 1.407 4.089 3.277 4.089zm.508-1.537c-1.233 0-1.871-1.073-1.871-2.552s.624-2.537 1.871-2.537c1.204 0 1.856 1 1.856 2.537 0 1.522-.667 2.552-1.856 2.552z"/><use xlink:href="#b"/><path d="M287.233 200.386h1.856v10.556h-1.856z"/><use xlink:href="#X" x="102.165"/><use xlink:href="#a" x="49.703"/><use xlink:href="#a" x="57.66"/><path d="M315.3 210.942h1.856v-7.917H315.3v7.917zm.928-9.033c.595 0 1.088-.449 1.088-1 0-.565-.493-1.029-1.088-1.029s-1.073.464-1.073 1.029c0 .551.479 1 1.073 1z"/><use xlink:href="#c"/><use xlink:href="#d"/><use xlink:href="#b" x="49.511"/><use xlink:href="#X" x="147.895"/><use xlink:href="#e"/><use xlink:href="#d" x="26.048"/><use xlink:href="#f"/><use xlink:href="#g"/><g class="K"><path d="M197.484 347.286l.876-2.472h3.528l.888 2.472h1.092l-3.192-8.736h-1.092l-3.216 8.736h1.116zm1.212-3.408l1.392-3.936h.072l1.404 3.936h-2.868z"/><use xlink:href="#U" x="-167.852" y="-220.384"/><use xlink:href="#U" x="-160.82" y="-220.384"/><use xlink:href="#h"/><use xlink:href="#i"/><use xlink:href="#j"/><use xlink:href="#i" x="11.133"/><use xlink:href="#T" x="-150.309" y="-208.384"/><use xlink:href="#k"/><use xlink:href="#V" x="-120.596" y="-220.384"/><use xlink:href="#T" x="-126.403" y="-208.384"/><use xlink:href="#l"/><use xlink:href="#m"/><use xlink:href="#T" x="-105.169" y="-208.384"/><use xlink:href="#U" x="-79.1" y="-220.384"/><use xlink:href="#n"/><use xlink:href="#T" x="-84.438" y="-208.384"/><path d="M351.111 347.286h5.508v-.936h-4.056v-.072l1.956-2.1c1.5-1.608 1.944-2.352 1.944-3.312 0-1.356-1.092-2.424-2.616-2.424-1.536 0-2.7 1.044-2.7 2.58h1.008c0-.996.636-1.656 1.656-1.656.936 0 1.656.576 1.656 1.5 0 .804-.468 1.392-1.476 2.496l-2.88 3.168v.756zm10.002.12c1.656 0 2.88-1.224 2.88-2.892 0-1.704-1.176-2.94-2.772-2.94-.6 0-1.176.216-1.524.492h-.048l.3-2.568h3.648v-.948h-4.536l-.528 4.308.996.12c.36-.264.972-.444 1.512-.444 1.116 0 1.92.852 1.92 1.992 0 1.116-.78 1.944-1.848 1.944-.9 0-1.62-.576-1.692-1.368h-1.02c.06 1.332 1.212 2.304 2.712 2.304z"/><use xlink:href="#o"/><use xlink:href="#T" x="-15.742" y="-208.384"/><use xlink:href="#U" x="10.327" y="-220.384"/><use xlink:href="#T" x="-1.75" y="-208.384"/><use xlink:href="#p"/><use xlink:href="#T" x="12.641" y="-208.384"/><use xlink:href="#j" x="180.98"/><use xlink:href="#i" x="192.112"/><use xlink:href="#m" x="142.876"/><use xlink:href="#S" x="41.973" y="-208.384"/><use xlink:href="#T" x="41.973" y="-208.384"/><use xlink:href="#V" x="61.01" y="-220.384"/><use xlink:href="#R" x="-32.021" y="37.765"/><path d="M485.168 338.55h.996v8.736h-.996z"/><use xlink:href="#j" x="257.332"/><use xlink:href="#V" x="114.804" y="-220.384"/><use xlink:href="#V" x="121.073" y="-220.384"/><use xlink:href="#q"/><use xlink:href="#p" x="109.529"/><use xlink:href="#q" x="7.172"/><use xlink:href="#n" x="216.462"/><use xlink:href="#j" x="293.403"/><use xlink:href="#i" x="304.535"/><use xlink:href="#q" x="27.89"/><use xlink:href="#h" x="318.902"/><use xlink:href="#U" x="172.273" y="-220.384"/><use xlink:href="#V" x="175.648" y="-220.384"/><use xlink:href="#n" x="261.017"/><use xlink:href="#h" x="349.476"/><use xlink:href="#S" x="188.006" y="-208.384"/><use xlink:href="#T" x="188.005" y="-208.384"/><use xlink:href="#V" x="207.042" y="-220.384"/></g><path d="M17.731 193.923a9.14 9.14 0 0 0 2.74-.435v-4.742h-3.393v1.349h2.001v2.392c-.348.073-.739.131-1.189.131-2.088 0-3.146-1.32-3.146-3.959 0-2.407 1.102-3.77 3.016-3.77.74 0 1.436.362 1.87 1l1.059-1.044c-.508-.798-1.61-1.262-3.016-1.262-2.813 0-4.452 1.885-4.452 5.148 0 3.465 1.508 5.191 4.51 5.191zm4.205-.145h1.494l.652-2.451h3.567l.652 2.451h1.493l-2.9-10.048h-2.059l-2.9 10.048zm2.509-3.799l1.363-5.031h.116l1.363 5.031h-2.842zm11.004 3.944a9.14 9.14 0 0 0 2.74-.435v-4.742h-3.393v1.349h2.001v2.392c-.348.073-.739.131-1.189.131-2.088 0-3.147-1.32-3.147-3.959 0-2.407 1.102-3.77 3.016-3.77.739 0 1.436.362 1.87 1l1.059-1.044c-.508-.798-1.609-1.262-3.016-1.262-2.813 0-4.452 1.885-4.452 5.148 0 3.465 1.508 5.191 4.51 5.191zm7.394-.145h1.479v-8.714h2.944v-1.334H39.9v1.334h2.944v8.714z"/><use xlink:href="#r"/><use xlink:href="#r" x="8.859"/><use xlink:href="#r" x="17.718"/><path d="M75.087 193.778h1.493l.653-2.451H80.8l.653 2.451h1.493l-2.9-10.048h-2.059l-2.9 10.048zm2.508-3.799l1.363-5.031h.116l1.363 5.031h-2.842z"/><use xlink:href="#r" x="35.435"/><use xlink:href="#s"/><path d="M106.318 193.923a9.14 9.14 0 0 0 2.74-.435v-4.742h-3.393v1.349h2.001v2.392c-.348.073-.74.131-1.189.131-2.088 0-3.146-1.32-3.146-3.959 0-2.407 1.102-3.77 3.016-3.77.74 0 1.436.362 1.871 1l1.058-1.044c-.507-.798-1.609-1.262-3.016-1.262-2.813 0-4.451 1.885-4.451 5.148 0 3.465 1.508 5.191 4.51 5.191z"/><use xlink:href="#s" x="17.717"/><use xlink:href="#r" x="70.869"/><use xlink:href="#r" x="79.728"/><use xlink:href="#t"/><use xlink:href="#t" x="8.859"/><path d="M155.931 193.923a1.04 1.04 0 0 0 1.044-1.044c0-.595-.464-1.059-1.044-1.059s-1.058.464-1.058 1.059c0 .58.478 1.044 1.058 1.044zm2.813 0a1.04 1.04 0 0 0 1.044-1.044c0-.595-.464-1.059-1.044-1.059s-1.044.464-1.044 1.059a1.04 1.04 0 0 0 1.044 1.044zm2.813 0c.58 0 1.059-.464 1.059-1.044 0-.595-.478-1.059-1.059-1.059s-1.044.464-1.044 1.059a1.04 1.04 0 0 0 1.044 1.044z"/><g class="K"><path d="M38.679 199.865h1.056v8.736h-1.056z"/><use xlink:href="#U" x="-331.242" y="-359.069"/><use xlink:href="#u"/><use xlink:href="#m" x="-223.877" y="-138.685"/><use xlink:href="#i" x="-163.308" y="-138.685"/><use xlink:href="#V" x="-309.235" y="-359.069"/><use xlink:href="#T" x="-315.041" y="-347.069"/><use xlink:href="#l" x="-188.638" y="-138.685"/><use xlink:href="#m" x="-188.638" y="-138.685"/><path d="M101.002 208.745c1.32 0 2.292-.672 2.592-1.656l-.972-.276c-.252.684-.84 1.032-1.62 1.032-1.188 0-2.004-.768-2.052-2.172h4.752v-.432c0-2.436-1.464-3.276-2.832-3.276-1.776 0-2.928 1.404-2.928 3.408 0 2.016 1.164 3.372 3.06 3.372zm-2.052-3.936c.072-1.032.768-1.944 1.92-1.944 1.104 0 1.716.792 1.812 1.944H98.95z"/><use xlink:href="#U" x="-267.738" y="-359.069"/><use xlink:href="#n" x="-188.638" y="-138.685"/><use xlink:href="#T" x="-273.076" y="-347.069"/><use xlink:href="#v"/><use xlink:href="#U" x="-171.728" y="-404.505"/><use xlink:href="#T" x="-183.804" y="-392.505"/><path d="M215.134 158.953h3.816v.936h-3.816zm6.587.276c0-1.14.732-1.8 1.728-1.8.984 0 1.536.588 1.536 1.644v4.092h.996v-4.164c0-1.68-.912-2.472-2.244-2.472-1.032 0-1.62.432-1.92 1.116h-.096v-3.216h-.996v8.736h.996v-3.936z"/><use xlink:href="#h" x="8.663" y="-184.121"/><use xlink:href="#i" x="8.663" y="-184.121"/><use xlink:href="#T" x="-149.339" y="-392.505"/><use xlink:href="#U" x="-123.271" y="-404.505"/><use xlink:href="#n" x="-44.171" y="-184.121"/><use xlink:href="#h" x="44.288" y="-184.121"/><use xlink:href="#k" x="21.899" y="-184.121"/><use xlink:href="#T" x="-114.148" y="-392.505"/><use xlink:href="#k" x="36.161" y="-184.121"/><use xlink:href="#V" x="-84.435" y="-404.505"/><use xlink:href="#T" x="-90.242" y="-392.505"/><use xlink:href="#l" x="36.161" y="-184.121"/><path d="M316.861 163.237c.42 0 .768-.348.768-.768s-.348-.768-.768-.768-.768.348-.768.768.348.768.768.768z"/></g></g><path d="M137.725 251.579c0-2.208-1.792-4-4-4h-102c-2.208 0-4 1.792-4 4v80.001c0 2.208 1.792 4 4 4h102c2.208 0 4-1.792 4-4v-80.001z" fill="#fff" class="F G M"/><g class="C"><path d="M53.482 322.971c-7.726 0-13.997-2.093-13.997-4.663v-4.67c0-.402.204-.371.498-.748 1.563 2.01 6.986 3.083 13.506 3.083s11.943-1.073 13.506-3.083c.293.376.491.339.491.748v4.67c-.006 2.571-6.278 4.663-14.003 4.663zm0-8.914c-7.726 0-13.997-2.093-13.997-4.663v-4.663c0-.249.096-.485.217-.727.07-.147.166-.293.274-.44 1.563 2.003 6.992 3.496 13.506 3.496s11.943-1.493 13.506-3.502a2.37 2.37 0 0 1 .274.44c.128.236.217.478.217.727v4.663c0 2.577-6.265 4.67-13.997 4.67zm0-8.897c-7.726 0-13.997-2.093-13.997-4.663v-4.67c0-2.571 6.265-4.663 13.997-4.663 7.726 0 13.997 2.093 13.997 4.663v4.67c0 2.577-6.271 4.663-13.997 4.663zm0-11.662c-5.155 0-9.333 1.04-9.333 2.335 0 1.289 4.179 2.335 9.333 2.335s9.333-1.04 9.333-2.335c-.006-1.295-4.185-2.335-9.333-2.335z" fill="#333"/><use xlink:href="#w"/><use xlink:href="#T" x="-344.693" y="-291.059"/><use xlink:href="#U" x="-318.624" y="-303.059"/><use xlink:href="#T" x="-330.7" y="-291.059"/><use xlink:href="#u" x="22.953" y="56.01"/><use xlink:href="#S" x="-308.798" y="-291.059"/><use xlink:href="#T" x="-308.798" y="-291.059"/><use xlink:href="#k" x="-158.489" y="-82.675"/><use xlink:href="#q" x="-409.258" y="-82.675"/><use xlink:href="#n" x="-199.968" y="-82.675"/><use xlink:href="#i" x="-118.669" y="-82.675"/><use xlink:href="#q" x="-395.313" y="-82.675"/><use xlink:href="#h" x="-104.302" y="-82.675"/><use xlink:href="#U" x="-250.93" y="-303.059"/><use xlink:href="#j" x="-189.435" y="-70.675"/><use xlink:href="#U" x="-324.931" y="-291.059"/><use xlink:href="#k" x="-193.66" y="-70.675"/><use xlink:href="#j" x="-164.954" y="-70.675"/><use xlink:href="#U" x="-300.451" y="-291.059"/><use xlink:href="#U" x="-293.42" y="-291.059"/><use xlink:href="#h" x="-132.599" y="-70.675"/><use xlink:href="#i" x="-132.599" y="-70.675"/><use xlink:href="#j" x="-132.599" y="-70.675"/><use xlink:href="#i" x="-121.466" y="-70.675"/><use xlink:href="#q" x="-398.111" y="-70.675"/><use xlink:href="#h" x="-107.099" y="-70.675"/><use xlink:href="#U" x="-253.728" y="-291.059"/></g><g class="F G"><g class="B D"><path d="M205.279 66.337h-8a3 3 0 0 0-3 2.999v8h11v-11z"/><use xlink:href="#x"/><use xlink:href="#x" y="11"/><use xlink:href="#x" y="22"/></g><g class="E B"><path d="M205.279 110.337h-11v8a3 3 0 0 0 3 2.999h8v-11z"/><use xlink:href="#x" x="11" y="-11"/></g><g class="D B"><use xlink:href="#x" x="11"/><use xlink:href="#x" x="11" y="11"/><use xlink:href="#x" x="11" y="22"/><use xlink:href="#x" x="11" y="33"/><use xlink:href="#x" x="22" y="-11"/><use xlink:href="#x" x="22"/><use xlink:href="#x" x="22" y="11"/><use xlink:href="#x" x="22" y="22"/></g><use xlink:href="#x" x="22" y="33" class="B E"/><g class="D B"><use xlink:href="#x" x="33" y="-11"/><use xlink:href="#x" x="33"/><use xlink:href="#x" x="33" y="11"/></g><use xlink:href="#x" x="33" y="22" class="B E"/><g class="D B"><use xlink:href="#x" x="33" y="33"/><use xlink:href="#x" x="44" y="-11"/></g><use xlink:href="#x" x="44" class="B E"/><g class="D B"><use xlink:href="#x" x="44" y="11"/><use xlink:href="#x" x="44" y="22"/><use xlink:href="#x" x="44" y="33"/><use xlink:href="#x" x="55" y="-11"/></g><use xlink:href="#x" x="55" class="B E"/><g class="D B"><use xlink:href="#x" x="55" y="11"/><use xlink:href="#x" x="55" y="22"/><use xlink:href="#x" x="55" y="33"/></g><use xlink:href="#x" x="66" y="-11" class="B E"/><g class="D B"><use xlink:href="#x" x="66"/><use xlink:href="#x" x="66" y="11"/><use xlink:href="#x" x="66" y="22"/><use xlink:href="#x" x="66" y="33"/><use xlink:href="#x" x="77" y="-11"/></g><use xlink:href="#x" x="77" class="B E"/><g class="D B"><use xlink:href="#x" x="77" y="11"/><use xlink:href="#x" x="77" y="22"/><use xlink:href="#x" x="77" y="33"/><use xlink:href="#x" x="88" y="-11"/><use xlink:href="#x" x="88"/><use xlink:href="#x" x="88" y="11"/></g><use xlink:href="#x" x="88" y="22" class="B E"/><g class="D B"><use xlink:href="#x" x="88" y="33"/><use xlink:href="#x" x="99" y="-11"/><use xlink:href="#x" x="99"/><use xlink:href="#x" x="99" y="11"/><use xlink:href="#x" x="99" y="22"/></g><use xlink:href="#x" x="99" y="33" class="B E"/><g class="D B"><path d="M315.28 69.337a3 3 0 0 0-3-2.999h-8v11h11v-8z"/><use xlink:href="#x" x="110"/></g><use xlink:href="#x" x="110" y="11" class="B E"/><g class="D B"><use xlink:href="#x" x="110" y="22"/><path d="M315.28 110.337h-11v11h8a3 3 0 0 0 3-2.999v-8z"/></g><path d="M140.725 89.997c0-2.208-1.792-4-4-4h-108c-2.208 0-4 1.792-4 4v32c0 2.208 1.792 4 4 4h108c2.208 0 4-1.792 4-4v-32z" fill="#fff"/></g><g class="C"><g class="K"><path d="M37.856 116.633h4.092v1.788h1.008v-1.788h1.2v-.948h-1.2v-6h-1.272l-3.828 6.072v.876zm4.092-.948h-2.964v-.06l2.904-4.584h.06v4.644zm3.739-1.476h3.816v.936h-3.816z"/><use xlink:href="#W" x="-341.936" y="-449.249"/><use xlink:href="#T" x="-330.341" y="-437.249"/><use xlink:href="#S" x="-319.114" y="-437.249"/><use xlink:href="#T" x="-315.54" y="-437.249"/><use xlink:href="#U" x="-289.471" y="-449.249"/><use xlink:href="#n" x="-210.372" y="-228.865"/><use xlink:href="#h" x="-121.913" y="-228.865"/><use xlink:href="#k" x="-144.301" y="-228.865"/><use xlink:href="#q" x="-395.071" y="-228.865"/><use xlink:href="#U" x="-257.848" y="-449.249"/><use xlink:href="#o" x="-246.871" y="-228.865"/></g><use xlink:href="#y"/><use xlink:href="#z"/><use xlink:href="#y" x="12.781"/><path d="M56.193 101.495h1.122v-6.611h2.233v-1.012H53.96v1.012h2.233v6.611zm5.939 2.343h1.034l.649-3.707h-1.254l-.429 3.707z"/><use xlink:href="#z" x="25.562"/><path d="M76.475 101.605c.968 0 1.782-.231 2.079-.33v-3.597H75.98v1.023h1.518v1.815a4.35 4.35 0 0 1-.902.099c-1.584 0-2.387-1.001-2.387-3.003 0-1.826.836-2.86 2.288-2.86a1.71 1.71 0 0 1 1.419.759l.803-.792c-.385-.605-1.221-.957-2.288-.957-2.134 0-3.377 1.43-3.377 3.905 0 2.629 1.144 3.938 3.421 3.938z"/><use xlink:href="#AA"/><path d="M88.145 101.495h1.122v-6.611H91.5v-1.012h-5.588v1.012h2.233v6.611zm5.939 2.343h1.034l.649-3.707h-1.254l-.429 3.707z"/><use xlink:href="#y" x="63.903"/><use xlink:href="#AA" x="25.561"/><use xlink:href="#AA" x="31.952"/><use xlink:href="#AA" x="38.342"/><path d="M124.913 101.605a.79.79 0 0 0 0-1.595.8.8 0 0 0-.803.803c0 .44.363.792.803.792zm2.134 0a.79.79 0 0 0 0-1.595.79.79 0 0 0 0 1.595zm2.134 0c.44 0 .803-.352.803-.792a.8.8 0 0 0-.803-.803.79.79 0 0 0 0 1.595z"/><g class="K"><use xlink:href="#o" x="-293.443" y="-42.149"/><use xlink:href="#T" x="-309.184" y="-250.533"/><path d="M96.906 296.401H95.85v6.876h-.084l-4.776-6.876h-1.02v8.736h1.056v-6.852h.096l4.74 6.852h1.044v-8.736z"/><use xlink:href="#h" x="-120.28" y="-42.149"/><use xlink:href="#W" x="-287.17" y="-262.533"/><use xlink:href="#j" x="-114.197" y="-42.149"/><use xlink:href="#k" x="-125.454" y="-42.149"/><use xlink:href="#W" x="-317.651" y="-249.533"/><use xlink:href="#j" x="-144.677" y="-29.149"/><use xlink:href="#S" x="-295.016" y="-237.533"/><use xlink:href="#AB"/><use xlink:href="#T" x="-288.372" y="-237.533"/><use xlink:href="#S" x="-277.145" y="-237.533"/><use xlink:href="#V" x="-264.87" y="-249.533"/><path d="M359.25 163.474c2.016 0 3.156-1.116 3.156-2.52 0-1.644-1.56-2.148-2.46-2.4l-.876-.252c-.648-.18-1.692-.504-1.692-1.44 0-.84.768-1.452 1.92-1.452 1.068 0 1.86.504 1.956 1.356h1.032c-.048-1.308-1.26-2.292-2.952-2.292-1.668 0-2.976.972-2.976 2.436 0 1.176.852 1.884 2.22 2.268l1.068.312c.912.264 1.74.576 1.74 1.44 0 .96-.924 1.596-2.136 1.596-1.044 0-1.956-.468-2.052-1.452h-1.08c.096 1.428 1.26 2.4 3.132 2.4z"/><use xlink:href="#T" x="-28.051" y="-392.352"/><use xlink:href="#l" x="98.352" y="-183.968"/><path d="M379.052 163.39c.42 0 .768-.348.768-.768s-.348-.768-.768-.768-.768.348-.768.768.348.768.768.768z"/><use xlink:href="#S" x="-2.738" y="-392.352"/><use xlink:href="#T" x="-2.738" y="-392.352"/><use xlink:href="#u" x="347.541" y="-45.283"/><use xlink:href="#S" x="15.79" y="-392.352"/><use xlink:href="#T" x="15.789" y="-392.352"/><use xlink:href="#V" x="34.826" y="-404.352"/><use xlink:href="#T" x="29.02" y="-392.352"/><use xlink:href="#U" x="55.089" y="-404.352"/><use xlink:href="#i" x="208.749" y="-183.968"/><use xlink:href="#j" x="208.749" y="-183.968"/><use xlink:href="#i" x="219.882" y="-183.968"/><use xlink:href="#q" x="-56.763" y="-183.968"/><use xlink:href="#h" x="234.249" y="-183.968"/><use xlink:href="#U" x="87.62" y="-404.352"/><use xlink:href="#R" x="-32.259" y="-146.356"/><path d="M484.93 154.429h.996v8.736h-.996z"/><use xlink:href="#j" x="257.095" y="-184.121"/><use xlink:href="#V" x="114.566" y="-404.505"/><use xlink:href="#V" x="120.836" y="-404.505"/><use xlink:href="#q" x="-0.238" y="-184.121"/><use xlink:href="#p" x="109.291" y="-184.121"/><use xlink:href="#q" x="6.934" y="-184.121"/><use xlink:href="#n" x="216.225" y="-184.121"/><use xlink:href="#j" x="293.165" y="-184.121"/><use xlink:href="#i" x="304.297" y="-184.121"/><use xlink:href="#q" x="27.653" y="-184.121"/><use xlink:href="#h" x="318.664" y="-184.121"/><use xlink:href="#U" x="172.036" y="-404.505"/><use xlink:href="#V" x="175.41" y="-404.505"/><use xlink:href="#n" x="260.779" y="-184.121"/><use xlink:href="#h" x="349.239" y="-184.121"/><use xlink:href="#S" x="187.768" y="-392.505"/><use xlink:href="#T" x="187.767" y="-392.505"/><use xlink:href="#V" x="206.804" y="-404.505"/></g><path d="M547.3 115.942h-1.116l3.216 8.736h1.092l3.192-8.736h-1.092L550 123.298h-.108l-2.592-7.356z" class="H"/><use xlink:href="#Q" x="0.003" y="-184.962" class="I"/><use xlink:href="#R" x="-0.001" y="-184.962" class="J"/></g><path d="M504.933 110.557v-4h14v4z" class="J"/><path d="M523.933 110.557v-12h14v12z" class="I"/><path d="M542.933 110.558v-24h14v24z" class="H"/><g class="F G"><g class="D"><path d="M385.281 61.366l-39.865-16.517v97.979l39.865-16.517V61.366z" class="M"/><path d="M462.332 61.366h-27.184v64.942h27.184l15-32.483-15-32.459z" class="L"/></g><g class="B"><path d="M416.438 52.836a3 3 0 0 0-3-2.999h-5a3 3 0 0 0-3 2.999v8h11v-8z" fill="#ea9570"/><use xlink:href="#x" x="211.159" y="-16.5" fill="#de5d5c"/><use xlink:href="#x" x="211.159" y="-5.5" fill="#ce4762"/><use xlink:href="#x" x="211.159" y="5.5" fill="#e67961"/><use xlink:href="#x" x="211.159" y="16.5" fill="#ce4762"/><use xlink:href="#x" x="211.159" y="27.5" fill="#9a3670"/><use xlink:href="#x" x="211.159" y="38.5" fill="#7e2f70"/><path d="M416.438 126.837h-11v8a3 3 0 0 0 3 2.999h5a3 3 0 0 0 3-2.999v-8z" fill="#b43d6b"/></g></g><g transform="matrix(0 1 -1 0 922.665 -298.787)" class="C"><path d="M375.124 546.934h1.056v8.736h-1.056z"/><use xlink:href="#w" x="339.706" y="291.059"/><path d="M387.206 555.67h5.124v-.936h-4.068v-7.8h-1.056v8.736z"/><use xlink:href="#v" x="201.4" y="392.505"/><use xlink:href="#v" x="210.54" y="392.505"/><use xlink:href="#T" x="-21.99" y="12"/><use xlink:href="#U" x="4.078"/><use xlink:href="#n" x="83.178" y="220.384"/><use xlink:href="#h" x="171.637" y="220.384"/><use xlink:href="#k" x="149.248" y="220.384"/><use xlink:href="#T" x="13.201" y="12"/><use xlink:href="#S" x="24.428" y="12"/></g><g transform="matrix(0 1 -1 0 1009.575 -298.992)" class="C"><path d="M378.275 555.67c2.664 0 4.164-1.656 4.164-4.38 0-2.712-1.5-4.356-4.044-4.356h-2.808v8.736h2.688zm-1.632-.936v-6.852h1.68c2.052 0 3.096 1.296 3.096 3.408 0 2.136-1.044 3.444-3.204 3.444h-1.572z"/><use xlink:href="#T" x="-7.981"/><use xlink:href="#U" x="18.088" y="-12"/><use xlink:href="#V" x="18.087" y="-12"/><use xlink:href="#T" x="12.281"/><use xlink:href="#U" x="-2.686"/><use xlink:href="#T" x="-14.763" y="12"/><use xlink:href="#i" x="157.935" y="220.384"/><path d="M390.094 567.67h.984l1.44-5.028h.096l1.44 5.028h.984l1.992-6.552h-1.056l-1.416 5.004h-.072l-1.368-5.004h-1.08l-1.392 5.016h-.072l-1.416-5.016h-1.056l1.992 6.552z"/><use xlink:href="#h" x="178.988" y="220.384"/><use xlink:href="#S" x="17.517" y="12"/><use xlink:href="#AB" x="312.533" y="249.533"/></g><g class="C"><path d="M184.431 16.424h-1.914v7.192h-.087l-4.974-7.192h-1.711V26.98h1.914v-7.192h.102l4.959 7.192h1.711V16.424z"/><use xlink:href="#Z" x="-24.794" y="-183.962"/><path d="M200.033 23.659c0 1.203-.87 1.798-1.682 1.798-.899 0-1.508-.638-1.508-1.638v-4.756h-1.856v5.046c0 1.899 1.088 2.972 2.639 2.972 1.189 0 2.016-.623 2.378-1.508h.087v1.406h1.798v-7.917h-1.856v4.596z"/><use xlink:href="#Y" x="6.592" y="-183.962"/><use xlink:href="#X" x="20.709" y="-183.962"/><path d="M217.927 16.424h1.856V26.98h-1.856z"/><use xlink:href="#g" x="-137.906" y="-183.962"/><use xlink:href="#Z" x="22.961" y="-183.962"/><use xlink:href="#e" x="-102.371" y="-183.962"/><path d="M249.889 26.98h1.929l1.494-5.35h.102l1.494 5.35h1.943l2.233-7.917h-1.9l-1.378 5.539h-.073l-1.421-5.539h-1.885l-1.407 5.568h-.087l-1.378-5.568h-1.914l2.248 7.917z"/><use xlink:href="#f" x="-94.01" y="-183.962"/><use xlink:href="#Y" x="71.991" y="-183.962"/><path d="M274.956 26.98h1.856v-2.653l.682-.725 2.422 3.378h2.233l-3.248-4.495 3.074-3.422h-2.19l-2.828 3.175h-.145v-5.814h-1.856V26.98zm8.293-5.148h4.756v1.522h-4.756zm10.909 5.293c1.856 0 3.263-1.479 3.263-4.089 0-2.639-1.436-4.074-3.263-4.074-1.407 0-1.987.841-2.262 1.406h-.087v-3.944h-1.856V26.98h1.827v-1.247h.116c.29.58.899 1.392 2.262 1.392zm-.522-1.537c-1.189 0-1.856-1.029-1.856-2.552 0-1.537.653-2.537 1.856-2.537 1.247 0 1.871 1.058 1.871 2.537s-.638 2.552-1.871 2.552z"/><use xlink:href="#X" x="110.137" y="-183.962"/><use xlink:href="#a" x="57.675" y="-183.962"/><use xlink:href="#Z" x="104.099" y="-183.962"/><path d="M326.809 27.125c1.349 0 1.958-.812 2.248-1.392h.116v1.247H331V16.424h-1.856v3.944h-.087c-.276-.565-.856-1.406-2.262-1.406-1.813 0-3.263 1.435-3.263 4.074 0 2.61 1.407 4.089 3.277 4.089zm.508-1.537c-1.233 0-1.871-1.073-1.871-2.552s.624-2.537 1.871-2.537c1.204 0 1.856 1 1.856 2.537 0 1.522-.667 2.552-1.856 2.552z"/><use xlink:href="#b" x="57.675" y="-183.962"/><path d="M344.908 16.424h1.856V26.98h-1.856z"/><use xlink:href="#X" x="159.839" y="-183.962"/><use xlink:href="#a" x="107.377" y="-183.962"/><use xlink:href="#a" x="115.335" y="-183.962"/><use xlink:href="#d" x="48.4" y="-183.962"/><use xlink:href="#c" x="57.674" y="-183.962"/><use xlink:href="#d" x="57.675" y="-183.962"/><use xlink:href="#b" x="107.186" y="-183.962"/><use xlink:href="#X" x="205.57" y="-183.962"/><use xlink:href="#e" x="57.674" y="-183.962"/><use xlink:href="#d" x="83.722" y="-183.962"/><use xlink:href="#f" x="57.674" y="-183.962"/><use xlink:href="#g" x="57.675" y="-183.962"/></g><defs ><path id="B" d="M606.779 37.117c0-2.208-1.792-4-4.008-4H177.346c-2.208 0-4 1.792-4 4v139c0 2.208 1.792 4 4 4H602.77c2.216 0 4.008-1.792 4.008-4v-139z"/><path id="C" d="M607.774 37.117v139c0 2.759-2.242 5-5.004 5H177.346c-2.759 0-5-2.241-5-5v-139c0-2.76 2.241-5 5-5H602.77c2.762 0 5.004 2.24 5.004 5zm-.996 0c0-2.208-1.792-4-4.008-4H177.346c-2.208 0-4 1.792-4 4v139c0 2.208 1.792 4 4 4H602.77c2.216 0 4.008-1.792 4.008-4v-139z"/><path id="D" d="M372.321 254.347h.872v-3.623c0-.777.62-1.344 1.449-1.344.241 0 .483.042.546.053v-.893c-.105 0-.336-.011-.462-.011-.693 0-1.292.388-1.502.956h-.063v-.871h-.84v5.733z"/><path id="E" d="M376.392 254.347h.872v-2.142l.62-.567 2.142 2.709h1.123l-2.604-3.276 2.425-2.457h-1.092l-2.499 2.552h-.115v-4.463h-.872v7.644z"/><path id="F" d="M384.271 254.473c1.155 0 2.005-.588 2.268-1.449l-.851-.242c-.22.599-.735.903-1.417.903-1.04 0-1.754-.672-1.796-1.901h4.158v-.378c0-2.131-1.281-2.867-2.478-2.867-1.554 0-2.562 1.228-2.562 2.982 0 1.764 1.018 2.951 2.678 2.951zm-1.796-3.444c.063-.903.672-1.701 1.68-1.701.966 0 1.501.693 1.585 1.701h-3.265z"/><path id="G" d="M415.495 254.41c.368 0 .672-.304.672-.672s-.305-.672-.672-.672-.672.305-.672.672.304.672.672.672z"/><path id="H" d="M339.948 266.677c.913 0 1.638-.724 1.638-1.638 0-.903-.725-1.638-1.638-1.638a1.64 1.64 0 0 0-1.638 1.638c0 .913.735 1.638 1.638 1.638z"/><path id="I" d="M356.284 268.861h.872v-3.58c0-.84.62-1.439 1.302-1.439.672 0 1.134.441 1.134 1.092v3.927h.903v-3.728c0-.735.452-1.291 1.26-1.291.63 0 1.166.336 1.166 1.187v3.832h.882v-3.832c0-1.344-.725-1.974-1.754-1.974-.819 0-1.417.378-1.712.977h-.063c-.284-.62-.777-.977-1.522-.977-.756 0-1.312.357-1.543.977h-.084v-.903h-.84v5.733z"/><path id="J" d="M371.347 268.861h.872v-3.623c0-.777.62-1.344 1.449-1.344.241 0 .483.042.546.053v-.893c-.105 0-.336-.01-.462-.01-.693 0-1.292.389-1.502.956h-.063v-.872h-.84v5.733z"/><path id="K" d="M383.297 268.987c1.155 0 2.005-.588 2.268-1.449l-.851-.242c-.22.599-.735.903-1.417.903-1.04 0-1.754-.672-1.796-1.901h4.158v-.378c0-2.132-1.281-2.867-2.478-2.867-1.554 0-2.562 1.229-2.562 2.982 0 1.764 1.018 2.95 2.678 2.95zm-1.796-3.444c.063-.903.672-1.701 1.68-1.701.966 0 1.501.693 1.585 1.701h-3.265z"/><path id="L" d="M396.385 263.128h-1.291v-.577c0-.567.252-.872.829-.872.262 0 .41.063.494.095l.262-.756c-.137-.063-.41-.157-.84-.157-.819 0-1.617.504-1.617 1.48v.788h-.924v.745h.924v4.988h.871v-4.988h1.291v-.745z"/><path id="M" d="M412.218 271.003v-7.875h-.84v.913h-.105c-.189-.294-.535-.987-1.659-.987-1.438 0-2.436 1.155-2.436 2.961 0 1.817.998 2.971 2.425 2.971 1.102 0 1.481-.693 1.669-1.008h.074v3.024h.871zm-2.499-2.803c-1.103 0-1.659-.976-1.659-2.195s.546-2.163 1.659-2.163c1.082 0 1.638.872 1.638 2.163s-.577 2.195-1.638 2.195z"/><path id="N" d="M361.431 294.327c0-.998.63-1.575 1.47-1.575.819 0 1.323.546 1.323 1.439v3.58h.871v-3.644c0-1.459-.787-2.163-1.942-2.163-.861 0-1.407.389-1.669.977h-.084v-.903h-.84v5.733h.872v-3.444z"/><path id="O" d="M399.873 297.771h.872v-5.733h-.872v5.733zm.441-6.688c.346 0 .63-.263.63-.588 0-.336-.284-.599-.63-.599s-.62.262-.62.599c0 .325.273.588.62.588z"/><path id="P" d="M404.843 292.038h-1.228v-1.365h-.871v1.365h-.861v.745h.861v3.581c0 .882.64 1.481 1.564 1.481a1.92 1.92 0 0 0 .651-.105l-.178-.788a1.89 1.89 0 0 1-.389.042c-.535 0-.777-.273-.777-.861v-3.35h1.228v-.745z"/><path id="Q" d="M527.979 309.64h1.056v-3.192h1.908c2.028 0 2.952-1.236 2.952-2.772s-.924-2.772-2.964-2.772h-2.952v8.736zm1.056-4.128v-3.66h1.86c1.416 0 1.956.78 1.956 1.824s-.54 1.836-1.944 1.836h-1.872z"/><path id="R" d="M512.106 309.641c1.752 0 3.18-1.056 3.504-2.856h-1.056c-.252 1.224-1.296 1.872-2.448 1.872-1.584 0-2.832-1.236-2.832-3.492 0-2.28 1.248-3.504 2.832-3.504 1.152 0 2.196.648 2.448 1.86h1.056c-.324-1.788-1.752-2.844-3.504-2.844-2.232 0-3.852 1.716-3.852 4.488 0 2.76 1.62 4.476 3.852 4.476z"/><path id="S" d="M387.795 555.67h.996v-4.14c0-.888.708-1.536 1.656-1.536.276 0 .552.048.624.06v-1.02c-.12 0-.384-.012-.528-.012-.792 0-1.476.444-1.716 1.092h-.072v-.996h-.96v6.552z"/><path id="T" d="M394.809 555.814c1.32 0 2.292-.672 2.592-1.656l-.972-.276c-.252.684-.84 1.032-1.62 1.032-1.188 0-2.004-.768-2.052-2.172h4.752v-.432c0-2.436-1.464-3.276-2.832-3.276-1.776 0-2.928 1.404-2.928 3.408 0 2.016 1.164 3.372 3.06 3.372zm-2.052-3.936c.072-1.032.768-1.944 1.92-1.944 1.104 0 1.716.792 1.812 1.944h-3.732z"/><path id="U" d="M373.949 563.734c0-1.14.72-1.8 1.68-1.8.936 0 1.512.624 1.512 1.644v4.092h.996v-4.164c0-1.668-.9-2.472-2.22-2.472-.984 0-1.608.444-1.908 1.116h-.096v-1.032h-.96v6.552h.996v-3.936z"/><path id="V" d="M384.617 562.594c-.312-.924-1.02-1.56-2.316-1.56-1.38 0-2.412.792-2.412 1.896 0 .9.54 1.5 1.752 1.788l1.092.252c.648.168.972.468.972.936 0 .552-.612 1.02-1.536 1.02-.828 0-1.344-.36-1.524-1.056l-.948.228c.228 1.116 1.14 1.716 2.484 1.716 1.524 0 2.556-.84 2.556-1.968 0-.912-.576-1.488-1.74-1.776l-.972-.228c-.768-.192-1.128-.456-1.128-.96 0-.564.6-.972 1.404-.972.876 0 1.236.492 1.416.936l.9-.252z"/><path id="W" d="M393.215 567.67h.996v-4.092c0-.96.708-1.644 1.488-1.644.768 0 1.296.504 1.296 1.248v4.488h1.032v-4.26c0-.84.516-1.476 1.44-1.476.72 0 1.332.384 1.332 1.356v4.38h1.008v-4.38c0-1.536-.828-2.256-2.004-2.256-.936 0-1.62.432-1.956 1.116h-.072c-.324-.708-.888-1.116-1.74-1.116-.864 0-1.5.408-1.764 1.116h-.096v-1.032h-.96v6.552z"/><path id="X" d="M191.126 211.101c1.247 0 1.987-.58 2.32-1.247h.087v1.087h1.769v-5.292c0-2.088-1.726-2.726-3.234-2.726-1.61 0-2.9.696-3.364 2.073l1.726.348c.189-.522.74-.986 1.653-.986.885 0 1.363.449 1.363 1.203v.043c0 .536-.566.565-1.958.71-1.537.159-3.016.623-3.016 2.407 0 1.551 1.146 2.378 2.654 2.378zm.479-1.363c-.769 0-1.32-.362-1.32-1.044 0-.725.624-1.015 1.45-1.131.479-.072 1.479-.203 1.726-.391v.928c0 .884-.725 1.638-1.856 1.638z"/><path id="Y" d="M197.217 210.942h1.856v-4.64c0-1.015.769-1.711 1.784-1.711.319 0 .711.043.87.087v-1.711c-.174-.029-.464-.043-.667-.043-.899 0-1.668.507-1.958 1.435h-.087v-1.334h-1.798v7.917z"/><path id="Z" d="M214.723 211.101c1.842 0 3.089-.899 3.422-2.276l-1.74-.203c-.247.681-.856 1.029-1.653 1.029-1.175 0-1.972-.797-2.03-2.146h5.51v-.58c0-2.769-1.682-4.002-3.625-4.002-2.277 0-3.741 1.667-3.741 4.103 0 2.479 1.465 4.074 3.857 4.074zm-2.001-4.857c.102-1.044.769-1.87 1.885-1.87 1.088 0 1.697.739 1.813 1.87h-3.698z"/><path id="a" d="M255.93 205.127c-.261-1.348-1.32-2.204-3.176-2.204-1.914 0-3.205.942-3.205 2.407 0 1.145.711 1.899 2.219 2.233l1.363.275c.725.159 1.059.449 1.059.913 0 .522-.595.942-1.479.942-.841 0-1.407-.362-1.566-1.087l-1.813.174c.232 1.45 1.45 2.32 3.393 2.32 1.972 0 3.379-1.029 3.379-2.537 0-1.116-.74-1.812-2.233-2.131l-1.349-.29c-.798-.174-1.102-.464-1.102-.928 0-.522.58-.899 1.349-.899.87 0 1.32.478 1.465.986l1.697-.174z"/><path id="b" d="M282.295 211.101c1.987 0 3.248-1.174 3.393-2.871h-1.784c-.16.855-.769 1.363-1.595 1.363-1.16 0-1.914-.986-1.914-2.595s.769-2.566 1.914-2.566c.899 0 1.45.58 1.595 1.348h1.784c-.131-1.725-1.465-2.856-3.408-2.856-2.32 0-3.785 1.682-3.785 4.089s1.436 4.089 3.799 4.089z"/><path id="c" d="M323.111 203.025h-1.653v-.609c0-.623.276-.971.957-.971.29 0 .537.072.696.116l.377-1.45c-.232-.072-.769-.217-1.421-.217-1.363 0-2.465.797-2.465 2.392v.739h-1.175v1.45h1.175v6.467h1.856v-6.467h1.653v-1.45z"/><path id="d" d="M324.574 210.942h1.856v-7.917h-1.856v7.917zm.928-9.033c.595 0 1.088-.449 1.088-1 0-.565-.493-1.029-1.088-1.029s-1.073.464-1.073 1.029c0 .551.479 1 1.073 1z"/><path id="e" d="M349.057 203.025h-1.566v-1.885h-1.856v1.885h-1.117v1.45h1.117v4.393c0 1.363.885 2.175 2.364 2.175.406 0 .812-.058 1.218-.174l-.319-1.464c-.174.043-.392.072-.551.072-.595 0-.856-.29-.856-.913v-4.089h1.566v-1.45z"/><path id="f" d="M357.854 211.101c2.306 0 3.785-1.638 3.785-4.089s-1.479-4.089-3.785-4.089c-2.32 0-3.799 1.638-3.799 4.089s1.479 4.089 3.799 4.089zm0-1.508c-1.276 0-1.9-1.131-1.9-2.581s.624-2.581 1.9-2.581 1.9 1.131 1.9 2.581-.624 2.581-1.9 2.581z"/><path id="g" d="M365.073 206.316c0-1.145.711-1.812 1.682-1.812.957 0 1.552.638 1.552 1.696v4.741h1.856v-5.031c0-1.899-1.088-2.987-2.712-2.987-1.189 0-1.958.565-2.32 1.45h-.087v-1.348h-1.827v7.917h1.856v-4.625z"/><path id="h" d="M221.816 347.43c1.776 0 2.976-1.356 2.976-3.384 0-2.04-1.2-3.396-2.976-3.396s-2.964 1.356-2.964 3.396c0 2.028 1.188 3.384 2.964 3.384zm0-.9c-1.344 0-1.956-1.176-1.956-2.484s.612-2.496 1.956-2.496c1.356 0 1.968 1.188 1.968 2.496s-.612 2.484-1.968 2.484z"/><path id="i" d="M229.156 340.734h-1.404v-1.56h-.996v1.56h-.984v.852h.984v4.092c0 1.008.732 1.692 1.788 1.692.276 0 .564-.048.744-.12l-.204-.9a2.16 2.16 0 0 1-.444.048c-.612 0-.888-.312-.888-.984v-3.828h1.404v-.852z"/><path id="j" d="M232.603 347.442c1.152 0 1.74-.624 1.944-1.044h.072v.888h.984v-4.308c0-2.088-1.584-2.328-2.424-2.328-.984 0-2.112.348-2.628 1.536l.96.348c.228-.48.744-.996 1.704-.996.924 0 1.392.492 1.392 1.332v.036c0 .48-.504.444-1.692.6-1.212.156-2.544.42-2.544 1.92 0 1.284.984 2.016 2.232 2.016zm.156-.9c-.804 0-1.38-.36-1.38-1.056 0-.768.696-1.008 1.488-1.116.42-.048 1.572-.168 1.74-.372v.924c0 .816-.648 1.62-1.848 1.62z"/><path id="k" d="M251.173 347.43c1.26 0 1.692-.792 1.908-1.152h.12v1.008h.96v-8.736h-.996v3.228h-.084c-.216-.336-.612-1.128-1.896-1.128-1.644 0-2.784 1.32-2.784 3.384 0 2.076 1.14 3.396 2.772 3.396zm.132-.9c-1.26 0-1.896-1.116-1.896-2.508s.624-2.472 1.896-2.472c1.236 0 1.872.996 1.872 2.472s-.66 2.508-1.872 2.508z"/><path id="l" d="M278.067 349.734v-9h-.96v1.044h-.12c-.216-.336-.612-1.128-1.896-1.128-1.644 0-2.784 1.32-2.784 3.384 0 2.076 1.14 3.396 2.772 3.396 1.26 0 1.692-.792 1.908-1.152h.084v3.456h.996zm-2.856-3.204c-1.26 0-1.896-1.116-1.896-2.508s.624-2.472 1.896-2.472c1.236 0 1.872.996 1.872 2.472s-.66 2.508-1.872 2.508z"/><path id="m" d="M284.048 344.61c0 1.224-.948 1.788-1.692 1.788-.84 0-1.44-.612-1.44-1.56v-4.104h-.996v4.164c0 1.668.876 2.472 2.112 2.472.984 0 1.632-.528 1.944-1.2h.072v1.116h.996v-6.552h-.996v3.876z"/><path id="n" d="M303.537 347.43c1.452 0 2.412-.888 2.58-2.052h-1.008c-.18.708-.78 1.152-1.572 1.152-1.188 0-1.956-.996-1.956-2.508 0-1.488.78-2.472 1.956-2.472.888 0 1.416.552 1.572 1.152h1.008c-.168-1.224-1.212-2.052-2.592-2.052-1.776 0-2.952 1.404-2.952 3.396 0 1.968 1.128 3.384 2.964 3.384z"/><path id="o" d="M371.647 349.878c1.572 0 2.82-.72 2.82-2.4v-6.744h-.96v1.044h-.108c-.216-.336-.624-1.128-1.908-1.128-1.656 0-2.796 1.32-2.796 3.336 0 2.04 1.188 3.192 2.772 3.192 1.284 0 1.692-.744 1.908-1.104h.096v1.332c0 1.092-.768 1.584-1.824 1.584-1.188 0-1.608-.624-1.872-.984l-.804.552c.408.696 1.212 1.32 2.676 1.32zm-.036-3.6c-1.26 0-1.908-.96-1.908-2.316 0-1.332.624-2.412 1.908-2.412 1.224 0 1.872.996 1.872 2.412 0 1.452-.66 2.316-1.872 2.316z"/><path id="p" d="M403.551 340.734h-1.476v-.66c0-.648.288-.996.948-.996.3 0 .468.072.564.108l.3-.864c-.156-.072-.468-.18-.96-.18-.936 0-1.848.576-1.848 1.692v.9h-1.056v.852h1.056v5.7h.996v-5.7h1.476v-.852z"/><path id="q" d="M507.328 347.286h.996v-6.552h-.996v6.552zm.504-7.644c.396 0 .72-.3.72-.672 0-.384-.324-.684-.72-.684s-.708.3-.708.684c0 .372.312.672.708.672z"/><path id="r" d="M51.701 193.778h1.479v-8.714h2.944v-1.334h-7.366v1.334h2.944v8.714z"/><path id="s" d="M97.778 193.923a7.22 7.22 0 0 0 2.596-.478l-.334-1.247c-.653.275-1.32.421-2.016.421-2.262 0-3.422-1.32-3.422-3.959 0-2.407 1.203-3.77 3.016-3.77.769 0 1.465.362 1.885 1l1.044-1.044c-.478-.798-1.551-1.262-2.929-1.262-2.885 0-4.524 1.885-4.524 5.148 0 3.465 1.566 5.191 4.684 5.191z"/><path id="t" d="M142.071 193.923a7.22 7.22 0 0 0 2.596-.478l-.334-1.247c-.653.275-1.319.421-2.016.421-2.262 0-3.422-1.32-3.422-3.959 0-2.407 1.204-3.77 3.016-3.77.768 0 1.464.362 1.885 1l1.044-1.044c-.479-.798-1.552-1.262-2.929-1.262-2.886 0-4.524 1.885-4.524 5.148 0 3.465 1.566 5.191 4.683 5.191z"/><path id="u" d="M48.743 211.049h.996v-3.456h.084c.228.36.648 1.152 1.908 1.152 1.644 0 2.784-1.32 2.784-3.396 0-2.064-1.14-3.384-2.796-3.384-1.284 0-1.668.792-1.896 1.128h-.12v-1.044h-.96v9zm2.856-3.204c-1.212 0-1.872-1.032-1.872-2.508s.648-2.472 1.872-2.472c1.272 0 1.908 1.08 1.908 2.472s-.648 2.508-1.908 2.508z"/><path id="v" d="M195.733 163.285c2.232 0 3.852-1.716 3.852-4.476 0-2.772-1.62-4.488-3.852-4.488s-3.852 1.716-3.852 4.488c0 2.76 1.62 4.476 3.852 4.476zm0-.984c-1.584 0-2.832-1.236-2.832-3.492 0-2.28 1.248-3.504 2.832-3.504s2.832 1.224 2.832 3.504c0 2.256-1.248 3.492-2.832 3.492z"/><path id="w" d="M42.134 264.731c2.076 0 3.564-1.38 3.564-3.54v-.948h-3.336v.936h2.304c-.036 1.572-1.056 2.568-2.532 2.568-1.62 0-2.868-1.236-2.868-3.492 0-2.28 1.248-3.504 2.796-3.504 1.26 0 2.112.708 2.484 1.86h1.092c-.324-1.692-1.74-2.844-3.576-2.844-2.244 0-3.816 1.716-3.816 4.488 0 2.76 1.56 4.476 3.888 4.476z"/><path id="x" d="M194.279 77.337h11v11h-11z"/><path id="y" d="M38.133 101.605c.968 0 1.782-.231 2.079-.33v-3.597h-2.574v1.023h1.518v1.815a4.35 4.35 0 0 1-.902.099c-1.584 0-2.387-1.001-2.387-3.003 0-1.826.836-2.86 2.288-2.86a1.71 1.71 0 0 1 1.419.759l.803-.792c-.385-.605-1.221-.957-2.288-.957-2.134 0-3.377 1.43-3.377 3.905 0 2.629 1.144 3.938 3.421 3.938z"/><path id="z" d="M40.992 101.495h1.133l.495-1.859h2.706l.495 1.859h1.133l-2.2-7.623h-1.562l-2.2 7.623zm1.903-2.882l1.034-3.817h.088l1.034 3.817h-2.156z"/><path id="AA" d="M81.754 101.495h1.122v-6.611h2.233v-1.012h-5.588v1.012h2.233v6.611z"/><path id="AB" d="M97.431 318.137h.996v-2.448l.708-.648 2.448 3.096h1.284l-2.976-3.744 2.772-2.808h-1.248l-2.856 2.916h-.132v-5.1h-.996v8.736z"/></defs></svg>