<svg xmlns="http://www.w3.org/2000/svg" xmlns:xlink="http://www.w3.org/1999/xlink" width="100%" height="100%" viewBox="0 0 300 360" fill-rule="evenodd" stroke-linecap="round" stroke-miterlimit="1.5" xmlns:v="https://vecta.io/nano"><style><![CDATA[.B{stroke:#000}.C{fill-rule:nonzero}.D{fill:#ea9570}.E{fill:#de5d5c}.F{fill:#7e2f70}.G{stroke-linecap:butt}.H{fill:#4c628b}.I{stroke-width:.87}.J{fill:#b43d6b}.K{stroke-miterlimit:10}.L{stroke-opacity:.31}.M{stroke-width:.896}]]></style><g transform="translate(-1099.44 -374.519)"><path d="M1390.983 393.037c0-2.208-1.792-4.001-4.003-4.001h-275.086c-2.208 0-4 1.793-4 4.001v322.961c0 2.208 1.792 4.001 4 4.001h275.086c2.211 0 4.003-1.793 4.003-4.001V393.037z" fill-opacity=".02"/><path d="M1391.978 393.037v322.961c0 2.759-2.239 5.001-4.999 5.001h-275.086c-2.759 0-5-2.241-5-5.001V393.037c0-2.759 2.24-5.001 5-5.001h275.086c2.759 0 4.999 2.241 4.999 5.001zm-.995 0c0-2.208-1.792-4.001-4.003-4.001h-275.086c-2.208 0-4 1.793-4 4.001v322.961c0 2.208 1.792 4.001 4 4.001h275.086c2.211 0 4.003-1.793 4.003-4.001V393.037z" fill-opacity=".31"/><g class="B"><g class="I"><use xlink:href="#B" transform="matrix(0 .962802 -1.1056 0 2021.93 -152.427)" class="D"/><use xlink:href="#C" transform="matrix(0 .962802 -1.1056 0 2010.93 -152.427)" class="E"/><use xlink:href="#D" transform="matrix(0 .962802 -1.1056 0 1999.93 -152.427)" class="F"/><use xlink:href="#E" transform="matrix(0 .962802 -1.1056 0 2021.93 -141.427)" class="D"/><g class="J"><use xlink:href="#C" transform="matrix(0 .962802 -1.1056 0 2010.93 -141.427)"/><use xlink:href="#F" transform="matrix(0 .962802 -1.1056 0 1999.93 -141.427)"/></g></g><path d="M1145.383 419.657h-5.811v35.378h5.811m109.605-.002h5.811v-35.378h-5.811" fill="none" stroke-width="1.005" class="G"/></g><g class="C"><path d="M1153.35 425.636h-.924v6.017h-.073l-4.179-6.017h-.892v7.644h.924v-5.995h.084l4.148 5.995h.913v-7.644z"/><use xlink:href="#G"/><path d="M1164.785 430.939c0 1.071-.83 1.565-1.48 1.565-.735 0-1.26-.536-1.26-1.365v-3.591h-.871v3.644c0 1.459.766 2.163 1.848 2.163.861 0 1.428-.462 1.701-1.05h.063v.976h.871v-5.733h-.871v3.392z"/><use xlink:href="#H"/><use xlink:href="#I"/><path d="M1177.107 425.636h.871v7.644h-.871zm6.316 4.2c0-.998.63-1.575 1.47-1.575.819 0 1.323.546 1.323 1.439v3.58h.871v-3.644c0-1.459-.787-2.163-1.942-2.163-.861 0-1.407.389-1.669.977h-.084v-.903h-.84v5.733h.871v-3.444z"/><use xlink:href="#G" x="33.623"/><path d="M1197.274 427.547h-1.228v-1.365h-.871v1.365h-.861v.745h.861v3.581c0 .882.64 1.481 1.564 1.481a1.92 1.92 0 0 0 .651-.105l-.178-.788a1.89 1.89 0 0 1-.389.042c-.535 0-.777-.273-.777-.861v-3.35h1.228v-.745zm2.018 5.796c.368 0 .672-.304.672-.672s-.304-.672-.672-.672-.672.305-.672.672.304.672.672.672z"/><use xlink:href="#J"/><use xlink:href="#K"/><use xlink:href="#L"/><use xlink:href="#H" x="54.92"/><use xlink:href="#G" x="70.844"/><use xlink:href="#J" x="27.471"/><path d="M1147.281 441.371v7.644h.871v-5.807h.073l2.373 5.807h.83l2.405-5.807h.073v5.807h.903v-7.644h-1.145l-2.593 6.342h-.095l-2.593-6.342h-1.102z"/><use xlink:href="#I" x="-14.638" y="15.735"/><use xlink:href="#H" x="-4.804" y="15.735"/><use xlink:href="#M"/><use xlink:href="#G" x="16.934" y="15.735"/><use xlink:href="#H" x="10.833" y="15.735"/><path d="M1181.525 445.329h3.339v.819h-3.339zm7.507 3.812c1.438 0 2.436-1.155 2.436-2.971 0-1.806-.997-2.961-2.447-2.961-1.123 0-1.459.693-1.659.987h-.073v-2.825h-.871v7.644h.84v-.882h.105c.199.315.567 1.008 1.669 1.008zm-.116-.787c-1.06 0-1.638-.903-1.638-2.195s.567-2.163 1.638-2.163c1.113 0 1.67.945 1.67 2.163s-.567 2.195-1.67 2.195z"/><use xlink:href="#I" x="21.625" y="15.735"/><use xlink:href="#J" x="-5.813" y="15.735"/><use xlink:href="#G" x="49.137" y="15.735"/><path d="M1212.462 449.141c1.102 0 1.48-.693 1.669-1.008h.105v.882h.84v-7.644h-.871v2.825h-.073c-.189-.294-.535-.987-1.659-.987-1.439 0-2.436 1.155-2.436 2.961 0 1.817.997 2.971 2.426 2.971zm.115-.787c-1.102 0-1.659-.976-1.659-2.195s.546-2.163 1.659-2.163c1.082 0 1.638.872 1.638 2.163s-.578 2.195-1.638 2.195z"/><use xlink:href="#J" x="15.105" y="15.735"/><use xlink:href="#K" x="15.104" y="15.735"/><use xlink:href="#L" x="15.104" y="15.735"/><use xlink:href="#H" x="70.024" y="15.735"/><use xlink:href="#G" x="85.948" y="15.735"/><use xlink:href="#J" x="42.574" y="15.735"/><g class="H"><use xlink:href="#N"/><use xlink:href="#O"/><use xlink:href="#P"/><use xlink:href="#Q"/><use xlink:href="#R"/><use xlink:href="#S"/><use xlink:href="#T"/><use xlink:href="#U"/><use xlink:href="#Q" x="-11.109" y="13"/><use xlink:href="#V"/><use xlink:href="#W"/><use xlink:href="#X"/><use xlink:href="#N" x="32.121" y="13"/><use xlink:href="#Y"/></g><path d="M1275.647 435.907h8.08v-1.2h-8.08v1.2zm0 4.06h8.08v-1.18h-8.08v1.18z"/></g><g fill="none" class="G"><path d="M1107.9 499.359h283.083" class="B L M"/><g stroke="#4d4d4d" stroke-width="1.3"><path d="M1255.77 504.102l-6.337 6.337-6.337-6.337" class="K"/><path d="M1249.433 491.359v19.08"/></g><path d="M1107.9 609.68h283.083" class="B L M"/></g><g class="C"><g class="H"><use xlink:href="#Z"/><use xlink:href="#U" x="7.812" y="101.055"/><use xlink:href="#U" x="12.171" y="101.055"/><use xlink:href="#R" x="-3.456" y="114.055"/><use xlink:href="#a"/><use xlink:href="#U" x="30.458" y="101.055"/><use xlink:href="#V" x="25.619" y="101.055"/><use xlink:href="#P" x="29.17" y="114.055"/><use xlink:href="#a" x="21.399"/><use xlink:href="#S" x="15.259" y="114.055"/><use xlink:href="#T" x="15.26" y="114.055"/><use xlink:href="#U" x="15.259" y="114.055"/><use xlink:href="#Q" x="4.15" y="127.055"/><use xlink:href="#V" x="15.259" y="114.055"/><use xlink:href="#W" x="15.259" y="114.055"/><use xlink:href="#X" x="15.26" y="114.055"/><use xlink:href="#Z" x="41.379" y="13"/><use xlink:href="#Y" x="15.716" y="114.055"/></g><path d="M1260.857 553.636h1.106v-2.73h2.716v-1.12h-2.716v-2.716h-1.106v2.716h-2.73v1.12h2.73v2.73z"/><use xlink:href="#b"/><path d="M1282.814 557.192h4.592v-.882h-3.052v-.028l1.302-1.134c1.092-.966 1.568-1.512 1.568-2.324 0-1.05-.896-1.82-2.212-1.82-1.302 0-2.24.756-2.24 1.876h1.036c0-.602.476-1.022 1.19-1.022.672 0 1.19.378 1.19.966 0 .532-.35.896-1.05 1.526l-2.324 2.058v.784z"/><use xlink:href="#b" x="-135.418"/><path d="M1148.866 557.192h1.036v-6.118h-1.036l-1.61 1.092v1.05l1.568-1.05h.042v5.026zm12.061-2.548l.756-.742-2.436-2.436 2.436-2.422-.756-.77-2.422 2.436-2.436-2.436-.742.77 2.422 2.422-2.422 2.436.742.742 2.436-2.422 2.422 2.422z"/></g><path d="M1173.804 525.813h-5.811v50.823h5.811m72.114.005h5.811v-50.823h-5.811" fill="none" stroke-width=".997" class="B G"/><g class="C"><use xlink:href="#c"/><use xlink:href="#d"/><use xlink:href="#e"/><use xlink:href="#f"/><use xlink:href="#M" x="38.772" y="90.424"/><use xlink:href="#g"/><use xlink:href="#f" x="15.638"/><use xlink:href="#h"/><use xlink:href="#f" x="26.281"/><use xlink:href="#g" x="20.467"/><use xlink:href="#i"/><use xlink:href="#j"/><path d="M1175.702 554.168h.924v-2.793h1.669c1.774 0 2.583-1.082 2.583-2.425s-.809-2.426-2.593-2.426h-2.583v7.644zm.924-3.612v-3.202h1.628c1.239 0 1.711.683 1.711 1.596s-.472 1.606-1.701 1.606h-1.638z"/><use xlink:href="#d" x="-0.974" y="14.729"/><use xlink:href="#e" x="-0.975" y="14.73"/><use xlink:href="#f" x="-0.974" y="14.729"/><use xlink:href="#M" x="37.798" y="105.153"/><use xlink:href="#g" x="-0.974" y="14.729"/><use xlink:href="#f" x="14.663" y="14.729"/><use xlink:href="#h" x="-0.974" y="14.729"/><use xlink:href="#f" x="25.307" y="14.729"/><use xlink:href="#g" x="19.492" y="14.729"/><use xlink:href="#i" x="-0.974" y="14.729"/><use xlink:href="#j" x="-0.975" y="14.729"/><path d="M1176.017 561.252h-.976l2.814 7.644h.956l2.793-7.644h-.956l-2.268 6.437h-.094l-2.268-6.437z"/><use xlink:href="#k"/><use xlink:href="#e" x="-0.544" y="29.457"/><use xlink:href="#f" x="-0.543" y="29.457"/><use xlink:href="#M" x="38.229" y="119.881"/><use xlink:href="#g" x="-0.544" y="29.457"/><use xlink:href="#f" x="15.094" y="29.457"/><use xlink:href="#h" x="-0.543" y="29.457"/><use xlink:href="#f" x="25.738" y="29.457"/><use xlink:href="#g" x="19.923" y="29.457"/><use xlink:href="#i" x="-0.543" y="29.457"/><use xlink:href="#j" x="-0.544" y="29.457"/><path d="M1294.308 549.788h8.08v-1.2h-8.08v1.2zm0 4.06h8.08v-1.18h-8.08v1.18z"/></g><g class="B I"><use xlink:href="#B" transform="matrix(0 .962802 -1.1056 0 2037.6 -38.5453)" class="J"/><g class="F"><use xlink:href="#C" transform="matrix(0 .962802 -1.1056 0 2026.6 -38.5453)"/><use xlink:href="#D" transform="matrix(0 .962802 -1.1056 0 2015.6 -38.5453)"/></g><use xlink:href="#E" transform="matrix(0 .962802 -1.1056 0 2037.6 -27.5453)" class="D"/><g class="E"><use xlink:href="#C" transform="matrix(0 .962802 -1.1056 0 2026.6 -27.5453)"/><use xlink:href="#F" transform="matrix(0 .962802 -1.1056 0 2015.6 -27.5453)"/></g></g><g class="C"><path d="M1254.735 520.857h2.796v6.744h1.077v-6.744h2.797v-.904h-6.67v.904z"/><path d="M1339.74 664.392h-1.116l3.216 8.736h1.092l3.192-8.736h-1.092l-2.592 7.356h-.108l-2.592-7.356z" fill="#5a74d1"/><path d="M1320.42 673.128h1.056v-3.192h1.908c2.028 0 2.952-1.236 2.952-2.772s-.924-2.772-2.964-2.772h-2.952v8.736zm1.056-4.128v-3.66h1.86c1.416 0 1.956.78 1.956 1.824s-.54 1.836-1.944 1.836h-1.872z" fill="#e84b6e"/><path d="M1304.548 673.129c1.752 0 3.18-1.056 3.504-2.856h-1.056c-.252 1.224-1.296 1.872-2.448 1.872-1.584 0-2.832-1.236-2.832-3.492 0-2.28 1.248-3.504 2.832-3.504 1.152 0 2.196.648 2.448 1.86h1.056c-.324-1.788-1.752-2.844-3.504-2.844-2.232 0-3.852 1.716-3.852 4.488 0 2.76 1.62 4.476 3.852 4.476z" fill="#4f4f4f"/></g><path d="M1297.374 659.007v-4h14v4z" fill="#4f4f4f"/><path d="M1316.374 659.007v-4h14v4z" fill="#e84b6e"/><path d="M1335.374 659.009v-32h14v32z" fill="#5a74d1"/><g class="C H"><use xlink:href="#N" x="-155.888" y="179.225"/><use xlink:href="#Z" x="-162.119" y="111.191"/></g><g class="B I"><use xlink:href="#B" transform="matrix(0 .962802 -1.1056 0 1881.42 50.723)" class="D"/><use xlink:href="#C" transform="matrix(0 .962802 -1.1056 0 1870.42 50.723)" class="E"/><use xlink:href="#D" transform="matrix(0 .962802 -1.1056 0 1859.42 50.723)" class="F"/><use xlink:href="#E" transform="matrix(0 .962802 -1.1056 0 1881.42 61.723)" class="D"/><g class="J"><use xlink:href="#C" transform="matrix(0 .962802 -1.1056 0 1870.42 61.723)"/><use xlink:href="#F" transform="matrix(0 .962802 -1.1056 0 1859.42 61.723)"/><use xlink:href="#B" transform="matrix(0 .962802 -1.1056 0 1881.42 96.7272)"/></g><g class="F"><use xlink:href="#C" transform="matrix(0 .962802 -1.1056 0 1870.42 96.7272)"/><use xlink:href="#D" transform="matrix(0 .962802 -1.1056 0 1859.42 96.7272)"/></g><use xlink:href="#E" transform="matrix(0 .962802 -1.1056 0 1881.42 107.727)" class="D"/><g class="E"><use xlink:href="#C" transform="matrix(0 .962802 -1.1056 0 1870.42 107.727)"/><use xlink:href="#F" transform="matrix(0 .962802 -1.1056 0 1859.42 107.727)"/></g></g><g class="C"><path d="M1175.867 663.504c0-1.134-.89-2.044-2.03-2.044-1.1 0-2.04.91-2.04 2.044s.94 2.044 2.04 2.044c1.14 0 2.03-.91 2.03-2.044zm2.22-.001a4.27 4.27 0 0 1-4.25 4.244c-2.33 0-4.25-1.905-4.25-4.244s1.92-4.256 4.25-4.256a4.28 4.28 0 0 1 4.25 4.256zm.9.001c0-2.856-2.29-5.166-5.15-5.166a5.19 5.19 0 0 0-5.16 5.166c0 2.856 2.35 5.152 5.16 5.152 2.86 0 5.15-2.296 5.15-5.152z"/><use xlink:href="#c" x="33.041" y="119.268"/><use xlink:href="#l"/><path d="M1222.531 651.063h.871v7.644h-.871zm6.104 5.303c0 1.071-.83 1.564-1.48 1.564-.735 0-1.26-.535-1.26-1.365v-3.591h-.871v3.643c0 1.46.766 2.163 1.848 2.163.861 0 1.428-.462 1.701-1.05h.063v.976h.871v-5.733h-.871v3.391z"/><use xlink:href="#d" x="44.946" y="119.268"/><use xlink:href="#m"/><use xlink:href="#d" x="63.188" y="119.268"/><use xlink:href="#g" x="47.714" y="119.268"/><use xlink:href="#e" x="69.277" y="119.269"/><use xlink:href="#m" x="30.26"/><path d="M1224.365 676.281c1.764 0 2.762-.976 2.762-2.205 0-1.438-1.365-1.88-2.152-2.1l-.767-.221c-.567-.158-1.48-.441-1.48-1.26 0-.735.672-1.27 1.68-1.27.934 0 1.627.441 1.711 1.187h.903c-.042-1.145-1.102-2.006-2.583-2.006-1.459 0-2.604.851-2.604 2.132 0 1.029.745 1.649 1.942 1.985l.935.273c.798.231 1.523.504 1.523 1.26 0 .84-.809 1.397-1.869 1.397-.913 0-1.711-.409-1.795-1.27h-.945c.084 1.249 1.102 2.1 2.74 2.1z"/><use xlink:href="#l" x="12.264" y="17.438"/><use xlink:href="#h" x="11.057" y="136.706"/><path d="M1241.058 670.412h-1.228v-1.365h-.871v1.365h-.861v.745h.861v3.58c0 .882.64 1.481 1.564 1.481a1.92 1.92 0 0 0 .651-.105l-.178-.787a1.89 1.89 0 0 1-.389.042c-.535 0-.777-.273-.777-.861v-3.349h1.228v-.745z"/><use xlink:href="#k" x="56.922" y="107.249"/><use xlink:href="#e" x="56.378" y="136.706"/><path d="M1258.282 670.412h-1.019l1.817 2.877-1.817 2.856h1.019l1.365-2.226 1.365 2.226h1.018l-1.848-2.856 1.848-2.877h-1.018l-1.365 2.352-1.365-2.352z"/></g><g fill="none" class="B"><path d="M1280.642 660.497l3 3-3 3" class="K"/><path d="M1202.349 663.497h81.293"/></g><g class="C H"><use xlink:href="#Z" x="-14.143" y="110.179"/><use xlink:href="#n"/><use xlink:href="#n" x="7.312"/><use xlink:href="#Q" x="-6.957" y="224.234"/><use xlink:href="#R" x="-6.958" y="224.234"/><use xlink:href="#n" x="25.851"/><use xlink:href="#T" x="34.012" y="211.234"/><use xlink:href="#U" x="34.011" y="211.234"/><use xlink:href="#R" x="18.384" y="224.234"/><path d="M1353.136 689.994c1.26 0 1.692-.792 1.908-1.152h.12v1.008h.96v-8.736h-.996v3.228h-.084c-.216-.336-.612-1.128-1.896-1.128-1.644 0-2.784 1.32-2.784 3.384 0 2.076 1.14 3.396 2.772 3.396zm.132-.9c-1.26 0-1.896-1.116-1.896-2.508s.624-2.472 1.896-2.472c1.236 0 1.872.996 1.872 2.472s-.66 2.508-1.872 2.508z"/><use xlink:href="#o"/><use xlink:href="#O" x="4.945" y="237.234"/><use xlink:href="#P" x="4.946" y="237.234"/><use xlink:href="#Q" x="4.946" y="237.234"/><use xlink:href="#R" x="4.945" y="237.234"/><use xlink:href="#o" x="31.394"/></g><g fill="none" stroke="#4d4d4d" stroke-width="1.3" class="G"><path d="M1255.77 614.423l-6.337 6.337-6.337-6.337" class="K"/><path d="M1249.433 601.679v19.081"/></g></g><defs ><path id="B" d="M612.558 624.768h-8.309c-.827 0-1.619.286-2.204.795s-.912 1.199-.912 1.918v7.236h11.425v-9.949z"/><path id="C" d="M601.133 624.768h11.425v9.949h-11.425z"/><path id="D" d="M612.558 624.768h-11.425v7.236c0 .719.328 1.41.912 1.918s1.377.795 2.204.795h8.309v-9.949z"/><path id="E" d="M612.558 627.481c0-.719-.329-1.41-.913-1.918s-1.377-.795-2.203-.795h-8.309v9.949h11.425v-7.236z"/><path id="F" d="M612.558 624.768h-11.425v9.949h8.309c.826 0 1.619-.286 2.203-.795s.913-1.199.913-1.918v-7.236z"/><path id="G" d="M1157.486 433.406c1.155 0 2.005-.588 2.268-1.449l-.851-.242c-.22.599-.735.903-1.418.903-1.039 0-1.754-.672-1.795-1.901h4.158v-.378c0-2.132-1.281-2.867-2.478-2.867-1.554 0-2.562 1.229-2.562 2.982 0 1.764 1.019 2.95 2.678 2.95zm-1.795-3.444c.063-.903.672-1.701 1.68-1.701.966 0 1.501.693 1.585 1.701h-3.265z"/><path id="H" d="M1167.274 433.28h.871v-3.623c0-.777.62-1.344 1.449-1.344.242 0 .483.042.546.053v-.893c-.105 0-.336-.01-.462-.01-.693 0-1.292.389-1.502.956h-.063v-.872h-.84v5.733z"/><path id="I" d="M1172.86 433.417c1.008 0 1.523-.546 1.701-.913h.063v.777h.861v-3.769c0-1.827-1.386-2.037-2.121-2.037-.861 0-1.848.305-2.3 1.344l.84.304c.2-.42.651-.871 1.491-.871.809 0 1.218.43 1.218 1.166v.031c0 .42-.441.388-1.48.525-1.061.137-2.226.368-2.226 1.68 0 1.123.861 1.764 1.953 1.764zm.137-.788c-.704 0-1.207-.315-1.207-.924 0-.672.609-.882 1.302-.976.368-.042 1.376-.147 1.523-.326v.809c0 .714-.567 1.417-1.617 1.417z"/><path id="J" d="M1208.599 428.838c-.273-.808-.892-1.365-2.026-1.365-1.207 0-2.111.693-2.111 1.659 0 .787.472 1.313 1.533 1.564l.956.221c.567.147.851.41.851.819 0 .483-.535.892-1.344.892-.725 0-1.176-.315-1.333-.924l-.83.2c.2.976.998 1.501 2.174 1.501 1.333 0 2.236-.735 2.236-1.722 0-.798-.504-1.302-1.523-1.554l-.851-.2c-.672-.168-.987-.399-.987-.84 0-.493.525-.851 1.228-.851.766 0 1.082.43 1.239.819l.787-.221z"/><path id="K" d="M1212.353 433.406c1.271 0 2.111-.777 2.258-1.796h-.882c-.158.62-.683 1.008-1.376 1.008-1.039 0-1.711-.872-1.711-2.195 0-1.302.682-2.163 1.711-2.163.777 0 1.239.483 1.376 1.008h.882c-.147-1.071-1.061-1.796-2.268-1.796-1.554 0-2.583 1.229-2.583 2.972 0 1.722.987 2.961 2.593 2.961z"/><path id="L" d="M1218.249 433.406c1.554 0 2.604-1.186 2.604-2.961 0-1.785-1.05-2.972-2.604-2.972s-2.593 1.187-2.593 2.972c0 1.774 1.04 2.961 2.593 2.961zm0-.787c-1.176 0-1.711-1.029-1.711-2.173s.535-2.184 1.711-2.184c1.187 0 1.722 1.04 1.722 2.184s-.536 2.173-1.722 2.173z"/><path id="M" d="M1166.541 449.015h.871v-2.142l.62-.567 2.142 2.709h1.124l-2.604-3.276 2.426-2.457h-1.092l-2.499 2.551h-.115v-4.462h-.871v7.644z"/><path id="N" d="M1302.406 465.772c2.016 0 3.156-1.116 3.156-2.52 0-1.644-1.56-2.148-2.46-2.4l-.876-.252c-.648-.18-1.692-.504-1.692-1.44 0-.84.768-1.452 1.92-1.452 1.068 0 1.86.504 1.956 1.356h1.032c-.048-1.308-1.26-2.292-2.952-2.292-1.668 0-2.976.972-2.976 2.436 0 1.176.852 1.884 2.22 2.268l1.068.312c.912.264 1.74.576 1.74 1.44 0 .96-.924 1.596-2.136 1.596-1.044 0-1.956-.468-2.052-1.452h-1.08c.096 1.428 1.26 2.4 3.132 2.4z"/><path id="O" d="M1309.819 465.76c1.452 0 2.412-.888 2.58-2.052h-1.008c-.18.708-.78 1.152-1.572 1.152-1.188 0-1.956-.996-1.956-2.508 0-1.488.78-2.472 1.956-2.472.888 0 1.416.552 1.572 1.152h1.008c-.168-1.224-1.212-2.052-2.592-2.052-1.776 0-2.952 1.404-2.952 3.396 0 1.968 1.128 3.384 2.964 3.384z"/><path id="P" d="M1316.557 465.76c1.776 0 2.976-1.356 2.976-3.384 0-2.04-1.2-3.396-2.976-3.396s-2.964 1.356-2.964 3.396c0 2.028 1.188 3.384 2.964 3.384zm0-.9c-1.344 0-1.956-1.176-1.956-2.484s.612-2.496 1.956-2.496c1.356 0 1.968 1.188 1.968 2.496s-.612 2.484-1.968 2.484z"/><path id="Q" d="M1321.065 465.616h.996v-4.14c0-.888.708-1.536 1.656-1.536.276 0 .552.048.624.06v-1.02c-.12 0-.384-.012-.528-.012-.792 0-1.476.444-1.716 1.092h-.072v-.996h-.96v6.552z"/><path id="R" d="M1328.079 465.76c1.32 0 2.292-.672 2.592-1.656l-.972-.276c-.252.684-.84 1.032-1.62 1.032-1.188 0-2.004-.768-2.052-2.172h4.752v-.432c0-2.436-1.464-3.276-2.832-3.276-1.776 0-2.928 1.404-2.928 3.408 0 2.016 1.164 3.372 3.06 3.372zm-2.052-3.936c.072-1.032.768-1.944 1.92-1.944 1.104 0 1.716.792 1.812 1.944h-3.732z"/><path id="S" d="M1288.194 478.616h.996v-4.092c0-.96.708-1.644 1.488-1.644.768 0 1.296.504 1.296 1.248v4.488h1.032v-4.26c0-.84.516-1.476 1.44-1.476.72 0 1.332.384 1.332 1.356v4.38h1.008v-4.38c0-1.536-.828-2.256-2.004-2.256-.936 0-1.62.432-1.956 1.116h-.072c-.324-.708-.888-1.116-1.74-1.116-.864 0-1.5.408-1.764 1.116h-.096v-1.032h-.96v6.552z"/><path id="T" d="M1300.555 478.772c1.152 0 1.74-.624 1.944-1.044h.072v.888h.984v-4.308c0-2.088-1.584-2.328-2.424-2.328-.984 0-2.112.348-2.628 1.536l.96.348c.228-.48.744-.996 1.704-.996.924 0 1.392.492 1.392 1.332v.036c0 .48-.504.444-1.692.6-1.212.156-2.544.42-2.544 1.92 0 1.284.984 2.016 2.232 2.016zm.156-.9c-.804 0-1.38-.36-1.38-1.056 0-.768.696-1.008 1.488-1.116.42-.048 1.572-.168 1.74-.372v.924c0 .816-.648 1.62-1.848 1.62z"/><path id="U" d="M1308.241 472.064h-1.404v-1.56h-.996v1.56h-.984v.852h.984v4.092c0 1.008.732 1.692 1.788 1.692.276 0 .564-.048.744-.12l-.204-.9a2.16 2.16 0 0 1-.444.048c-.612 0-.888-.312-.888-.984v-3.828h1.404v-.852z"/><path id="V" d="M1314.608 478.616h.996v-6.552h-.996v6.552zm.504-7.644c.396 0 .72-.3.72-.672 0-.384-.324-.684-.72-.684s-.708.3-.708.684c0 .372.312.672.708.672z"/><path id="W" d="M1318.212 472.064h-1.164l2.076 3.288-2.076 3.264h1.164l1.56-2.544 1.56 2.544h1.164l-2.112-3.264 2.112-3.288h-1.164l-1.56 2.688-1.56-2.688z"/><path id="X" d="M1327.659 474.512c0 1.716.528 3.504 1.512 5.184h.972c-1.02-2.1-1.476-3.66-1.476-5.184 0-1.704.564-3.852 1.476-5.712h-.972c-.876 1.464-1.512 3.816-1.512 5.712z"/><path id="Y" d="M1338.928 479.696h.972c.984-1.68 1.512-3.468 1.512-5.184 0-1.896-.624-4.248-1.512-5.712h-.972c.924 1.86 1.476 4.008 1.476 5.712 0 1.524-.444 3.084-1.476 5.184z"/><path id="Z" d="M1306.008 579.671l.876-2.472h3.528l.888 2.472h1.092l-3.192-8.736h-1.092l-3.216 8.736h1.116zm1.212-3.408l1.392-3.936h.072l1.404 3.936h-2.868z"/><path id="a" d="M1329.832 575.735c0-1.14.72-1.8 1.68-1.8.936 0 1.512.624 1.512 1.644v4.092h.996v-4.164c0-1.668-.9-2.472-2.22-2.472-.984 0-1.608.444-1.908 1.116h-.096v-1.032h-.96v6.552h.996v-3.936z"/><path id="b" d="M1271.905 555.442h1.288l2.24-8.106h.084l2.24 8.106h1.274l2.786-10.192h-1.26l-2.114 8.302h-.112l-2.17-8.302h-1.386l-2.17 8.302h-.098l-2.142-8.302h-1.246l2.786 10.192z"/><path id="c" d="M1178.779 539.544c1.533 0 2.782-.924 3.066-2.499h-.924c-.22 1.071-1.134 1.638-2.142 1.638-1.386 0-2.478-1.082-2.478-3.056 0-1.995 1.092-3.066 2.478-3.066 1.008 0 1.921.567 2.142 1.628h.924c-.284-1.564-1.533-2.489-3.066-2.489-1.953 0-3.37 1.502-3.37 3.927 0 2.415 1.417 3.917 3.37 3.917z"/><path id="d" d="M1186.179 539.439h.871v-3.581c0-.84.62-1.438 1.302-1.438.672 0 1.134.441 1.134 1.092v3.927h.903v-3.727c0-.735.451-1.292 1.26-1.292.63 0 1.166.336 1.166 1.187v3.832h.882v-3.832c0-1.344-.724-1.974-1.753-1.974-.819 0-1.418.378-1.712.976h-.063c-.284-.62-.777-.976-1.523-.976-.756 0-1.312.357-1.543.976h-.084v-.903h-.84v5.733z"/><path id="e" d="M1196.996 539.575c1.008 0 1.523-.546 1.701-.913h.063v.777h.861v-3.769c0-1.827-1.386-2.037-2.121-2.037-.861 0-1.848.305-2.3 1.344l.84.304c.2-.42.651-.871 1.491-.871.809 0 1.218.43 1.218 1.165v.032c0 .42-.441.389-1.48.525-1.061.136-2.226.367-2.226 1.68 0 1.124.861 1.764 1.953 1.764zm.137-.787c-.704 0-1.207-.315-1.207-.924 0-.672.609-.882 1.302-.976.368-.042 1.376-.147 1.523-.325v.808c0 .714-.567 1.418-1.617 1.418z"/><path id="f" d="M1201.242 539.439h.871v-3.622c0-.777.62-1.344 1.449-1.344.242 0 .483.042.546.053v-.893c-.105 0-.336-.01-.462-.01-.693 0-1.292.389-1.502.956h-.063v-.871h-.84v5.733z"/><path id="g" d="M1213.193 539.565c1.155 0 2.005-.588 2.268-1.449l-.851-.241c-.22.598-.735.903-1.418.903-1.039 0-1.754-.672-1.795-1.9h4.158v-.378c0-2.131-1.281-2.866-2.478-2.866-1.554 0-2.562 1.229-2.562 2.982 0 1.764 1.019 2.95 2.678 2.95zm-1.795-3.444c.063-.903.672-1.701 1.68-1.701.966 0 1.501.693 1.585 1.701h-3.265z"/><path id="h" d="M1226.28 533.706h-1.292v-.578c0-.567.252-.871.83-.871.263 0 .409.063.494.095l.262-.756c-.136-.063-.409-.158-.84-.158-.819 0-1.617.504-1.617 1.481v.788h-.924v.745h.924v4.987h.871v-4.987h1.292v-.745z"/><path id="i" d="M1242.113 541.581v-7.875h-.84v.913h-.105c-.189-.294-.535-.987-1.659-.987-1.439 0-2.436 1.155-2.436 2.961 0 1.817.997 2.971 2.426 2.971 1.102 0 1.48-.693 1.669-1.008h.073v3.024h.871zm-2.499-2.804c-1.102 0-1.659-.976-1.659-2.194s.546-2.163 1.659-2.163c1.082 0 1.638.871 1.638 2.163s-.578 2.194-1.638 2.194z"/><path id="j" d="M1244.417 539.502c.368 0 .672-.304.672-.672s-.304-.672-.672-.672-.672.304-.672.672.304.672.672.672z"/><path id="k" d="M1185.636 568.896h.871v-3.581c0-.84.62-1.438 1.302-1.438.672 0 1.134.441 1.134 1.092v3.927h.903v-3.727c0-.735.451-1.292 1.26-1.292.63 0 1.166.336 1.166 1.187v3.832h.882v-3.832c0-1.344-.724-1.974-1.753-1.974-.819 0-1.418.378-1.712.976h-.063c-.284-.619-.777-.976-1.523-.976-.756 0-1.312.357-1.543.976h-.084v-.903h-.84v5.733z"/><path id="l" d="M1218.587 658.833c1.554 0 2.604-1.187 2.604-2.961 0-1.785-1.05-2.971-2.604-2.971s-2.593 1.187-2.593 2.971c0 1.774 1.04 2.961 2.593 2.961zm0-.788c-1.176 0-1.711-1.029-1.711-2.173s.535-2.184 1.711-2.184c1.187 0 1.722 1.039 1.722 2.184s-.536 2.173-1.722 2.173z"/><path id="m" d="M1241.132 655.263c0-.998.63-1.575 1.47-1.575.819 0 1.323.546 1.323 1.438v3.581h.871v-3.644c0-1.459-.787-2.163-1.942-2.163-.861 0-1.407.389-1.669.976h-.084v-.903h-.84v5.733h.871v-3.444z"/><path id="n" d="M1302.123 692.442c1.572 0 2.82-.72 2.82-2.4v-6.744h-.96v1.044h-.108c-.216-.336-.624-1.128-1.908-1.128-1.656 0-2.796 1.32-2.796 3.336 0 2.04 1.188 3.192 2.772 3.192 1.284 0 1.692-.744 1.908-1.104h.096v1.332c0 1.092-.768 1.584-1.824 1.584-1.188 0-1.608-.624-1.872-.984l-.804.552c.408.696 1.212 1.32 2.676 1.32zm-.036-3.6c-1.26 0-1.908-.96-1.908-2.316 0-1.332.624-2.412 1.908-2.412 1.224 0 1.872.996 1.872 2.412 0 1.452-.66 2.316-1.872 2.316z"/><path id="o" d="M1310.475 697.774c-.312-.924-1.02-1.56-2.316-1.56-1.38 0-2.412.792-2.412 1.896 0 .9.54 1.5 1.752 1.788l1.092.252c.648.168.972.468.972.936 0 .552-.612 1.02-1.536 1.02-.828 0-1.344-.36-1.524-1.056l-.948.228c.228 1.116 1.14 1.716 2.484 1.716 1.524 0 2.556-.84 2.556-1.968 0-.912-.576-1.488-1.74-1.776l-.972-.228c-.768-.192-1.128-.456-1.128-.96 0-.564.6-.972 1.404-.972.876 0 1.236.492 1.416.936l.9-.252z"/></defs></svg>