<svg xmlns="http://www.w3.org/2000/svg" xmlns:xlink="http://www.w3.org/1999/xlink" width="100%" height="100%" viewBox="0 0 240 250" fill-rule="evenodd" stroke-linejoin="round" stroke-miterlimit="10" xmlns:v="https://vecta.io/nano"><style><![CDATA[.B{fill-rule:nonzero}.C{stroke-linecap:round}.D{stroke-width:1.501}]]></style><path d="M60.794 14.701h161.133v182.403H60.794z" fill="#fff"/><path d="M222.927 198.105H59.794V13.701h163.133v184.403zm-1-183.404H60.794v182.404h161.133V14.701z"/><g fill="none"><g stroke-dasharray="6.62,3.31,0,0" stroke-width="1.66" stroke="#dbdbdb"><path d="M-55.793 163.352h243.297" transform="matrix(0 -.749717 -.409764 0 137.437 155.275)"/><path d="M13.378 163.352h243.296" transform="matrix(0 -.749717 -.409764 0 172.751 207.134)"/><path d="M82.548 163.352h243.296" transform="matrix(0 -.749717 -.409764 0 208.066 258.992)"/><path d="M220.889 163.352h243.296" transform="matrix(0 -.749717 -.409764 0 243.61 362.708)"/><path d="M290.059 163.352h243.296" transform="matrix(0 -.749717 -.409764 0 279.155 414.567)"/></g><g stroke-dasharray="6.27,3.14,0,0" stroke-width="1.001"><path d="M60.794 166.315h161.133" stroke="#000"/><path d="M60.794 124.199h161.133M60.794 82.085h161.133M60.794 39.969h161.133" stroke="#dbdbdb"/></g><g class="C D"><path d="M70.501 150.735l14.172-9.393 14.172-9.155 14.172-8.944 14.172-8.758 14.172-8.595 14.172-8.456 14.172-8.336 14.172-8.241 14.172-8.169 14.172-8.123" stroke="#5a74d1"/><path d="M70.501 150.517l14.172-12.392 14.172-11.997 14.172-11.656 14.172-11.363 14.172-11.117 14.172-10.922 14.172-10.776 14.172-10.684 14.172-10.655 14.172-10.703" stroke="#e84b6e"/></g></g><g fill="#e84b6e" transform="matrix(.884281 -.65309 .645233 .873643 -513.604 -178.515)" class="B"><path d="M.08 0h.109v-.256h.15c.168 0 .252-.101.252-.236S.508-.728.339-.728H.08V0zm.109-.349v-.284h.139c.108 0 .152.059.152.141s-.044.143-.152.143H.189z" transform="matrix(10.916 0 0 11.0489 372.02 555.67)"/><path d="M.072-.728h.105V0H.072z" transform="matrix(10.916 0 0 11.0489 378.997 555.67)"/><path d="M.23.012c.091 0 .141-.046.162-.087h.005V0h.102v-.362c0-.159-.125-.191-.212-.191-.097 0-.188.038-.226.136l.1.026c.015-.038.056-.075.127-.075s.106.035.106.097v.002c0 .039-.041.038-.139.05-.103.012-.21.039-.21.163 0 .107.081.166.185.166zm.023-.085c-.06 0-.104-.027-.104-.08S.2-.23.262-.238c.034-.004.116-.014.132-.029v.071c0 .064-.052.123-.141.123z" transform="matrix(10.916 0 0 11.0489 381.715 555.67)"/><use xlink:href="#B" transform="matrix(10.916 0 0 11.0489 387.946 555.67)"/><use xlink:href="#C" transform="matrix(10.916 0 0 11.0489 393.793 555.67)"/><use xlink:href="#D" transform="matrix(10.916 0 0 11.0489 403.451 555.67)"/><path d="M.275.011c.099 0 .138-.061.158-.096h.008V0h.103v-.728H.438v.271H.433C.414-.491.377-.553.275-.553c-.131 0-.228.104-.228.282s.095.282.228.282zM.298-.08C.204-.08.154-.164.154-.272s.048-.19.144-.19.142.075.142.19S.39-.08.298-.08z" transform="matrix(10.916 0 0 11.0489 406.169 555.67)"/></g><g fill="#5a74d1" transform="matrix(.95946 -.55023 .537018 .936421 -477.659 -233.92)" class="B"><path d="M.144-.728H.025L.287 0h.127l.261-.728H.557l-.203.593H.346L.144-.728z" transform="matrix(10.8496 0 0 11.1165 379.092 555.67)"/><use xlink:href="#D" transform="matrix(10.8496 0 0 11.1165 386.683 555.67)"/><use xlink:href="#E" transform="matrix(10.8496 0 0 11.1165 389.385 555.67)"/><path d="M.417-.226c0 .093-.069.137-.128.136C.223-.089.177-.137.177-.211v-.335H.072v.347c0 .136.074.206.178.206.083 0 .138-.044.164-.102h.005V0h.104v-.546H.417v.32z" transform="matrix(10.8496 0 0 11.1165 393.554 555.67)"/><use xlink:href="#B" transform="matrix(10.8496 0 0 11.1165 400.007 555.67)"/></g><g fill="#4f4f4f" transform="matrix(.990469 -.496289 .482787 .963523 -479.906 -228.266)" class="B"><path d="M.384.01c.159 0 .276-.1.3-.244H.573C.554-.141.476-.09.385-.09c-.126 0-.22-.096-.22-.273s.094-.274.22-.274c.092 0 .17.052.188.146h.111C.659-.646.537-.737.384-.737c-.188 0-.327.141-.327.374S.195.01.384.01z" transform="matrix(10.8318 0 0 11.1347 357.784 555.67)"/><path d="M.177-.324c0-.087.055-.137.131-.137s.118.046.118.127V0h.106v-.347c0-.136-.075-.206-.188-.206-.085 0-.136.037-.161.097H.176v-.272H.072V0h.105v-.324z" transform="matrix(10.8318 0 0 11.1347 365.754 555.67)"/><use xlink:href="#E" transform="matrix(10.8318 0 0 11.1347 372.291 555.67)"/><use xlink:href="#F" transform="matrix(10.8318 0 0 11.1347 376.236 555.67)"/><use xlink:href="#C" transform="matrix(10.8318 0 0 11.1347 382.763 555.67)"/><use xlink:href="#F" transform="matrix(10.8318 0 0 11.1347 392.346 555.67)"/><use xlink:href="#B" transform="matrix(10.8318 0 0 11.1347 398.873 555.67)"/><use xlink:href="#F" transform="matrix(10.8318 0 0 11.1347 404.675 555.67)"/><use xlink:href="#C" transform="matrix(10.8318 0 0 11.1347 411.202 555.67)"/><path d="M.307.011c.118 0 .202-.059.226-.147l-.1-.019c-.019.052-.065.079-.125.079-.09 0-.152-.059-.156-.165h.389v-.038c0-.197-.12-.274-.244-.274-.152 0-.25.116-.25.284s.099.28.26.28zM.153-.32c.006-.079.058-.145.145-.145s.13.058.138.145H.153z" transform="matrix(10.8318 0 0 11.1347 420.785 555.67)"/></g><path d="M70.501 170.629l14.172-7.921 14.172-7.741 14.172-7.586 14.172-7.451 14.172-7.338 14.172-7.244 14.172-7.17 14.172-7.115 28.343-14.154" fill="none" stroke="#4e4e4e" class="C D"/><g class="B"><use xlink:href="#G"/><use xlink:href="#H"/><use xlink:href="#G" x="11.184"/><use xlink:href="#G" x="70.852"/><use xlink:href="#H" x="70.849"/><use xlink:href="#I"/><path d="M207.857 203.277h-1.02l-2.184 1.464v1.068l2.124-1.416h.06v7.62h1.02v-8.736z"/><use xlink:href="#H" x="140.563"/><use xlink:href="#G" x="151.75"/><path d="M81.78 223.963v10.556h1.203V226.5h.101l3.277 8.018h1.145l3.32-8.018h.101v8.018h1.247v-10.556h-1.58l-3.581 8.758h-.13l-3.581-8.758H81.78zm15.108 10.744c1.392 0 2.102-.754 2.349-1.261h.087v1.073h1.189v-5.205c0-2.523-1.914-2.813-2.929-2.813-1.189 0-2.552.42-3.175 1.856l1.16.42c.275-.58.899-1.203 2.059-1.203 1.116 0 1.682.594 1.682 1.609v.043c0 .58-.609.536-2.044.725-1.464.188-3.074.507-3.074 2.32 0 1.551 1.189 2.436 2.697 2.436zm.188-1.087c-.971 0-1.667-.435-1.667-1.276 0-.928.841-1.218 1.798-1.348.507-.058 1.899-.203 2.102-.449v1.116c0 .986-.783 1.957-2.233 1.957z"/><use xlink:href="#J"/><path d="M108.143 234.519h1.203v-2.958l.855-.783 2.958 3.741h1.551l-3.596-4.524 3.349-3.393h-1.508l-3.451 3.523h-.159v-6.162h-1.203v10.556z"/><use xlink:href="#K"/><use xlink:href="#J" x="21.687"/><path d="M137.415 226.602h-1.783v-.797c0-.783.348-1.203 1.145-1.203.362 0 .565.087.681.13l.362-1.044c-.188-.087-.565-.217-1.16-.217-1.131 0-2.233.696-2.233 2.044v1.087h-1.276v1.029h1.276v6.887h1.203v-6.887h1.783v-1.029z"/><use xlink:href="#J" x="36.379"/><use xlink:href="#K" x="28.493"/><path d="M159.514 237.477v-10.875h-1.16v1.261h-.145c-.261-.406-.739-1.363-2.291-1.363-1.986 0-3.364 1.595-3.364 4.089 0 2.508 1.377 4.103 3.349 4.103 1.522 0 2.044-.957 2.305-1.392h.101v4.176h1.203zm-3.451-3.871c-1.522 0-2.291-1.348-2.291-3.03s.754-2.987 2.291-2.987c1.493 0 2.262 1.203 2.262 2.987s-.797 3.03-2.262 3.03zm10.675-2.321a2.06 2.06 0 0 1-2.044 2.16c-1.015 0-1.74-.739-1.74-1.885v-4.959h-1.203v5.031c0 2.015 1.058 2.987 2.552 2.987 1.189 0 1.972-.638 2.349-1.45h.087v1.348h1.203V226.6h-1.203v4.683z"/><use xlink:href="#K" x="54.145"/><path d="M179.786 229.763c0-1.377.87-2.175 2.03-2.175 1.131 0 1.827.754 1.827 1.986v4.944h1.203v-5.031c0-2.015-1.087-2.987-2.682-2.987-1.189 0-1.943.536-2.305 1.348h-.116v-1.247h-1.16v7.917h1.203v-4.756zm10.495 4.93c1.754 0 2.914-1.073 3.117-2.479h-1.218c-.217.855-.942 1.392-1.899 1.392-1.435 0-2.363-1.203-2.363-3.03 0-1.798.942-2.987 2.363-2.987 1.073 0 1.711.667 1.899 1.392h1.218c-.203-1.479-1.464-2.479-3.132-2.479-2.146 0-3.567 1.696-3.567 4.103 0 2.378 1.363 4.089 3.581 4.089zm5.704 2.842c1.102 0 1.856-.58 2.32-1.812l3.364-9.12h-1.305l-2.189 6.322h-.087l-2.175-6.322h-1.319l2.914 7.96-.232.681c-.406 1.131-.942 1.305-1.754 1.116l-.116-.029-.319 1.058c.13.072.478.145.899.145z"/><use xlink:href="#G" x="-24.13" y="-41.049"/><use xlink:href="#H" x="-24.428" y="-41.049"/><use xlink:href="#I" x="-95.275" y="-41.049"/><use xlink:href="#G" x="-24.161" y="-83.163"/><use xlink:href="#H" x="-24.458" y="-83.163"/><path d="M51.395 128.97c1.776 0 2.928-1.308 2.928-2.928 0-1.692-1.248-2.904-2.748-2.904-.9 0-1.668.444-2.148 1.164h-.06c0-2.136.816-3.36 2.172-3.36.924 0 1.476.576 1.68 1.356h1.032c-.216-1.344-1.248-2.292-2.712-2.292-1.956 0-3.168 1.74-3.168 4.824 0 3.228 1.596 4.14 3.024 4.14zm0-.936c-1.08 0-1.884-.936-1.884-1.98s.852-1.968 1.92-1.968c1.08 0 1.872.864 1.872 1.956 0 1.104-.828 1.992-1.908 1.992z"/><use xlink:href="#G" x="-23.652" y="-125.278"/><use xlink:href="#H" x="-23.95" y="-125.278"/><path d="M49.407 86.735h1.104l3.9-7.74v-.996h-5.604v.948h4.5v.06l-3.9 7.728z"/><use xlink:href="#G" x="-24.165" y="-167.393"/><use xlink:href="#H" x="-24.462" y="-167.393"/><path d="M51.35 44.74c1.74 0 2.964-1.02 2.964-2.436 0-1.104-.756-2.04-1.692-2.22v-.048c.816-.216 1.356-1.02 1.356-1.944 0-1.332-1.116-2.316-2.628-2.316-1.548 0-2.652.984-2.652 2.316 0 .924.528 1.728 1.368 1.944v.048c-.96.18-1.68 1.116-1.68 2.22 0 1.416 1.2 2.436 2.964 2.436zm0-.936c-1.2 0-1.932-.612-1.932-1.548 0-.984.804-1.692 1.932-1.692 1.092 0 1.92.708 1.92 1.692 0 .936-.744 1.548-1.92 1.548zm0-4.14c-.96 0-1.632-.6-1.632-1.5 0-.888.648-1.464 1.632-1.464.96 0 1.608.576 1.608 1.464 0 .9-.684 1.5-1.608 1.5z"/></g><g transform="matrix(0 -.72404 .381451 0 21.6814 15.509)" class="B"><path d="M-228.342-14.486v27.673h1.662V-7.833h.14l4.526 21.021h1.582l4.586-21.021h.14v21.021h1.722v-27.673h-2.183l-4.947 22.96h-.18l-4.947-22.96h-2.103z"/><use xlink:href="#L"/><use xlink:href="#M"/><path d="M-191.328 13.188h1.662V5.433l1.182-2.053 4.085 9.807h2.143l-4.967-11.86 4.626-8.895h-2.083l-4.766 9.237h-.22v-16.155h-1.662v27.673z"/><use xlink:href="#N"/><use xlink:href="#M" x="29.7"/><path d="M-163.865-.155h6.368V2.81h-6.368z"/><use xlink:href="#O"/><use xlink:href="#L" x="68.327"/><path d="M-123.316-2.892c-.521-2.927-1.702-4.942-3.865-4.942-2.303 0-4.025 2.509-4.025 6.006 0 2.851.901 4.752 2.924 5.664l1.822.798c1.081.532 1.622 1.482 1.622 2.965 0 1.749-1.021 3.231-2.563 3.231-1.382 0-2.243-1.14-2.543-3.345l-1.582.722c.381 3.535 1.903 5.436 4.145 5.436 2.543 0 4.266-2.661 4.266-6.234 0-2.889-.961-4.714-2.904-5.626l-1.622-.722c-1.282-.608-1.882-1.444-1.882-3.041 0-1.787 1.001-3.079 2.343-3.079 1.462 0 2.063 1.559 2.363 2.965l1.502-.798z"/><use xlink:href="#N" x="60.705"/><path d="M-104.862 13.644c2.103 0 2.824-2.509 3.184-3.649h.2v3.193h1.602v-27.673h-1.662V-4.26h-.14c-.36-1.064-1.021-3.573-3.164-3.573-2.744 0-4.646 4.181-4.646 10.72 0 6.576 1.903 10.758 4.626 10.758zm.22-2.851c-2.103 0-3.164-3.535-3.164-7.945s1.041-7.831 3.164-7.831c2.063 0 3.124 3.155 3.124 7.831s-1.101 7.945-3.124 7.945zm17.917 2.851c2.423 0 4.025-2.813 4.306-6.5h-1.682c-.3 2.243-1.302 3.649-2.623 3.649-1.983 0-3.264-3.155-3.264-7.945 0-4.714 1.302-7.831 3.264-7.831 1.482 0 2.363 1.749 2.623 3.649h1.682c-.28-3.877-2.023-6.5-4.326-6.5-2.964 0-4.927 4.447-4.927 10.758 0 6.234 1.882 10.72 4.947 10.72zm11.245 0c2.964 0 4.967-4.295 4.967-10.72 0-6.462-2.003-10.758-4.967-10.758s-4.947 4.295-4.947 10.758c0 6.424 1.983 10.72 4.947 10.72zm0-2.851c-2.243 0-3.264-3.725-3.264-7.869s1.021-7.907 3.264-7.907c2.263 0 3.284 3.763 3.284 7.907s-1.021 7.869-3.284 7.869zM-66.295.72c0-3.611 1.202-5.702 2.804-5.702 1.562 0 2.523 1.977 2.523 5.208v12.962h1.662V-.003c0-5.284-1.502-7.831-3.705-7.831-1.642 0-2.684 1.406-3.184 3.535h-.16v-3.269h-1.602v20.755h1.662V.72zm14.798-8.287h-2.343v-4.942h-1.662v4.942h-1.642v2.699h1.642V8.094c0 3.193 1.222 5.36 2.984 5.36.461 0 .941-.152 1.242-.38l-.34-2.851c-.3.114-.521.152-.741.152-1.021 0-1.482-.988-1.482-3.117V-4.868h2.343v-2.699z"/><use xlink:href="#M" x="151.019"/><path d="M-40.309 13.188h1.662V-7.567h-1.662v20.755zm.841-24.214c.661 0 1.202-.95 1.202-2.129 0-1.216-.541-2.167-1.202-2.167s-1.182.95-1.182 2.167c0 1.178.521 2.129 1.182 2.129z"/><use xlink:href="#O" x="118.976"/><path d="M-22.072 13.416c.701 0 1.282-1.102 1.282-2.433s-.581-2.433-1.282-2.433-1.282 1.102-1.282 2.433.581 2.433 1.282 2.433z"/></g><defs ><path id="B" d="M.48-.412C.458-.497.392-.553.273-.553s-.21.065-.21.162c0 .078.047.128.15.151l.092.021c.052.012.077.035.077.07 0 .041-.046.075-.115.075-.064 0-.104-.028-.118-.081L.047-.14c.018.097.099.151.221.151.131 0 .223-.07.223-.169 0-.077-.049-.125-.149-.148L.255-.325C.195-.339.169-.36.169-.397s.045-.072.105-.072c.067 0 .098.037.11.073L.48-.412z"/><path id="C" d="M.072 0h.105v-.336c0-.074.052-.125.113-.125s.099.04.099.098V0h.106v-.348c0-.066.04-.113.109-.113.057 0 .103.031.103.105V0h.106v-.366c0-.125-.07-.187-.168-.187-.079 0-.138.038-.164.097H.475C.451-.517.401-.553.329-.553S.203-.517.18-.456H.173v-.09H.072V0z"/><path id="D" d="M.072 0h.105v-.546H.072V0zm.053-.63c.037 0 .067-.028.067-.063S.162-.756.125-.756.058-.728.058-.693s.03.063.067.063z"/><path id="E" d="M.072 0h.105v-.333c0-.071.056-.123.131-.123.022 0 .047.004.055.006v-.101a.3.3 0 0 0-.045-.003C.254-.554.2-.518.18-.458H.174v-.088H.072V0z"/><path id="F" d="M.301.011c.154 0 .255-.113.255-.281S.455-.553.301-.553.047-.44.047-.27s.1.281.254.281zm0-.089c-.1 0-.147-.088-.147-.192s.047-.193.147-.193.147.088.147.193-.047.192-.147.192z"/><path id="G" d="M64.967 212.133c1.932 0 3.036-1.632 3.036-4.476s-1.116-4.488-3.036-4.488c-1.908 0-3.024 1.644-3.024 4.488s1.104 4.476 3.024 4.476zm0-.924c-1.284 0-2.016-1.308-2.016-3.552 0-2.256.732-3.564 2.016-3.564 1.296 0 2.028 1.308 2.028 3.564 0 2.244-.732 3.552-2.028 3.552z"/><path id="H" d="M70.564 212.085c.42 0 .768-.348.768-.768s-.348-.768-.768-.768-.768.348-.768.768.348.768.768.768z"/><path id="I" d="M146.664 212.133c1.656 0 2.88-1.224 2.88-2.892 0-1.704-1.176-2.94-2.772-2.94-.6 0-1.176.216-1.524.492h-.048l.3-2.568h3.648v-.948h-4.536l-.528 4.308.996.12c.36-.264.972-.444 1.512-.444 1.116 0 1.92.852 1.92 1.992 0 1.116-.78 1.944-1.848 1.944-.9 0-1.62-.576-1.692-1.368h-1.02c.06 1.332 1.212 2.304 2.712 2.304z"/><path id="J" d="M102.75 234.519h1.203v-5.002c0-1.073.855-1.856 2.001-1.856.333 0 .667.058.754.072V226.5c-.145 0-.464-.014-.638-.014-.957 0-1.783.536-2.073 1.319h-.087v-1.203h-1.16v7.917z"/><path id="K" d="M119.349 234.693c1.595 0 2.769-.812 3.132-2.001l-1.174-.333c-.304.826-1.015 1.247-1.957 1.247-1.435 0-2.421-.928-2.479-2.624h5.742v-.522c0-2.943-1.769-3.958-3.422-3.958-2.146 0-3.538 1.696-3.538 4.118 0 2.436 1.406 4.074 3.697 4.074zm-2.479-4.756c.087-1.247.928-2.349 2.32-2.349 1.334 0 2.073.957 2.189 2.349h-4.509z"/><path id="L" d="M-207.473 13.682c1.923 0 2.904-1.977 3.244-3.307h.12v2.813h1.642V-.459c0-6.614-2.643-7.374-4.045-7.374-1.642 0-3.525 1.102-4.386 4.866l1.602 1.102c.381-1.521 1.242-3.155 2.844-3.155 1.542 0 2.323 1.559 2.323 4.219v.114c0 1.521-.841 1.406-2.824 1.901-2.023.494-4.246 1.33-4.246 6.082 0 4.067 1.642 6.386 3.725 6.386zm.26-2.851c-1.342 0-2.303-1.14-2.303-3.345 0-2.433 1.162-3.193 2.483-3.535.701-.152 2.623-.532 2.904-1.178v2.927c0 2.585-1.081 5.132-3.084 5.132z"/><path id="M" d="M-199.373 13.188h1.662V.073c0-2.813 1.182-4.866 2.764-4.866.461 0 .921.152 1.041.19v-3.231c-.2 0-.641-.038-.881-.038-1.322 0-2.463 1.406-2.864 3.459h-.12v-3.155h-1.602v20.755z"/><path id="N" d="M-176.703 13.644c2.203 0 3.825-2.129 4.326-5.246l-1.622-.874c-.421 2.167-1.402 3.269-2.704 3.269-1.983 0-3.344-2.433-3.425-6.88h7.93V2.544c0-7.717-2.443-10.377-4.726-10.377-2.964 0-4.886 4.447-4.886 10.796 0 6.386 1.943 10.682 5.107 10.682zm-3.425-12.468c.12-3.269 1.282-6.158 3.204-6.158 1.842 0 2.864 2.509 3.024 6.158h-6.228z"/><path id="O" d="M-149.547 13.644c2.744 0 4.646-4.181 4.646-10.758 0-6.538-1.903-10.72-4.666-10.72-2.143 0-2.784 2.509-3.164 3.573h-.14v-10.225h-1.662v27.673h1.602V9.995h.2c.381 1.14 1.081 3.649 3.184 3.649zm-.22-2.851c-2.023 0-3.124-3.269-3.124-7.945s1.081-7.831 3.124-7.831c2.123 0 3.184 3.421 3.184 7.831s-1.081 7.945-3.184 7.945z"/></defs></svg>