<svg xmlns="http://www.w3.org/2000/svg" xmlns:xlink="http://www.w3.org/1999/xlink" width="100%" height="100%" viewBox="0 0 900 270" fill-rule="evenodd" stroke-miterlimit="1.5" xmlns:v="https://vecta.io/nano"><style><![CDATA[.B{fill-rule:nonzero}.C{stroke-linejoin:round}.D{stroke:#000}.E{fill:#4f4f4f}.F{fill:#5a74d1}.G{fill:#e84b6e}.H{fill:none}.I{stroke-miterlimit:10}.J{stroke-dasharray:5.76,2.88,0,0}.K{stroke-linecap:round}.L{fill-opacity:.75}.M{stroke:#dbdbdb}.N{stroke-width:1.44}.O{stroke-width:.999}.P{stroke-width:1.55}.Q{stroke-dasharray:3.88,3.88,0,0}.R{stroke-width:1.499}]]></style><g transform="translate(-1399.81 -2098.95)"><g transform="matrix(1.29985 0 0 .866192 2082.82 2116.72)" class="B"><path d="M.328.011c.174 0 .276-.087.276-.215S.499-.387.39-.414L.322-.431C.262-.446.198-.47.198-.531c0-.054.05-.094.132-.094s.13.036.137.098h.127C.591-.65.486-.737.332-.737s-.267.086-.267.214c0 .105.074.165.194.196l.082.021c.078.02.131.044.131.1 0 .063-.059.105-.145.105S.181-.139.175-.215h-.13c.006.145.113.226.283.226z" transform="matrix(11.1552 0 0 16.7399 -285.638 14.1084)"/><use xlink:href="#B" transform="matrix(11.1552 0 0 16.7399 -278.399 14.1084)"/><use xlink:href="#C" transform="matrix(11.1552 0 0 16.7399 -271.944 14.1084)"/><use xlink:href="#D" transform="matrix(11.1552 0 0 16.7399 -265.163 14.1084)"/><path d="M.308.011c.127 0 .213-.062.236-.157L.424-.16C.407-.113.365-.089.31-.089.229-.089.174-.144.17-.237h.38v-.04C.55-.468.434-.553.3-.553c-.157 0-.258.115-.258.283s.101.281.266.281zM.17-.324C.177-.396.223-.453.3-.453s.117.051.125.129H.17z" transform="matrix(11.1552 0 0 16.7399 -260.74 14.1084)"/><use xlink:href="#B" transform="matrix(11.1552 0 0 16.7399 -251.377 14.1084)"/><use xlink:href="#E" transform="matrix(11.1552 0 0 16.7399 -244.923 14.1084)"/><path d="M.066-.728h.128V0H.066z" transform="matrix(11.1552 0 0 16.7399 -238.484 14.1084)"/><use xlink:href="#F" transform="matrix(11.1552 0 0 16.7399 -235.576 14.1084)"/><path d="M.356.01c.128 0 .225-.102.225-.282S.482-.553.356-.553A.16.16 0 0 0 .2-.456H.194v-.272H.066V0h.126v-.086H.2c.02.04.062.096.156.096zM.32-.096c-.082 0-.128-.071-.128-.176S.237-.447.32-.447s.129.073.129.175-.044.176-.129.176z" transform="matrix(11.1552 0 0 16.7399 -232.667 14.1084)"/><use xlink:href="#D" transform="matrix(11.1552 0 0 16.7399 -225.717 14.1084)"/><use xlink:href="#E" transform="matrix(11.1552 0 0 16.7399 -221.294 14.1084)"/><path d="M.338-.546H.23v-.13H.102v.13H.025v.1h.077v.303c0 .094.061.15.163.15.028 0 .056-.004.084-.012L.327-.106C.315-.103.3-.101.289-.101.248-.101.23-.121.23-.164v-.282h.108v-.1z" transform="matrix(11.1552 0 0 16.7399 -214.856 14.1084)"/><use xlink:href="#F" transform="matrix(11.1552 0 0 16.7399 -210.618 14.1084)"/><use xlink:href="#C" transform="matrix(11.1552 0 0 16.7399 -207.71 14.1084)"/><path d="M.194-.319c0-.079.049-.125.116-.125s.107.044.107.117V0h.128v-.347c0-.131-.075-.206-.187-.206-.082 0-.135.039-.16.1H.192v-.093H.066V0h.128v-.319z" transform="matrix(11.1552 0 0 16.7399 -200.928 14.1084)"/></g><path d="M1971.311 2139.074c0-2.207-1.794-4-4.001-4h-253.148c-2.208 0-4 1.793-4 4v188.474c0 2.207 1.792 4 4 4h253.148c2.206 0 4.001-1.793 4.001-4v-188.474z" fill-opacity=".02"/><path d="M1972.308 2139.074v188.474a5 5 0 0 1-4.997 5h-253.148c-2.76 0-5-2.24-5-5v-188.474c0-2.759 2.24-5 5-5h253.148a5 5 0 0 1 4.997 5zm-.996 0c0-2.207-1.794-4-4.001-4h-253.148c-2.208 0-4 1.793-4 4v188.474c0 2.207 1.792 4 4 4h253.148c2.206 0 4.001-1.793 4.001-4v-188.474z" fill-opacity=".31"/><path d="M1710.171 2245.398h261.143" stroke-opacity=".31" stroke-width=".898" class="D H"/><g class="B F"><use xlink:href="#G"/><use xlink:href="#H"/><use xlink:href="#G" x="13.861"/><use xlink:href="#I"/><use xlink:href="#I" x="6.931"/><use xlink:href="#I" x="13.862"/><use xlink:href="#I" x="20.793"/><use xlink:href="#H" x="41.586"/><use xlink:href="#I" x="34.655"/><use xlink:href="#J"/><use xlink:href="#G" x="69.31"/><use xlink:href="#K"/></g><g class="E B"><use xlink:href="#G" y="11.565"/><use xlink:href="#H" y="11.566"/><use xlink:href="#I" x="-6.931" y="11.566"/><use xlink:href="#H" x="13.862" y="11.566"/><use xlink:href="#H" x="20.793" y="11.566"/><use xlink:href="#H" x="27.724" y="11.566"/><use xlink:href="#G" x="41.586" y="11.565"/><use xlink:href="#J" x="-13.861" y="11.565"/><use xlink:href="#H" x="48.517" y="11.566"/><use xlink:href="#G" x="62.379" y="11.565"/><use xlink:href="#G" x="69.31" y="11.565"/><use xlink:href="#K" y="11.566"/></g><g class="G B"><use xlink:href="#H" x="-6.931" y="23.132"/><use xlink:href="#I" x="-13.862" y="23.132"/><use xlink:href="#I" x="-6.931" y="23.132"/><use xlink:href="#J" x="-41.586" y="23.132"/><use xlink:href="#G" x="27.724" y="23.132"/><use xlink:href="#H" x="27.724" y="23.132"/><use xlink:href="#J" x="-20.792" y="23.132"/><use xlink:href="#J" x="-13.861" y="23.132"/><use xlink:href="#I" x="34.655" y="23.132"/><use xlink:href="#H" x="55.448" y="23.132"/><use xlink:href="#I" x="48.517" y="23.132"/><use xlink:href="#K" y="23.132"/></g><g class="E B"><use xlink:href="#I" x="-20.793" y="34.698"/><use xlink:href="#J" x="-55.447" y="34.697"/><use xlink:href="#H" x="6.931" y="34.698"/><use xlink:href="#H" x="13.862" y="34.698"/><use xlink:href="#H" x="20.793" y="34.698"/><use xlink:href="#H" x="27.724" y="34.698"/><use xlink:href="#H" x="34.655" y="34.698"/><use xlink:href="#J" x="-13.861" y="34.697"/><use xlink:href="#I" x="34.655" y="34.698"/><use xlink:href="#G" x="62.379" y="34.697"/><use xlink:href="#H" x="62.379" y="34.698"/><use xlink:href="#K" y="34.698"/></g><g fill="#4c628b" class="B"><path d="M1854.556 2215.92h5.328v-.936h-4.272v-3h3.936v-.936h-3.936v-2.916h4.212v-.948h-5.268v8.736z"/><use xlink:href="#L"/><use xlink:href="#M"/><use xlink:href="#N"/><use xlink:href="#O"/><use xlink:href="#N" x="7.5"/><use xlink:href="#P"/><use xlink:href="#Q"/><path d="M1903.198 2207.184h.996v8.736h-.996z"/><use xlink:href="#R"/><use xlink:href="#Q" x="19.266"/><use xlink:href="#L" x="60.867"/><use xlink:href="#M" x="60.868"/><path d="M1940.205 2207.184h.996v8.736h-.996z"/><use xlink:href="#S"/><use xlink:href="#P" x="-22.125" y="13"/><use xlink:href="#T"/><use xlink:href="#L" x="19.863" y="13"/><use xlink:href="#M" x="19.864" y="13"/><use xlink:href="#T" x="24.903"/><use xlink:href="#R" x="-3.058" y="13"/><use xlink:href="#N" x="33.293" y="13"/><use xlink:href="#U"/><use xlink:href="#N" x="40.5" y="13"/><use xlink:href="#T" x="48.387"/><use xlink:href="#V"/><path d="M1864.528 2319.68c1.752 0 3.18-1.056 3.504-2.856h-1.056c-.252 1.224-1.296 1.872-2.448 1.872-1.584 0-2.832-1.236-2.832-3.492 0-2.28 1.248-3.504 2.832-3.504 1.152 0 2.196.648 2.448 1.86h1.056c-.324-1.788-1.752-2.844-3.504-2.844-2.232 0-3.852 1.716-3.852 4.488 0 2.76 1.62 4.476 3.852 4.476z"/><use xlink:href="#Q" x="-26.814" y="103.64"/><path d="M1876.384 2310.824h.996v8.736h-.996z"/><use xlink:href="#N" x="0.438" y="103.64"/><path d="M1885.612 2319.704c1.644 0 2.784-1.32 2.784-3.396 0-2.064-1.14-3.384-2.796-3.384-1.284 0-1.668.792-1.896 1.128h-.084v-3.228h-.996v8.736h.96v-1.008h.12c.228.36.648 1.152 1.908 1.152zm-.132-.9c-1.212 0-1.872-1.032-1.872-2.508s.648-2.472 1.872-2.472c1.272 0 1.908 1.08 1.908 2.472s-.648 2.508-1.908 2.508z"/><use xlink:href="#O" x="7.739" y="103.64"/><use xlink:href="#Q" x="-2.034" y="103.64"/><use xlink:href="#U" x="-14.316" y="90.64"/><use xlink:href="#N" x="26.185" y="103.64"/><use xlink:href="#T" x="34.071" y="90.64"/><use xlink:href="#V" x="-14.316" y="90.64"/><use xlink:href="#V" x="-3.909" y="90.64"/><use xlink:href="#S" x="-10.085" y="103.64"/><use xlink:href="#U" x="24.45" y="90.64"/><use xlink:href="#W"/><path d="M1742.97 2215.92h1.104l1.92-6.948h.072l1.92 6.948h1.092l2.388-8.736h-1.08l-1.812 7.116h-.096l-1.86-7.116h-1.188l-1.86 7.116h-.084l-1.836-7.116h-1.068l2.388 8.736zm10.671-3.936c0-1.14.732-1.8 1.728-1.8.984 0 1.536.588 1.536 1.644v4.092h.996v-4.164c0-1.68-.912-2.472-2.244-2.472-1.032 0-1.62.432-1.92 1.116h-.096v-3.216h-.996v8.736h.996v-3.936z"/><use xlink:href="#T" x="-114.553" y="-13"/><path d="M1766.907 2207.184h.996v8.736h-.996z"/><use xlink:href="#S" x="-173.299"/><use xlink:href="#R" x="-129.33"/><use xlink:href="#Q" x="-110.064"/><use xlink:href="#L" x="-68.463"/><use xlink:href="#M" x="-68.462"/><path d="M1810.875 2207.184h.996v8.736h-.996z"/><use xlink:href="#S" x="-129.33"/><use xlink:href="#P" x="-145.631" y="13"/><path d="M1750.793 2220.184h.996v8.736h-.996z"/><use xlink:href="#Q" x="-142.783" y="13"/><use xlink:href="#R" x="-149.006" y="13"/><use xlink:href="#R" x="-142.736" y="13"/><use xlink:href="#N" x="-106.384" y="13"/><path d="M1778.705 2222.368h-1.476v-.66c0-.648.288-.996.948-.996.3 0 .468.072.564.108l.3-.864c-.156-.072-.468-.18-.96-.18-.936 0-1.848.576-1.848 1.692v.9h-1.056v.852h1.056v5.7h.996v-5.7h1.476v-.852z"/><use xlink:href="#N" x="-99.213" y="13"/><use xlink:href="#P" x="-106.713" y="13"/><use xlink:href="#Q" x="-106.713" y="13"/><use xlink:href="#U" x="-118.994"/><use xlink:href="#N" x="-78.494" y="13"/><use xlink:href="#T" x="-70.607"/><use xlink:href="#V" x="-118.994"/></g><path d="M1903.971 2147.949l-4.436 25.002c-.048.234.024.473.175.654s.374.286.612.286h25.584c-.421 13.66-11.719 24.602-25.584 24.602-14.128 0-25.6-11.381-25.6-25.402s11.472-25.402 25.6-25.402a25.75 25.75 0 0 1 3.649.26z" class="E"/><path d="M1925.906 2172.291h-24.193l12.092-20.791c7.29 4.48 11.838 12.288 12.1 20.791z" class="F"/><path d="M1912.414 2150.704l-10.518 18.085 3.657-20.564c2.393.496 4.707 1.331 6.861 2.479z" class="G"/><g class="D H K"><path d="M1851.236 2170.537l4.5 4.5-4.5 4.5" class="I"/><path d="M1840.443 2175.037h15.293"/></g><g stroke-width=".901" class="D L"><use xlink:href="#X" fill="#b43d6b"/><use xlink:href="#X" x="4.472" y="3.618" fill="#de5d5c"/><use xlink:href="#X" x="8.945" y="7.236" fill="#ea9570"/></g><path d="M1872.704 2288.982l.756-.742-2.436-2.436 2.436-2.422-.756-.77-2.422 2.436-2.436-2.436-.742.77 2.422 2.422-2.422 2.436.742.742 2.436-2.422 2.422 2.422z" class="B"/><path d="M1747.315 2268.118h-5.811v35.378h5.811m101.61-.002h5.811v-35.378h-5.811" stroke-width="1.005" class="D H"/><g class="B"><path d="M1749.527 2281.741l.766-2.163h3.087l.777 2.163h.956l-2.793-7.644h-.956l-2.814 7.644h.976zm1.061-2.982l1.218-3.444h.063l1.228 3.444h-2.509z"/><use xlink:href="#Y"/><use xlink:href="#Y" x="6.398"/><use xlink:href="#Z"/><use xlink:href="#a"/><use xlink:href="#Y" x="22.62"/><use xlink:href="#b"/><use xlink:href="#c"/><use xlink:href="#a" x="22.174"/><path d="M1803.139 2281.867c1.102 0 1.48-.693 1.669-1.008h.105v.882h.84v-7.644h-.871v2.824h-.073c-.189-.294-.535-.987-1.659-.987-1.439 0-2.436 1.155-2.436 2.961 0 1.816.997 2.972 2.426 2.972zm.115-.788c-1.102 0-1.659-.976-1.659-2.195s.546-2.163 1.659-2.163c1.082 0 1.638.871 1.638 2.163s-.578 2.195-1.638 2.195z"/><use xlink:href="#d"/><use xlink:href="#e"/><use xlink:href="#f"/><use xlink:href="#Z" x="58.985"/><use xlink:href="#a" x="58.986"/><use xlink:href="#d" x="27.471"/><path d="M1751.627 2297.613c1.764 0 2.762-.977 2.762-2.205 0-1.439-1.365-1.88-2.152-2.1l-.767-.22c-.567-.157-1.48-.441-1.48-1.26 0-.735.672-1.271 1.68-1.271.934 0 1.627.441 1.711 1.186h.903c-.042-1.144-1.102-2.005-2.583-2.005-1.459 0-2.604.851-2.604 2.131 0 1.029.745 1.648 1.942 1.985l.935.273c.798.231 1.523.504 1.523 1.26 0 .84-.809 1.396-1.869 1.396-.913 0-1.711-.409-1.795-1.27h-.945c.084 1.249 1.102 2.1 2.74 2.1z"/><use xlink:href="#b" x="-29.419" y="15.735"/><use xlink:href="#g"/><use xlink:href="#h"/><path d="M1777.243 2289.832h.871v7.644h-.871z"/><use xlink:href="#a" x="7.014" y="15.735"/><use xlink:href="#e" x="-27.034" y="15.735"/><use xlink:href="#f" x="-27.034" y="15.735"/><use xlink:href="#g" x="39.221"/><use xlink:href="#h" x="39.221"/><use xlink:href="#f" x="-5.245" y="15.735"/><use xlink:href="#d" x="12.402" y="15.735"/><use xlink:href="#i"/><use xlink:href="#c" x="39.569" y="15.735"/><use xlink:href="#i" x="6.306"/><use xlink:href="#f" x="15.304" y="15.735"/><path d="M1844.15 2294.032c0-.997.63-1.575 1.47-1.575.819 0 1.323.546 1.323 1.438v3.581h.871v-3.644c0-1.459-.787-2.163-1.942-2.163-.861 0-1.407.389-1.669.977h-.084v-.903h-.84v5.733h.871v-3.444z"/></g><path d="M1456.516 2135.031h196.975v171.746h-196.975z" fill="#fff"/><path d="M1654.491 2307.777h-198.975v-173.746h198.975v173.746zm-1-172.746h-196.975v171.746h196.975v-171.746z"/><path d="M2077.477 2135.031h196.975v171.746h-196.975z" fill="#fff"/><path d="M2275.452 2307.777h-198.975v-173.746h198.975v173.746zm-1.001-172.746h-196.974v171.746h196.974v-171.746z"/><g class="H I C"><g class="M J"><g class="N"><path d="M213.066 151.836h266.327" transform="matrix(0 -.644867 -.739596 0 2198.73 2444.18)"/><path d="M261.489 151.836h266.328" transform="matrix(0 -.644867 -.739596 0 2234.55 2475.41)"/><path d="M309.912 151.836H576.24" transform="matrix(0 -.644867 -.739596 0 2270.36 2506.63)"/><path d="M358.335 151.836h266.328" transform="matrix(0 -.644867 -.739596 0 2306.17 2537.86)"/><path d="M406.759 151.836h266.327" transform="matrix(0 -.644867 -.739596 0 2341.99 2569.09)"/><path d="M455.182 151.836H721.51" transform="matrix(0 -.644867 -.739596 0 2377.8 2600.31)"/></g><path d="M2077.477 2298.978h196.974m-196.974-31.234h196.974m-196.974-31.223h196.974m-196.974-31.223h196.974m-196.974-31.234h196.974m-196.974-31.224h196.974" class="O"/></g><path d="M296.086 151.836H638.49" transform="matrix(.522974 -.45599 -.522974 -.45599 2011 2503.22)" class="D P Q"/><g class="K R"><path d="M2087.39 2298.335l14.701-12.127 11.822-11.678 11.332-2.523 11.385-8.902 11.26-8.623 11.092-11.915 11.535-16.666 11.107-2.458 11.209-17.769 11.382-1.918 10.766-14.172 11.633-9.208 10.504-16.914 12.45-2.997 15.031-16.399" stroke="#5a74d1"/><path d="M2087.901 2297.934l14.182-10.881 11.819-10.197 11.357-6.698 11.21-7.165 11.443-12.078 11.098-9.429 11.129-11.309 11.163-9.268 11.668-8.195 10.821-2.314 11.544-10.447 10.905-14.281 11.547-4.402 11.749-17.016 14.455-18.635" stroke="#e84b6e"/><path d="M2087.883 2297.964l14.997-10.314 11.993-11.454 10.856-7.759 11.27-11.916 11.287-12.214 11.344-6.266 11.087-12.626 11.31-15.274 11.378-9.26 11.118-12.89 11.181-12.24 11.365-8.518 11.322-10.052 11.621-5.786 14.041-7.544" stroke="#4f4f4f"/></g></g><g class="B"><use xlink:href="#j"/><use xlink:href="#k"/><use xlink:href="#l"/><use xlink:href="#m"/><path d="M2109.091 2123.657h4.756v1.522h-4.756z"/><use xlink:href="#n"/><use xlink:href="#o"/><path d="M2132.552 2118.248h1.856v10.556h-1.856z"/><use xlink:href="#p"/><use xlink:href="#q"/><use xlink:href="#r"/><use xlink:href="#o" x="30.712"/><use xlink:href="#m" x="59.725"/><use xlink:href="#p" x="32.44"/><use xlink:href="#k" x="85.786"/><use xlink:href="#s"/><use xlink:href="#l" x="98.254"/><use xlink:href="#n" x="85.998"/><use xlink:href="#k" x="123.416"/><use xlink:href="#r" x="69.849"/><use xlink:href="#t"/><use xlink:href="#l" x="137.732"/><use xlink:href="#u"/><use xlink:href="#v"/><use xlink:href="#w"/><use xlink:href="#x"/><g class="E"><use xlink:href="#y"/><use xlink:href="#z"/><use xlink:href="#y" x="9.689"/><use xlink:href="#AA"/><path d="M2113.097 2165.807h.976l3.402-6.772v-.871h-4.903v.829h3.937v.052l-3.412 6.762zm8.771.105c1.554 0 2.551-1.144 2.551-2.562 0-1.48-1.092-2.541-2.394-2.541-.787 0-1.459.388-1.879 1.018h-.063c0-1.869.724-2.94 1.911-2.94.808 0 1.291.504 1.47 1.186h.903c-.189-1.176-1.092-2.005-2.373-2.005-1.722 0-2.782 1.522-2.782 4.221 0 2.824 1.407 3.622 2.656 3.622zm0-.819c-.955 0-1.648-.819-1.648-1.732s.735-1.722 1.68-1.722 1.627.756 1.627 1.711c0 .966-.714 1.743-1.659 1.743z"/></g><g class="G"><use xlink:href="#y" y="13"/><use xlink:href="#z" y="13"/><use xlink:href="#y" x="9.689" y="13"/><use xlink:href="#AB"/><use xlink:href="#y" x="23.285" y="13"/><use xlink:href="#AC"/></g><g class="F"><use xlink:href="#y" y="26"/><use xlink:href="#z" y="26"/><use xlink:href="#y" x="9.689" y="26"/><use xlink:href="#AA" y="26"/><use xlink:href="#AD"/><use xlink:href="#AE"/></g><use xlink:href="#AF"/><use xlink:href="#W" x="141.359" y="2.127"/><use xlink:href="#AF" x="10.21"/><use xlink:href="#AF" x="35.755"/><use xlink:href="#W" x="177.115" y="2.127"/><use xlink:href="#AG"/><use xlink:href="#AF" x="71.352"/><use xlink:href="#W" x="212.713" y="2.127"/><use xlink:href="#AH"/><use xlink:href="#AF" x="107.498"/><use xlink:href="#W" x="248.859" y="2.127"/><use xlink:href="#AI"/><use xlink:href="#AF" x="143.304"/><use xlink:href="#W" x="284.664" y="2.127"/><use xlink:href="#AJ"/><use xlink:href="#AK"/><use xlink:href="#W" x="319.266" y="2.127"/><use xlink:href="#AF" x="188.117"/><use xlink:href="#AF" x="-23.209" y="-20.264"/><use xlink:href="#W" x="118.151" y="-18.137"/><use xlink:href="#AF" x="-12.999" y="-20.264"/><use xlink:href="#AF" x="-23.324" y="-51.491"/><use xlink:href="#W" x="118.036" y="-49.364"/><use xlink:href="#AG" x="-59.079" y="-51.491"/><use xlink:href="#AF" x="-23.757" y="-82.717"/><use xlink:href="#W" x="117.602" y="-80.59"/><use xlink:href="#AH" x="-95.11" y="-82.717"/><use xlink:href="#AF" x="-23.092" y="-113.944"/><use xlink:href="#W" x="118.268" y="-111.817"/><use xlink:href="#AI" x="-130.591" y="-113.944"/><use xlink:href="#AF" x="-23.109" y="-145.171"/><use xlink:href="#W" x="118.251" y="-143.044"/><use xlink:href="#AJ" x="-166.413" y="-145.171"/><use xlink:href="#AK" x="-201.115" y="-176.397"/><use xlink:href="#W" x="118.151" y="-174.27"/><use xlink:href="#AF" x="-12.999" y="-176.397"/></g><g transform="matrix(0 -.703769 .80715 0 1811.87 2331.3)" class="B"><path d="M48.285 271.263h4.718v11.659h1.813v-11.659h4.718v-1.419H48.285v1.419z"/><use xlink:href="#AL"/><use xlink:href="#AM"/><use xlink:href="#AN"/><use xlink:href="#AO" class="E"/><use xlink:href="#AP" fill="#212121"/><use xlink:href="#AQ" class="G"/><use xlink:href="#AP" x="21.45"/><use xlink:href="#AR" class="F"/><use xlink:href="#AS"/><use xlink:href="#AL" x="115.471"/><use xlink:href="#AT"/><use xlink:href="#AU"/><use xlink:href="#AV"/><use xlink:href="#AU" x="24.162"/><use xlink:href="#AW"/><path d="M237.798 269.844h1.71v13.078h-1.71z"/><use xlink:href="#AW" x="10.592"/><use xlink:href="#AX"/><use xlink:href="#AY"/></g><path d="M-92.994 151.836h266.328" transform="matrix(0 -.644867 -.739596 0 1577.77 2246.81)" class="C H I J M N"/><g class="B"><use xlink:href="#AF" x="-644.169" y="-20.264"/><use xlink:href="#W" x="-502.809" y="-18.137"/><use xlink:href="#AF" x="-633.959" y="-20.264"/><use xlink:href="#AF" x="-644.284" y="-51.491"/><use xlink:href="#W" x="-502.924" y="-49.364"/><use xlink:href="#AG" x="-680.039" y="-51.491"/><use xlink:href="#AF" x="-644.717" y="-82.717"/><use xlink:href="#W" x="-503.358" y="-80.59"/><use xlink:href="#AH" x="-716.07" y="-82.717"/><use xlink:href="#AF" x="-644.052" y="-113.944"/><use xlink:href="#W" x="-502.692" y="-111.817"/><use xlink:href="#AI" x="-751.551" y="-113.944"/><use xlink:href="#AF" x="-644.069" y="-145.171"/><use xlink:href="#W" x="-502.709" y="-143.044"/><use xlink:href="#AJ" x="-787.373" y="-145.171"/><use xlink:href="#AK" x="-822.075" y="-176.397"/><use xlink:href="#W" x="-502.809" y="-174.27"/><use xlink:href="#AF" x="-633.959" y="-176.397"/></g><g transform="matrix(0 -.703769 .80715 0 1190.91 2331.3)" class="B"><path d="M48.285 271.263h4.718v11.659h1.813v-11.659h4.718v-1.419H48.285v1.419z"/><use xlink:href="#AL"/><use xlink:href="#AM"/><use xlink:href="#AN"/><use xlink:href="#AO" class="E"/><use xlink:href="#AP" fill="#212121"/><use xlink:href="#AQ" class="G"/><use xlink:href="#AP" x="21.45"/><use xlink:href="#AR" class="F"/><use xlink:href="#AS"/><use xlink:href="#AL" x="115.471"/><use xlink:href="#AT"/><use xlink:href="#AU"/><use xlink:href="#AV"/><use xlink:href="#AU" x="24.162"/><use xlink:href="#AW"/><path d="M237.798 269.844h1.71v13.078h-1.71z"/><use xlink:href="#AW" x="10.592"/><use xlink:href="#AX"/><use xlink:href="#AY"/></g><g class="H I C"><g class="M J"><g class="N"><path d="M-44.571 151.836h266.328" transform="matrix(0 -.644867 -.739596 0 1613.58 2278.04)"/><path d="M3.852 151.836H270.18" transform="matrix(0 -.644867 -.739596 0 1649.4 2309.26)"/><path d="M52.276 151.836h266.327" transform="matrix(0 -.644867 -.739596 0 1685.21 2340.49)"/><path d="M100.699 151.836h266.328" transform="matrix(0 -.644867 -.739596 0 1721.02 2371.72)"/><path d="M149.122 151.836H415.45" transform="matrix(0 -.644867 -.739596 0 1756.84 2402.94)"/></g><path d="M1456.516 2298.978h196.975m-196.975-31.234h196.975m-196.975-31.223h196.975m-196.975-31.223h196.975m-196.975-31.234h196.975m-196.975-31.224h196.975" class="O"/></g><path d="M-9.974 151.836H332.43" transform="matrix(.522974 -.45599 -.522974 -.45599 1550.09 2363.66)" class="D P Q"/><g class="K R"><path d="M1469.179 2298.919l12.445-.592 10.971-2.436 11.326-4.503 11.379-4.511 11.482-8.996 11.32-10.79 11.089-8.21 11.476-18.977 11.285-7.998 11.065-27.375 11.076-22.715 11.428-12.582 11.478-14.348 11.856-7.796 10.587-3.967" stroke="#5a74d1"/><path d="M1470.726 2298.811l11.44-.707 11.069-1.514 11.418-2.454 11.577-4.924 11.375-6.922 11.604-4.437 11.432-14.248 11.261-9.884 11.595-22.185 11.473-7.484 11.316-26.814 11.377-15.895 11.546-19.307 10.963-12.125 14.374-5.964" stroke="#e84b6e"/><path d="M1470.183 2298.339l13.985-17.746 11.007-34.342 11.541-30.622 11.299-25.877 11.39-12.791 11.113-12.599 11.184-5.884 11.265-4.129 11.076-1.84 11.357-3.592 11.226-1.961 11.157-2.142 11.01-.314 11.99-.607 9.037-.424" stroke="#4f4f4f"/></g></g><g class="B"><use xlink:href="#j" x="-620.96"/><use xlink:href="#r" x="-683.341"/><use xlink:href="#t" x="-753.19"/><path d="M1480.166 2123.657h4.756v1.522h-4.756z"/><use xlink:href="#n" x="-628.925"/><use xlink:href="#o" x="-628.925"/><path d="M1503.628 2118.248h1.856v10.556h-1.856z"/><use xlink:href="#p" x="-628.925"/><use xlink:href="#q" x="-628.925"/><use xlink:href="#r" x="-628.925"/><use xlink:href="#o" x="-598.213"/><use xlink:href="#m" x="-569.2"/><use xlink:href="#p" x="-596.485"/><use xlink:href="#k" x="-543.139"/><use xlink:href="#s" x="-628.925"/><use xlink:href="#l" x="-530.671"/><use xlink:href="#n" x="-542.926"/><use xlink:href="#k" x="-505.509"/><use xlink:href="#r" x="-559.075"/><use xlink:href="#t" x="-628.924"/><use xlink:href="#l" x="-491.194"/><use xlink:href="#u" x="-620.78"/><use xlink:href="#v" x="-620.78"/><use xlink:href="#w" x="-620.78"/><use xlink:href="#x" x="-620.78"/><g class="E"><use xlink:href="#y" x="-620.78"/><use xlink:href="#z" x="-620.78"/><use xlink:href="#AA" x="-627.579"/><use xlink:href="#AD" x="-627.577" y="-26"/><use xlink:href="#AD" x="-620.78" y="-26"/><use xlink:href="#y" x="-590.698"/></g><g class="G"><use xlink:href="#y" x="-620.78" y="13"/><use xlink:href="#z" x="-620.78" y="13"/><use xlink:href="#AE" x="-641.174" y="-13"/><use xlink:href="#AZ"/><use xlink:href="#AD" x="-620.78" y="-13"/><use xlink:href="#AZ" x="13.595"/></g><g class="F"><use xlink:href="#y" x="-620.78" y="26"/><use xlink:href="#z" x="-620.78" y="26"/><use xlink:href="#AE" x="-641.174"/><use xlink:href="#AE" x="-634.375"/><use xlink:href="#AB" x="-613.983" y="13"/><use xlink:href="#AC" x="-620.78" y="13"/></g><use xlink:href="#w" x="-509.969" y="91.55"/><use xlink:href="#Aa"/><use xlink:href="#Ab"/><use xlink:href="#Ac"/><path d="M1621.345 2244.357h1.344v-3.36c0-.735.556-1.239 1.291-1.239.231 0 .514.031.63.063v-1.239a3.5 3.5 0 0 0-.483-.031 1.43 1.43 0 0 0-1.417 1.039h-.063v-.966h-1.302v5.733z"/><use xlink:href="#Ac" x="7.011"/><use xlink:href="#Ad"/><path d="M1636.08 2244.473c.903 0 1.438-.42 1.68-.903h.063v.787h1.281v-3.832c0-1.512-1.249-1.974-2.341-1.974-1.165 0-2.1.504-2.436 1.501l1.249.252c.136-.378.535-.714 1.197-.714.64 0 .987.325.987.871v.031c0 .388-.409.409-1.417.514-1.113.115-2.184.451-2.184 1.743 0 1.123.829 1.722 1.921 1.722zm.346-.987c-.556 0-.955-.262-.955-.756 0-.525.451-.735 1.05-.819.346-.052 1.071-.147 1.249-.283v.672c0 .64-.525 1.186-1.344 1.186zm4.065-6.773h1.344v7.644h-1.344z"/><use xlink:href="#Ad" x="-51.524" y="12.999"/><use xlink:href="#Ae"/><use xlink:href="#Aa" x="-13.333" y="13"/><use xlink:href="#Ab" x="-13.334" y="13"/><use xlink:href="#Ae" x="22.368"/><path d="M1616.183 2253.146c-.189-.976-.955-1.596-2.299-1.596-1.386 0-2.32.682-2.32 1.743 0 .829.514 1.375 1.606 1.617l.987.199c.525.115.766.325.766.661 0 .378-.43.682-1.071.682-.609 0-1.018-.262-1.134-.787l-1.312.126c.168 1.05 1.05 1.68 2.457 1.68 1.428 0 2.446-.745 2.446-1.837 0-.808-.535-1.312-1.617-1.543l-.976-.21c-.577-.126-.798-.336-.798-.672 0-.378.42-.651.976-.651.63 0 .955.346 1.06.714l1.228-.126z"/><use xlink:href="#Ac" x="-1.188" y="13"/><path d="M1623.013 2251.624h-1.134v-1.365h-1.344v1.365h-.808v1.05h.808v3.181c0 .987.64 1.575 1.711 1.575.294 0 .588-.042.882-.126l-.231-1.06c-.126.031-.283.052-.399.052-.43 0-.619-.21-.619-.661v-2.961h1.134v-1.05z"/><use xlink:href="#Ac" x="5.725" y="13"/><use xlink:href="#Ae" x="44.164"/><path d="M1634.796 2254.007c0-.829.514-1.312 1.218-1.312.693 0 1.123.462 1.123 1.228v3.433h1.344v-3.643c0-1.375-.787-2.163-1.963-2.163-.861 0-1.417.409-1.68 1.05h-.063v-.976h-1.323v5.733h1.344v-3.349zm6.062 3.434c.462 0 .819-.357.819-.819s-.357-.819-.819-.819-.829.357-.829.819.367.819.829.819zm0-3.895c.462 0 .819-.357.819-.808 0-.462-.357-.829-.819-.829s-.829.367-.829.829c0 .451.367.808.829.808zm-58.193 16.916c1.533 0 2.782-.924 3.066-2.499h-.924c-.22 1.071-1.134 1.638-2.142 1.638-1.386 0-2.478-1.081-2.478-3.055 0-1.995 1.092-3.066 2.478-3.066 1.008 0 1.921.567 2.142 1.627h.924c-.283-1.564-1.533-2.488-3.066-2.488-1.953 0-3.37 1.501-3.37 3.927 0 2.415 1.417 3.916 3.37 3.916zm5.318-3.549c0-.997.64-1.575 1.512-1.575.861 0 1.344.514 1.344 1.438v3.58h.871v-3.643c0-1.47-.798-2.163-1.963-2.163-.903 0-1.417.378-1.68.976h-.084v-2.814h-.871v7.644h.871v-3.444z"/><use xlink:href="#Af"/><path d="M1599.352 2270.483c1.554 0 2.604-1.186 2.604-2.961 0-1.785-1.05-2.971-2.604-2.971s-2.593 1.186-2.593 2.971c0 1.774 1.039 2.961 2.593 2.961zm0-.787c-1.176 0-1.711-1.029-1.711-2.173s.535-2.184 1.711-2.184c1.186 0 1.722 1.039 1.722 2.184s-.535 2.173-1.722 2.173z"/><use xlink:href="#Ag"/><use xlink:href="#z" x="-483.559" y="104.55"/><use xlink:href="#Ah"/><path d="M1621.572 2270.357h.966l3.412-6.772v-.871h-4.903v.829h3.937v.052l-3.412 6.762zm5.664 0h4.819v-.819h-3.549v-.063l1.711-1.837c1.312-1.407 1.701-2.058 1.701-2.898 0-1.186-.955-2.121-2.289-2.121-1.344 0-2.362.913-2.362 2.257h.882c0-.871.556-1.449 1.449-1.449.819 0 1.449.504 1.449 1.312 0 .703-.409 1.218-1.291 2.184l-2.52 2.772v.661z"/><use xlink:href="#Ai"/><path d="M1580.763 2283.357h.924v-2.793h1.669c1.774 0 2.583-1.081 2.583-2.425s-.808-2.425-2.593-2.425h-2.583v7.644zm.924-3.612v-3.202h1.627c1.239 0 1.711.682 1.711 1.596s-.472 1.606-1.701 1.606h-1.638zm5.625-4.032h.871v7.644h-.871zm4.172 7.78c1.008 0 1.522-.546 1.701-.913h.063v.777h.861v-3.769c0-1.827-1.386-2.037-2.121-2.037-.861 0-1.848.304-2.299 1.344l.84.304c.199-.42.651-.871 1.491-.871.808 0 1.218.43 1.218 1.165v.031c0 .42-.441.388-1.48.525-1.06.136-2.226.367-2.226 1.68 0 1.123.861 1.764 1.953 1.764zm.136-.787c-.703 0-1.207-.315-1.207-.924 0-.672.609-.882 1.302-.976.367-.042 1.375-.147 1.522-.325v.808c0 .714-.567 1.417-1.617 1.417z"/><use xlink:href="#Aj"/><use xlink:href="#Ag" x="-2.081" y="13"/><use xlink:href="#Ak"/><path d="M1614.995 2283.483c1.102 0 1.48-.693 1.669-1.008h.105v.882h.84v-7.644h-.871v2.824h-.073c-.189-.294-.535-.987-1.659-.987-1.438 0-2.436 1.155-2.436 2.961 0 1.816.997 2.971 2.425 2.971zm.115-.787c-1.102 0-1.659-.976-1.659-2.194s.546-2.163 1.659-2.163c1.081 0 1.638.871 1.638 2.163s-.577 2.194-1.638 2.194z"/><use xlink:href="#Ah" x="3.814" y="13"/><use xlink:href="#Al"/><use xlink:href="#Al" x="4.224"/><use xlink:href="#Ai" y="13"/><path d="M1592.9 2288.713h-.976l2.814 7.644h.955l2.793-7.644h-.955l-2.268 6.436h-.094l-2.268-6.436z"/><use xlink:href="#Ak" x="-10.786" y="13"/><use xlink:href="#Af" x="8.731" y="26"/><path d="M1609.575 2294.015c0 1.071-.829 1.564-1.48 1.564-.735 0-1.26-.535-1.26-1.365v-3.591h-.871v3.643c0 1.459.766 2.163 1.848 2.163.861 0 1.428-.462 1.701-1.05h.063v.976h.871v-5.733h-.871v3.391z"/><use xlink:href="#Aj" x="16.333" y="13"/><use xlink:href="#Ah" x="2.133" y="26"/><use xlink:href="#Al" x="-1.681" y="13"/><path d="M1627.929 2296.357h.966l3.412-6.772v-.871h-4.903v.829h3.937v.052l-3.412 6.762z"/><use xlink:href="#Ai" y="26"/><use xlink:href="#AF" x="-620.961"/><use xlink:href="#W" x="-479.601" y="2.127"/><use xlink:href="#AF" x="-610.751"/><use xlink:href="#AF" x="-585.205"/><use xlink:href="#W" x="-443.845" y="2.127"/><use xlink:href="#AG" x="-620.961"/><use xlink:href="#AF" x="-549.609"/><use xlink:href="#W" x="-408.248" y="2.127"/><use xlink:href="#AH" x="-620.961"/><use xlink:href="#AF" x="-513.462"/><use xlink:href="#W" x="-372.102" y="2.127"/><use xlink:href="#AI" x="-620.96"/><use xlink:href="#AF" x="-477.656"/><use xlink:href="#W" x="-336.297" y="2.127"/><use xlink:href="#AJ" x="-620.961"/><use xlink:href="#AK" x="-620.961"/><use xlink:href="#W" x="-301.695" y="2.127"/><use xlink:href="#AF" x="-432.844"/><g class="E"><use xlink:href="#Am"/><use xlink:href="#An"/><use xlink:href="#Ao"/><use xlink:href="#Ap"/><use xlink:href="#Aq"/><use xlink:href="#Ap" x="21.267"/><use xlink:href="#Ar"/><use xlink:href="#Ap" x="37.493"/><use xlink:href="#Aq" x="37.493"/><use xlink:href="#As"/></g><use xlink:href="#At"/><g class="G"><use xlink:href="#Au"/><path d="M1546.689 2336.636h1.203v10.556h-1.203z"/><use xlink:href="#Av"/><use xlink:href="#Ar" x="64.315"/><use xlink:href="#Aq" x="93.157"/><use xlink:href="#Aw"/><use xlink:href="#Ax"/></g><use xlink:href="#At" x="59.516"/><g class="F"><use xlink:href="#Ay"/><use xlink:href="#Aw" x="26.949"/><use xlink:href="#Ao" x="149.933"/><use xlink:href="#Az"/><use xlink:href="#Ar" x="128.714"/></g><use xlink:href="#Ar" x="140.367"/><use xlink:href="#BA"/><use xlink:href="#Ap" x="186.002"/><use xlink:href="#Ao" x="199.771"/><use xlink:href="#As" x="141.011"/><g class="E"><use xlink:href="#Am" x="620.96"/><use xlink:href="#An" x="620.96"/><use xlink:href="#Ao" x="620.96"/><use xlink:href="#Ap" x="620.96"/><use xlink:href="#Aq" x="620.96"/><use xlink:href="#Ap" x="642.227"/><use xlink:href="#Ar" x="620.96"/><use xlink:href="#Ap" x="658.453"/><use xlink:href="#Aq" x="658.453"/><use xlink:href="#As" x="620.96"/></g><use xlink:href="#At" x="620.96"/><g class="G"><use xlink:href="#Au" x="620.96"/><path d="M2167.649 2336.636h1.203v10.556h-1.203z"/><use xlink:href="#Av" x="620.96"/><use xlink:href="#Ar" x="685.275"/><use xlink:href="#Aq" x="714.117"/><use xlink:href="#Aw" x="620.96"/><use xlink:href="#Ax" x="620.96"/></g><use xlink:href="#At" x="680.476"/><g class="F"><use xlink:href="#Ay" x="620.96"/><use xlink:href="#Aw" x="647.909"/><use xlink:href="#Ao" x="770.893"/><use xlink:href="#Az" x="620.96"/><use xlink:href="#Ar" x="749.674"/></g><use xlink:href="#Ar" x="761.327"/><use xlink:href="#BA" x="620.96"/><use xlink:href="#Ap" x="806.962"/><use xlink:href="#Ao" x="820.731"/><use xlink:href="#As" x="761.971"/></g><g class="H"><g stroke="#4d4d4d" stroke-width="1.3"><path d="M1847.074 2249.141l-6.337 6.337-6.338-6.337" class="I"/><path d="M1840.737 2234.398v21.08"/></g><g stroke-width="1.5" class="D K"><path d="M1688.508 2228.144l5.175 5.175-5.175 5.175" class="I"/><path d="M1669.743 2233.319h23.94"/><path d="M2006.267 2228.144l5.175 5.175-5.175 5.175" class="I"/><path d="M1987.503 2233.319h23.939"/></g></g></g><defs ><path id="B" d="M.304.011c.137 0 .224-.081.234-.198H.415c-.011.059-.053.094-.11.094-.08 0-.132-.068-.132-.179s.053-.177.132-.177c.062 0 .1.04.11.093h.123C.529-.475.437-.553.303-.553c-.16 0-.261.116-.261.282s.099.282.262.282z"/><path id="C" d="M.304.011c.159 0 .261-.113.261-.282S.463-.553.304-.553.042-.44.042-.271.144.011.304.011zm0-.104c-.088 0-.131-.078-.131-.178s.043-.178.131-.178.131.078.131.178-.043.178-.131.178z"/><path id="D" d="M.066 0h.128v-.32c0-.07.053-.118.123-.118.022 0 .049.003.06.006V-.55C.365-.552.345-.553.331-.553c-.062 0-.115.035-.135.099H.19v-.092H.066V0z"/><path id="E" d="M.223.011c.086 0 .137-.04.16-.086h.006V0h.122v-.365c0-.144-.119-.188-.223-.188-.111 0-.2.048-.232.143l.119.024c.013-.036.051-.068.114-.068s.094.031.094.083v.003c0 .037-.039.039-.135.049C.142-.308.04-.276.04-.153c0 .107.079.164.183.164zm.033-.094c-.053 0-.091-.025-.091-.072s.043-.07.1-.078C.298-.238.367-.247.384-.26v.064c0 .061-.05.113-.128.113z"/><path id="F" d="M.066 0h.128v-.546H.066V0zM.13-.623c.041 0 .075-.031.075-.069S.171-.763.13-.763.056-.731.056-.692s.033.069.074.069z"/><path id="G" d="M1744.639 2160.511l-.011-2.856h-2.562v.956h1.354v1.491c-.063.073-.136.137-.22.189a1.55 1.55 0 0 1-.304.126 1.35 1.35 0 0 1-.357.073 2.17 2.17 0 0 1-.368.032c-.199-.011-.378-.042-.535-.105a1.24 1.24 0 0 1-.42-.284 1.28 1.28 0 0 1-.252-.315c-.063-.116-.126-.242-.178-.378-.063-.189-.116-.378-.147-.599-.031-.21-.042-.43-.042-.672v-.956c0-.21.011-.399.032-.599.021-.189.063-.367.115-.535.053-.189.126-.367.221-.514.094-.158.199-.294.315-.399.115-.084.231-.158.367-.21.126-.063.273-.084.431-.084.22 0 .409.032.567.095a1.06 1.06 0 0 1 .399.262 1.1 1.1 0 0 1 .242.399 2.66 2.66 0 0 1 .147.535h1.207c-.032-.357-.116-.672-.242-.966a2.27 2.27 0 0 0-.514-.724c-.22-.2-.483-.347-.787-.462a3.18 3.18 0 0 0-1.04-.157c-.294 0-.567.042-.808.126a2.61 2.61 0 0 0-.683.347c-.189.147-.357.315-.504.514-.147.189-.273.41-.378.64a4.67 4.67 0 0 0-.252.819 5.21 5.21 0 0 0-.084.924v.945a4.68 4.68 0 0 0 .094.956 3.75 3.75 0 0 0 .273.819c.105.242.242.462.399.651a2.43 2.43 0 0 0 .535.504 2.53 2.53 0 0 0 .683.315c.252.073.514.115.808.115a3.89 3.89 0 0 0 .871-.095 4 4 0 0 0 .756-.262c.189-.095.357-.2.504-.305a2.39 2.39 0 0 0 .368-.357z"/><path id="H" d="M1750.194 2159.702l.504 1.722h1.271l-2.384-7.465h-1.092l-2.436 7.465h1.281l.514-1.722h2.341zm-2.026-1.05l.871-2.95.851 2.95h-1.722z"/><path id="I" d="M1765.726 2154.977v-1.018h-5.817v1.018h2.289v6.447h1.228v-6.447h2.3z"/><path id="J" d="M1807.059 2159.125h-1.239c-.021.231-.063.43-.137.599-.063.178-.158.325-.273.441s-.252.21-.42.273c-.158.063-.347.095-.557.095a1.31 1.31 0 0 1-.472-.084.91.91 0 0 1-.368-.21c-.105-.095-.189-.2-.263-.326a1.85 1.85 0 0 1-.189-.409 3.14 3.14 0 0 1-.137-.599 4.97 4.97 0 0 1-.042-.704v-1.029a5.37 5.37 0 0 1 .032-.588c.021-.2.063-.378.105-.546.053-.199.126-.378.221-.535s.199-.284.336-.389c.105-.073.22-.137.346-.189.126-.042.273-.063.43-.063.231 0 .431.032.588.105.168.063.304.157.42.284.105.126.199.284.263.462a2.51 2.51 0 0 1 .126.599h1.228c-.042-.368-.126-.714-.252-1.008-.126-.304-.304-.567-.525-.787a2.33 2.33 0 0 0-.788-.494c-.315-.115-.661-.168-1.061-.168-.284 0-.556.042-.798.115-.241.084-.472.189-.672.325-.21.157-.399.347-.556.557-.168.22-.294.462-.399.724a4.33 4.33 0 0 0-.221.767 5.55 5.55 0 0 0-.073.84v1.019a4.83 4.83 0 0 0 .084.882 3.03 3.03 0 0 0 .22.777c.095.242.221.462.368.672.147.199.315.378.504.514.2.158.431.273.693.357s.536.126.851.126a2.94 2.94 0 0 0 1.029-.168 2.38 2.38 0 0 0 .798-.494c.221-.21.399-.462.536-.756s.22-.619.262-.987z"/><path id="K" d="M1815.987 2160.689c0 .242.073.441.231.599.158.168.378.242.651.242.284 0 .504-.073.661-.242.158-.157.231-.357.231-.599s-.073-.441-.231-.609c-.158-.157-.378-.242-.661-.242s-.504.084-.651.252a.84.84 0 0 0-.231.599zm2.016 0c0 .242.073.441.231.599.158.168.378.242.651.242.284 0 .493-.073.661-.242.158-.157.231-.357.231-.599s-.073-.441-.231-.609c-.158-.157-.378-.242-.661-.242s-.504.084-.651.252a.84.84 0 0 0-.231.599zm1.985 0c0 .242.073.441.231.599.158.168.378.242.651.242.284 0 .494-.073.662-.242.158-.157.231-.357.231-.599s-.073-.441-.231-.609c-.158-.157-.378-.242-.662-.242s-.504.084-.651.252a.84.84 0 0 0-.231.599z"/><path id="L" d="M1861.596 2215.92h.996v-4.092c0-.96.708-1.644 1.488-1.644.768 0 1.296.504 1.296 1.248v4.488h1.032v-4.26c0-.84.516-1.476 1.44-1.476.72 0 1.332.384 1.332 1.356v4.38h1.008v-4.38c0-1.536-.828-2.256-2.004-2.256-.936 0-1.62.432-1.956 1.116h-.072c-.324-.708-.888-1.116-1.74-1.116-.864 0-1.5.408-1.764 1.116h-.096v-1.032h-.96v6.552z"/><path id="M" d="M1872.037 2218.368h.996v-3.456h.084c.228.36.648 1.152 1.908 1.152 1.644 0 2.784-1.32 2.784-3.396 0-2.064-1.14-3.384-2.796-3.384-1.284 0-1.668.792-1.896 1.128h-.12v-1.044h-.96v9zm2.856-3.204c-1.212 0-1.872-1.032-1.872-2.508s.648-2.472 1.872-2.472c1.272 0 1.908 1.08 1.908 2.472s-.648 2.508-1.908 2.508z"/><path id="N" d="M1879.338 2215.92h.996v-6.552h-.996v6.552zm.504-7.644c.396 0 .72-.3.72-.672 0-.384-.324-.684-.72-.684s-.708.3-.708.684c0 .372.312.672.708.672z"/><path id="O" d="M1882.186 2215.92h.996v-4.14c0-.888.708-1.536 1.656-1.536.276 0 .552.048.624.06v-1.02c-.12 0-.384-.012-.528-.012-.792 0-1.476.444-1.716 1.092h-.072v-.996h-.96v6.552z"/><path id="P" d="M1892.338 2216.064c1.452 0 2.412-.888 2.58-2.052h-1.008c-.18.708-.78 1.152-1.572 1.152-1.188 0-1.956-.996-1.956-2.508 0-1.488.78-2.472 1.956-2.472.888 0 1.416.552 1.572 1.152h1.008c-.168-1.224-1.212-2.052-2.592-2.052-1.776 0-2.952 1.404-2.952 3.396 0 1.968 1.128 3.384 2.964 3.384z"/><path id="Q" d="M1898.344 2216.076c1.152 0 1.74-.624 1.944-1.044h.072v.888h.984v-4.308c0-2.088-1.584-2.328-2.424-2.328-.984 0-2.112.348-2.628 1.536l.96.348c.228-.48.744-.996 1.704-.996.924 0 1.392.492 1.392 1.332v.036c0 .48-.504.444-1.692.6-1.212.156-2.544.42-2.544 1.92 0 1.284.984 2.016 2.232 2.016zm.156-.9c-.804 0-1.38-.36-1.38-1.056 0-.768.696-1.008 1.488-1.116.42-.048 1.572-.168 1.74-.372v.924c0 .816-.648 1.62-1.848 1.62z"/><path id="R" d="M1914.052 2210.844c-.312-.924-1.02-1.56-2.316-1.56-1.38 0-2.412.792-2.412 1.896 0 .9.54 1.5 1.752 1.788l1.092.252c.648.168.972.468.972.936 0 .552-.612 1.02-1.536 1.02-.828 0-1.344-.36-1.524-1.056l-.948.228c.228 1.116 1.14 1.716 2.484 1.716 1.524 0 2.556-.84 2.556-1.968 0-.912-.576-1.488-1.74-1.776l-.972-.228c-.768-.192-1.128-.456-1.128-.96 0-.564.6-.972 1.404-.972.876 0 1.236.492 1.416.936l.9-.252z"/><path id="S" d="M1945.801 2216.064c1.32 0 2.292-.672 2.592-1.656l-.972-.276c-.252.684-.84 1.032-1.62 1.032-1.188 0-2.004-.768-2.052-2.172h4.752v-.432c0-2.436-1.464-3.276-2.832-3.276-1.776 0-2.928 1.404-2.928 3.408 0 2.016 1.164 3.372 3.06 3.372zm-2.052-3.936c.072-1.032.768-1.944 1.92-1.944 1.104 0 1.716.792 1.812 1.944h-3.732z"/><path id="T" d="M1876.951 2229.064c1.776 0 2.976-1.356 2.976-3.384 0-2.04-1.2-3.396-2.976-3.396s-2.964 1.356-2.964 3.396c0 2.028 1.188 3.384 2.964 3.384zm0-.9c-1.344 0-1.956-1.176-1.956-2.484s.612-2.496 1.956-2.496c1.356 0 1.968 1.188 1.968 2.496s-.612 2.484-1.968 2.484z"/><path id="U" d="M1918.311 2222.368h-1.404v-1.56h-.996v1.56h-.984v.852h.984v4.092c0 1.008.732 1.692 1.788 1.692.276 0 .564-.048.744-.12l-.204-.9a2.16 2.16 0 0 1-.444.048c-.612 0-.888-.312-.888-.984v-3.828h1.404v-.852z"/><path id="V" d="M1930.842 2224.984c0-1.14.72-1.8 1.68-1.8.936 0 1.512.624 1.512 1.644v4.092h.996v-4.164c0-1.668-.9-2.472-2.22-2.472-.984 0-1.608.444-1.908 1.116h-.096v-1.032h-.96v6.552h.996v-3.936z"/><path id="W" d="M1945.068 2319.632c.42 0 .768-.348.768-.768s-.348-.768-.768-.768-.768.348-.768.768.348.768.768.768z"/><path id="X" d="M1913.363 2261.996a3 3 0 0 0-1.233-2.423c-.77-.565-1.769-.727-2.68-.435l-21.852 6.984a3 3 0 0 0-2.087 2.858v23.2c0 .957.458 1.858 1.233 2.423.77.565 1.769.727 2.68.435l21.852-6.984a3 3 0 0 0 2.087-2.858v-23.199z"/><path id="Y" d="M1758.503 2284.009c1.375 0 2.467-.63 2.467-2.1v-5.901h-.84v.914h-.095c-.189-.294-.546-.987-1.669-.987-1.449 0-2.447 1.155-2.447 2.919 0 1.785 1.04 2.793 2.426 2.793 1.123 0 1.48-.651 1.669-.966h.084v1.166c0 .956-.672 1.386-1.596 1.386-1.04 0-1.407-.546-1.638-.861l-.703.483c.357.609 1.061 1.155 2.341 1.155zm-.032-3.15c-1.102 0-1.669-.84-1.669-2.026 0-1.166.546-2.11 1.669-2.11 1.071 0 1.638.871 1.638 2.11 0 1.271-.577 2.026-1.638 2.026z"/><path id="Z" d="M1768.99 2281.741h.871v-3.622c0-.777.62-1.344 1.449-1.344.242 0 .483.042.546.052v-.892c-.105 0-.336-.01-.462-.01-.693 0-1.292.389-1.502.956h-.063v-.872h-.84v5.733z"/><path id="a" d="M1775.126 2281.867c1.155 0 2.005-.588 2.268-1.449l-.851-.242c-.22.599-.735.903-1.418.903-1.039 0-1.754-.672-1.795-1.9h4.158v-.378c0-2.131-1.281-2.867-2.478-2.867-1.554 0-2.562 1.229-2.562 2.982 0 1.764 1.019 2.951 2.678 2.951zm-1.795-3.444c.063-.903.672-1.701 1.68-1.701.966 0 1.501.693 1.585 1.701h-3.265z"/><path id="b" d="M1786.891 2281.878c1.008 0 1.523-.546 1.701-.914h.063v.777h.861v-3.769c0-1.827-1.386-2.037-2.121-2.037-.861 0-1.848.305-2.3 1.344l.84.305c.2-.42.651-.872 1.491-.872.809 0 1.218.43 1.218 1.166v.032c0 .42-.441.389-1.48.525-1.061.137-2.226.367-2.226 1.68 0 1.124.861 1.764 1.953 1.764zm.137-.787c-.704 0-1.207-.315-1.207-.924 0-.672.609-.882 1.302-.977.368-.042 1.376-.147 1.523-.325v.809c0 .714-.567 1.418-1.617 1.418z"/><path id="c" d="M1793.616 2276.008h-1.228v-1.365h-.871v1.365h-.861v.745h.861v3.581c0 .882.64 1.481 1.564 1.481a1.92 1.92 0 0 0 .651-.105l-.178-.787a1.89 1.89 0 0 1-.389.042c-.535 0-.777-.273-.777-.861v-3.35h1.228v-.745z"/><path id="d" d="M1814.381 2277.3c-.273-.809-.892-1.365-2.026-1.365-1.207 0-2.111.693-2.111 1.659 0 .787.472 1.313 1.533 1.564l.956.22c.567.147.851.41.851.819 0 .483-.535.893-1.344.893-.725 0-1.176-.315-1.333-.924l-.83.199c.2.977.998 1.502 2.174 1.502 1.333 0 2.236-.735 2.236-1.722 0-.798-.504-1.302-1.523-1.554l-.851-.199c-.672-.168-.987-.399-.987-.84 0-.494.525-.851 1.228-.851.766 0 1.082.43 1.239.819l.787-.22z"/><path id="e" d="M1818.134 2281.867c1.271 0 2.111-.777 2.258-1.796h-.882c-.158.619-.683 1.008-1.376 1.008-1.039 0-1.711-.871-1.711-2.195 0-1.302.682-2.163 1.711-2.163.777 0 1.239.483 1.376 1.008h.882c-.147-1.071-1.061-1.796-2.268-1.796-1.554 0-2.583 1.229-2.583 2.972 0 1.722.987 2.961 2.593 2.961z"/><path id="f" d="M1824.03 2281.867c1.554 0 2.604-1.187 2.604-2.961 0-1.785-1.05-2.972-2.604-2.972s-2.593 1.187-2.593 2.972c0 1.774 1.04 2.961 2.593 2.961zm0-.788c-1.176 0-1.711-1.029-1.711-2.173s.535-2.184 1.711-2.184c1.187 0 1.722 1.039 1.722 2.184s-.536 2.173-1.722 2.173z"/><path id="g" d="M1761.72 2297.476h.871v-3.581c0-.84.62-1.438 1.302-1.438.672 0 1.134.441 1.134 1.092v3.927h.903v-3.727c0-.735.451-1.291 1.26-1.291.63 0 1.166.336 1.166 1.186v3.832h.882v-3.832c0-1.344-.724-1.974-1.753-1.974-.819 0-1.418.378-1.712.977h-.063c-.284-.62-.777-.977-1.523-.977-.756 0-1.312.357-1.543.977h-.084v-.903h-.84v5.733z"/><path id="h" d="M1770.856 2299.618h.871v-3.024h.073c.199.315.567 1.008 1.669 1.008 1.438 0 2.436-1.155 2.436-2.972 0-1.806-.997-2.961-2.447-2.961-1.123 0-1.459.693-1.659.987h-.105v-.914h-.84v7.875zm2.499-2.803c-1.06 0-1.638-.903-1.638-2.195s.567-2.163 1.638-2.163c1.113 0 1.67.945 1.67 2.163s-.567 2.195-1.67 2.195z"/><path id="i" d="M1828.216 2297.476h.871v-5.733h-.871v5.733zm.441-6.689c.347 0 .63-.262.63-.588 0-.336-.284-.599-.63-.599s-.619.262-.619.599c0 .325.273.588.619.588z"/><path id="j" d="M2077.509 2128.804h1.914v-3.567h2.016c2.436 0 3.756-1.464 3.756-3.48s-1.291-3.509-3.712-3.509h-3.973v10.556zm1.914-5.133v-3.813h1.755c1.436 0 2.059.768 2.059 1.899 0 1.116-.624 1.914-2.045 1.914h-1.769z"/><path id="k" d="M2090.218 2128.964c2.306 0 3.785-1.638 3.785-4.089s-1.479-4.089-3.785-4.089c-2.32 0-3.799 1.638-3.799 4.089s1.479 4.089 3.799 4.089zm0-1.508c-1.276 0-1.9-1.131-1.9-2.581s.624-2.581 1.9-2.581 1.9 1.131 1.9 2.581-.624 2.581-1.9 2.581z"/><path id="l" d="M2101.831 2122.99c-.261-1.348-1.32-2.204-3.176-2.204-1.914 0-3.205.942-3.205 2.407 0 1.145.711 1.899 2.219 2.233l1.363.275c.725.159 1.059.449 1.059.913 0 .522-.595.942-1.479.942-.841 0-1.407-.362-1.566-1.087l-1.813.174c.232 1.45 1.45 2.32 3.393 2.32 1.972 0 3.379-1.029 3.379-2.537 0-1.116-.74-1.812-2.233-2.131l-1.349-.29c-.798-.174-1.102-.464-1.102-.928 0-.522.58-.899 1.349-.899.87 0 1.32.478 1.465.986l1.697-.174z"/><path id="m" d="M2107.484 2120.887h-1.566v-1.885h-1.856v1.885h-1.117v1.45h1.117v4.393c0 1.363.885 2.175 2.364 2.175.406 0 .812-.058 1.218-.174l-.319-1.464c-.174.043-.392.072-.551.072-.595 0-.856-.29-.856-.913v-4.089h1.566v-1.45z"/><path id="n" d="M2119.246 2128.964c1.987 0 3.248-1.174 3.393-2.871h-1.784c-.16.855-.769 1.363-1.595 1.363-1.16 0-1.914-.986-1.914-2.595s.769-2.566 1.914-2.566c.899 0 1.45.58 1.595 1.348h1.784c-.131-1.725-1.465-2.856-3.408-2.856-2.32 0-3.785 1.682-3.785 4.089s1.436 4.089 3.799 4.089z"/><path id="o" d="M2126.461 2128.964c1.247 0 1.987-.58 2.32-1.247h.087v1.087h1.769v-5.292c0-2.088-1.726-2.726-3.234-2.726-1.61 0-2.9.696-3.364 2.073l1.726.348c.189-.522.74-.986 1.653-.986.885 0 1.363.449 1.363 1.203v.043c0 .536-.566.565-1.958.71-1.537.159-3.016.623-3.016 2.407 0 1.551 1.146 2.378 2.654 2.378zm.479-1.363c-.769 0-1.32-.362-1.32-1.044 0-.725.624-1.015 1.45-1.131.479-.072 1.479-.203 1.726-.391v.928c0 .884-.725 1.638-1.856 1.638z"/><path id="p" d="M2136.333 2128.804h1.856v-7.917h-1.856v7.917zm.928-9.033c.595 0 1.088-.449 1.088-1 0-.565-.493-1.029-1.088-1.029s-1.073.464-1.073 1.029c0 .551.479 1 1.073 1z"/><path id="q" d="M2144.319 2128.949c1.856 0 3.263-1.479 3.263-4.089 0-2.639-1.436-4.074-3.263-4.074-1.407 0-1.987.841-2.262 1.406h-.087v-3.944h-1.856v10.556h1.827v-1.247h.116c.29.58.899 1.392 2.262 1.392zm-.522-1.537c-1.189 0-1.856-1.029-1.856-2.552 0-1.537.653-2.537 1.856-2.537 1.247 0 1.871 1.058 1.871 2.537s-.638 2.552-1.871 2.552z"/><path id="r" d="M2149.148 2128.804h1.856v-4.64c0-1.015.769-1.711 1.784-1.711.319 0 .711.043.87.087v-1.711c-.174-.029-.464-.043-.667-.043-.899 0-1.668.507-1.958 1.435h-.087v-1.334h-1.798v7.917z"/><path id="s" d="M2183.224 2124.179c0-1.145.711-1.812 1.682-1.812.957 0 1.552.638 1.552 1.696v4.741h1.856v-5.031c0-1.899-1.088-2.987-2.712-2.987-1.189 0-1.958.565-2.32 1.45h-.087v-1.348h-1.827v7.917h1.856v-4.625z"/><path id="t" d="M2228.255 2128.964c1.842 0 3.089-.899 3.422-2.276l-1.74-.203c-.247.681-.856 1.029-1.653 1.029-1.175 0-1.972-.797-2.03-2.146h5.51v-.58c0-2.769-1.682-4.002-3.625-4.002-2.277 0-3.741 1.667-3.741 4.103 0 2.479 1.465 4.074 3.857 4.074zm-2.001-4.857c.102-1.044.769-1.87 1.885-1.87 1.088 0 1.697.739 1.813 1.87h-3.698z"/><path id="u" d="M2089.13 2145.163v7.644h1.344v-5.26h.063l2.1 5.239h.997l2.121-5.229h.063v5.25h1.354v-7.644h-1.711l-2.268 5.533h-.094l-2.268-5.533h-1.701z"/><path id="v" d="M2099.657 2152.807l.63-1.89h2.877l.63 1.89h1.47l-2.688-7.644h-1.701l-2.698 7.644h1.48zm1.008-2.992l1.029-3.076h.063l1.029 3.076h-2.121z"/><path id="w" d="M2106.268 2152.807h4.998v-1.155h-3.612v-2.131h3.328v-1.144h-3.328v-2.047h3.591v-1.165h-4.977v7.644z"/><path id="x" d="M2113.58 2151.757c.462 0 .819-.357.819-.819s-.357-.819-.819-.819-.829.357-.829.819.367.819.829.819zm0-3.895c.462 0 .819-.357.819-.819s-.357-.819-.819-.819-.829.357-.829.819.367.819.829.819z"/><path id="y" d="M2091.786 2165.912c1.69 0 2.656-1.428 2.656-3.916s-.987-3.927-2.656-3.927-2.656 1.438-2.656 3.927.976 3.916 2.656 3.916zm0-.808c-1.134 0-1.774-1.144-1.774-3.108 0-1.974.64-3.118 1.774-3.118s1.774 1.144 1.774 3.118c0 1.963-.64 3.108-1.774 3.108z"/><path id="z" d="M2096.673 2165.87c.367 0 .672-.304.672-.672s-.304-.672-.672-.672-.672.304-.672.672.304.672.672.672z"/><path id="AA" d="M2105.89 2165.807h4.819v-.819h-3.549v-.063l1.711-1.837c1.312-1.407 1.701-2.058 1.701-2.898 0-1.186-.955-2.121-2.299-2.121-1.333 0-2.352.913-2.352 2.257h.882c0-.871.556-1.449 1.438-1.449.829 0 1.459.504 1.459 1.312 0 .703-.42 1.218-1.291 2.184l-2.52 2.772v.661z"/><path id="AB" d="M2105.491 2177.242h3.58v1.564h.882v-1.564h1.05v-.829h-1.05v-5.25h-1.113l-3.349 5.313v.766zm3.58-.829h-2.593v-.052l2.541-4.011h.052v4.063z"/><path id="AC" d="M2121.763 2171.068c-1.543-.021-2.541 1.144-2.551 2.551.01 1.47 1.092 2.53 2.415 2.53.777 0 1.449-.388 1.869-1.018h.063c0 1.89-.724 2.961-1.9 2.961-.808 0-1.302-.514-1.47-1.218h-.913c.178 1.218 1.092 2.037 2.383 2.037 1.711 0 2.761-1.522 2.761-4.242 0-2.803-1.396-3.591-2.656-3.601zm0 .819c.966 0 1.659.819 1.669 1.711-.01.913-.756 1.732-1.69 1.732-.945 0-1.627-.756-1.627-1.711s.714-1.732 1.648-1.732z"/><path id="AD" d="M2115.039 2191.912c1.449 0 2.53-1.071 2.53-2.53 0-1.491-1.039-2.572-2.436-2.572-.514 0-1.018.189-1.333.43h-.042l.273-2.247h3.181v-.829h-3.969l-.462 3.769.871.105c.315-.231.861-.388 1.323-.388.976 0 1.69.745 1.69 1.743 0 .976-.682 1.701-1.627 1.701-.777 0-1.407-.504-1.47-1.197h-.892c.052 1.165 1.05 2.016 2.362 2.016z"/><path id="AE" d="M2122.719 2184.163h-.903l-1.9 1.281v.934l1.848-1.239h.052v6.667h.903v-7.644z"/><path id="AF" d="M2081.318 2321.807c1.932 0 3.036-1.632 3.036-4.476s-1.116-4.488-3.036-4.488c-1.908 0-3.024 1.644-3.024 4.488s1.104 4.476 3.024 4.476zm0-.924c-1.284 0-2.016-1.308-2.016-3.552 0-2.256.732-3.564 2.016-3.564 1.296 0 2.028 1.308 2.028 3.564 0 2.244-.732 3.552-2.028 3.552z"/><path id="AG" d="M2124.789 2321.687h5.508v-.936h-4.056v-.072l1.956-2.1c1.5-1.608 1.944-2.352 1.944-3.312 0-1.356-1.092-2.424-2.616-2.424-1.536 0-2.7 1.044-2.7 2.58h1.008c0-.996.636-1.656 1.656-1.656.936 0 1.656.576 1.656 1.5 0 .804-.468 1.392-1.476 2.496l-2.88 3.168v.756z"/><path id="AH" d="M2160.194 2319.899h4.092v1.788h1.008v-1.788h1.2v-.948h-1.2v-6h-1.272l-3.828 6.072v.876zm4.092-.948h-2.964v-.06l2.904-4.584h.06v4.644z"/><path id="AI" d="M2199.027 2321.807c1.776 0 2.928-1.308 2.928-2.928 0-1.692-1.248-2.904-2.748-2.904-.9 0-1.668.444-2.148 1.164h-.06c0-2.136.816-3.36 2.172-3.36.924 0 1.476.576 1.68 1.356h1.032c-.216-1.344-1.248-2.292-2.712-2.292-1.956 0-3.168 1.74-3.168 4.824 0 3.228 1.596 4.14 3.024 4.14zm0-.936c-1.08 0-1.884-.936-1.884-1.98s.852-1.968 1.92-1.968c1.08 0 1.872.864 1.872 1.956 0 1.104-.828 1.992-1.908 1.992z"/><path id="AJ" d="M2234.813 2321.807c1.74 0 2.964-1.02 2.964-2.436 0-1.104-.756-2.04-1.692-2.22v-.048c.816-.216 1.356-1.02 1.356-1.944 0-1.332-1.116-2.316-2.628-2.316-1.548 0-2.652.984-2.652 2.316 0 .924.528 1.728 1.368 1.944v.048c-.96.18-1.68 1.116-1.68 2.22 0 1.416 1.2 2.436 2.964 2.436zm0-.936c-1.2 0-1.932-.612-1.932-1.548 0-.984.804-1.692 1.932-1.692 1.092 0 1.92.708 1.92 1.692 0 .936-.744 1.548-1.92 1.548zm0-4.14c-.96 0-1.632-.6-1.632-1.5 0-.888.648-1.464 1.632-1.464.96 0 1.608.576 1.608 1.464 0 .9-.684 1.5-1.608 1.5z"/><path id="AK" d="M2261.571 2312.951h-1.02l-2.184 1.464v1.068l2.124-1.416h.06v7.62h1.02v-8.736z"/><path id="AL" d="M61.083 282.922h1.71v-6.198c0-1.329 1.216-2.299 2.843-2.299.474 0 .948.072 1.071.09v-1.527c-.206 0-.659-.018-.907-.018-1.36 0-2.534.665-2.946 1.635h-.124v-1.491h-1.648v9.809z"/><path id="AM" d="M75.835 278.916c0 1.832-1.628 2.677-2.905 2.677-1.442 0-2.472-.916-2.472-2.335v-6.144h-1.71v6.234c0 2.497 1.504 3.701 3.626 3.701 1.689 0 2.802-.79 3.338-1.796h.124v1.671h1.71v-9.809h-1.71v5.803z"/><path id="AN" d="M85.437 283.138c2.266 0 3.935-1.006 4.45-2.479l-1.669-.413c-.433 1.024-1.442 1.545-2.781 1.545-2.04 0-3.441-1.15-3.523-3.252h8.159v-.647c0-3.647-2.514-4.904-4.862-4.904-3.049 0-5.027 2.102-5.027 5.102 0 3.018 1.999 5.048 5.254 5.048zm-3.523-5.892c.124-1.545 1.319-2.91 3.297-2.91 1.896 0 2.946 1.186 3.111 2.91h-6.408z"/><path id="AO" d="M104.726 283.102c3.008 0 5.46-1.581 6.016-4.276h-1.813c-.433 1.832-2.225 2.802-4.203 2.802-2.72 0-4.862-1.85-4.862-5.228 0-3.413 2.143-5.246 4.862-5.246 1.978 0 3.77.97 4.203 2.784h1.813c-.556-2.677-3.008-4.258-6.016-4.258-3.832 0-6.614 2.569-6.614 6.719 0 4.132 2.781 6.701 6.614 6.701z"/><path id="AP" d="M119.777 269.233h-1.586l-4.842 15.647h1.607l4.821-15.647z"/><path id="AQ" d="M123.081 282.922h1.813v-4.779h3.276c3.482 0 5.068-1.85 5.068-4.15s-1.586-4.15-5.089-4.15h-5.068v13.078zm1.813-6.18v-5.479h3.194c2.431 0 3.358 1.168 3.358 2.731s-.927 2.749-3.338 2.749h-3.214z"/><path id="AR" d="M145.15 269.844h-1.916l5.522 13.078h1.875l5.481-13.078h-1.875l-4.45 11.012h-.185l-4.45-11.012z"/><path id="AS" d="M164.02 286.587h1.71v-5.174h.144c.391.539 1.113 1.725 3.276 1.725 2.823 0 4.78-1.976 4.78-5.084 0-3.09-1.957-5.066-4.801-5.066-2.205 0-2.864 1.186-3.255 1.689h-.206v-1.563h-1.648v13.473zm4.904-4.796c-2.081 0-3.214-1.545-3.214-3.755s1.113-3.701 3.214-3.701c2.184 0 3.276 1.617 3.276 3.701s-1.113 3.755-3.276 3.755z"/><path id="AT" d="M188.475 283.138c3.049 0 5.11-2.03 5.11-5.066 0-3.054-2.06-5.084-5.11-5.084s-5.089 2.03-5.089 5.084c0 3.036 2.04 5.066 5.089 5.066zm0-1.347c-2.308 0-3.358-1.761-3.358-3.719s1.051-3.737 3.358-3.737c2.328 0 3.379 1.778 3.379 3.737s-1.051 3.719-3.379 3.719z"/><path id="AU" d="M201.345 283.138c2.823 0 4.78-1.976 4.78-5.084 0-3.09-1.957-5.066-4.801-5.066-2.205 0-2.864 1.186-3.255 1.689h-.144v-4.832h-1.71v13.078h1.648v-1.509h.206c.391.539 1.113 1.725 3.276 1.725zm-.227-1.347c-2.081 0-3.214-1.545-3.214-3.755s1.113-3.701 3.214-3.701c2.184 0 3.276 1.617 3.276 3.701s-1.113 3.755-3.276 3.755z"/><path id="AV" d="M212.045 283.156c1.978 0 2.987-.934 3.338-1.563h.124v1.329h1.689v-6.449c0-3.126-2.72-3.485-4.162-3.485-1.689 0-3.626.521-4.512 2.299l1.648.521c.391-.719 1.277-1.491 2.926-1.491 1.586 0 2.39.737 2.39 1.994v.054c0 .719-.865.665-2.905.898-2.081.234-4.368.629-4.368 2.874 0 1.922 1.689 3.018 3.832 3.018zm.268-1.347c-1.38 0-2.369-.539-2.369-1.581 0-1.15 1.195-1.509 2.555-1.671.721-.072 2.699-.252 2.987-.557v1.383c0 1.222-1.113 2.425-3.173 2.425z"/><path id="AW" d="M232.91 282.922h1.71v-9.809h-1.71v9.809zm.865-11.443c.68 0 1.236-.449 1.236-1.006 0-.575-.556-1.024-1.236-1.024s-1.216.449-1.216 1.024c0 .557.536 1.006 1.216 1.006z"/><path id="AX" d="M253.254 273.113h-2.411v-2.335h-1.71v2.335h-1.689v1.275h1.689v6.126c0 1.509 1.257 2.533 3.07 2.533.474 0 .968-.072 1.277-.18l-.35-1.347c-.309.054-.536.072-.762.072-1.051 0-1.525-.467-1.525-1.473v-5.731h2.411v-1.275z"/><path id="AY" d="M256.966 286.659c1.566 0 2.637-.719 3.297-2.246l4.78-11.3h-1.854l-3.111 7.832h-.124l-3.091-7.832h-1.875l4.141 9.862-.33.844c-.577 1.401-1.339 1.617-2.493 1.383l-.165-.036-.453 1.311c.185.09.68.18 1.277.18z"/><path id="AZ" d="M1487.525 2178.912c1.48 0 2.572-.934 2.572-2.173 0-.976-.567-1.68-1.522-1.837v-.063c.766-.231 1.249-.861 1.249-1.732 0-1.081-.861-2.037-2.268-2.037-1.323 0-2.415.808-2.457 2.005h.892c.031-.756.745-1.197 1.543-1.197.85 0 1.386.504 1.386 1.281 0 .808-.63 1.323-1.533 1.323h-.609v.819h.609c1.155 0 1.806.588 1.806 1.438 0 .798-.703 1.354-1.69 1.354-.882 0-1.585-.451-1.638-1.197h-.934c.052 1.207 1.113 2.016 2.593 2.016z"/><path id="Aa" d="M1602.623 2244.357h1.344v-3.486c0-.703.472-1.176 1.06-1.176.567 0 .955.378.955.966v3.696h1.333v-3.58c0-.63.378-1.081 1.029-1.081.546 0 .976.315.976 1.018v3.643h1.354v-3.843c0-1.281-.735-1.963-1.785-1.963-.84 0-1.47.42-1.722 1.05h-.063c-.22-.651-.777-1.05-1.543-1.05s-1.344.399-1.585 1.05h-.073v-.976h-1.281v5.733z"/><path id="Ab" d="M1612.067 2246.499h1.344v-3.045h.063c.21.42.651 1.008 1.638 1.008 1.344 0 2.362-1.071 2.362-2.961 0-1.911-1.039-2.95-2.362-2.95-1.018 0-1.438.609-1.638 1.018h-.084v-.945h-1.323v7.875zm2.667-3.15c-.861 0-1.344-.745-1.344-1.848 0-1.113.472-1.837 1.344-1.837.903 0 1.354.766 1.354 1.837s-.462 1.848-1.354 1.848z"/><path id="Ac" d="M1618.608 2244.357h1.344v-5.733h-1.344v5.733zm.672-6.541c.43 0 .787-.325.787-.724 0-.409-.357-.745-.787-.745s-.777.336-.777.745c0 .399.346.724.777.724z"/><path id="Ad" d="M1630.856 2244.473c1.438 0 2.352-.85 2.457-2.079h-1.291c-.115.619-.556.987-1.155.987-.84 0-1.386-.714-1.386-1.879s.556-1.858 1.386-1.858c.651 0 1.05.42 1.155.976h1.291c-.094-1.249-1.06-2.068-2.467-2.068-1.68 0-2.74 1.218-2.74 2.961s1.039 2.961 2.751 2.961z"/><path id="Ae" d="M1585.406 2257.472c1.669 0 2.74-1.186 2.74-2.961s-1.071-2.961-2.74-2.961c-1.68 0-2.751 1.186-2.751 2.961s1.071 2.961 2.751 2.961zm0-1.092c-.924 0-1.375-.819-1.375-1.869s.451-1.869 1.375-1.869 1.375.819 1.375 1.869-.451 1.869-1.375 1.869z"/><path id="Af" d="M1593.325 2270.357h.871v-3.622c0-.777.619-1.344 1.449-1.344.241 0 .483.042.546.052v-.892c-.105 0-.336-.01-.462-.01-.693 0-1.291.388-1.501.955h-.063v-.871h-.84v5.733z"/><path id="Ag" d="M1603.296 2270.357h.871v-3.58c0-.84.619-1.438 1.302-1.438.672 0 1.134.441 1.134 1.092v3.927h.903v-3.727c0-.735.451-1.291 1.26-1.291.63 0 1.165.336 1.165 1.186v3.832h.882v-3.832c0-1.344-.724-1.974-1.753-1.974-.819 0-1.417.378-1.711.976h-.063c-.283-.619-.777-.976-1.522-.976-.756 0-1.312.357-1.543.976h-.084v-.903h-.84v5.733z"/><path id="Ah" d="M1616.098 2266.272c.367 0 .672-.304.672-.672s-.304-.672-.672-.672-.672.304-.672.672.304.672.672.672zm0 4.147c.367 0 .672-.304.672-.672s-.304-.672-.672-.672-.672.304-.672.672.304.672.672.672z"/><path id="Ai" d="M1638.507 2268.939c0 .84.514 1.543 1.491 1.543.955 0 1.47-.703 1.47-1.543v-.399c0-.829-.504-1.533-1.47-1.533-.955 0-1.491.703-1.491 1.533v.399zm-4.63-4.41c0 .84.514 1.543 1.48 1.543.955 0 1.48-.703 1.48-1.543v-.399c0-.829-.504-1.533-1.48-1.533-.955 0-1.48.703-1.48 1.533v.399zm.745 5.827h.85l5.25-7.644h-.85l-5.25 7.644zm4.641-1.816c0-.462.21-.892.735-.892.535 0 .714.43.714.892v.399c0 .472-.199.892-.714.892-.535 0-.735-.42-.735-.892v-.399zm-4.63-4.41c0-.462.21-.892.724-.892.535 0 .724.43.724.892v.399c0 .472-.199.892-.724.892-.535 0-.724-.42-.724-.892v-.399z"/><path id="Aj" d="M1599.783 2278.915c-.273-.808-.892-1.365-2.026-1.365-1.207 0-2.11.693-2.11 1.659 0 .787.472 1.312 1.533 1.564l.955.22c.567.147.85.409.85.819 0 .483-.535.892-1.344.892-.724 0-1.176-.315-1.333-.924l-.829.199c.199.976.997 1.501 2.173 1.501 1.333 0 2.236-.735 2.236-1.722 0-.798-.504-1.302-1.522-1.554l-.85-.199c-.672-.168-.987-.399-.987-.84 0-.493.525-.85 1.228-.85.766 0 1.081.43 1.239.819l.787-.22z"/><path id="Ak" d="M1610.351 2283.357h.871v-5.733h-.871v5.733zm.441-6.688c.346 0 .63-.262.63-.588 0-.336-.283-.598-.63-.598s-.619.262-.619.598c0 .325.273.588.619.588z"/><path id="Al" d="M1627.654 2275.713h-.892l-1.911 1.281v.934l1.858-1.239h.052v6.667h.892v-7.644z"/><path id="Am" d="M1444.24 2347.337c2.117 0 3.842-1.276 4.234-3.451h-1.276c-.304 1.479-1.566 2.262-2.958 2.262-1.914 0-3.422-1.494-3.422-4.22 0-2.755 1.508-4.234 3.422-4.234 1.392 0 2.653.783 2.958 2.248h1.276c-.391-2.161-2.117-3.437-4.234-3.437-2.697 0-4.654 2.074-4.654 5.423 0 3.335 1.957 5.409 4.654 5.409z"/><path id="An" d="M1451.584 2342.436c0-1.378.884-2.175 2.088-2.175 1.189 0 1.856.711 1.856 1.987v4.945h1.203v-5.032c0-2.03-1.102-2.987-2.711-2.987-1.247 0-1.957.522-2.32 1.349h-.116v-3.886h-1.203v10.556h1.203v-4.756z"/><path id="Ao" d="M1458.961 2347.192h1.203v-5.003c0-1.073.855-1.856 2.001-1.856.333 0 .667.058.754.073v-1.233c-.145 0-.464-.015-.638-.015-.957 0-1.783.537-2.073 1.32h-.087v-1.204h-1.16v7.917z"/><path id="Ap" d="M1467.284 2347.366c2.146 0 3.596-1.639 3.596-4.089 0-2.465-1.45-4.104-3.596-4.104s-3.581 1.639-3.581 4.104c0 2.451 1.435 4.089 3.581 4.089zm0-1.088c-1.624 0-2.363-1.421-2.363-3.002s.739-3.016 2.363-3.016c1.638 0 2.378 1.436 2.378 3.016s-.739 3.002-2.378 3.002z"/><path id="Aq" d="M1472.731 2347.192h1.203v-4.945c0-1.16.855-1.987 1.798-1.987.928 0 1.566.609 1.566 1.508v5.423h1.247v-5.148c0-1.015.623-1.784 1.74-1.784.87 0 1.609.464 1.609 1.639v5.293h1.218v-5.293c0-1.856-1-2.726-2.421-2.726-1.131 0-1.957.522-2.363 1.349h-.087c-.391-.856-1.073-1.349-2.102-1.349-1.044 0-1.812.493-2.131 1.349h-.116v-1.247h-1.16v7.917z"/><path id="Ar" d="M1499.595 2341.058c-.377-1.117-1.232-1.885-2.798-1.885-1.667 0-2.914.957-2.914 2.291 0 1.088.652 1.813 2.117 2.161l1.319.305c.783.203 1.174.566 1.174 1.131 0 .667-.739 1.233-1.856 1.233-1 0-1.624-.435-1.841-1.276l-1.145.276c.275 1.349 1.377 2.074 3.001 2.074 1.841 0 3.088-1.015 3.088-2.378 0-1.102-.696-1.798-2.102-2.146l-1.174-.276c-.928-.232-1.363-.551-1.363-1.16 0-.682.725-1.175 1.696-1.175 1.058 0 1.493.595 1.711 1.131l1.087-.305z"/><path id="As" d="M1526.16 2347.366c1.595 0 2.769-.812 3.132-2.001l-1.174-.334c-.304.827-1.015 1.247-1.957 1.247-1.435 0-2.421-.928-2.479-2.625h5.742v-.522c0-2.944-1.769-3.959-3.422-3.959-2.146 0-3.538 1.697-3.538 4.118 0 2.436 1.406 4.075 3.697 4.075zm-2.479-4.756c.087-1.247.928-2.349 2.32-2.349 1.334 0 2.073.957 2.189 2.349h-4.509z"/><path id="At" d="M1535.701 2336.143h-1.116l-3.407 12.63h1.131l3.393-12.63z"/><path id="Au" d="M1537.868 2350.15h1.203v-4.176h.101c.275.435.783 1.392 2.305 1.392 1.986 0 3.364-1.595 3.364-4.104 0-2.494-1.377-4.089-3.378-4.089-1.551 0-2.015.957-2.291 1.363h-.145v-1.262h-1.16v10.875zm3.451-3.872c-1.464 0-2.262-1.247-2.262-3.031s.783-2.987 2.262-2.987c1.537 0 2.305 1.305 2.305 2.987s-.783 3.031-2.305 3.031z"/><path id="Av" d="M1552.449 2347.38c1.392 0 2.102-.754 2.349-1.262h.087v1.073h1.189v-5.206c0-2.523-1.914-2.813-2.929-2.813-1.189 0-2.552.421-3.175 1.856l1.16.421c.275-.58.899-1.204 2.059-1.204 1.116 0 1.682.595 1.682 1.61v.044c0 .58-.609.537-2.044.725-1.464.189-3.074.508-3.074 2.32 0 1.552 1.189 2.436 2.697 2.436zm.188-1.088c-.971 0-1.667-.435-1.667-1.276 0-.928.841-1.218 1.798-1.349.507-.058 1.899-.203 2.102-.45v1.117c0 .986-.783 1.958-2.233 1.958z"/><path id="Aw" d="M1578.504 2347.192h1.203v-7.917h-1.203v7.917zm.609-9.237c.478 0 .87-.363.87-.812 0-.464-.391-.827-.87-.827s-.855.363-.855.827c0 .45.377.812.855.812z"/><path id="Ax" d="M1584.916 2347.366c1.522 0 2.044-.957 2.305-1.392h.145v1.218h1.16v-10.556h-1.203v3.901h-.101c-.261-.406-.739-1.363-2.291-1.363-1.986 0-3.364 1.595-3.364 4.089 0 2.509 1.377 4.104 3.349 4.104zm.159-1.088c-1.522 0-2.291-1.349-2.291-3.031s.754-2.987 2.291-2.987c1.493 0 2.262 1.204 2.262 2.987s-.797 3.031-2.262 3.031z"/><path id="Ay" d="M1603.836 2339.275h-1.305l-2.189 6.322h-.087l-2.175-6.322h-1.319l2.914 7.917h1.247l2.914-7.917z"/><path id="Az" d="M1619.276 2343.958a2.06 2.06 0 0 1-2.044 2.161c-1.015 0-1.74-.74-1.74-1.885v-4.959h-1.203v5.032c0 2.016 1.058 2.987 2.552 2.987 1.189 0 1.972-.638 2.349-1.45h.087v1.349h1.203v-7.917h-1.203v4.684z"/><path id="BA" d="M1645.144 2347.366c1.754 0 2.914-1.073 3.117-2.48h-1.218c-.217.856-.942 1.392-1.899 1.392-1.435 0-2.363-1.204-2.363-3.031 0-1.798.942-2.987 2.363-2.987 1.073 0 1.711.667 1.899 1.392h1.218c-.203-1.479-1.464-2.48-3.132-2.48-2.146 0-3.567 1.697-3.567 4.104 0 2.378 1.363 4.089 3.581 4.089z"/></defs></svg>