<svg xmlns="http://www.w3.org/2000/svg" xmlns:xlink="http://www.w3.org/1999/xlink" width="100%" height="100%" viewBox="0 0 770 260" fill-rule="evenodd" stroke-linejoin="round" stroke-miterlimit="2" xmlns:v="https://vecta.io/nano"><style><![CDATA[.B{fill-rule:nonzero}.C{fill:#1987c5}.D{fill:#a16f00}.E{fill:#006e50}]]></style><g class="B E"><use xlink:href="#B"/><use xlink:href="#C"/><use xlink:href="#D"/><use xlink:href="#E"/><use xlink:href="#F"/></g><path d="M18.308 40.181c2.148 0 3.696-1.392 3.696-3.636v-1.056h-3.54v1.236h2.016c-.036 1.248-.864 2.04-2.172 2.04-1.464 0-2.46-1.104-2.46-3.072s1.02-3.06 2.424-3.06c1.056 0 1.776.564 2.052 1.488h1.608c-.264-1.716-1.752-2.904-3.672-2.904-2.292 0-4.008 1.68-4.008 4.488 0 2.76 1.632 4.476 4.056 4.476z" class="B"/><use xlink:href="#G" class="B"/><path d="M32.088 36.233c0-.948.588-1.5 1.392-1.5.792 0 1.284.528 1.284 1.404v3.924H36.3v-4.164c0-1.572-.9-2.472-2.244-2.472-.984 0-1.62.468-1.92 1.2h-.072v-1.116h-1.512v6.552h1.536v-3.828z" class="B"/><use xlink:href="#G" x="14.426" class="B"/><g class="C B"><use xlink:href="#B" y="26.976"/><use xlink:href="#C" y="26.976"/><use xlink:href="#D" y="26.976"/><use xlink:href="#E" y="26.976"/><use xlink:href="#H"/></g><use xlink:href="#B" y="53.951" class="B"/><use xlink:href="#C" y="53.951" class="B"/><use xlink:href="#D" y="53.951" class="B"/><use xlink:href="#E" y="53.951" class="B"/><use xlink:href="#I" class="B"/><g class="C B"><use xlink:href="#B" y="80.926"/><use xlink:href="#C" y="80.926"/><use xlink:href="#D" y="80.926"/><use xlink:href="#E" y="80.926"/><use xlink:href="#J"/></g><g class="D B"><use xlink:href="#B" y="134.877"/><use xlink:href="#C" y="134.877"/><use xlink:href="#D" y="134.877"/><use xlink:href="#E" y="134.877"/><use xlink:href="#K"/></g><g class="C B"><use xlink:href="#B" y="107.902"/><use xlink:href="#C" y="107.902"/><use xlink:href="#D" y="107.902"/><use xlink:href="#E" y="107.902"/><use xlink:href="#L"/></g><g class="D B"><use xlink:href="#B" y="161.853"/><use xlink:href="#C" y="161.853"/><use xlink:href="#D" y="161.853"/><use xlink:href="#E" y="161.853"/><path d="M48.036 228.878h1.104l3.9-7.74v-.996h-5.604v.948h4.5v.06l-3.9 7.728z"/></g><g class="E B"><use xlink:href="#B" x="78.81"/><use xlink:href="#M"/><use xlink:href="#N"/><use xlink:href="#O"/><use xlink:href="#P"/><use xlink:href="#Q"/><use xlink:href="#R"/><use xlink:href="#S"/><use xlink:href="#T"/><use xlink:href="#T" x="7.5"/><path d="M172.656 67.025h1.104l3.9-7.74v-.996h-5.604v.948h4.5v.06l-3.9 7.728z"/><use xlink:href="#F" x="131.37"/><use xlink:href="#J" x="136.2" y="-80.926"/><use xlink:href="#L" x="143.9" y="-107.902"/><use xlink:href="#S" x="44.06"/><use xlink:href="#U"/><use xlink:href="#U" x="8.11"/></g><use xlink:href="#V" class="B"/><use xlink:href="#W" class="B"/><use xlink:href="#X" class="B"/><use xlink:href="#Y" class="B"/><use xlink:href="#G" x="99.086" y="-0.117" class="B"/><use xlink:href="#X" x="18.59" class="B"/><g class="C B"><use xlink:href="#B" x="78.81" y="26.976"/><use xlink:href="#M" y="26.976"/><use xlink:href="#N" y="26.976"/><use xlink:href="#O" y="26.976"/><use xlink:href="#P" y="26.976"/><use xlink:href="#Q" y="26.976"/><use xlink:href="#R" y="26.976"/><use xlink:href="#S" y="26.976"/><use xlink:href="#T" y="26.976"/><use xlink:href="#F" x="117.35" y="26.976"/><path d="M172.724 94.121c1.74 0 2.964-1.02 2.964-2.436 0-1.104-.756-2.04-1.692-2.22v-.048c.816-.216 1.356-1.02 1.356-1.944 0-1.332-1.116-2.316-2.628-2.316-1.548 0-2.652.984-2.652 2.316 0 .924.528 1.728 1.368 1.944v.048c-.96.18-1.68 1.116-1.68 2.22 0 1.416 1.2 2.436 2.964 2.436zm0-.936c-1.2 0-1.932-.612-1.932-1.548 0-.984.804-1.692 1.932-1.692 1.092 0 1.92.708 1.92 1.692 0 .936-.744 1.548-1.92 1.548zm0-4.14c-.96 0-1.632-.6-1.632-1.5 0-.888.648-1.464 1.632-1.464.96 0 1.608.576 1.608 1.464 0 .9-.684 1.5-1.608 1.5z"/><use xlink:href="#J" x="129.54" y="-53.95"/><use xlink:href="#I" x="137.24" y="-26.975"/><use xlink:href="#F" x="144.88" y="26.976"/><use xlink:href="#S" x="42.96" y="26.976"/><use xlink:href="#U" x="-1.1" y="26.976"/><use xlink:href="#U" x="7.01" y="26.976"/></g><path d="M93.144 116.149h6v.936h-6z" class="B"/><g class="C B"><use xlink:href="#B" x="78.81" y="80.926"/><use xlink:href="#M" y="80.926"/><use xlink:href="#N" y="80.926"/><use xlink:href="#O" y="80.926"/><use xlink:href="#P" y="80.926"/><use xlink:href="#Q" y="80.926"/><use xlink:href="#R" y="80.926"/><use xlink:href="#S" y="80.926"/><use xlink:href="#T" y="80.926"/><use xlink:href="#T" x="7.5" y="80.926"/><use xlink:href="#K" x="124.85" y="-53.951"/><use xlink:href="#T" x="22.39" y="80.926"/><use xlink:href="#J" x="139.74"/><use xlink:href="#F" x="147.32" y="80.926"/><use xlink:href="#S" x="45.4" y="80.926"/><use xlink:href="#U" x="1.34" y="80.926"/><use xlink:href="#U" x="9.45" y="80.926"/></g><g class="D B"><use xlink:href="#B" x="78.81" y="134.877"/><use xlink:href="#M" y="134.877"/><use xlink:href="#N" y="134.877"/><use xlink:href="#O" y="134.877"/><use xlink:href="#P" y="134.877"/><use xlink:href="#Q" y="134.877"/><use xlink:href="#R" y="134.877"/><use xlink:href="#S" y="134.877"/><use xlink:href="#F" x="109.12" y="134.877"/><use xlink:href="#L" x="113.95" y="26.975"/><use xlink:href="#I" x="121.18" y="80.926"/><use xlink:href="#J" x="128.82" y="53.951"/><use xlink:href="#T" x="26.67" y="134.877"/><use xlink:href="#K" x="144.02"/><use xlink:href="#S" x="44.25" y="134.877"/><use xlink:href="#U" x="0.19" y="134.877"/><path d="M210.436 201.902h1.056v-3.192h1.908c2.028 0 2.952-1.236 2.952-2.772s-.924-2.772-2.964-2.772h-2.952v8.736zm1.056-4.128v-3.66h1.86c1.416 0 1.956.78 1.956 1.824s-.54 1.836-1.944 1.836h-1.872z"/></g><g class="C B"><use xlink:href="#B" x="78.81" y="107.902"/><use xlink:href="#M" y="107.902"/><use xlink:href="#N" y="107.902"/><use xlink:href="#O" y="107.902"/><use xlink:href="#P" y="107.902"/><use xlink:href="#Q" y="107.902"/><use xlink:href="#R" y="107.902"/><use xlink:href="#S" y="107.902"/><use xlink:href="#F" x="109.12" y="107.902"/><path d="M161.986 174.927h1.104l3.9-7.74v-.996h-5.604v.948h4.5v.06l-3.9 7.728z"/><use xlink:href="#F" x="120.7" y="107.902"/><use xlink:href="#I" x="125.53" y="53.951"/><use xlink:href="#H" x="133.17" y="80.926"/><use xlink:href="#T" x="30.58" y="107.902"/><use xlink:href="#S" x="40.88" y="107.902"/><path d="M199.316 166.191H198.2l3.216 8.736h1.092l3.192-8.736h-1.092l-2.592 7.356h-.108l-2.592-7.356zm10.866 8.856c1.752 0 3.18-1.056 3.504-2.856h-1.056c-.252 1.224-1.296 1.872-2.448 1.872-1.584 0-2.832-1.236-2.832-3.492 0-2.28 1.248-3.504 2.832-3.504 1.152 0 2.196.648 2.448 1.86h1.056c-.324-1.788-1.752-2.844-3.504-2.844-2.232 0-3.852 1.716-3.852 4.488 0 2.76 1.62 4.476 3.852 4.476z"/></g><g class="D B"><use xlink:href="#B" x="78.81" y="161.853"/><use xlink:href="#M" y="161.853"/><use xlink:href="#N" y="161.853"/><use xlink:href="#O" y="161.853"/><use xlink:href="#P" y="161.853"/><use xlink:href="#Q" y="161.853"/><use xlink:href="#R" y="161.853"/><use xlink:href="#S" y="161.853"/><use xlink:href="#T" y="161.853"/><use xlink:href="#T" x="7.5" y="161.853"/><use xlink:href="#F" x="124.85" y="161.853"/><path d="M180.176 220.034c-1.776-.024-2.916 1.308-2.916 2.916 0 1.68 1.248 2.892 2.748 2.892.9 0 1.668-.444 2.148-1.164h.072c-.012 2.16-.84 3.384-2.184 3.384-.924 0-1.488-.588-1.68-1.392h-1.044c.216 1.392 1.248 2.328 2.724 2.328 1.956 0 3.168-1.74 3.168-4.848 0-3.204-1.608-4.104-3.036-4.116zm0 .936c1.092 0 1.884.936 1.896 1.956-.012 1.044-.852 1.98-1.932 1.98s-1.86-.864-1.848-1.956c-.012-1.092.804-1.98 1.884-1.98z"/><use xlink:href="#H" x="137.07" y="134.877"/><use xlink:href="#H" x="144.33" y="134.877"/><use xlink:href="#S" x="44.85" y="161.853"/><use xlink:href="#U" x="0.79" y="161.853"/><use xlink:href="#U" x="8.9" y="161.853"/></g><g class="E B"><use xlink:href="#Z"/><path d="M266.326 66.908h1.116l3.888-7.74v-.996h-5.604v.948h4.5v.06l-3.9 7.728zm9.99.12c1.656 0 2.892-1.224 2.892-2.892 0-1.704-1.188-2.94-2.784-2.94-.588 0-1.164.216-1.524.492h-.048l.312-2.568h3.636v-.948h-4.536l-.528 4.308.996.12c.36-.264.984-.444 1.512-.444 1.116 0 1.932.852 1.932 1.992 0 1.116-.78 1.944-1.86 1.944-.888 0-1.608-.576-1.68-1.368h-1.02c.06 1.332 1.2 2.304 2.7 2.304z"/></g><path d="M233.202 40.366h3.54c2.004 0 2.976-1.02 2.976-2.376 0-1.32-.936-2.1-1.872-2.136v-.096c.864-.192 1.536-.792 1.536-1.86 0-1.296-.936-2.268-2.82-2.268h-3.36v8.736zm1.584-1.32V36.49h1.752c.972 0 1.572.6 1.572 1.38 0 .684-.48 1.176-1.62 1.176h-1.704zm0-3.696v-2.412h1.608c.924 0 1.404.492 1.404 1.176 0 .756-.624 1.236-1.44 1.236h-1.572zm6.243 5.016h1.536v-6.552h-1.536v6.552zm.768-7.476c.492 0 .9-.372.9-.828 0-.468-.408-.852-.9-.852s-.888.384-.888.852c0 .456.396.828.888.828z" class="B"/><use xlink:href="#a" class="B"/><path d="M253.795 35.554c-.216-1.116-1.092-1.824-2.628-1.824-1.584 0-2.652.78-2.652 1.992 0 .948.588 1.572 1.836 1.848l1.128.228c.6.132.876.372.876.756 0 .432-.492.78-1.224.78-.696 0-1.164-.3-1.296-.9l-1.5.144c.192 1.2 1.2 1.92 2.808 1.92 1.632 0 2.796-.852 2.796-2.1 0-.924-.612-1.5-1.848-1.764l-1.116-.24c-.66-.144-.912-.384-.912-.768 0-.432.48-.744 1.116-.744.72 0 1.092.396 1.212.816l1.404-.144zm4.27 4.944c1.644 0 2.688-.972 2.808-2.376h-1.476c-.132.708-.636 1.128-1.32 1.128-.96 0-1.584-.816-1.584-2.148s.636-2.124 1.584-2.124c.744 0 1.2.48 1.32 1.116h1.476c-.108-1.428-1.212-2.364-2.82-2.364-1.92 0-3.132 1.392-3.132 3.384s1.188 3.384 3.144 3.384z" class="B"/><use xlink:href="#b" class="B"/><use xlink:href="#X" x="158.395" y="0.422" class="B"/><use xlink:href="#G" x="250.469" y="0.305" class="B"/><g class="C B"><use xlink:href="#Z" y="27.093"/><use xlink:href="#c"/><use xlink:href="#d"/></g><path d="M273.823 116.149h6v.936h-6z" class="B"/><g class="C B"><use xlink:href="#c" x="-7.77" y="53.95"/><use xlink:href="#d" x="-7.77" y="53.95"/><path d="M276.323 148.071c1.74 0 2.964-1.02 2.964-2.436 0-1.104-.744-2.04-1.68-2.22v-.048c.816-.216 1.356-1.02 1.356-1.944 0-1.332-1.128-2.316-2.64-2.316-1.536 0-2.64.984-2.64 2.316 0 .924.528 1.728 1.368 1.944v.048c-.972.18-1.692 1.116-1.692 2.22 0 1.416 1.2 2.436 2.964 2.436zm0-.936c-1.2 0-1.932-.612-1.932-1.548 0-.984.816-1.692 1.932-1.692 1.104 0 1.92.708 1.92 1.692 0 .936-.744 1.548-1.92 1.548zm0-4.14c-.96 0-1.62-.6-1.62-1.5 0-.888.636-1.464 1.62-1.464.96 0 1.62.576 1.62 1.464 0 .9-.684 1.5-1.62 1.5z"/></g><g class="D B"><use xlink:href="#Z" x="-0.001" y="134.994"/><use xlink:href="#Z" x="7.769" y="134.994"/><use xlink:href="#d" x="-0.001" y="107.901"/></g><g class="C B"><path d="M266.326 174.927h1.116l3.888-7.74v-.996h-5.604v.948h4.5v.06l-3.9 7.728z"/><use xlink:href="#e"/></g><g class="D B"><use xlink:href="#J" x="210.041" y="80.927"/><use xlink:href="#e" x="-7.794" y="53.951"/><use xlink:href="#J" x="225.575" y="80.927"/></g><g class="E B"><use xlink:href="#f"/><use xlink:href="#g"/><use xlink:href="#h"/><use xlink:href="#i"/><use xlink:href="#j"/><use xlink:href="#k"/><use xlink:href="#l"/><use xlink:href="#m"/><use xlink:href="#n"/><use xlink:href="#o"/><use xlink:href="#p"/><use xlink:href="#o" x="7.52"/><use xlink:href="#m" x="24.14"/><use xlink:href="#q"/><use xlink:href="#r"/><use xlink:href="#s"/><use xlink:href="#g" x="89.465"/><use xlink:href="#l" x="64.82"/><use xlink:href="#t"/><use xlink:href="#t" x="7.31"/><use xlink:href="#j" x="100.96"/><use xlink:href="#l" x="93.63"/><use xlink:href="#t" x="28.81"/><use xlink:href="#n" x="93.86"/><use xlink:href="#o" x="93.86"/><use xlink:href="#p" x="93.86"/><use xlink:href="#m" x="114.95"/><use xlink:href="#s" x="78.35"/><use xlink:href="#q" x="97.68"/><use xlink:href="#u"/><use xlink:href="#p" x="125"/><use xlink:href="#j" x="167.42"/><use xlink:href="#n" x="145.74"/><use xlink:href="#o" x="145.73"/><use xlink:href="#p" x="145.73"/><use xlink:href="#o" x="153.25"/><use xlink:href="#v"/><use xlink:href="#j" x="198.15"/><use xlink:href="#w"/><use xlink:href="#m" x="188.15"/><use xlink:href="#q" x="164.01"/><use xlink:href="#x"/><use xlink:href="#m" x="207.79"/><use xlink:href="#g" x="253.785"/><use xlink:href="#k" x="236.48"/><use xlink:href="#j" x="250.97"/><use xlink:href="#n" x="229.28"/><use xlink:href="#o" x="229.28"/><use xlink:href="#p" x="229.28"/><use xlink:href="#o" x="236.8"/><use xlink:href="#v" x="83.55"/><use xlink:href="#s" x="216.25"/><use xlink:href="#w" x="83.26"/><use xlink:href="#s" x="227.44"/><use xlink:href="#y"/><use xlink:href="#q" x="253.04"/><path d="M654.853 67.189l1.284-2.472h3.54l.456 2.472h1.08l-1.752-8.736h-1.092l-4.656 8.736h1.14zm1.776-3.408l2.052-3.936h.072l.732 3.936h-2.856z"/><use xlink:href="#g" x="334.885"/><use xlink:href="#w" x="119.42"/><use xlink:href="#j" x="329.04"/><use xlink:href="#t" x="249.85"/><use xlink:href="#p" x="305.36"/><use xlink:href="#m" x="326.45"/><use xlink:href="#h" x="365.45"/><path d="M708.971 63.253c.192-1.14 1.032-1.8 2.016-1.8s1.44.588 1.272 1.644l-.684 4.092h.996l.696-4.164c.276-1.68-.504-2.472-1.836-2.472-1.032 0-1.692.432-2.1 1.116h-.096l.528-3.216h-.996l-1.44 8.736h.996l.648-3.936z"/><use xlink:href="#o" x="334.41"/><use xlink:href="#n" x="343.95"/><use xlink:href="#o" x="343.95"/><use xlink:href="#p" x="343.95"/><use xlink:href="#o" x="351.47"/><use xlink:href="#k" x="382.46"/><use xlink:href="#m" x="375.42"/><use xlink:href="#s" x="338.83"/></g><use xlink:href="#V" x="226.153" class="B"/><use xlink:href="#W" x="226.153" class="B"/><use xlink:href="#X" x="226.153" class="B"/><use xlink:href="#Y" x="226.153" class="B"/><use xlink:href="#G" x="325.239" y="-0.117" class="B"/><use xlink:href="#X" x="244.743" class="B"/><use xlink:href="#a" x="119.377" y="-0.422" class="B"/><use xlink:href="#W" x="263.973" class="B"/><path d="M376.275 33.392h-1.632l1.944 3.288-1.992 3.264h1.632l1.368-2.352 1.38 2.352h1.632l-2.004-3.264 1.968-3.288h-1.632l-1.344 2.424-1.32-2.424z" class="B"/><use xlink:href="#b" x="119.373" y="-0.422" class="B"/><path d="M390.351 36.116c0-.948.588-1.5 1.392-1.5.792 0 1.284.528 1.284 1.404v3.924h1.536V35.78c0-1.572-.9-2.472-2.244-2.472-.984 0-1.62.468-1.92 1.2h-.072v-1.116h-1.512v6.552h1.536v-3.828z" class="B"/><use xlink:href="#b" x="134.003" y="-0.422" class="B"/><path d="M403.445 39.944h1.536V35.96c0-.804.54-1.344 1.212-1.344.648 0 1.092.432 1.092 1.104v4.224h1.524v-4.092c0-.72.432-1.236 1.176-1.236.624 0 1.116.36 1.116 1.164v4.164h1.548v-4.392c0-1.464-.84-2.244-2.04-2.244-.96 0-1.68.48-1.968 1.2h-.072c-.252-.744-.888-1.2-1.764-1.2s-1.536.456-1.812 1.2h-.084v-1.116h-1.464v6.552zm11.508 2.496c1.212 0 1.896-.612 2.268-1.656l2.628-7.392h-1.632l-1.524 4.956h-.072l-1.5-4.956h-1.632l2.364 6.696-.144.396c-.252.708-.708.792-1.332.624l-.072-.024-.36 1.2c.216.084.588.156 1.008.156z" class="B"/><g class="C B"><use xlink:href="#f" y="26.976"/><use xlink:href="#g" y="26.976"/><use xlink:href="#h" y="26.976"/><use xlink:href="#i" y="26.976"/><use xlink:href="#j" y="26.976"/><use xlink:href="#k" y="26.976"/><use xlink:href="#l" y="26.976"/><use xlink:href="#m" y="26.976"/><use xlink:href="#n" y="26.976"/><use xlink:href="#o" y="26.976"/><use xlink:href="#p" y="26.976"/><use xlink:href="#o" x="7.52" y="26.976"/><use xlink:href="#m" x="24.14" y="26.976"/><use xlink:href="#q" y="26.976"/><use xlink:href="#r" y="26.976"/><use xlink:href="#s" y="26.976"/><use xlink:href="#g" x="89.465" y="26.976"/><use xlink:href="#l" x="64.82" y="26.976"/><use xlink:href="#t" y="26.976"/><use xlink:href="#t" x="7.31" y="26.976"/><use xlink:href="#j" x="100.96" y="26.976"/><use xlink:href="#l" x="93.63" y="26.976"/><use xlink:href="#t" x="28.81" y="26.976"/><use xlink:href="#n" x="93.86" y="26.976"/><use xlink:href="#o" x="93.86" y="26.976"/><use xlink:href="#p" x="93.86" y="26.976"/><use xlink:href="#m" x="114.95" y="26.976"/><use xlink:href="#s" x="78.35" y="26.976"/><use xlink:href="#q" x="97.68" y="26.976"/><use xlink:href="#u" y="26.976"/><use xlink:href="#p" x="125" y="26.976"/><use xlink:href="#j" x="167.42" y="26.976"/><use xlink:href="#n" x="145.74" y="26.976"/><use xlink:href="#o" x="145.73" y="26.976"/><use xlink:href="#p" x="145.73" y="26.976"/><use xlink:href="#o" x="153.25" y="26.976"/><use xlink:href="#v" y="26.976"/><use xlink:href="#j" x="198.15" y="26.976"/><use xlink:href="#w" y="26.976"/><use xlink:href="#m" x="188.15" y="26.976"/><use xlink:href="#q" x="164.01" y="26.976"/><use xlink:href="#x" y="26.976"/><use xlink:href="#m" x="207.79" y="26.976"/><use xlink:href="#g" x="253.785" y="26.976"/><use xlink:href="#k" x="236.48" y="26.976"/><use xlink:href="#j" x="250.97" y="26.976"/><use xlink:href="#n" x="229.28" y="26.976"/><use xlink:href="#o" x="229.28" y="26.976"/><use xlink:href="#p" x="229.28" y="26.976"/><use xlink:href="#o" x="236.8" y="26.976"/><use xlink:href="#v" x="83.55" y="26.976"/><use xlink:href="#s" x="216.25" y="26.976"/><use xlink:href="#w" x="83.26" y="26.976"/><use xlink:href="#s" x="227.44" y="26.976"/><use xlink:href="#y" y="26.976"/><use xlink:href="#q" x="253.04" y="26.976"/><use xlink:href="#z"/><use xlink:href="#j" x="317.12" y="26.976"/><use xlink:href="#AA"/><use xlink:href="#s" x="266.15" y="26.976"/><use xlink:href="#i" x="341.32" y="26.976"/><use xlink:href="#i" x="344.16" y="26.976"/><use xlink:href="#n" x="315.55" y="26.976"/><use xlink:href="#o" x="315.55" y="26.976"/><use xlink:href="#p" x="315.55" y="26.976"/><use xlink:href="#o" x="323.07" y="26.976"/><use xlink:href="#k" x="354.06" y="26.976"/><use xlink:href="#m" x="347.02" y="26.976"/><use xlink:href="#s" x="310.43" y="26.976"/></g><path d="M319.095 116.149h6v.936h-6z" class="B"/><g class="C B"><use xlink:href="#f" y="80.926"/><use xlink:href="#g" y="80.926"/><use xlink:href="#h" y="80.926"/><use xlink:href="#i" y="80.926"/><use xlink:href="#j" y="80.926"/><use xlink:href="#k" y="80.926"/><use xlink:href="#l" y="80.926"/><use xlink:href="#m" y="80.926"/><use xlink:href="#n" y="80.926"/><use xlink:href="#o" y="80.926"/><use xlink:href="#p" y="80.926"/><use xlink:href="#o" x="7.52" y="80.926"/><use xlink:href="#m" x="24.14" y="80.926"/><use xlink:href="#q" y="80.926"/><use xlink:href="#r" y="80.926"/><use xlink:href="#s" y="80.926"/><use xlink:href="#g" x="89.465" y="80.926"/><use xlink:href="#l" x="64.82" y="80.926"/><use xlink:href="#t" y="80.926"/><use xlink:href="#t" x="7.31" y="80.926"/><use xlink:href="#j" x="100.96" y="80.926"/><use xlink:href="#l" x="93.63" y="80.926"/><use xlink:href="#t" x="28.81" y="80.926"/><use xlink:href="#n" x="93.86" y="80.926"/><use xlink:href="#o" x="93.86" y="80.926"/><use xlink:href="#p" x="93.86" y="80.926"/><use xlink:href="#m" x="114.95" y="80.926"/><use xlink:href="#s" x="78.35" y="80.926"/><use xlink:href="#q" x="97.68" y="80.926"/><use xlink:href="#u" y="80.926"/><use xlink:href="#p" x="125" y="80.926"/><use xlink:href="#j" x="167.42" y="80.926"/><use xlink:href="#n" x="145.74" y="80.926"/><use xlink:href="#o" x="145.73" y="80.926"/><use xlink:href="#p" x="145.73" y="80.926"/><use xlink:href="#o" x="153.25" y="80.926"/><use xlink:href="#v" y="80.926"/><use xlink:href="#j" x="198.15" y="80.926"/><use xlink:href="#w" y="80.926"/><use xlink:href="#m" x="188.15" y="80.926"/><use xlink:href="#q" x="164.01" y="80.926"/><use xlink:href="#x" y="80.926"/><use xlink:href="#m" x="207.79" y="80.926"/><use xlink:href="#g" x="253.785" y="80.926"/><use xlink:href="#k" x="236.48" y="80.926"/><use xlink:href="#j" x="250.97" y="80.926"/><use xlink:href="#n" x="229.28" y="80.926"/><use xlink:href="#o" x="229.28" y="80.926"/><use xlink:href="#p" x="229.28" y="80.926"/><use xlink:href="#o" x="236.8" y="80.926"/><use xlink:href="#v" x="83.55" y="80.926"/><use xlink:href="#s" x="216.25" y="80.926"/><use xlink:href="#w" x="83.26" y="80.926"/><use xlink:href="#s" x="227.44" y="80.926"/><use xlink:href="#y" y="80.926"/><use xlink:href="#q" x="253.04" y="80.926"/><use xlink:href="#z" y="53.95"/><use xlink:href="#j" x="317.12" y="80.926"/><use xlink:href="#AA" y="53.95"/><use xlink:href="#s" x="266.15" y="80.926"/><use xlink:href="#i" x="341.32" y="80.926"/><use xlink:href="#i" x="344.16" y="80.926"/><use xlink:href="#n" x="315.55" y="80.926"/><use xlink:href="#o" x="315.55" y="80.926"/><use xlink:href="#p" x="315.55" y="80.926"/><use xlink:href="#o" x="323.07" y="80.926"/><use xlink:href="#k" x="354.06" y="80.926"/><use xlink:href="#m" x="347.02" y="80.926"/><use xlink:href="#s" x="310.43" y="80.926"/></g><g class="D B"><use xlink:href="#f" y="134.877"/><use xlink:href="#g" y="134.877"/><use xlink:href="#h" y="134.877"/><use xlink:href="#i" y="134.877"/><use xlink:href="#j" y="134.877"/><use xlink:href="#k" y="134.877"/><use xlink:href="#l" y="134.877"/><use xlink:href="#m" y="134.877"/><use xlink:href="#n" y="134.877"/><use xlink:href="#o" y="134.877"/><use xlink:href="#p" y="134.877"/><use xlink:href="#o" x="7.52" y="134.877"/><use xlink:href="#m" x="24.14" y="134.877"/><use xlink:href="#q" y="134.877"/><use xlink:href="#r" y="134.877"/><use xlink:href="#s" y="134.877"/><use xlink:href="#g" x="89.465" y="134.877"/><use xlink:href="#l" x="64.82" y="134.877"/><use xlink:href="#t" y="134.877"/><use xlink:href="#t" x="7.31" y="134.877"/><use xlink:href="#j" x="100.96" y="134.877"/><use xlink:href="#l" x="93.63" y="134.877"/><use xlink:href="#t" x="28.81" y="134.877"/><use xlink:href="#n" x="93.86" y="134.877"/><use xlink:href="#o" x="93.86" y="134.877"/><use xlink:href="#p" x="93.86" y="134.877"/><use xlink:href="#m" x="114.95" y="134.877"/><use xlink:href="#s" x="78.35" y="134.877"/><use xlink:href="#q" x="97.68" y="134.877"/><use xlink:href="#u" y="134.877"/><use xlink:href="#p" x="125" y="134.877"/><use xlink:href="#j" x="167.42" y="134.877"/><use xlink:href="#n" x="145.74" y="134.877"/><use xlink:href="#o" x="145.73" y="134.877"/><use xlink:href="#p" x="145.73" y="134.877"/><use xlink:href="#o" x="153.25" y="134.877"/><use xlink:href="#v" y="134.877"/><use xlink:href="#j" x="198.15" y="134.877"/><use xlink:href="#w" y="134.877"/><use xlink:href="#m" x="188.15" y="134.877"/><use xlink:href="#q" x="164.01" y="134.877"/><use xlink:href="#x" y="134.877"/><use xlink:href="#m" x="207.79" y="134.877"/><use xlink:href="#g" x="253.785" y="134.877"/><use xlink:href="#k" x="236.48" y="134.877"/><use xlink:href="#j" x="250.97" y="134.877"/><use xlink:href="#n" x="229.28" y="134.877"/><use xlink:href="#o" x="229.28" y="134.877"/><use xlink:href="#p" x="229.28" y="134.877"/><use xlink:href="#o" x="236.8" y="134.877"/><use xlink:href="#v" x="83.55" y="134.877"/><use xlink:href="#s" x="216.25" y="134.877"/><use xlink:href="#w" x="83.26" y="134.877"/><use xlink:href="#s" x="227.44" y="134.877"/><use xlink:href="#y" y="134.877"/></g><g class="C B"><use xlink:href="#f" y="107.902"/><use xlink:href="#g" y="107.902"/><use xlink:href="#h" y="107.902"/><use xlink:href="#i" y="107.902"/><use xlink:href="#j" y="107.902"/><use xlink:href="#k" y="107.902"/><use xlink:href="#l" y="107.902"/><use xlink:href="#m" y="107.902"/><use xlink:href="#n" y="107.902"/><use xlink:href="#o" y="107.902"/><use xlink:href="#p" y="107.902"/><use xlink:href="#o" x="7.52" y="107.902"/><use xlink:href="#m" x="24.14" y="107.902"/><use xlink:href="#q" y="107.902"/><use xlink:href="#r" y="107.902"/><use xlink:href="#s" y="107.902"/><use xlink:href="#g" x="89.465" y="107.902"/><use xlink:href="#l" x="64.82" y="107.902"/><use xlink:href="#t" y="107.902"/><use xlink:href="#t" x="7.31" y="107.902"/><use xlink:href="#j" x="100.96" y="107.902"/><use xlink:href="#l" x="93.63" y="107.902"/><use xlink:href="#t" x="28.81" y="107.902"/><use xlink:href="#n" x="93.86" y="107.902"/><use xlink:href="#o" x="93.86" y="107.902"/><use xlink:href="#p" x="93.86" y="107.902"/><use xlink:href="#m" x="114.95" y="107.902"/><use xlink:href="#s" x="78.35" y="107.902"/><use xlink:href="#q" x="97.68" y="107.902"/><use xlink:href="#u" y="107.902"/><use xlink:href="#p" x="125" y="107.902"/><use xlink:href="#j" x="167.42" y="107.902"/><use xlink:href="#n" x="145.74" y="107.902"/><use xlink:href="#o" x="145.73" y="107.902"/><use xlink:href="#p" x="145.73" y="107.902"/><use xlink:href="#o" x="153.25" y="107.902"/><use xlink:href="#v" y="107.902"/><use xlink:href="#j" x="198.15" y="107.902"/><use xlink:href="#w" y="107.902"/><use xlink:href="#m" x="188.15" y="107.902"/><use xlink:href="#q" x="164.01" y="107.902"/><use xlink:href="#x" y="107.902"/><use xlink:href="#m" x="207.79" y="107.902"/><use xlink:href="#g" x="253.785" y="107.902"/><use xlink:href="#k" x="236.48" y="107.902"/><use xlink:href="#j" x="250.97" y="107.902"/><use xlink:href="#n" x="229.28" y="107.902"/><use xlink:href="#o" x="229.28" y="107.902"/><use xlink:href="#p" x="229.28" y="107.902"/><use xlink:href="#o" x="236.8" y="107.902"/><use xlink:href="#v" x="83.55" y="107.902"/><use xlink:href="#s" x="216.25" y="107.902"/><use xlink:href="#w" x="83.26" y="107.902"/><use xlink:href="#s" x="227.44" y="107.902"/><use xlink:href="#y" y="107.902"/><use xlink:href="#q" x="253.04" y="107.902"/><use xlink:href="#z" y="80.926"/><use xlink:href="#j" x="317.12" y="107.902"/><use xlink:href="#AA" y="80.926"/><use xlink:href="#s" x="266.15" y="107.902"/><use xlink:href="#i" x="341.32" y="107.902"/><use xlink:href="#i" x="344.16" y="107.902"/><use xlink:href="#n" x="315.55" y="107.902"/><use xlink:href="#o" x="315.55" y="107.902"/><use xlink:href="#p" x="315.55" y="107.902"/><use xlink:href="#o" x="323.07" y="107.902"/><use xlink:href="#k" x="354.06" y="107.902"/><use xlink:href="#m" x="347.02" y="107.902"/><use xlink:href="#s" x="310.43" y="107.902"/></g><g class="D B"><use xlink:href="#f" y="161.853"/><use xlink:href="#g" y="161.853"/><use xlink:href="#h" y="161.853"/><use xlink:href="#i" y="161.853"/><use xlink:href="#j" y="161.853"/><use xlink:href="#k" y="161.853"/><use xlink:href="#l" y="161.853"/><use xlink:href="#m" y="161.853"/><use xlink:href="#n" y="161.853"/><use xlink:href="#o" y="161.853"/><use xlink:href="#p" y="161.853"/><use xlink:href="#o" x="7.52" y="161.853"/><use xlink:href="#m" x="24.14" y="161.853"/><use xlink:href="#q" y="161.853"/><use xlink:href="#r" y="161.853"/><use xlink:href="#s" y="161.853"/><use xlink:href="#g" x="89.465" y="161.853"/><use xlink:href="#l" x="64.82" y="161.853"/><use xlink:href="#t" y="161.853"/><use xlink:href="#t" x="7.31" y="161.853"/><use xlink:href="#j" x="100.96" y="161.853"/><use xlink:href="#l" x="93.63" y="161.853"/><use xlink:href="#t" x="28.81" y="161.853"/><use xlink:href="#n" x="93.86" y="161.853"/><use xlink:href="#o" x="93.86" y="161.853"/><use xlink:href="#p" x="93.86" y="161.853"/><use xlink:href="#m" x="114.95" y="161.853"/><use xlink:href="#s" x="78.35" y="161.853"/><use xlink:href="#q" x="97.68" y="161.853"/><use xlink:href="#u" y="161.853"/><use xlink:href="#p" x="125" y="161.853"/><use xlink:href="#j" x="167.42" y="161.853"/><use xlink:href="#n" x="145.74" y="161.853"/><use xlink:href="#o" x="145.73" y="161.853"/><use xlink:href="#p" x="145.73" y="161.853"/><use xlink:href="#o" x="153.25" y="161.853"/><use xlink:href="#v" y="161.853"/><use xlink:href="#j" x="198.15" y="161.853"/><use xlink:href="#w" y="161.853"/><use xlink:href="#m" x="188.15" y="161.853"/><use xlink:href="#q" x="164.01" y="161.853"/><use xlink:href="#x" y="161.853"/><use xlink:href="#m" x="207.79" y="161.853"/><use xlink:href="#g" x="253.785" y="161.853"/><use xlink:href="#k" x="236.48" y="161.853"/><use xlink:href="#j" x="250.97" y="161.853"/><use xlink:href="#n" x="229.28" y="161.853"/><use xlink:href="#o" x="229.28" y="161.853"/><use xlink:href="#p" x="229.28" y="161.853"/><use xlink:href="#o" x="236.8" y="161.853"/><use xlink:href="#v" x="83.55" y="161.853"/><use xlink:href="#s" x="216.25" y="161.853"/><use xlink:href="#w" x="83.26" y="161.853"/><use xlink:href="#s" x="227.44" y="161.853"/><use xlink:href="#y" y="161.853"/></g><path d="M6.5 21.4h757v1H6.5zm0 27.025h757v1H6.5z"/><path d="M6.5 75.45h757v1H6.5zm0 27.025h757v1H6.5zm0 27.025h757v1H6.5zm0 27.025h757v1H6.5zm0 27.025h757v1H6.5zm0 27.024h757v1H6.5z" fill="#d4d4d4"/><path d="M6.5 237.599h757v1H6.5z"/><defs ><path id="B" d="M18.224 67.145c2.076 0 3.564-1.38 3.564-3.54v-.948h-3.336v.936h2.304c-.036 1.572-1.056 2.568-2.532 2.568-1.62 0-2.868-1.236-2.868-3.492 0-2.28 1.248-3.504 2.796-3.504 1.26 0 2.112.708 2.484 1.86h1.092c-.324-1.692-1.74-2.844-3.576-2.844-2.244 0-3.816 1.716-3.816 4.488 0 2.76 1.56 4.476 3.888 4.476z"/><path id="C" d="M26.206 67.169c1.32 0 2.292-.672 2.592-1.656l-.972-.276c-.252.684-.84 1.032-1.62 1.032-1.188 0-2.004-.768-2.052-2.172h4.752v-.432c0-2.436-1.464-3.276-2.832-3.276-1.776 0-2.928 1.404-2.928 3.408 0 2.016 1.164 3.372 3.06 3.372zm-2.052-3.936c.072-1.032.768-1.944 1.92-1.944 1.104 0 1.716.792 1.812 1.944h-3.732z"/><path id="D" d="M31.41 63.089c0-1.14.72-1.8 1.68-1.8.936 0 1.512.624 1.512 1.644v4.092h.996v-4.164c0-1.668-.9-2.472-2.22-2.472-.984 0-1.608.444-1.908 1.116h-.096v-1.032h-.96v6.552h.996v-3.936z"/><path id="E" d="M40.202 67.169c1.32 0 2.292-.672 2.592-1.656l-.972-.276c-.252.684-.84 1.032-1.62 1.032-1.188 0-2.004-.768-2.052-2.172h4.752v-.432c0-2.436-1.464-3.276-2.832-3.276-1.776 0-2.928 1.404-2.928 3.408 0 2.016 1.164 3.372 3.06 3.372zm-2.052-3.936c.072-1.032.768-1.944 1.92-1.944 1.104 0 1.716.792 1.812 1.944H38.15z"/><path id="F" d="M50.628 58.289h-1.02l-2.184 1.464v1.068l2.124-1.416h.06v7.62h1.02v-8.736z"/><path id="G" d="M26.37 40.193c1.524 0 2.556-.744 2.832-1.884l-1.44-.168c-.204.564-.708.852-1.368.852-.972 0-1.632-.66-1.68-1.776h4.56v-.48c0-2.292-1.392-3.312-3-3.312-1.884 0-3.096 1.38-3.096 3.396 0 2.052 1.212 3.372 3.192 3.372zm-1.656-4.02c.084-.864.636-1.548 1.56-1.548.9 0 1.404.612 1.5 1.548h-3.06z"/><path id="H" d="M47.76 94.001h5.508v-.936h-4.056v-.072l1.956-2.1c1.5-1.608 1.944-2.352 1.944-3.312 0-1.356-1.092-2.424-2.616-2.424-1.536 0-2.7 1.044-2.7 2.58h1.008c0-.996.636-1.656 1.656-1.656.936 0 1.656.576 1.656 1.5 0 .804-.468 1.392-1.476 2.496l-2.88 3.168v.756z"/><path id="I" d="M50.712 121.096c1.692 0 2.94-1.068 2.94-2.484 0-1.116-.648-1.92-1.74-2.1v-.072c.876-.264 1.428-.984 1.428-1.98 0-1.236-.984-2.328-2.592-2.328-1.512 0-2.76.924-2.808 2.292h1.02c.036-.864.864-1.368 1.764-1.368.972 0 1.584.576 1.584 1.464 0 .924-.708 1.512-1.74 1.512h-.708v.936h.708c1.308 0 2.052.672 2.052 1.644 0 .912-.804 1.548-1.932 1.548-1.008 0-1.812-.516-1.872-1.368h-1.068c.06 1.38 1.272 2.304 2.964 2.304z"/><path id="J" d="M47.568 146.163h4.092v1.788h1.008v-1.788h1.2v-.948h-1.2v-6h-1.272l-3.828 6.072v.876zm4.092-.948h-2.964v-.06l2.904-4.584h.06v4.644z"/><path id="K" d="M50.604 202.022c1.776 0 2.928-1.308 2.928-2.928 0-1.692-1.248-2.904-2.748-2.904-.9 0-1.668.444-2.148 1.164h-.06c0-2.136.816-3.36 2.172-3.36.924 0 1.476.576 1.68 1.356h1.032c-.216-1.344-1.248-2.292-2.712-2.292-1.956 0-3.168 1.74-3.168 4.824 0 3.228 1.596 4.14 3.024 4.14zm0-.936c-1.08 0-1.884-.936-1.884-1.98s.852-1.968 1.92-1.968c1.08 0 1.872.864 1.872 1.956 0 1.104-.828 1.992-1.908 1.992z"/><path id="L" d="M50.496 175.047c1.656 0 2.88-1.224 2.88-2.892 0-1.704-1.176-2.94-2.772-2.94-.6 0-1.176.216-1.524.492h-.048l.3-2.568h3.648v-.948h-4.536l-.528 4.308.996.12c.36-.264.972-.444 1.512-.444 1.116 0 1.92.852 1.92 1.992 0 1.116-.78 1.944-1.848 1.944-.9 0-1.62-.576-1.692-1.368h-1.02c.06 1.332 1.212 2.304 2.712 2.304z"/><path id="M" d="M102.4 67.025h5.328v-.936h-4.272v-3h3.936v-.936h-3.936v-2.916h4.212v-.948H102.4v8.736z"/><path id="N" d="M116.512 58.289h-1.056v6.876h-.084l-4.776-6.876h-1.02v8.736h1.056v-6.852h.096l4.74 6.852h1.044v-8.736z"/><path id="O" d="M122.132 67.145c2.232 0 3.852-1.716 3.852-4.476 0-2.772-1.62-4.488-3.852-4.488s-3.852 1.716-3.852 4.488c0 2.76 1.62 4.476 3.852 4.476zm0-.984c-1.584 0-2.832-1.236-2.832-3.492 0-2.28 1.248-3.504 2.832-3.504s2.832 1.224 2.832 3.504c0 2.256-1.248 3.492-2.832 3.492z"/><path id="P" d="M127.756 58.289v8.736h.996v-6.636h.084l2.712 6.636h.948l2.748-6.636h.084v6.636h1.032v-8.736h-1.308l-2.964 7.248h-.108l-2.964-7.248h-1.26z"/><path id="Q" d="M138.836 67.025l.876-2.472h3.528l.888 2.472h1.092l-3.192-8.736h-1.092l-3.216 8.736h1.116zm1.212-3.408l1.392-3.936h.072l1.404 3.936h-2.868z"/><path id="R" d="M149.274 67.025c2.664 0 4.164-1.656 4.164-4.38 0-2.712-1.5-4.356-4.044-4.356h-2.808v8.736h2.688zm-1.632-.936v-6.852h1.68c2.052 0 3.096 1.296 3.096 3.408 0 2.136-1.044 3.444-3.204 3.444h-1.572z"/><path id="S" d="M155.314 67.097c.42 0 .768-.348.768-.768s-.348-.768-.768-.768-.768.348-.768.768.348.768.768.768z"/><path id="T" d="M160.454 67.145c1.932 0 3.036-1.632 3.036-4.476s-1.116-4.488-3.036-4.488c-1.908 0-3.024 1.644-3.024 4.488s1.104 4.476 3.024 4.476zm0-.924c-1.284 0-2.016-1.308-2.016-3.552 0-2.256.732-3.564 2.016-3.564 1.296 0 2.028 1.308 2.028 3.564 0 2.244-.732 3.552-2.028 3.552z"/><path id="U" d="M202.496 58.289h-1.116l3.216 8.736h1.092l3.192-8.736h-1.092l-2.592 7.356h-.108l-2.592-7.356z"/><path id="V" d="M93.278 31.208v8.736h1.536v-6.012h.072l2.4 5.988h1.14l2.424-5.976h.072v6h1.548v-8.736h-1.956l-2.592 6.324h-.108l-2.592-6.324h-1.944z"/><path id="W" d="M106.006 40.076c1.032 0 1.644-.48 1.92-1.032h.072v.9h1.464v-4.38c0-1.728-1.428-2.256-2.676-2.256-1.332 0-2.4.576-2.784 1.716l1.428.288c.156-.432.612-.816 1.368-.816.732 0 1.128.372 1.128.996v.036c0 .444-.468.468-1.62.588-1.272.132-2.496.516-2.496 1.992 0 1.284.948 1.968 2.196 1.968zm.396-1.128c-.636 0-1.092-.3-1.092-.864 0-.6.516-.84 1.2-.936.396-.06 1.224-.168 1.428-.324v.768c0 .732-.6 1.356-1.536 1.356z"/><path id="X" d="M111.052 39.944h1.536v-3.84c0-.84.636-1.416 1.476-1.416.264 0 .588.036.72.072v-1.416a4 4 0 0 0-.552-.036c-.744 0-1.38.42-1.62 1.188h-.072v-1.104h-1.488v6.552z"/><path id="Y" d="M115.992 39.944h1.536v-2.196l.564-.6 2.004 2.796h1.848l-2.688-3.72 2.544-2.832h-1.812l-2.34 2.628h-.12v-4.812h-1.536v8.736z"/><path id="Z" d="M261.785 58.172h-1.032l-2.172 1.464v1.068l2.112-1.416h.06v7.62h1.032v-8.736z"/><path id="a" d="M247.422 33.814h-1.296v-1.56h-1.536v1.56h-.924v1.2h.924v3.636c0 1.128.732 1.8 1.956 1.8.336 0 .672-.048 1.008-.144l-.264-1.212a2.07 2.07 0 0 1-.456.06c-.492 0-.708-.24-.708-.756v-3.384h1.296v-1.2z"/><path id="b" d="M265.008 40.498c1.908 0 3.132-1.356 3.132-3.384s-1.224-3.384-3.132-3.384c-1.92 0-3.144 1.356-3.144 3.384s1.224 3.384 3.144 3.384zm0-1.248c-1.056 0-1.572-.936-1.572-2.136s.516-2.136 1.572-2.136 1.572.936 1.572 2.136-.516 2.136-1.572 2.136z"/><path id="c" d="M265.858 94.001h5.508v-.936h-4.056v-.072l1.956-2.1c1.5-1.608 1.944-2.352 1.944-3.312 0-1.356-1.092-2.424-2.628-2.424-1.524 0-2.688 1.044-2.688 2.58h1.008c0-.996.636-1.656 1.644-1.656.948 0 1.668.576 1.668 1.5 0 .804-.48 1.392-1.476 2.496l-2.88 3.168v.756z"/><path id="d" d="M276.352 94.121c1.776 0 2.916-1.308 2.916-2.928 0-1.692-1.248-2.904-2.736-2.904-.9 0-1.668.444-2.148 1.164h-.072c0-2.136.828-3.36 2.184-3.36.924 0 1.476.576 1.68 1.356h1.032c-.216-1.344-1.248-2.292-2.712-2.292-1.968 0-3.18 1.74-3.18 4.824 0 3.228 1.608 4.14 3.036 4.14zm0-.936c-1.092 0-1.884-.936-1.884-1.98s.84-1.968 1.92-1.968 1.86.864 1.86 1.956c0 1.104-.816 1.992-1.896 1.992z"/><path id="e" d="M276.352 175.047c1.932 0 3.036-1.632 3.036-4.476s-1.128-4.488-3.036-4.488-3.036 1.644-3.036 4.488 1.116 4.476 3.036 4.476zm0-.924c-1.296 0-2.028-1.308-2.028-3.552 0-2.256.732-3.564 2.028-3.564s2.028 1.308 2.028 3.564c0 2.244-.732 3.552-2.028 3.552z"/><path id="f" d="M321.819 67.189c2.664 0 4.392-1.62 4.836-4.308.456-2.748-.804-4.428-3.336-4.428h-2.784l-1.44 8.736h2.724zm-1.512-.936l1.128-6.852h1.728c2.052 0 2.844 1.26 2.496 3.336-.36 2.172-1.644 3.516-3.816 3.516h-1.536z"/><path id="g" d="M332.166 64.513c-.216 1.224-1.236 1.788-1.98 1.788-.84 0-1.332-.612-1.176-1.56l.684-4.104h-1.008l-.708 4.164c-.276 1.668.48 2.472 1.716 2.472.984 0 1.74-.528 2.136-1.2h.072l-.192 1.116h1.008l1.092-6.552h-1.008l-.636 3.876z"/><path id="h" d="M334.181 69.637h.996l.564-3.456h.084c.156.36.456 1.152 1.716 1.152 1.644 0 3-1.32 3.348-3.396.336-2.064-.588-3.384-2.232-3.384-1.284 0-1.812.792-2.088 1.128h-.12l.18-1.044h-.96l-1.488 9zm3.384-3.204c-1.212 0-1.704-1.032-1.464-2.508.252-1.476 1.056-2.472 2.292-2.472 1.272 0 1.716 1.08 1.488 2.472s-1.056 2.508-2.316 2.508z"/><path id="i" d="M344.313 58.453h-.996l-1.44 8.736h.996l1.44-8.736z"/><path id="j" d="M347.355 67.333c1.776 0 3.204-1.356 3.528-3.384.348-2.04-.636-3.396-2.412-3.396-1.764 0-3.18 1.356-3.528 3.396-.336 2.028.648 3.384 2.412 3.384zm.156-.9c-1.344 0-1.776-1.176-1.56-2.484.228-1.308 1.032-2.496 2.376-2.496 1.356 0 1.776 1.188 1.548 2.496-.216 1.308-1.02 2.484-2.364 2.484z"/><path id="k" d="M354.335 67.333c1.26-.012 1.824-.792 2.1-1.152h.12l-.168 1.008h.972l1.44-8.736h-1.008l-.528 3.228h-.084c-.168-.336-.432-1.128-1.704-1.128-1.656 0-3.012 1.32-3.36 3.384-.336 2.076.588 3.384 2.22 3.396zm.252-.9c-1.26-.012-1.692-1.116-1.452-2.508.216-1.392.996-2.46 2.268-2.472 1.236.012 1.752.996 1.512 2.472-.252 1.476-1.116 2.496-2.328 2.508z"/><path id="l" d="M360.861 63.253c.204-1.14 1.02-1.8 1.98-1.8.936 0 1.416.624 1.236 1.644l-.672 4.092h.996l.684-4.164c.276-1.668-.492-2.472-1.8-2.472-.996 0-1.68.444-2.1 1.116h-.096l.18-1.032h-.96l-1.092 6.552h.996l.648-3.936z"/><path id="m" d="M368.693 67.333c1.272 0 1.824-.792 2.1-1.152h.132l-.168 1.008h.96l1.092-6.552h-.996l-.18 1.044h-.084c-.168-.336-.432-1.128-1.704-1.128-1.656 0-3.024 1.32-3.36 3.384-.348 2.076.588 3.396 2.208 3.396zm.3-.9c-1.26 0-1.728-1.116-1.5-2.508s1.044-2.472 2.316-2.472c1.236 0 1.716.996 1.464 2.472-.24 1.476-1.068 2.508-2.28 2.508z"/><path id="n" d="M379.769 60.637h-1.14l-2.676 5.232h-.06l-.936-5.232h-1.044l1.32 6.552h1.032l3.504-6.552z"/><path id="o" d="M380.017 67.189h1.008l1.092-6.552h-1.008l-1.092 6.552zm1.788-7.656c.396 0 .768-.3.828-.672.06-.384-.216-.684-.6-.684-.396 0-.768.3-.828.684-.072.372.204.672.6.672z"/><path id="p" d="M382.877 67.189h.996l.684-4.14c.156-.888.96-1.536 1.908-1.536.276 0 .54.048.612.06l.168-1.02c-.108 0-.372-.012-.516-.012-.792 0-1.548.444-1.896 1.092h-.072l.168-.996h-.96l-1.092 6.552z"/><path id="q" d="M397.201 69.265h.768l1.452-3.3h-1.164l-1.056 3.3zm2.292-6.744a.87.87 0 0 0 .828-.708c.072-.444-.24-.828-.696-.828a.86.86 0 0 0-.816.708c-.084.444.24.828.684.828z"/><path id="r" d="M401.417 67.189h1.056l.648-3.9h4.656l-.648 3.9h1.056l1.452-8.736h-1.056l-.648 3.9h-4.656l.648-3.9h-1.056l-1.452 8.736z"/><path id="s" d="M412.903 67.333c1.284 0 2.388-.648 2.88-1.656l-.936-.276c-.336.636-1.056 1.032-1.884 1.032-1.068 0-1.644-.612-1.644-1.716 0-.096 0-.192.036-.396 3.252-.036 4.596-.636 4.596-2.052 0-1.08-.804-1.776-2.064-1.776-1.956 0-3.552 1.896-3.552 4.2 0 1.656.948 2.64 2.568 2.64zm-1.428-3.78v-.012c.204-1.2 1.212-2.136 2.316-2.136.696 0 1.152.324 1.152.828 0 .972-.828 1.296-3.468 1.32z"/><path id="t" d="M433.285 69.781c1.56 0 2.928-.72 3.216-2.4l1.116-6.744h-.972l-.168 1.044h-.108c-.168-.336-.444-1.128-1.716-1.128-1.656 0-3.012 1.32-3.348 3.336-.348 2.04.66 3.204 2.256 3.192 1.236.012 1.776-.708 2.052-1.08.012 0 .012-.012.024-.024h.084l-.204 1.332c-.18 1.092-1.068 1.584-2.112 1.584-1.152 0-1.464-.564-1.656-.936-.012-.024-.024-.036-.036-.048l-.9.552c.3.696.996 1.32 2.472 1.32zm.528-3.6c-1.272 0-1.728-.96-1.5-2.316.216-1.332.984-2.4 2.268-2.412 1.212.012 1.752.996 1.524 2.412-.252 1.452-1.092 2.316-2.292 2.316z"/><path id="u" d="M506.285 58.453l-.948 5.688c-.216 1.284-1.248 2.208-2.7 2.208s-2.184-.924-1.98-2.208l.948-5.688h-1.056l-.96 5.772c-.288 1.788.828 3.108 2.892 3.108 2.052 0 3.6-1.32 3.9-3.108l.96-5.772h-1.056z"/><path id="v" d="M538.755 67.333c1.452 0 2.556-.888 2.916-2.052h-1.008a1.86 1.86 0 0 1-1.752 1.152c-1.188 0-1.8-.996-1.548-2.508.24-1.488 1.188-2.472 2.364-2.472.888 0 1.32.552 1.38 1.152h1.008c.036-1.224-.876-2.052-2.256-2.052-1.776 0-3.18 1.404-3.516 3.396-.324 1.968.576 3.384 2.412 3.384z"/><path id="w" d="M553.961 60.637h-1.404l.264-1.56h-.996l-.264 1.56h-.984l-.144.852h.984l-.672 4.092c-.168 1.008.444 1.692 1.5 1.692a2.4 2.4 0 0 0 .768-.12l-.06-.9c-.18.036-.312.048-.456.048-.6 0-.828-.312-.708-.984l.624-3.828h1.404l.144-.852z"/><path id="x" d="M568.941 67.309c1.752 0 3.36-1.056 3.984-2.856h-1.056c-.456 1.224-1.608 1.872-2.76 1.872-1.584 0-2.64-1.236-2.256-3.492.372-2.28 1.824-3.504 3.408-3.504 1.164 0 2.1.648 2.148 1.86h1.056c-.024-1.788-1.284-2.844-3.036-2.844-2.232 0-4.14 1.716-4.596 4.488-.456 2.76.876 4.476 3.108 4.476z"/><path id="y" d="M649.949 62.113c-.156-.924-.768-1.56-2.064-1.56-1.38 0-2.532.792-2.712 1.896-.156.9.288 1.5 1.44 1.788l1.056.252c.636.168.9.468.816.936-.096.552-.768 1.02-1.704 1.02-.828 0-1.284-.36-1.344-1.056l-.996.228c.06 1.116.876 1.716 2.208 1.716 1.524 0 2.688-.84 2.88-1.968.144-.912-.324-1.488-1.44-1.776l-.936-.228c-.744-.192-1.056-.456-.972-.96.096-.564.768-.972 1.56-.972.888 0 1.164.492 1.26.936l.948-.252z"/><path id="z" d="M654.181 94.165h6.024l.144-.936h-4.752l5.868-7.02.132-.78h-6.024l-.156.948h4.764l-5.88 7.032-.12.756z"/><path id="AA" d="M671.983 94.309c1.644-.012 3-1.32 3.348-3.396.336-2.064-.576-3.384-2.232-3.384-1.284 0-1.812.792-2.088 1.128h-.084l.528-3.228h-1.008l-1.44 8.736h.972l.168-1.008h.12c.168.36.456 1.14 1.716 1.152zm.024-.9c-1.212-.012-1.704-1.032-1.464-2.508s1.056-2.46 2.28-2.472c1.284.012 1.728 1.08 1.5 2.472-.24 1.392-1.056 2.496-2.316 2.508z"/></defs></svg>