<svg xmlns="http://www.w3.org/2000/svg" xmlns:xlink="http://www.w3.org/1999/xlink" width="100%" height="100%" viewBox="0 0 840 220" fill-rule="evenodd" stroke-linejoin="round" stroke-miterlimit="2" xmlns:v="https://vecta.io/nano"><g fill-rule="nonzero"><path d="M10.793 36.458h1.584v-3.141h1.608l1.716 3.141h1.776l-1.896-3.4c1.032-.4 1.572-1.259 1.572-2.424 0-1.635-1.068-2.741-3.072-2.741h-3.288v8.565zm1.584-4.412v-2.847h1.452c1.176 0 1.704.529 1.704 1.435 0 .918-.528 1.412-1.692 1.412h-1.464z"/><use xlink:href="#B"/><use xlink:href="#C"/><path d="M32.805 36.458h1.536v-2.153l.564-.588 2.004 2.741h1.848l-2.688-3.647 2.544-2.776h-1.812l-2.34 2.576h-.12v-4.718h-1.536v8.565zm50.616-7.259h2.688v7.259h1.584v-7.259h2.688v-1.306h-6.96v1.306z"/><use xlink:href="#B" x="72.238"/><use xlink:href="#D"/><use xlink:href="#E"/><use xlink:href="#C" x="86.042"/><use xlink:href="#F"/><use xlink:href="#G"/><use xlink:href="#C" x="199.815" y="0.06"/><use xlink:href="#G" x="14.426"/><use xlink:href="#H"/><use xlink:href="#F" x="60"/><use xlink:href="#G" x="60"/><use xlink:href="#C" x="259.815" y="0.06"/><use xlink:href="#G" x="74.426"/><path d="M302.968 36.518h5.988v-1.294h-3.804v-.059l1.5-1.506c1.704-1.588 2.172-2.365 2.172-3.329 0-1.435-1.188-2.482-2.94-2.482-1.74 0-2.964 1.059-2.964 2.671h1.5c0-.871.564-1.412 1.44-1.412.828 0 1.44.494 1.44 1.294 0 .729-.444 1.224-1.296 2.082l-3.036 2.918v1.118z"/><use xlink:href="#F" x="120.006"/><use xlink:href="#G" x="120.006"/><use xlink:href="#C" x="319.821" y="0.06"/><use xlink:href="#G" x="134.432"/><path d="M362.53 34.93h4.152v1.588h1.512V34.93h1.128v-1.271h-1.128v-5.706h-1.968l-3.696 5.741v1.235zm4.176-1.271h-2.568v-.071l2.496-3.871h.072v3.941z"/><use xlink:href="#F" x="180"/><use xlink:href="#G" x="180"/><use xlink:href="#C" x="379.815" y="0.06"/><use xlink:href="#G" x="194.426"/><use xlink:href="#I"/><use xlink:href="#F" x="240"/><use xlink:href="#G" x="240"/><use xlink:href="#C" x="439.815" y="0.06"/><use xlink:href="#G" x="254.426"/><path d="M486.016 36.636c1.884 0 3.144-1.259 3.144-2.953 0-1.612-1.176-2.788-2.7-2.788-.936 0-1.764.447-2.184 1.188h-.06c0-1.8.684-2.894 1.896-2.894.744 0 1.26.424 1.416 1.082h1.548c-.18-1.376-1.32-2.424-2.964-2.424-2.1 0-3.432 1.706-3.432 4.635 0 3.141 1.668 4.153 3.336 4.153zm-.012-1.259c-.924 0-1.608-.753-1.608-1.647s.708-1.647 1.632-1.647 1.608.718 1.608 1.635c0 .929-.708 1.659-1.632 1.659z"/><use xlink:href="#F" x="300"/><use xlink:href="#G" x="300"/><use xlink:href="#C" x="499.815" y="0.06"/><use xlink:href="#G" x="314.426"/><path d="M543.496 36.518h1.644l3.708-7.224v-1.341h-5.952v1.306h4.308v.059l-3.708 7.2zm26.3-8.316h2.688v7.259h1.584v-7.259h2.688v-1.306h-6.96v1.306z"/><use xlink:href="#B" x="558.612" y="-0.997"/><use xlink:href="#D" x="486.375" y="-0.997"/><use xlink:href="#E" x="486.375" y="-0.997"/><use xlink:href="#C" x="572.417" y="-0.997"/><path d="M609.56 35.461h1.596l1.236-4.341h.084l1.236 4.341h1.608l1.848-6.424h-1.572l-1.14 4.494h-.06l-1.176-4.494h-1.56l-1.164 4.518h-.072l-1.14-4.518H607.7l1.86 6.424z"/><use xlink:href="#G" x="399.887" y="-1.057"/><use xlink:href="#J"/><use xlink:href="#K"/><use xlink:href="#L"/><use xlink:href="#M"/><path d="M783.461 29.002c2.088 0 3.312-1.024 3.312-2.529 0-1.494-1.26-2.153-2.568-2.471l-.816-.2c-.72-.176-1.488-.459-1.488-1.176 0-.635.6-1.106 1.584-1.106.936 0 1.56.424 1.644 1.153h1.524c-.036-1.447-1.296-2.471-3.144-2.471-1.836 0-3.204 1.012-3.204 2.518 0 1.235.888 1.941 2.328 2.306l.984.247c.936.235 1.572.518 1.572 1.176 0 .741-.708 1.235-1.74 1.235-.996 0-1.752-.447-1.824-1.341h-1.56c.072 1.706 1.356 2.659 3.396 2.659zm8.819-2.824c0 .976-.72 1.459-1.392 1.459-.744 0-1.248-.518-1.248-1.329v-3.859h-1.536v4.094c0 1.541.9 2.412 2.184 2.412.984 0 1.668-.506 1.968-1.224h.072v1.141h1.488v-6.424h-1.536v3.729z"/><use xlink:href="#N"/><use xlink:href="#N" x="7.476"/><use xlink:href="#E" x="706.142" y="-7.586"/><path d="M817.653 28.872h1.536v-3.765c0-.824.636-1.388 1.476-1.388a3.58 3.58 0 0 1 .72.071v-1.388a4.08 4.08 0 0 0-.552-.035c-.744 0-1.38.412-1.62 1.165h-.072v-1.082h-1.488v6.424z"/><use xlink:href="#M" x="179.458" y="-6.589"/><path d="M664.003 38.155c0 1.706.516 3.471 1.512 5.082h1.44c-.984-2.129-1.392-3.588-1.392-5.082 0-1.706.528-3.8 1.392-5.6h-1.44c-.888 1.4-1.512 3.718-1.512 5.6z"/><use xlink:href="#O"/><use xlink:href="#B" x="654.195" y="5.178"/><use xlink:href="#D" x="581.958" y="5.178"/><use xlink:href="#E" x="581.958" y="5.178"/><use xlink:href="#C" x="667.999" y="5.179"/><use xlink:href="#P"/><use xlink:href="#G" x="495.469" y="5.118"/><use xlink:href="#J" x="95.582" y="6.176"/><use xlink:href="#K" x="95.583" y="6.176"/><use xlink:href="#L" x="95.582" y="6.176"/><use xlink:href="#O" x="70.573"/><use xlink:href="#Q"/><use xlink:href="#O" x="85.643"/><use xlink:href="#E" x="654.103" y="5.178"/><use xlink:href="#O" x="97.434"/><use xlink:href="#B" x="751.628" y="5.178"/><path d="M777.098 33.072h1.536v8.565h-1.536z"/><use xlink:href="#P" x="79.422"/><use xlink:href="#G" x="574.892" y="5.118"/><use xlink:href="#J" x="175.005" y="6.176"/><use xlink:href="#K" x="175.006" y="6.176"/><use xlink:href="#L" x="175.005" y="6.176"/><use xlink:href="#O" x="149.996"/><path d="M822.374 43.237h1.44c.996-1.612 1.512-3.376 1.512-5.082 0-1.882-.624-4.2-1.512-5.6h-1.44c.876 1.8 1.392 3.894 1.392 5.6 0 1.494-.396 2.953-1.392 5.082zM10.997 68h1.056v-3.408h1.908c.072 0 .156 0 .228-.012L16.025 68h1.224l-1.968-3.612c1.116-.384 1.632-1.284 1.632-2.436 0-1.548-.924-2.688-2.964-2.688h-2.952V68zm1.056-4.356v-3.432h1.86c1.416 0 1.956.684 1.956 1.74 0 1.044-.54 1.692-1.944 1.692h-1.872zm9.171 4.5c1.32 0 2.292-.672 2.592-1.656l-.972-.276c-.252.684-.84 1.032-1.62 1.032-1.188 0-2.004-.768-2.052-2.172h4.752v-.432c0-2.436-1.464-3.276-2.832-3.276-1.776 0-2.928 1.404-2.928 3.408 0 2.016 1.164 3.372 3.06 3.372zm-2.052-3.936c.072-1.032.768-1.944 1.92-1.944 1.104 0 1.716.792 1.812 1.944h-3.732zm8.185 3.948c1.152 0 1.74-.624 1.944-1.044h.072V68h.984v-4.308c0-2.088-1.584-2.328-2.424-2.328-.984 0-2.112.348-2.628 1.536l.96.348c.228-.48.744-.996 1.704-.996.924 0 1.392.492 1.392 1.332v.036c0 .48-.504.444-1.692.6-1.212.156-2.544.42-2.544 1.92 0 1.284.984 2.016 2.232 2.016zm.156-.9c-.804 0-1.38-.36-1.38-1.056 0-.768.696-1.008 1.488-1.116.42-.048 1.572-.168 1.74-.372v.924c0 .816-.648 1.62-1.848 1.62zm4.698-7.992h.996V68h-.996zM35.058 68h.996v-4.092c0-.96.708-1.644 1.488-1.644.768 0 1.296.504 1.296 1.248V68h1.032v-4.26c0-.84.516-1.476 1.44-1.476.72 0 1.332.384 1.332 1.356V68h1.008v-4.38c0-1.536-.828-2.256-2.004-2.256-.936 0-1.62.432-1.956 1.116h-.072c-.324-.708-.888-1.116-1.74-1.116-.864 0-1.5.408-1.764 1.116h-.096v-1.032h-.96V68zm51.123 0c2.664 0 4.392-1.62 4.836-4.308.456-2.748-.804-4.428-3.336-4.428h-2.784L83.457 68h2.724zm-1.512-.936l1.128-6.852h1.728c2.052 0 2.844 1.26 2.496 3.336-.36 2.172-1.644 3.516-3.816 3.516h-1.536zm11.859-1.74c-.216 1.224-1.236 1.788-1.98 1.788-.84 0-1.332-.612-1.176-1.56l.684-4.104h-1.008l-.708 4.164c-.276 1.668.48 2.472 1.716 2.472.984 0 1.74-.528 2.136-1.2h.072L96.072 68h1.008l1.092-6.552h-1.008l-.636 3.876z"/><use xlink:href="#R"/><path d="M108.677 59.264h-.996L106.241 68h.996l1.44-8.736z"/><use xlink:href="#S"/><path d="M118.697 68.144c1.26-.012 1.824-.792 2.1-1.152h.12L120.749 68h.972l1.44-8.736h-1.008l-.528 3.228h-.084c-.168-.336-.432-1.128-1.704-1.128-1.656 0-3.012 1.32-3.36 3.384-.336 2.076.588 3.384 2.22 3.396zm.252-.9c-1.26-.012-1.692-1.116-1.452-2.508.216-1.392.996-2.46 2.268-2.472 1.236.012 1.752.996 1.512 2.472-.252 1.476-1.116 2.496-2.328 2.508zm6.274-3.18c.204-1.14 1.02-1.8 1.98-1.8.936 0 1.416.624 1.236 1.644L127.767 68h.996l.684-4.164c.276-1.668-.492-2.472-1.8-2.472-.996 0-1.68.444-2.1 1.116h-.096l.18-1.032h-.96L123.579 68h.996l.648-3.936zm7.829 4.08c1.272 0 1.824-.792 2.1-1.152h.132L135.116 68h.96l1.092-6.552h-.996l-.18 1.044h-.084c-.168-.336-.432-1.128-1.704-1.128-1.656 0-3.024 1.32-3.36 3.384-.348 2.076.588 3.396 2.208 3.396zm.3-.9c-1.26 0-1.728-1.116-1.5-2.508s1.044-2.472 2.316-2.472c1.236 0 1.716.996 1.464 2.472-.24 1.476-1.068 2.508-2.28 2.508z"/><use xlink:href="#T"/><path d="M144.38 68h1.008l1.092-6.552h-1.008L144.38 68zm1.788-7.656c.396 0 .768-.3.828-.672.06-.384-.216-.684-.6-.684-.396 0-.768.3-.828.684-.072.372.204.672.6.672zM147.239 68h.996l.684-4.14c.156-.888.96-1.536 1.908-1.536.276 0 .54.048.612.06l.168-1.02c-.108 0-.372-.012-.516-.012-.792 0-1.548.444-1.896 1.092h-.072l.168-.996h-.96L147.239 68zm4.658 0h1.008l1.092-6.552h-1.008L151.897 68zm1.788-7.656c.396 0 .768-.3.828-.672.06-.384-.216-.684-.6-.684-.396 0-.768.3-.828.684-.072.372.204.672.6.672zm3.508 7.8c1.272 0 1.824-.792 2.1-1.152h.132L159.257 68h.96l1.092-6.552h-.996l-.18 1.044h-.084c-.168-.336-.432-1.128-1.704-1.128-1.656 0-3.024 1.32-3.36 3.384-.348 2.076.588 3.396 2.208 3.396zm.3-.9c-1.26 0-1.728-1.116-1.5-2.508s1.044-2.472 2.316-2.472c1.236 0 1.716.996 1.464 2.472-.24 1.476-1.068 2.508-2.28 2.508z"/><use xlink:href="#U"/><use xlink:href="#V"/><use xlink:href="#W"/><use xlink:href="#U" x="60"/><use xlink:href="#X"/><use xlink:href="#Y"/><use xlink:href="#X" x="52.23"/><use xlink:href="#Y" x="52.231"/><use xlink:href="#Z"/><use xlink:href="#V" x="180"/><use xlink:href="#a"/><use xlink:href="#U" x="240"/><use xlink:href="#U" x="247.77"/><use xlink:href="#Y" x="180"/><use xlink:href="#b"/><use xlink:href="#a" x="112.23"/><use xlink:href="#b" x="15.539"/><use xlink:href="#U" x="389.23"/><use xlink:href="#U" x="397"/><use xlink:href="#c"/><use xlink:href="#d"/><use xlink:href="#H" x="473.765" y="31.308"/><use xlink:href="#H" x="481.804" y="31.308"/><use xlink:href="#I" x="309.843" y="31.308"/><use xlink:href="#e"/><use xlink:href="#Q" x="2.319" y="26.19"/><use xlink:href="#H" x="510.468" y="31.308"/><use xlink:href="#H" x="518.507" y="31.308"/><use xlink:href="#I" x="346.546" y="31.308"/><use xlink:href="#e" x="36.703"/><use xlink:href="#f"/><use xlink:href="#H" x="556.663" y="31.308"/><use xlink:href="#g"/><use xlink:href="#h"/><use xlink:href="#h" x="8.039"/><path d="M10.997 94h1.056v-2.82l1.092-1.236L16.181 94h1.272l-3.66-4.788 3.66-3.948h-1.368l-3.924 4.344h-.108v-4.344h-1.056V94zm7.884 0h.996v-6.552h-.996V94zm.504-7.644c.396 0 .72-.3.72-.672 0-.384-.324-.684-.72-.684s-.708.3-.708.684c0 .372.312.672.708.672zm3.339 3.708c0-1.14.72-1.8 1.68-1.8.936 0 1.512.624 1.512 1.644V94h.996v-4.164c0-1.668-.9-2.472-2.22-2.472-.984 0-1.608.444-1.908 1.116h-.096v-1.032h-.96V94h.996v-3.936zm8.676 6.528c1.572 0 2.82-.72 2.82-2.4v-6.744h-.96v1.044h-.108c-.216-.336-.624-1.128-1.908-1.128-1.656 0-2.796 1.32-2.796 3.336 0 2.04 1.188 3.192 2.772 3.192 1.284 0 1.692-.744 1.908-1.104h.096v1.332c0 1.092-.768 1.584-1.824 1.584-1.188 0-1.608-.624-1.872-.984l-.804.552c.408.696 1.212 1.32 2.676 1.32zm-.036-3.6c-1.26 0-1.908-.96-1.908-2.316 0-1.332.624-2.412 1.908-2.412 1.224 0 1.872.996 1.872 2.412 0 1.452-.66 2.316-1.872 2.316zm7.168 1.152c1.26 0 1.692-.792 1.908-1.152h.12V94h.96v-8.736h-.996v3.228h-.084c-.216-.336-.612-1.128-1.896-1.128-1.644 0-2.784 1.32-2.784 3.384 0 2.076 1.14 3.396 2.772 3.396zm.132-.9c-1.26 0-1.896-1.116-1.896-2.508s.624-2.472 1.896-2.472c1.236 0 1.872.996 1.872 2.472s-.66 2.508-1.872 2.508zm7.361.9c1.776 0 2.976-1.356 2.976-3.384 0-2.04-1.2-3.396-2.976-3.396s-2.964 1.356-2.964 3.396c0 2.028 1.188 3.384 2.964 3.384zm0-.9c-1.344 0-1.956-1.176-1.956-2.484s.612-2.496 1.956-2.496c1.356 0 1.968 1.188 1.968 2.496s-.612 2.484-1.968 2.484zm4.508.756h.996v-4.092c0-.96.708-1.644 1.488-1.644.768 0 1.296.504 1.296 1.248V94h1.032v-4.26c0-.84.516-1.476 1.44-1.476.72 0 1.332.384 1.332 1.356V94h1.008v-4.38c0-1.536-.828-2.256-2.004-2.256-.936 0-1.62.432-1.956 1.116h-.072c-.324-.708-.888-1.116-1.74-1.116-.864 0-1.5.408-1.764 1.116h-.096v-1.032h-.96V94zm32.912 0h1.056l.648-3.9h4.656l-.648 3.9h1.056l1.452-8.736h-1.056l-.648 3.9h-4.656l.648-3.9h-1.056L83.445 94z"/><use xlink:href="#i"/><path d="M103.653 91.324c-.216 1.224-1.236 1.788-1.98 1.788-.84 0-1.332-.612-1.176-1.56l.684-4.104h-1.008l-.708 4.164c-.276 1.668.48 2.472 1.716 2.472.984 0 1.74-.528 2.136-1.2h.072L103.197 94h1.008l1.092-6.552h-1.008l-.636 3.876zm4.056-1.26c.204-1.14 1.02-1.8 1.98-1.8.936 0 1.416.624 1.236 1.644L110.253 94h.996l.684-4.164c.276-1.668-.492-2.472-1.8-2.472-.996 0-1.68.444-2.1 1.116h-.096l.18-1.032h-.96L106.065 94h.996l.648-3.936z"/><use xlink:href="#j"/><use xlink:href="#j" x="7.307"/><use xlink:href="#S" x="18.627" y="26"/><path d="M136.52 90.064c.204-1.14 1.02-1.8 1.98-1.8.936 0 1.416.624 1.236 1.644L139.064 94h.996l.684-4.164c.276-1.668-.492-2.472-1.8-2.472-.996 0-1.68.444-2.1 1.116h-.096l.18-1.032h-.96L134.876 94h.996l.648-3.936z"/><use xlink:href="#j" x="28.811"/><use xlink:href="#T" x="11.52" y="26"/><path d="M155.899 94h1.008l1.092-6.552h-1.008L155.899 94zm1.788-7.656c.396 0 .768-.3.828-.672.06-.384-.216-.684-.6-.684-.396 0-.768.3-.828.684-.072.372.204.672.6.672zM158.759 94h.996l.684-4.14c.156-.888.96-1.536 1.908-1.536.276 0 .54.048.612.06l.168-1.02c-.108 0-.372-.012-.516-.012-.792 0-1.548.444-1.896 1.092h-.072l.168-.996h-.96L158.759 94zm6.906.144c1.272 0 1.824-.792 2.1-1.152h.132L167.729 94h.96l1.092-6.552h-.996l-.18 1.044h-.084c-.168-.336-.432-1.128-1.704-1.128-1.656 0-3.024 1.32-3.36 3.384-.348 2.076.588 3.396 2.208 3.396zm.3-.9c-1.26 0-1.728-1.116-1.5-2.508s1.044-2.472 2.316-2.472c1.236 0 1.716.996 1.464 2.472-.24 1.476-1.068 2.508-2.28 2.508z"/><use xlink:href="#i" x="78.352"/><use xlink:href="#k"/><use xlink:href="#V" y="26"/><use xlink:href="#W" y="26"/><use xlink:href="#k" x="60"/><use xlink:href="#l"/><use xlink:href="#Y" y="26"/><use xlink:href="#l" x="52.23"/><use xlink:href="#Y" x="52.231" y="26"/><use xlink:href="#Z" y="26"/><use xlink:href="#V" x="180" y="26"/><use xlink:href="#a" y="26"/><use xlink:href="#k" x="240"/><use xlink:href="#k" x="247.77"/><use xlink:href="#Y" x="180" y="26"/><use xlink:href="#m"/><use xlink:href="#a" x="112.23" y="26"/><use xlink:href="#m" x="15.539"/><use xlink:href="#k" x="389.23"/><use xlink:href="#k" x="397"/><use xlink:href="#c" y="26"/><use xlink:href="#d" y="26"/><use xlink:href="#H" x="473.765" y="57.308"/><use xlink:href="#H" x="481.804" y="57.308"/><use xlink:href="#I" x="309.843" y="57.308"/><use xlink:href="#e" y="26"/><use xlink:href="#Q" x="2.319" y="52.19"/><use xlink:href="#H" x="510.468" y="57.308"/><use xlink:href="#H" x="518.507" y="57.308"/><use xlink:href="#I" x="346.546" y="57.308"/><use xlink:href="#e" x="36.703" y="26"/><use xlink:href="#f" y="26"/><use xlink:href="#H" x="556.663" y="57.308"/><use xlink:href="#g" y="26"/><use xlink:href="#h" y="26"/><use xlink:href="#h" x="8.039" y="26"/><path d="M10.997 120h1.056v-3.192h1.908c2.028 0 2.952-1.236 2.952-2.772s-.924-2.772-2.964-2.772h-2.952V120zm1.056-4.128v-3.66h1.86c1.416 0 1.956.78 1.956 1.824s-.54 1.836-1.944 1.836h-1.872zm7.425.192c0-1.14.732-1.8 1.728-1.8.984 0 1.536.588 1.536 1.644V120h.996v-4.164c0-1.68-.912-2.472-2.244-2.472-1.032 0-1.62.432-1.92 1.116h-.096v-3.216h-.996V120h.996v-3.936z"/><use xlink:href="#n"/><path d="M32.029 111.264h.996V120h-.996zm6.976 6.06c0 1.224-.948 1.788-1.692 1.788-.84 0-1.44-.612-1.44-1.56v-4.104h-.996v4.164c0 1.668.876 2.472 2.112 2.472.984 0 1.632-.528 1.944-1.2h.072V120h.996v-6.552h-.996v3.876zM41.849 120h.996v-4.092c0-.96.708-1.644 1.488-1.644.768 0 1.296.504 1.296 1.248V120h1.032v-4.26c0-.84.516-1.476 1.44-1.476.72 0 1.332.384 1.332 1.356V120h1.008v-4.38c0-1.536-.828-2.256-2.004-2.256-.936 0-1.62.432-1.956 1.116h-.072c-.324-.708-.888-1.116-1.74-1.116-.864 0-1.5.408-1.764 1.116h-.096v-1.032h-.96V120zm48.784-8.736l-.948 5.688c-.216 1.284-1.248 2.208-2.7 2.208s-2.184-.924-1.98-2.208l.948-5.688h-1.056l-.96 5.772c-.288 1.788.828 3.108 2.892 3.108 2.052 0 3.6-1.32 3.9-3.108l.96-5.772h-1.056zM92.22 120h.996l.684-4.14c.156-.888.96-1.536 1.908-1.536.276 0 .54.048.612.06l.168-1.02c-.108 0-.372-.012-.516-.012-.792 0-1.548.444-1.896 1.092h-.072l.168-.996h-.96L92.22 120z"/><use xlink:href="#S" x="-12.598" y="52"/><use xlink:href="#T" x="-34.283" y="52"/><path d="M110.096 120h1.008l1.092-6.552h-1.008L110.096 120zm1.788-7.656c.396 0 .768-.3.828-.672.06-.384-.216-.684-.6-.684-.396 0-.768.3-.828.684-.072.372.204.672.6.672zm1.072 7.656h.996l.684-4.14c.156-.888.96-1.536 1.908-1.536.276 0 .54.048.612.06l.168-1.02c-.108 0-.372-.012-.516-.012-.792 0-1.548.444-1.896 1.092h-.072l.168-.996h-.96L112.956 120zm4.658 0h1.008l1.092-6.552h-1.008L117.614 120zm1.788-7.656c.396 0 .768-.3.828-.672.06-.384-.216-.684-.6-.684-.396 0-.768.3-.828.684-.072.372.204.672.6.672z"/><use xlink:href="#o"/><use xlink:href="#S" x="18.129" y="52"/><use xlink:href="#p"/><use xlink:href="#q"/><use xlink:href="#r"/><use xlink:href="#V" y="52"/><use xlink:href="#W" y="52"/><use xlink:href="#r" x="60"/><use xlink:href="#s"/><use xlink:href="#Y" y="52"/><use xlink:href="#s" x="52.23"/><use xlink:href="#Y" x="52.231" y="52"/><use xlink:href="#Z" y="52"/><use xlink:href="#V" x="180" y="52"/><use xlink:href="#a" y="52"/><use xlink:href="#r" x="240"/><use xlink:href="#r" x="247.77"/><use xlink:href="#Y" x="180" y="52"/><use xlink:href="#t"/><use xlink:href="#a" x="112.23" y="52"/><use xlink:href="#t" x="15.539"/><use xlink:href="#r" x="389.23"/><use xlink:href="#r" x="397"/><use xlink:href="#c" y="52"/><use xlink:href="#d" y="52"/><use xlink:href="#H" x="473.765" y="83.308"/><use xlink:href="#H" x="481.804" y="83.308"/><use xlink:href="#I" x="309.843" y="83.308"/><use xlink:href="#e" y="52"/><use xlink:href="#Q" x="2.319" y="78.19"/><use xlink:href="#H" x="510.468" y="83.308"/><use xlink:href="#H" x="518.507" y="83.308"/><use xlink:href="#I" x="346.546" y="83.308"/><use xlink:href="#e" x="36.703" y="52"/><use xlink:href="#f" y="52"/><use xlink:href="#H" x="556.663" y="83.308"/><use xlink:href="#g" y="52"/><use xlink:href="#h" y="52"/><use xlink:href="#h" x="8.039" y="52"/><path d="M14.513 146.12c1.752 0 3.18-1.056 3.504-2.856h-1.056c-.252 1.224-1.296 1.872-2.448 1.872-1.584 0-2.832-1.236-2.832-3.492 0-2.28 1.248-3.504 2.832-3.504 1.152 0 2.196.648 2.448 1.86h1.056c-.324-1.788-1.752-2.844-3.504-2.844-2.232 0-3.852 1.716-3.852 4.488 0 2.76 1.62 4.476 3.852 4.476zm5.082-8.856h.996V146h-.996zm4.768 8.892c1.152 0 1.74-.624 1.944-1.044h.072V146h.984v-4.308c0-2.088-1.584-2.328-2.424-2.328-.984 0-2.112.348-2.628 1.536l.96.348c.228-.48.744-.996 1.704-.996.924 0 1.392.492 1.392 1.332v.036c0 .48-.504.444-1.692.6-1.212.156-2.544.42-2.544 1.92 0 1.284.984 2.016 2.232 2.016zm.156-.9c-.804 0-1.38-.36-1.38-1.056 0-.768.696-1.008 1.488-1.116.42-.048 1.572-.168 1.74-.372v.924c0 .816-.648 1.62-1.848 1.62z"/><use xlink:href="#u"/><use xlink:href="#u" x="6.269"/><g fill="#a16f00"><path d="M86.949 146.12c1.752 0 3.36-1.056 3.984-2.856h-1.056c-.456 1.224-1.608 1.872-2.76 1.872-1.584 0-2.64-1.236-2.256-3.492.372-2.28 1.824-3.504 3.408-3.504 1.164 0 2.1.648 2.148 1.86h1.056c-.024-1.788-1.284-2.844-3.036-2.844-2.232 0-4.14 1.716-4.596 4.488-.456 2.76.876 4.476 3.108 4.476zm7.548.024c1.272 0 1.824-.792 2.1-1.152h.132L96.561 146h.96l1.092-6.552h-.996l-.18 1.044h-.084c-.168-.336-.432-1.128-1.704-1.128-1.656 0-3.024 1.32-3.36 3.384-.348 2.076.588 3.396 2.208 3.396zm.3-.9c-1.26 0-1.728-1.116-1.5-2.508s1.044-2.472 2.316-2.472c1.236 0 1.716.996 1.464 2.472-.24 1.476-1.068 2.508-2.28 2.508zm9.167-1.92c-.216 1.224-1.236 1.788-1.98 1.788-.84 0-1.332-.612-1.176-1.56l.684-4.104h-1.008l-.708 4.164c-.276 1.668.48 2.472 1.716 2.472.984 0 1.74-.528 2.136-1.2h.072l-.192 1.116h1.008l1.092-6.552H104.6l-.636 3.876z"/><use xlink:href="#v"/><use xlink:href="#S" x="4.617" y="78"/><use xlink:href="#T" x="-17.068" y="78"/><path d="M127.311 146h1.008l1.092-6.552h-1.008L127.311 146zm1.788-7.656c.396 0 .768-.3.828-.672.06-.384-.216-.684-.6-.684-.396 0-.768.3-.828.684-.072.372.204.672.6.672zm1.072 7.656h.996l.684-4.14c.156-.888.96-1.536 1.908-1.536.276 0 .54.048.612.06l.168-1.02c-.108 0-.372-.012-.516-.012-.792 0-1.548.444-1.896 1.092h-.072l.168-.996h-.96L130.171 146zm4.658 0h1.008l1.092-6.552h-1.008L134.829 146zm1.788-7.656c.396 0 .768-.3.828-.672.06-.384-.216-.684-.6-.684-.396 0-.768.3-.828.684-.072.372.204.672.6.672z"/><use xlink:href="#o" x="17.215" y="26"/><use xlink:href="#i" x="52.236" y="52"/><use xlink:href="#p" x="16.927" y="26"/><use xlink:href="#i" x="63.422" y="52"/><path d="M167.963 140.924c-.156-.924-.768-1.56-2.064-1.56-1.38 0-2.532.792-2.712 1.896-.156.9.288 1.5 1.44 1.788l1.056.252c.636.168.9.468.816.936-.096.552-.768 1.02-1.704 1.02-.828 0-1.284-.36-1.344-1.056l-.996.228c.06 1.116.876 1.716 2.208 1.716 1.524 0 2.688-.84 2.88-1.968.144-.912-.324-1.488-1.44-1.776l-.936-.228c-.744-.192-1.056-.456-.972-.96.096-.564.768-.972 1.56-.972.888 0 1.164.492 1.26.936l.948-.252z"/><use xlink:href="#w"/><use xlink:href="#V" y="78"/><use xlink:href="#W" y="78"/><use xlink:href="#w" x="60"/><use xlink:href="#x"/><use xlink:href="#Y" y="78"/><use xlink:href="#x" x="52.23"/><use xlink:href="#Y" x="52.231" y="78"/><use xlink:href="#Z" y="78"/><use xlink:href="#V" x="180" y="78"/><use xlink:href="#a" y="78"/><use xlink:href="#w" x="240"/><use xlink:href="#w" x="247.77"/><use xlink:href="#Y" x="180" y="78"/><use xlink:href="#y"/><use xlink:href="#a" x="112.23" y="78"/><use xlink:href="#y" x="15.539"/><use xlink:href="#w" x="389.23"/><use xlink:href="#w" x="397"/><use xlink:href="#c" y="78"/><use xlink:href="#d" y="78"/><use xlink:href="#H" x="473.765" y="109.307"/><use xlink:href="#H" x="481.804" y="109.307"/><use xlink:href="#I" x="309.843" y="109.308"/><use xlink:href="#e" y="78"/><use xlink:href="#Q" x="2.319" y="104.189"/><use xlink:href="#H" x="510.468" y="109.307"/><use xlink:href="#H" x="518.507" y="109.307"/><use xlink:href="#I" x="346.546" y="109.308"/><use xlink:href="#e" x="36.703" y="78"/><use xlink:href="#f" y="78"/><use xlink:href="#H" x="556.663" y="109.307"/><use xlink:href="#g" y="78"/><use xlink:href="#h" y="78"/><use xlink:href="#h" x="8.039" y="78"/></g><g fill="#006e50"><path d="M83.841 172l1.284-2.472h3.54l.456 2.472h1.08l-1.752-8.736h-1.092L82.701 172h1.14zm1.776-3.408l2.052-3.936h.072l.732 3.936h-2.856zm10.413.732c-.216 1.224-1.236 1.788-1.98 1.788-.84 0-1.332-.612-1.176-1.56l.684-4.104H92.55l-.708 4.164c-.276 1.668.48 2.472 1.716 2.472.984 0 1.74-.528 2.136-1.2h.072L95.574 172h1.008l1.092-6.552h-1.008l-.636 3.876z"/><use xlink:href="#p" x="-35.936" y="52"/><use xlink:href="#S" x="-6.334" y="104"/><use xlink:href="#j" x="-3.187" y="78"/><path d="M117.221 172h.996l.684-4.14c.156-.888.96-1.536 1.908-1.536.276 0 .54.048.612.06l.168-1.02c-.108 0-.372-.012-.516-.012-.792 0-1.548.444-1.896 1.092h-.072l.168-.996h-.96L117.221 172z"/><use xlink:href="#q" x="-17.063" y="52"/><use xlink:href="#R" x="30.071" y="104"/><path d="M137.955 168.064c.192-1.14 1.032-1.8 2.016-1.8s1.44.588 1.272 1.644l-.684 4.092h.996l.696-4.164c.276-1.68-.504-2.472-1.836-2.472-1.032 0-1.692.432-2.1 1.116h-.096l.528-3.216h-.996l-1.44 8.736h.996l.648-3.936zm5.458 3.936h1.008l1.092-6.552h-1.008L143.413 172zm1.788-7.656c.396 0 .768-.3.828-.672.06-.384-.216-.684-.6-.684-.396 0-.768.3-.828.684-.072.372.204.672.6.672z"/><use xlink:href="#T" x="8.572" y="104"/><path d="M152.952 172h1.008l1.092-6.552h-1.008L152.952 172zm1.788-7.656c.396 0 .768-.3.828-.672.06-.384-.216-.684-.6-.684-.396 0-.768.3-.828.684-.072.372.204.672.6.672zm1.071 7.656h.996l.684-4.14c.156-.888.96-1.536 1.908-1.536.276 0 .54.048.612.06l.168-1.02c-.108 0-.372-.012-.516-.012-.792 0-1.548.444-1.896 1.092h-.072l.168-.996h-.96L155.811 172zm4.659 0h1.008l1.092-6.552h-1.008L160.47 172zm1.788-7.656c.396 0 .768-.3.828-.672.06-.384-.216-.684-.6-.684-.396 0-.768.3-.828.684-.072.372.204.672.6.672z"/><use xlink:href="#v" x="56.953" y="26"/><use xlink:href="#q" x="31.904" y="52"/><use xlink:href="#i" x="85.781" y="78"/><path d="M231.491 163.264h-1.032l-2.172 1.464v1.068l2.112-1.416h.06V172h1.032v-8.736z"/><use xlink:href="#V" y="104"/><use xlink:href="#W" y="104"/><path d="M304.141 167.788h6v.936h-6zm60 0h6v.936h-6zm60 0h6v.936h-6zm60 0h6v.936h-6zm60 0h6v.936h-6zm84.35-4.524h-1.032l-2.172 1.464v1.068l2.112-1.416h.06V172h1.032v-8.736z"/><use xlink:href="#V" x="397" y="104"/><use xlink:href="#W" x="397" y="104"/><use xlink:href="#z"/><use xlink:href="#V" x="499.591" y="104.117"/><use xlink:href="#W" x="499.592" y="104.117"/><path d="M753.539 162.973h-.924l-2.82 10.452h.936l2.808-10.452z"/><use xlink:href="#z" x="27.586"/><use xlink:href="#z" x="35.355"/><use xlink:href="#W" x="527.178" y="104.117"/><use xlink:href="#d" x="137.947" y="104.117"/><path d="M789.582 169.477h5.256v-.924h-5.256v.924zm0-2.52h5.256v-.924h-5.256v.924z"/><use xlink:href="#a" x="377.376" y="104.117"/><use xlink:href="#AA"/><use xlink:href="#z" x="84.398"/><use xlink:href="#W" x="576.221" y="104.117"/></g><g fill="#1987c5"><path d="M83.169 198h6.024l.144-.936h-4.752l5.868-7.02.132-.78h-6.024l-.156.948h4.764l-5.88 7.032-.12.756z"/><use xlink:href="#S" x="-18.258" y="130"/><path d="M100.967 198.144c1.644-.012 3-1.32 3.348-3.396.336-2.064-.576-3.384-2.232-3.384-1.284 0-1.812.792-2.088 1.128h-.084l.528-3.228h-1.008L97.991 198h.972l.168-1.008h.12c.168.36.456 1.14 1.716 1.152zm.024-.9c-1.212-.012-1.704-1.032-1.464-2.508s1.056-2.46 2.28-2.472c1.284.012 1.728 1.08 1.5 2.472-.24 1.392-1.056 2.496-2.316 2.508z"/><use xlink:href="#i" x="13.108" y="104"/><path d="M114.613 189.264h-.996l-1.44 8.736h.996l1.44-8.736zm2.847 0h-.996l-1.44 8.736h.996l1.44-8.736z"/><use xlink:href="#T" x="-19.828" y="130"/><path d="M124.552 198h1.008l1.092-6.552h-1.008L124.552 198zm1.788-7.656c.396 0 .768-.3.828-.672.06-.384-.216-.684-.6-.684-.396 0-.768.3-.828.684-.072.372.204.672.6.672zm1.071 7.656h.996l.684-4.14c.156-.888.96-1.536 1.908-1.536.276 0 .54.048.612.06l.168-1.02c-.108 0-.372-.012-.516-.012-.792 0-1.548.444-1.896 1.092h-.072l.168-.996h-.96L127.411 198zm4.658 0h1.008l1.092-6.552h-1.008L132.069 198zm1.788-7.656c.396 0 .768-.3.828-.672.06-.384-.216-.684-.6-.684-.396 0-.768.3-.828.684-.072.372.204.672.6.672z"/><use xlink:href="#v" x="28.553" y="52"/><use xlink:href="#q" x="3.504" y="78"/><use xlink:href="#i" x="57.381" y="104"/><path d="M244.141 193.788h6v.936h-6z"/><use xlink:href="#AB"/><use xlink:href="#AC"/><use xlink:href="#Y" y="130"/><use xlink:href="#AC" x="52.23"/><use xlink:href="#Y" x="52.231" y="130"/><use xlink:href="#Z" y="130"/><use xlink:href="#V" x="180" y="130"/><use xlink:href="#a" y="130"/><path d="M484.141 193.788h6v.936h-6zm60 0h6v.936h-6z"/><use xlink:href="#AD"/><use xlink:href="#Y" x="329.231" y="130"/><use xlink:href="#AD" x="15.539"/><use xlink:href="#AD" x="102.592"/><use xlink:href="#Y" x="431.822" y="130"/><use xlink:href="#AD" x="118.131"/><path d="M753.539 188.856h-.924l-2.82 10.452h.936l2.808-10.452z"/><use xlink:href="#AB" x="467.178"/><use xlink:href="#AB" x="474.947"/><use xlink:href="#W" x="527.178" y="130"/><use xlink:href="#d" x="137.947" y="130"/><path d="M789.582 195.36h5.256v-.924h-5.256v.924zm0-2.52h5.256v-.924h-5.256v.924z"/><use xlink:href="#a" x="377.376" y="130"/><use xlink:href="#AA" y="25.883"/><use xlink:href="#AD" x="186.99"/><use xlink:href="#a" x="396.22" y="130"/></g><path d="M10.997 184h1.056v-3.804h3.78v-.948h-3.78v-3.036h4.176v-.948h-5.232V184zm8.831.156c1.152 0 1.74-.624 1.944-1.044h.072V184h.984v-4.308c0-2.088-1.584-2.328-2.424-2.328-.984 0-2.112.348-2.628 1.536l.96.348c.228-.48.744-.996 1.704-.996.924 0 1.392.492 1.392 1.332v.036c0 .48-.504.444-1.692.6-1.212.156-2.544.42-2.544 1.92 0 1.284.984 2.016 2.232 2.016zm.156-.9c-.804 0-1.38-.36-1.38-1.056 0-.768.696-1.008 1.488-1.116.42-.048 1.572-.168 1.74-.372v.924c0 .816-.648 1.62-1.848 1.62zm4.697.744h.996v-4.092c0-.96.708-1.644 1.488-1.644.768 0 1.296.504 1.296 1.248V184h1.032v-4.26c0-.84.516-1.476 1.44-1.476.72 0 1.332.384 1.332 1.356V184h1.008v-4.38c0-1.536-.828-2.256-2.004-2.256-.936 0-1.62.432-1.956 1.116h-.072c-.324-.708-.888-1.116-1.74-1.116-.864 0-1.5.408-1.764 1.116h-.096v-1.032h-.96V184zm10.442 0h.996v-6.552h-.996V184zm.504-7.644c.396 0 .72-.3.72-.672 0-.384-.324-.684-.72-.684s-.708.3-.708.684c0 .372.312.672.708.672zm2.343-1.092h.996V184h-.996z"/><use xlink:href="#n" x="15.469" y="64"/></g><path d="M3.71 13h832.582v1H3.71zm0 37h832.582v1H3.71z"/><path d="M3.71 76h832.582v1H3.71zm0 26h832.582v1H3.71zm0 26h832.582v1H3.71zm0 26h832.582v1H3.71zm63.637 26H836.29v1H67.347z" fill="#d4d4d4"/><path d="M3.71 206h832.582v1H3.71z"/><defs ><path id="B" d="M20.428 36.588c1.032 0 1.644-.471 1.92-1.012h.072v.882h1.464v-4.294c0-1.694-1.428-2.212-2.676-2.212-1.332 0-2.4.565-2.784 1.682l1.428.282c.156-.424.612-.8 1.368-.8.732 0 1.128.365 1.128.976v.035c0 .435-.468.459-1.62.576-1.272.129-2.496.506-2.496 1.953 0 1.259.948 1.929 2.196 1.929zm.396-1.106c-.636 0-1.092-.294-1.092-.847 0-.588.516-.824 1.2-.918.396-.059 1.224-.165 1.428-.318v.753c0 .718-.6 1.329-1.536 1.329z"/><path id="C" d="M27.005 32.705c0-.929.588-1.471 1.392-1.471.792 0 1.284.518 1.284 1.376v3.847h1.536v-4.082c0-1.541-.9-2.424-2.244-2.424-.984 0-1.62.459-1.92 1.176h-.072v-1.094h-1.512v6.424h1.536v-3.753z"/><path id="D" d="M98.967 30.035h-1.632l1.944 3.224-1.992 3.2h1.632l1.368-2.306 1.38 2.306h1.632l-2.004-3.2 1.968-3.224h-1.632l-1.344 2.376-1.32-2.376z"/><path id="E" d="M107.072 36.588c1.908 0 3.132-1.329 3.132-3.318s-1.224-3.318-3.132-3.318c-1.92 0-3.144 1.329-3.144 3.318s1.224 3.318 3.144 3.318zm0-1.224c-1.056 0-1.572-.918-1.572-2.094s.516-2.094 1.572-2.094 1.572.918 1.572 2.094-.516 2.094-1.572 2.094z"/><path id="F" d="M213.035 36.636c2.148 0 3.696-1.365 3.696-3.565v-1.035h-3.54v1.212h2.016c-.036 1.224-.864 2-2.172 2-1.464 0-2.46-1.082-2.46-3.012s1.02-3 2.424-3c1.056 0 1.776.553 2.052 1.459h1.608c-.264-1.682-1.752-2.847-3.672-2.847-2.292 0-4.008 1.647-4.008 4.4 0 2.706 1.632 4.388 4.056 4.388z"/><path id="G" d="M221.098 36.648c1.524 0 2.556-.729 2.832-1.847l-1.44-.165c-.204.553-.708.835-1.368.835-.972 0-1.632-.647-1.68-1.741h4.56v-.471c0-2.247-1.392-3.247-3-3.247-1.884 0-3.096 1.353-3.096 3.329 0 2.012 1.212 3.306 3.192 3.306zm-1.656-3.941c.084-.847.636-1.518 1.56-1.518.9 0 1.404.6 1.5 1.518h-3.06z"/><path id="H" d="M247.3 27.954h-1.488l-2.172 1.376v1.424l2.04-1.282h.048v7.047h1.572v-8.565z"/><path id="I" d="M425.908 36.636c1.848 0 3.144-1.224 3.144-2.929 0-1.647-1.176-2.824-2.76-2.824-.708 0-1.332.259-1.656.647h-.048l.252-2.271h3.756v-1.306h-5.076l-.444 4.412 1.428.235c.288-.318.84-.529 1.368-.529.96 0 1.644.706 1.644 1.671s-.672 1.635-1.608 1.635c-.78 0-1.428-.482-1.476-1.188h-1.536c.048 1.424 1.308 2.447 3.012 2.447z"/><path id="J" d="M625.171 35.461h1.536v-6.424h-1.536v6.424zm.768-7.329c.492 0 .9-.365.9-.812 0-.459-.408-.835-.9-.835s-.888.376-.888.835c0 .447.396.812.888.812z"/><path id="K" d="M631.131 38.002c1.776 0 3.084-.8 3.084-2.435v-6.529h-1.512v1.059h-.084c-.24-.459-.744-1.141-1.896-1.141-1.512 0-2.712 1.165-2.712 3.282 0 2.082 1.2 3.129 2.712 3.129 1.116 0 1.644-.588 1.872-1.059h.084v1.212c0 .953-.636 1.341-1.512 1.341-.936 0-1.344-.435-1.536-.812l-1.38.329c.276.894 1.224 1.624 2.88 1.624zm.012-3.824c-1.008 0-1.548-.776-1.548-1.953 0-1.165.528-2.024 1.548-2.024 1.008 0 1.548.812 1.548 2.024 0 1.224-.552 1.953-1.548 1.953z"/><path id="L" d="M637.33 31.708c0-.929.6-1.471 1.416-1.471.84 0 1.296.506 1.296 1.376v3.847h1.548v-4.082c0-1.553-.9-2.424-2.268-2.424-.996 0-1.632.447-1.944 1.176h-.084v-3.235h-1.5v8.565h1.536v-3.753z"/><path id="M" d="M646.435 29.038h-1.296v-1.529h-1.536v1.529h-.924v1.176h.924v3.565c0 1.106.732 1.765 1.956 1.765a3.72 3.72 0 0 0 1.008-.141l-.264-1.188a2.11 2.11 0 0 1-.456.059c-.492 0-.708-.235-.708-.741v-3.318h1.296v-1.176z"/><path id="N" d="M795.405 31.272h1.536v-3.412h.072c.24.471.744 1.129 1.872 1.129 1.536 0 2.7-1.2 2.7-3.318 0-2.141-1.188-3.306-2.7-3.306-1.164 0-1.644.682-1.872 1.141h-.096v-1.059h-1.512v8.824zm3.048-3.529c-.984 0-1.536-.835-1.536-2.071 0-1.247.54-2.059 1.536-2.059 1.032 0 1.548.859 1.548 2.059s-.528 2.071-1.548 2.071z"/><path id="O" d="M671.444 35.213h-1.296v-1.529h-1.536v1.529h-.924v1.176h.924v3.565c0 1.106.732 1.765 1.956 1.765a3.72 3.72 0 0 0 1.008-.141l-.264-1.188a2.11 2.11 0 0 1-.456.059c-.492 0-.708-.235-.708-.741V36.39h1.296v-1.176z"/><path id="P" d="M705.143 41.637h1.596l1.236-4.341h.084l1.236 4.341h1.608l1.848-6.424h-1.572l-1.14 4.494h-.06l-1.176-4.494h-1.56l-1.164 4.518h-.072l-1.14-4.518h-1.584l1.86 6.424z"/><path id="Q" d="M749.858 32.672h-1.356l-2.808 10.247h1.344l2.82-10.247z"/><path id="R" d="M98.544 70.448h.996l.564-3.456h.084c.156.36.456 1.152 1.716 1.152 1.644 0 3-1.32 3.348-3.396.336-2.064-.588-3.384-2.232-3.384-1.284 0-1.812.792-2.088 1.128h-.12l.18-1.044h-.96l-1.488 9zm3.384-3.204c-1.212 0-1.704-1.032-1.464-2.508.252-1.476 1.056-2.472 2.292-2.472 1.272 0 1.716 1.08 1.488 2.472s-1.056 2.508-2.316 2.508z"/><path id="S" d="M111.717 68.144c1.776 0 3.204-1.356 3.528-3.384.348-2.04-.636-3.396-2.412-3.396-1.764 0-3.18 1.356-3.528 3.396-.336 2.028.648 3.384 2.412 3.384zm.156-.9c-1.344 0-1.776-1.176-1.56-2.484.228-1.308 1.032-2.496 2.376-2.496 1.356 0 1.776 1.188 1.548 2.496-.216 1.308-1.02 2.484-2.364 2.484z"/><path id="T" d="M144.132 61.448h-1.14l-2.676 5.232h-.06l-.936-5.232h-1.044l1.32 6.552h1.032l3.504-6.552z"/><path id="U" d="M231.491 59.264h-1.032l-2.172 1.464v1.068l2.112-1.416h.06V68h1.032v-8.736z"/><path id="V" d="M236.033 68h1.116l3.888-7.74v-.996h-5.604v.948h4.5v.06l-3.9 7.728z"/><path id="W" d="M246.022 68.12c1.656 0 2.892-1.224 2.892-2.892 0-1.704-1.188-2.94-2.784-2.94-.588 0-1.164.216-1.524.492h-.048l.312-2.568h3.636v-.948h-4.536l-.528 4.308.996.12c.36-.264.984-.444 1.512-.444 1.116 0 1.932.852 1.932 1.992 0 1.116-.78 1.944-1.86 1.944-.888 0-1.608-.576-1.68-1.368h-1.02c.06 1.332 1.2 2.304 2.7 2.304z"/><path id="X" d="M295.565 68h5.508v-.936h-4.056v-.072l1.956-2.1c1.5-1.608 1.944-2.352 1.944-3.312 0-1.356-1.092-2.424-2.628-2.424-1.524 0-2.688 1.044-2.688 2.58h1.008c0-.996.636-1.656 1.644-1.656.948 0 1.668.576 1.668 1.5 0 .804-.48 1.392-1.476 2.496l-2.88 3.168V68z"/><path id="Y" d="M306.058 68.12c1.776 0 2.916-1.308 2.916-2.928 0-1.692-1.248-2.904-2.736-2.904-.9 0-1.668.444-2.148 1.164h-.072c0-2.136.828-3.36 2.184-3.36.924 0 1.476.576 1.68 1.356h1.032c-.216-1.344-1.248-2.292-2.712-2.292-1.968 0-3.18 1.74-3.18 4.824 0 3.228 1.608 4.14 3.036 4.14zm0-.936c-1.092 0-1.884-.936-1.884-1.98s.84-1.968 1.92-1.968 1.86.864 1.86 1.956c0 1.104-.816 1.992-1.896 1.992z"/><path id="Z" d="M366.034 68.12c1.74 0 2.964-1.02 2.964-2.436 0-1.104-.744-2.04-1.68-2.22v-.048c.816-.216 1.356-1.02 1.356-1.944 0-1.332-1.128-2.316-2.64-2.316-1.536 0-2.64.984-2.64 2.316 0 .924.528 1.728 1.368 1.944v.048c-.972.18-1.692 1.116-1.692 2.22 0 1.416 1.2 2.436 2.964 2.436zm0-.936c-1.2 0-1.932-.612-1.932-1.548 0-.984.816-1.692 1.932-1.692 1.104 0 1.92.708 1.92 1.692 0 .936-.744 1.548-1.92 1.548zm0-4.14c-.96 0-1.62-.6-1.62-1.5 0-.888.636-1.464 1.62-1.464.96 0 1.62.576 1.62 1.464 0 .9-.684 1.5-1.62 1.5z"/><path id="a" d="M426.059 68.12c1.932 0 3.036-1.632 3.036-4.476s-1.128-4.488-3.036-4.488-3.036 1.644-3.036 4.488 1.116 4.476 3.036 4.476zm0-.924c-1.296 0-2.028-1.308-2.028-3.552 0-2.256.732-3.564 2.028-3.564s2.028 1.308 2.028 3.564c0 2.244-.732 3.552-2.028 3.552z"/><path id="b" d="M527.339 66.212h4.092V68h1.008v-1.788h1.2v-.948h-1.2v-6h-1.272l-3.828 6.072v.876zm4.092-.948h-2.964v-.06l2.904-4.584h.06v4.644z"/><path id="c" d="M635.252 68.12c1.656 0 2.892-1.224 2.892-2.892 0-1.704-1.188-2.94-2.784-2.94-.588 0-1.164.216-1.524.492h-.048l.312-2.568h3.636v-.948H633.2l-.528 4.308.996.12c.36-.264.984-.444 1.512-.444 1.116 0 1.932.852 1.932 1.992 0 1.116-.78 1.944-1.86 1.944-.888 0-1.608-.576-1.68-1.368h-1.02c.06 1.332 1.2 2.304 2.7 2.304z"/><path id="d" d="M642.938 59.156c-1.764-.024-2.904 1.308-2.916 2.916.012 1.68 1.248 2.892 2.76 2.892.888 0 1.656-.444 2.136-1.164h.072c0 2.16-.828 3.384-2.172 3.384-.924 0-1.488-.588-1.68-1.392h-1.044c.204 1.392 1.248 2.328 2.724 2.328 1.956 0 3.156-1.74 3.156-4.848 0-3.204-1.596-4.104-3.036-4.116zm0 .936c1.104 0 1.896.936 1.908 1.956-.012 1.044-.864 1.98-1.932 1.98-1.08 0-1.86-.864-1.86-1.956s.816-1.98 1.884-1.98z"/><path id="e" d="M743.694 59.144c-1.884-.012-3.144 1.271-3.144 2.953 0 1.612 1.176 2.788 2.712 2.788.936 0 1.752-.459 2.172-1.188h.072c-.012 1.812-.696 2.906-1.896 2.906-.756 0-1.26-.435-1.416-1.094h-1.56c.18 1.4 1.332 2.447 2.976 2.447 2.088 0 3.42-1.729 3.42-4.659 0-3.129-1.656-4.141-3.336-4.153zm.012 1.259c.936 0 1.62.765 1.62 1.647s-.72 1.647-1.644 1.647-1.596-.718-1.596-1.635c0-.929.696-1.659 1.62-1.659z"/><path id="f" d="M788.706 65.532h5.664v-1.294h-5.664v1.294zm0-2.671h5.664v-1.294h-5.664v1.294z"/><path id="g" d="M808.546 67.92c.528 0 .948-.4.948-.918s-.42-.918-.948-.918-.948.4-.948.918.42.918.948.918z"/><path id="h" d="M814.103 67.944c2.136 0 3.372-1.612 3.372-4.388s-1.248-4.4-3.372-4.4c-2.112 0-3.36 1.624-3.36 4.4s1.236 4.388 3.36 4.388zm0-1.306c-1.128 0-1.776-1.118-1.776-3.082 0-1.976.648-3.106 1.776-3.106 1.14 0 1.776 1.129 1.776 3.106 0 1.965-.636 3.082-1.776 3.082z"/><path id="i" d="M94.932 94.144c1.284 0 2.388-.648 2.88-1.656l-.936-.276c-.336.636-1.056 1.032-1.884 1.032-1.068 0-1.644-.612-1.644-1.716 0-.096 0-.192.036-.396 3.252-.036 4.596-.636 4.596-2.052 0-1.08-.804-1.776-2.064-1.776-1.956 0-3.552 1.896-3.552 4.2 0 1.656.948 2.64 2.568 2.64zm-1.428-3.78v-.012c.204-1.2 1.212-2.136 2.316-2.136.696 0 1.152.324 1.152.828 0 .972-.828 1.296-3.468 1.32z"/><path id="j" d="M115.31 96.592c1.56 0 2.928-.72 3.216-2.4l1.116-6.744h-.972l-.168 1.044h-.108c-.168-.336-.444-1.128-1.716-1.128-1.656 0-3.012 1.32-3.348 3.336-.348 2.04.66 3.204 2.256 3.192 1.236.012 1.776-.708 2.052-1.08.012 0 .012-.012.024-.024h.084l-.204 1.332c-.18 1.092-1.068 1.584-2.112 1.584-1.152 0-1.464-.564-1.656-.936-.012-.024-.024-.036-.036-.048l-.9.552c.3.696.996 1.32 2.472 1.32zm.528-3.6c-1.272 0-1.728-.96-1.5-2.316.216-1.332.984-2.4 2.268-2.412 1.212.012 1.752.996 1.524 2.412-.252 1.452-1.092 2.316-2.292 2.316z"/><path id="k" d="M231.491 85.264h-1.032l-2.172 1.464v1.068l2.112-1.416h.06V94h1.032v-8.736z"/><path id="l" d="M295.565 94h5.508v-.936h-4.056v-.072l1.956-2.1c1.5-1.608 1.944-2.352 1.944-3.312 0-1.356-1.092-2.424-2.628-2.424-1.524 0-2.688 1.044-2.688 2.58h1.008c0-.996.636-1.656 1.644-1.656.948 0 1.668.576 1.668 1.5 0 .804-.48 1.392-1.476 2.496l-2.88 3.168V94z"/><path id="m" d="M527.339 92.212h4.092V94h1.008v-1.788h1.2v-.948h-1.2v-6h-1.272l-3.828 6.072v.876zm4.092-.948h-2.964v-.06l2.904-4.584h.06v4.644z"/><path id="n" d="M25.985 122.496c.912 0 1.536-.48 1.92-1.5l2.784-7.548h-1.08l-1.812 5.232h-.072l-1.8-5.232h-1.092l2.412 6.588-.192.564c-.336.936-.78 1.08-1.452.924l-.096-.024-.264.876c.108.06.396.12.744.12z"/><path id="o" d="M123.101 120.144c1.452 0 2.556-.888 2.916-2.052h-1.008a1.86 1.86 0 0 1-1.752 1.152c-1.188 0-1.8-.996-1.548-2.508.24-1.488 1.188-2.472 2.364-2.472.888 0 1.32.552 1.38 1.152h1.008c.036-1.224-.876-2.052-2.256-2.052-1.776 0-3.18 1.404-3.516 3.396-.324 1.968.576 3.384 2.412 3.384z"/><path id="p" d="M138.302 113.448h-1.404l.264-1.56h-.996l-.264 1.56h-.984l-.144.852h.984l-.672 4.092c-.168 1.008.444 1.692 1.5 1.692a2.4 2.4 0 0 0 .768-.12l-.06-.9c-.18.036-.312.048-.456.048-.6 0-.828-.312-.708-.984l.624-3.828h1.404l.144-.852z"/><path id="q" d="M141.191 120.144c1.272 0 1.824-.792 2.1-1.152h.132l-.168 1.008h.96l1.092-6.552h-.996l-.18 1.044h-.084c-.168-.336-.432-1.128-1.704-1.128-1.656 0-3.024 1.32-3.36 3.384-.348 2.076.588 3.396 2.208 3.396zm.3-.9c-1.26 0-1.728-1.116-1.5-2.508s1.044-2.472 2.316-2.472c1.236 0 1.716.996 1.464 2.472-.24 1.476-1.068 2.508-2.28 2.508z"/><path id="r" d="M231.491 111.264h-1.032l-2.172 1.464v1.068l2.112-1.416h.06V120h1.032v-8.736z"/><path id="s" d="M295.565 120h5.508v-.936h-4.056v-.072l1.956-2.1c1.5-1.608 1.944-2.352 1.944-3.312 0-1.356-1.092-2.424-2.628-2.424-1.524 0-2.688 1.044-2.688 2.58h1.008c0-.996.636-1.656 1.644-1.656.948 0 1.668.576 1.668 1.5 0 .804-.48 1.392-1.476 2.496l-2.88 3.168V120z"/><path id="t" d="M527.339 118.212h4.092V120h1.008v-1.788h1.2v-.948h-1.2v-6h-1.272l-3.828 6.072v.876zm4.092-.948h-2.964v-.06l2.904-4.584h.06v4.644z"/><path id="u" d="M33.849 140.924c-.312-.924-1.02-1.56-2.316-1.56-1.38 0-2.412.792-2.412 1.896 0 .9.54 1.5 1.752 1.788l1.092.252c.648.168.972.468.972.936 0 .552-.612 1.02-1.536 1.02-.828 0-1.344-.36-1.524-1.056l-.948.228c.228 1.116 1.14 1.716 2.484 1.716 1.524 0 2.556-.84 2.556-1.968 0-.912-.576-1.488-1.74-1.776l-.972-.228c-.768-.192-1.128-.456-1.128-.96 0-.564.6-.972 1.404-.972.876 0 1.236.492 1.416.936l.9-.252z"/><path id="v" d="M108.824 146.144c1.26-.012 1.824-.792 2.1-1.152h.12l-.168 1.008h.972l1.44-8.736h-1.008l-.528 3.228h-.084c-.168-.336-.432-1.128-1.704-1.128-1.656 0-3.012 1.32-3.36 3.384-.336 2.076.588 3.384 2.22 3.396zm.252-.9c-1.26-.012-1.692-1.116-1.452-2.508.216-1.392.996-2.46 2.268-2.472 1.236.012 1.752.996 1.512 2.472-.252 1.476-1.116 2.496-2.328 2.508z"/><path id="w" d="M231.491 137.264h-1.032l-2.172 1.464v1.068l2.112-1.416h.06V146h1.032v-8.736z"/><path id="x" d="M295.565 146h5.508v-.936h-4.056v-.072l1.956-2.1c1.5-1.608 1.944-2.352 1.944-3.312 0-1.356-1.092-2.424-2.628-2.424-1.524 0-2.688 1.044-2.688 2.58h1.008c0-.996.636-1.656 1.644-1.656.948 0 1.668.576 1.668 1.5 0 .804-.48 1.392-1.476 2.496l-2.88 3.168V146z"/><path id="y" d="M527.339 144.212h4.092V146h1.008v-1.788h1.2v-.948h-1.2v-6h-1.272l-3.828 6.072v.876zm4.092-.948h-2.964v-.06l2.904-4.584h.06v4.644z"/><path id="z" d="M731.083 163.381h-1.032l-2.172 1.464v1.068l2.112-1.416h.06v7.62h1.032v-8.736z"/><path id="AA" d="M809.021 172.189c.42 0 .768-.348.768-.768s-.348-.768-.768-.768-.768.348-.768.768.348.768.768.768z"/><path id="AB" d="M291.491 189.264h-1.032l-2.172 1.464v1.068l2.112-1.416h.06V198h1.032v-8.736z"/><path id="AC" d="M295.565 198h5.508v-.936h-4.056v-.072l1.956-2.1c1.5-1.608 1.944-2.352 1.944-3.312 0-1.356-1.092-2.424-2.628-2.424-1.524 0-2.688 1.044-2.688 2.58h1.008c0-.996.636-1.656 1.644-1.656.948 0 1.668.576 1.668 1.5 0 .804-.48 1.392-1.476 2.496l-2.88 3.168V198z"/><path id="AD" d="M624.339 196.212h4.092V198h1.008v-1.788h1.2v-.948h-1.2v-6h-1.272l-3.828 6.072v.876zm4.092-.948h-2.964v-.06l2.904-4.584h.06v4.644z"/></defs></svg>